<?xml version="1.0" encoding="utf-8" standalone="no"?>
<!DOCTYPE svg PUBLIC "-//W3C//DTD SVG 1.1//EN"
  "http://www.w3.org/Graphics/SVG/1.1/DTD/svg11.dtd">
<!-- Created with matplotlib (http://matplotlib.sourceforge.net/) -->
<svg height="432pt" version="1.1" viewBox="0 0 576 432" width="576pt" xmlns="http://www.w3.org/2000/svg" xmlns:xlink="http://www.w3.org/1999/xlink">
 <defs>
  <style type="text/css">
*{stroke-linecap:square;stroke-linejoin:round;}
  </style>
 </defs>
 <g id="figure_1">
  <g id="patch_1">
   <path d="
M0 432
L576 432
L576 0
L0 0
z
" style="fill:#ffffff;"/>
  </g>
  <g id="axes_1">
   <g id="patch_2">
    <path d="
M72 388.8
L518.4 388.8
L518.4 43.2
L72 43.2
z
" style="fill:#ffffff;"/>
   </g>
   <g id="patch_3">
    <path clip-path="url(#p7ff5b81e1d)" d="
M145.717 388.8
L148.796 388.8
L148.796 388.454
L145.717 388.454
z
" style="fill:#0000ff;stroke:#000000;"/>
   </g>
   <g id="patch_4">
    <path clip-path="url(#p7ff5b81e1d)" d="
M148.796 388.8
L151.876 388.8
L151.876 388.109
L148.796 388.109
z
" style="fill:#0000ff;stroke:#000000;"/>
   </g>
   <g id="patch_5">
    <path clip-path="url(#p7ff5b81e1d)" d="
M151.876 388.8
L154.956 388.8
L154.956 388.454
L151.876 388.454
z
" style="fill:#0000ff;stroke:#000000;"/>
   </g>
   <g id="patch_6">
    <path clip-path="url(#p7ff5b81e1d)" d="
M154.956 388.8
L158.035 388.8
L158.035 388.109
L154.956 388.109
z
" style="fill:#0000ff;stroke:#000000;"/>
   </g>
   <g id="patch_7">
    <path clip-path="url(#p7ff5b81e1d)" d="
M158.035 388.8
L161.115 388.8
L161.115 386.035
L158.035 386.035
z
" style="fill:#0000ff;stroke:#000000;"/>
   </g>
   <g id="patch_8">
    <path clip-path="url(#p7ff5b81e1d)" d="
M161.115 388.8
L164.194 388.8
L164.194 387.072
L161.115 387.072
z
" style="fill:#0000ff;stroke:#000000;"/>
   </g>
   <g id="patch_9">
    <path clip-path="url(#p7ff5b81e1d)" d="
M164.194 388.8
L167.274 388.8
L167.274 386.035
L164.194 386.035
z
" style="fill:#0000ff;stroke:#000000;"/>
   </g>
   <g id="patch_10">
    <path clip-path="url(#p7ff5b81e1d)" d="
M167.274 388.8
L170.353 388.8
L170.353 387.418
L167.274 387.418
z
" style="fill:#0000ff;stroke:#000000;"/>
   </g>
   <g id="patch_11">
    <path clip-path="url(#p7ff5b81e1d)" d="
M170.353 388.8
L173.433 388.8
L173.433 385.69
L170.353 385.69
z
" style="fill:#0000ff;stroke:#000000;"/>
   </g>
   <g id="patch_12">
    <path clip-path="url(#p7ff5b81e1d)" d="
M173.433 388.8
L176.513 388.8
L176.513 384.998
L173.433 384.998
z
" style="fill:#0000ff;stroke:#000000;"/>
   </g>
   <g id="patch_13">
    <path clip-path="url(#p7ff5b81e1d)" d="
M176.513 388.8
L179.592 388.8
L179.592 385.69
L176.513 385.69
z
" style="fill:#0000ff;stroke:#000000;"/>
   </g>
   <g id="patch_14">
    <path clip-path="url(#p7ff5b81e1d)" d="
M179.592 388.8
L182.672 388.8
L182.672 382.579
L179.592 382.579
z
" style="fill:#0000ff;stroke:#000000;"/>
   </g>
   <g id="patch_15">
    <path clip-path="url(#p7ff5b81e1d)" d="
M182.672 388.8
L185.751 388.8
L185.751 382.234
L182.672 382.234
z
" style="fill:#0000ff;stroke:#000000;"/>
   </g>
   <g id="patch_16">
    <path clip-path="url(#p7ff5b81e1d)" d="
M185.751 388.8
L188.831 388.8
L188.831 384.307
L185.751 384.307
z
" style="fill:#0000ff;stroke:#000000;"/>
   </g>
   <g id="patch_17">
    <path clip-path="url(#p7ff5b81e1d)" d="
M188.831 388.8
L191.91 388.8
L191.91 379.814
L188.831 379.814
z
" style="fill:#0000ff;stroke:#000000;"/>
   </g>
   <g id="patch_18">
    <path clip-path="url(#p7ff5b81e1d)" d="
M191.91 388.8
L194.99 388.8
L194.99 380.851
L191.91 380.851
z
" style="fill:#0000ff;stroke:#000000;"/>
   </g>
   <g id="patch_19">
    <path clip-path="url(#p7ff5b81e1d)" d="
M194.99 388.8
L198.07 388.8
L198.07 375.667
L194.99 375.667
z
" style="fill:#0000ff;stroke:#000000;"/>
   </g>
   <g id="patch_20">
    <path clip-path="url(#p7ff5b81e1d)" d="
M198.07 388.8
L201.149 388.8
L201.149 376.013
L198.07 376.013
z
" style="fill:#0000ff;stroke:#000000;"/>
   </g>
   <g id="patch_21">
    <path clip-path="url(#p7ff5b81e1d)" d="
M201.149 388.8
L204.229 388.8
L204.229 374.63
L201.149 374.63
z
" style="fill:#0000ff;stroke:#000000;"/>
   </g>
   <g id="patch_22">
    <path clip-path="url(#p7ff5b81e1d)" d="
M204.229 388.8
L207.308 388.8
L207.308 371.52
L204.229 371.52
z
" style="fill:#0000ff;stroke:#000000;"/>
   </g>
   <g id="patch_23">
    <path clip-path="url(#p7ff5b81e1d)" d="
M207.308 388.8
L210.388 388.8
L210.388 368.755
L207.308 368.755
z
" style="fill:#0000ff;stroke:#000000;"/>
   </g>
   <g id="patch_24">
    <path clip-path="url(#p7ff5b81e1d)" d="
M210.388 388.8
L213.467 388.8
L213.467 364.954
L210.388 364.954
z
" style="fill:#0000ff;stroke:#000000;"/>
   </g>
   <g id="patch_25">
    <path clip-path="url(#p7ff5b81e1d)" d="
M213.467 388.8
L216.547 388.8
L216.547 361.498
L213.467 361.498
z
" style="fill:#0000ff;stroke:#000000;"/>
   </g>
   <g id="patch_26">
    <path clip-path="url(#p7ff5b81e1d)" d="
M216.547 388.8
L219.627 388.8
L219.627 354.586
L216.547 354.586
z
" style="fill:#0000ff;stroke:#000000;"/>
   </g>
   <g id="patch_27">
    <path clip-path="url(#p7ff5b81e1d)" d="
M219.627 388.8
L222.706 388.8
L222.706 355.622
L219.627 355.622
z
" style="fill:#0000ff;stroke:#000000;"/>
   </g>
   <g id="patch_28">
    <path clip-path="url(#p7ff5b81e1d)" d="
M222.706 388.8
L225.786 388.8
L225.786 344.909
L222.706 344.909
z
" style="fill:#0000ff;stroke:#000000;"/>
   </g>
   <g id="patch_29">
    <path clip-path="url(#p7ff5b81e1d)" d="
M225.786 388.8
L228.865 388.8
L228.865 347.674
L225.786 347.674
z
" style="fill:#0000ff;stroke:#000000;"/>
   </g>
   <g id="patch_30">
    <path clip-path="url(#p7ff5b81e1d)" d="
M228.865 388.8
L231.945 388.8
L231.945 332.467
L228.865 332.467
z
" style="fill:#0000ff;stroke:#000000;"/>
   </g>
   <g id="patch_31">
    <path clip-path="url(#p7ff5b81e1d)" d="
M231.945 388.8
L235.024 388.8
L235.024 336.96
L231.945 336.96
z
" style="fill:#0000ff;stroke:#000000;"/>
   </g>
   <g id="patch_32">
    <path clip-path="url(#p7ff5b81e1d)" d="
M235.024 388.8
L238.104 388.8
L238.104 323.482
L235.024 323.482
z
" style="fill:#0000ff;stroke:#000000;"/>
   </g>
   <g id="patch_33">
    <path clip-path="url(#p7ff5b81e1d)" d="
M238.104 388.8
L241.184 388.8
L241.184 314.842
L238.104 314.842
z
" style="fill:#0000ff;stroke:#000000;"/>
   </g>
   <g id="patch_34">
    <path clip-path="url(#p7ff5b81e1d)" d="
M241.184 388.8
L244.263 388.8
L244.263 305.856
L241.184 305.856
z
" style="fill:#0000ff;stroke:#000000;"/>
   </g>
   <g id="patch_35">
    <path clip-path="url(#p7ff5b81e1d)" d="
M244.263 388.8
L247.343 388.8
L247.343 288.576
L244.263 288.576
z
" style="fill:#0000ff;stroke:#000000;"/>
   </g>
   <g id="patch_36">
    <path clip-path="url(#p7ff5b81e1d)" d="
M247.343 388.8
L250.422 388.8
L250.422 287.885
L247.343 287.885
z
" style="fill:#0000ff;stroke:#000000;"/>
   </g>
   <g id="patch_37">
    <path clip-path="url(#p7ff5b81e1d)" d="
M250.422 388.8
L253.502 388.8
L253.502 251.597
L250.422 251.597
z
" style="fill:#0000ff;stroke:#000000;"/>
   </g>
   <g id="patch_38">
    <path clip-path="url(#p7ff5b81e1d)" d="
M253.502 388.8
L256.581 388.8
L256.581 243.302
L253.502 243.302
z
" style="fill:#0000ff;stroke:#000000;"/>
   </g>
   <g id="patch_39">
    <path clip-path="url(#p7ff5b81e1d)" d="
M256.581 388.8
L259.661 388.8
L259.661 239.846
L256.581 239.846
z
" style="fill:#0000ff;stroke:#000000;"/>
   </g>
   <g id="patch_40">
    <path clip-path="url(#p7ff5b81e1d)" d="
M259.661 388.8
L262.741 388.8
L262.741 222.566
L259.661 222.566
z
" style="fill:#0000ff;stroke:#000000;"/>
   </g>
   <g id="patch_41">
    <path clip-path="url(#p7ff5b81e1d)" d="
M262.741 388.8
L265.82 388.8
L265.82 189.389
L262.741 189.389
z
" style="fill:#0000ff;stroke:#000000;"/>
   </g>
   <g id="patch_42">
    <path clip-path="url(#p7ff5b81e1d)" d="
M265.82 388.8
L268.9 388.8
L268.9 177.638
L265.82 177.638
z
" style="fill:#0000ff;stroke:#000000;"/>
   </g>
   <g id="patch_43">
    <path clip-path="url(#p7ff5b81e1d)" d="
M268.9 388.8
L271.979 388.8
L271.979 179.021
L268.9 179.021
z
" style="fill:#0000ff;stroke:#000000;"/>
   </g>
   <g id="patch_44">
    <path clip-path="url(#p7ff5b81e1d)" d="
M271.979 388.8
L275.059 388.8
L275.059 144.806
L271.979 144.806
z
" style="fill:#0000ff;stroke:#000000;"/>
   </g>
   <g id="patch_45">
    <path clip-path="url(#p7ff5b81e1d)" d="
M275.059 388.8
L278.138 388.8
L278.138 120.269
L275.059 120.269
z
" style="fill:#0000ff;stroke:#000000;"/>
   </g>
   <g id="patch_46">
    <path clip-path="url(#p7ff5b81e1d)" d="
M278.138 388.8
L281.218 388.8
L281.218 123.379
L278.138 123.379
z
" style="fill:#0000ff;stroke:#000000;"/>
   </g>
   <g id="patch_47">
    <path clip-path="url(#p7ff5b81e1d)" d="
M281.218 388.8
L284.297 388.8
L284.297 95.3856
L281.218 95.3856
z
" style="fill:#0000ff;stroke:#000000;"/>
   </g>
   <g id="patch_48">
    <path clip-path="url(#p7ff5b81e1d)" d="
M284.297 388.8
L287.377 388.8
L287.377 85.7088
L284.297 85.7088
z
" style="fill:#0000ff;stroke:#000000;"/>
   </g>
   <g id="patch_49">
    <path clip-path="url(#p7ff5b81e1d)" d="
M287.377 388.8
L290.457 388.8
L290.457 87.7824
L287.377 87.7824
z
" style="fill:#0000ff;stroke:#000000;"/>
   </g>
   <g id="patch_50">
    <path clip-path="url(#p7ff5b81e1d)" d="
M290.457 388.8
L293.536 388.8
L293.536 81.5616
L290.457 81.5616
z
" style="fill:#0000ff;stroke:#000000;"/>
   </g>
   <g id="patch_51">
    <path clip-path="url(#p7ff5b81e1d)" d="
M293.536 388.8
L296.616 388.8
L296.616 70.1568
L293.536 70.1568
z
" style="fill:#0000ff;stroke:#000000;"/>
   </g>
   <g id="patch_52">
    <path clip-path="url(#p7ff5b81e1d)" d="
M296.616 388.8
L299.695 388.8
L299.695 72.2304
L296.616 72.2304
z
" style="fill:#0000ff;stroke:#000000;"/>
   </g>
   <g id="patch_53">
    <path clip-path="url(#p7ff5b81e1d)" d="
M299.695 388.8
L302.775 388.8
L302.775 66.0096
L299.695 66.0096
z
" style="fill:#0000ff;stroke:#000000;"/>
   </g>
   <g id="patch_54">
    <path clip-path="url(#p7ff5b81e1d)" d="
M302.775 388.8
L305.854 388.8
L305.854 95.3856
L302.775 95.3856
z
" style="fill:#0000ff;stroke:#000000;"/>
   </g>
   <g id="patch_55">
    <path clip-path="url(#p7ff5b81e1d)" d="
M305.854 388.8
L308.934 388.8
L308.934 85.7088
L305.854 85.7088
z
" style="fill:#0000ff;stroke:#000000;"/>
   </g>
   <g id="patch_56">
    <path clip-path="url(#p7ff5b81e1d)" d="
M308.934 388.8
L312.014 388.8
L312.014 98.8416
L308.934 98.8416
z
" style="fill:#0000ff;stroke:#000000;"/>
   </g>
   <g id="patch_57">
    <path clip-path="url(#p7ff5b81e1d)" d="
M312.014 388.8
L315.093 388.8
L315.093 126.835
L312.014 126.835
z
" style="fill:#0000ff;stroke:#000000;"/>
   </g>
   <g id="patch_58">
    <path clip-path="url(#p7ff5b81e1d)" d="
M315.093 388.8
L318.173 388.8
L318.173 121.997
L315.093 121.997
z
" style="fill:#0000ff;stroke:#000000;"/>
   </g>
   <g id="patch_59">
    <path clip-path="url(#p7ff5b81e1d)" d="
M318.173 388.8
L321.252 388.8
L321.252 159.667
L318.173 159.667
z
" style="fill:#0000ff;stroke:#000000;"/>
   </g>
   <g id="patch_60">
    <path clip-path="url(#p7ff5b81e1d)" d="
M321.252 388.8
L324.332 388.8
L324.332 153.792
L321.252 153.792
z
" style="fill:#0000ff;stroke:#000000;"/>
   </g>
   <g id="patch_61">
    <path clip-path="url(#p7ff5b81e1d)" d="
M324.332 388.8
L327.411 388.8
L327.411 180.749
L324.332 180.749
z
" style="fill:#0000ff;stroke:#000000;"/>
   </g>
   <g id="patch_62">
    <path clip-path="url(#p7ff5b81e1d)" d="
M327.411 388.8
L330.491 388.8
L330.491 190.08
L327.411 190.08
z
" style="fill:#0000ff;stroke:#000000;"/>
   </g>
   <g id="patch_63">
    <path clip-path="url(#p7ff5b81e1d)" d="
M330.491 388.8
L333.571 388.8
L333.571 220.147
L330.491 220.147
z
" style="fill:#0000ff;stroke:#000000;"/>
   </g>
   <g id="patch_64">
    <path clip-path="url(#p7ff5b81e1d)" d="
M333.571 388.8
L336.65 388.8
L336.65 236.736
L333.571 236.736
z
" style="fill:#0000ff;stroke:#000000;"/>
   </g>
   <g id="patch_65">
    <path clip-path="url(#p7ff5b81e1d)" d="
M336.65 388.8
L339.73 388.8
L339.73 271.296
L336.65 271.296
z
" style="fill:#0000ff;stroke:#000000;"/>
   </g>
   <g id="patch_66">
    <path clip-path="url(#p7ff5b81e1d)" d="
M339.73 388.8
L342.809 388.8
L342.809 273.37
L339.73 273.37
z
" style="fill:#0000ff;stroke:#000000;"/>
   </g>
   <g id="patch_67">
    <path clip-path="url(#p7ff5b81e1d)" d="
M342.809 388.8
L345.889 388.8
L345.889 284.774
L342.809 284.774
z
" style="fill:#0000ff;stroke:#000000;"/>
   </g>
   <g id="patch_68">
    <path clip-path="url(#p7ff5b81e1d)" d="
M345.889 388.8
L348.968 388.8
L348.968 306.547
L345.889 306.547
z
" style="fill:#0000ff;stroke:#000000;"/>
   </g>
   <g id="patch_69">
    <path clip-path="url(#p7ff5b81e1d)" d="
M348.968 388.8
L352.048 388.8
L352.048 300.672
L348.968 300.672
z
" style="fill:#0000ff;stroke:#000000;"/>
   </g>
   <g id="patch_70">
    <path clip-path="url(#p7ff5b81e1d)" d="
M352.048 388.8
L355.128 388.8
L355.128 320.717
L352.048 320.717
z
" style="fill:#0000ff;stroke:#000000;"/>
   </g>
   <g id="patch_71">
    <path clip-path="url(#p7ff5b81e1d)" d="
M355.128 388.8
L358.207 388.8
L358.207 326.246
L355.128 326.246
z
" style="fill:#0000ff;stroke:#000000;"/>
   </g>
   <g id="patch_72">
    <path clip-path="url(#p7ff5b81e1d)" d="
M358.207 388.8
L361.287 388.8
L361.287 331.43
L358.207 331.43
z
" style="fill:#0000ff;stroke:#000000;"/>
   </g>
   <g id="patch_73">
    <path clip-path="url(#p7ff5b81e1d)" d="
M361.287 388.8
L364.366 388.8
L364.366 343.872
L361.287 343.872
z
" style="fill:#0000ff;stroke:#000000;"/>
   </g>
   <g id="patch_74">
    <path clip-path="url(#p7ff5b81e1d)" d="
M364.366 388.8
L367.446 388.8
L367.446 356.314
L364.366 356.314
z
" style="fill:#0000ff;stroke:#000000;"/>
   </g>
   <g id="patch_75">
    <path clip-path="url(#p7ff5b81e1d)" d="
M367.446 388.8
L370.525 388.8
L370.525 359.77
L367.446 359.77
z
" style="fill:#0000ff;stroke:#000000;"/>
   </g>
   <g id="patch_76">
    <path clip-path="url(#p7ff5b81e1d)" d="
M370.525 388.8
L373.605 388.8
L373.605 365.299
L370.525 365.299
z
" style="fill:#0000ff;stroke:#000000;"/>
   </g>
   <g id="patch_77">
    <path clip-path="url(#p7ff5b81e1d)" d="
M373.605 388.8
L376.685 388.8
L376.685 367.373
L373.605 367.373
z
" style="fill:#0000ff;stroke:#000000;"/>
   </g>
   <g id="patch_78">
    <path clip-path="url(#p7ff5b81e1d)" d="
M376.685 388.8
L379.764 388.8
L379.764 369.101
L376.685 369.101
z
" style="fill:#0000ff;stroke:#000000;"/>
   </g>
   <g id="patch_79">
    <path clip-path="url(#p7ff5b81e1d)" d="
M379.764 388.8
L382.844 388.8
L382.844 376.358
L379.764 376.358
z
" style="fill:#0000ff;stroke:#000000;"/>
   </g>
   <g id="patch_80">
    <path clip-path="url(#p7ff5b81e1d)" d="
M382.844 388.8
L385.923 388.8
L385.923 375.667
L382.844 375.667
z
" style="fill:#0000ff;stroke:#000000;"/>
   </g>
   <g id="patch_81">
    <path clip-path="url(#p7ff5b81e1d)" d="
M385.923 388.8
L389.003 388.8
L389.003 377.05
L385.923 377.05
z
" style="fill:#0000ff;stroke:#000000;"/>
   </g>
   <g id="patch_82">
    <path clip-path="url(#p7ff5b81e1d)" d="
M389.003 388.8
L392.082 388.8
L392.082 380.16
L389.003 380.16
z
" style="fill:#0000ff;stroke:#000000;"/>
   </g>
   <g id="patch_83">
    <path clip-path="url(#p7ff5b81e1d)" d="
M392.082 388.8
L395.162 388.8
L395.162 383.27
L392.082 383.27
z
" style="fill:#0000ff;stroke:#000000;"/>
   </g>
   <g id="patch_84">
    <path clip-path="url(#p7ff5b81e1d)" d="
M395.162 388.8
L398.242 388.8
L398.242 381.542
L395.162 381.542
z
" style="fill:#0000ff;stroke:#000000;"/>
   </g>
   <g id="patch_85">
    <path clip-path="url(#p7ff5b81e1d)" d="
M398.242 388.8
L401.321 388.8
L401.321 382.234
L398.242 382.234
z
" style="fill:#0000ff;stroke:#000000;"/>
   </g>
   <g id="patch_86">
    <path clip-path="url(#p7ff5b81e1d)" d="
M401.321 388.8
L404.401 388.8
L404.401 386.381
L401.321 386.381
z
" style="fill:#0000ff;stroke:#000000;"/>
   </g>
   <g id="patch_87">
    <path clip-path="url(#p7ff5b81e1d)" d="
M404.401 388.8
L407.48 388.8
L407.48 386.035
L404.401 386.035
z
" style="fill:#0000ff;stroke:#000000;"/>
   </g>
   <g id="patch_88">
    <path clip-path="url(#p7ff5b81e1d)" d="
M407.48 388.8
L410.56 388.8
L410.56 387.418
L407.48 387.418
z
" style="fill:#0000ff;stroke:#000000;"/>
   </g>
   <g id="patch_89">
    <path clip-path="url(#p7ff5b81e1d)" d="
M410.56 388.8
L413.639 388.8
L413.639 385.69
L410.56 385.69
z
" style="fill:#0000ff;stroke:#000000;"/>
   </g>
   <g id="patch_90">
    <path clip-path="url(#p7ff5b81e1d)" d="
M413.639 388.8
L416.719 388.8
L416.719 387.072
L413.639 387.072
z
" style="fill:#0000ff;stroke:#000000;"/>
   </g>
   <g id="patch_91">
    <path clip-path="url(#p7ff5b81e1d)" d="
M416.719 388.8
L419.798 388.8
L419.798 386.381
L416.719 386.381
z
" style="fill:#0000ff;stroke:#000000;"/>
   </g>
   <g id="patch_92">
    <path clip-path="url(#p7ff5b81e1d)" d="
M419.798 388.8
L422.878 388.8
L422.878 388.454
L419.798 388.454
z
" style="fill:#0000ff;stroke:#000000;"/>
   </g>
   <g id="patch_93">
    <path clip-path="url(#p7ff5b81e1d)" d="
M422.878 388.8
L425.958 388.8
L425.958 388.109
L422.878 388.109
z
" style="fill:#0000ff;stroke:#000000;"/>
   </g>
   <g id="patch_94">
    <path clip-path="url(#p7ff5b81e1d)" d="
M425.958 388.8
L429.037 388.8
L429.037 387.072
L425.958 387.072
z
" style="fill:#0000ff;stroke:#000000;"/>
   </g>
   <g id="patch_95">
    <path clip-path="url(#p7ff5b81e1d)" d="
M429.037 388.8
L432.117 388.8
L432.117 388.109
L429.037 388.109
z
" style="fill:#0000ff;stroke:#000000;"/>
   </g>
   <g id="patch_96">
    <path clip-path="url(#p7ff5b81e1d)" d="
M432.117 388.8
L435.196 388.8
L435.196 388.109
L432.117 388.109
z
" style="fill:#0000ff;stroke:#000000;"/>
   </g>
   <g id="patch_97">
    <path clip-path="url(#p7ff5b81e1d)" d="
M435.196 388.8
L438.276 388.8
L438.276 388.109
L435.196 388.109
z
" style="fill:#0000ff;stroke:#000000;"/>
   </g>
   <g id="patch_98">
    <path clip-path="url(#p7ff5b81e1d)" d="
M438.276 388.8
L441.355 388.8
L441.355 388.8
L438.276 388.8
z
" style="fill:#0000ff;stroke:#000000;"/>
   </g>
   <g id="patch_99">
    <path clip-path="url(#p7ff5b81e1d)" d="
M441.355 388.8
L444.435 388.8
L444.435 388.454
L441.355 388.454
z
" style="fill:#0000ff;stroke:#000000;"/>
   </g>
   <g id="patch_100">
    <path clip-path="url(#p7ff5b81e1d)" d="
M444.435 388.8
L447.515 388.8
L447.515 388.454
L444.435 388.454
z
" style="fill:#0000ff;stroke:#000000;"/>
   </g>
   <g id="patch_101">
    <path clip-path="url(#p7ff5b81e1d)" d="
M447.515 388.8
L450.594 388.8
L450.594 388.8
L447.515 388.8
z
" style="fill:#0000ff;stroke:#000000;"/>
   </g>
   <g id="patch_102">
    <path clip-path="url(#p7ff5b81e1d)" d="
M450.594 388.8
L453.674 388.8
L453.674 388.454
L450.594 388.454
z
" style="fill:#0000ff;stroke:#000000;"/>
   </g>
   <g id="matplotlib.axis_1">
    <g id="xtick_1">
     <g id="line2d_1">
      <defs>
       <path d="
M0 0
L0 -4" id="m0012dd4eef" style="stroke:#000000;stroke-linecap:butt;stroke-width:0.5;"/>
      </defs>
      <g>
       <use style="stroke:#000000;stroke-linecap:butt;stroke-width:0.5;" x="72.0" xlink:href="#m0012dd4eef" y="388.8"/>
      </g>
     </g>
     <g id="line2d_2">
      <defs>
       <path d="
M0 0
L0 4" id="m476344969c" style="stroke:#000000;stroke-linecap:butt;stroke-width:0.5;"/>
      </defs>
      <g>
       <use style="stroke:#000000;stroke-linecap:butt;stroke-width:0.5;" x="72.0" xlink:href="#m476344969c" y="43.2"/>
      </g>
     </g>
     <g id="text_1">
      <!-- −0.3 -->
      <defs>
       <path d="
M31.7812 66.4062
Q24.1719 66.4062 20.3281 58.9062
Q16.5 51.4219 16.5 36.375
Q16.5 21.3906 20.3281 13.8906
Q24.1719 6.39062 31.7812 6.39062
Q39.4531 6.39062 43.2812 13.8906
Q47.125 21.3906 47.125 36.375
Q47.125 51.4219 43.2812 58.9062
Q39.4531 66.4062 31.7812 66.4062
M31.7812 74.2188
Q44.0469 74.2188 50.5156 64.5156
Q56.9844 54.8281 56.9844 36.375
Q56.9844 17.9688 50.5156 8.26562
Q44.0469 -1.42188 31.7812 -1.42188
Q19.5312 -1.42188 13.0625 8.26562
Q6.59375 17.9688 6.59375 36.375
Q6.59375 54.8281 13.0625 64.5156
Q19.5312 74.2188 31.7812 74.2188" id="DejaVuSans-30"/>
       <path d="
M40.5781 39.3125
Q47.6562 37.7969 51.625 33
Q55.6094 28.2188 55.6094 21.1875
Q55.6094 10.4062 48.1875 4.48438
Q40.7656 -1.42188 27.0938 -1.42188
Q22.5156 -1.42188 17.6562 -0.515625
Q12.7969 0.390625 7.625 2.20312
L7.625 11.7188
Q11.7188 9.32812 16.5938 8.10938
Q21.4844 6.89062 26.8125 6.89062
Q36.0781 6.89062 40.9375 10.5469
Q45.7969 14.2031 45.7969 21.1875
Q45.7969 27.6406 41.2812 31.2656
Q36.7656 34.9062 28.7188 34.9062
L20.2188 34.9062
L20.2188 43.0156
L29.1094 43.0156
Q36.375 43.0156 40.2344 45.9219
Q44.0938 48.8281 44.0938 54.2969
Q44.0938 59.9062 40.1094 62.9062
Q36.1406 65.9219 28.7188 65.9219
Q24.6562 65.9219 20.0156 65.0312
Q15.375 64.1562 9.8125 62.3125
L9.8125 71.0938
Q15.4375 72.6562 20.3438 73.4375
Q25.25 74.2188 29.5938 74.2188
Q40.8281 74.2188 47.3594 69.1094
Q53.9062 64.0156 53.9062 55.3281
Q53.9062 49.2656 50.4375 45.0938
Q46.9688 40.9219 40.5781 39.3125" id="DejaVuSans-33"/>
       <path d="
M10.6875 12.4062
L21 12.4062
L21 0
L10.6875 0
z
" id="DejaVuSans-2e"/>
       <path d="
M10.5938 35.5
L73.1875 35.5
L73.1875 27.2031
L10.5938 27.2031
z
" id="DejaVuSans-2212"/>
      </defs>
      <g transform="translate(58.546875 401.70625)scale(0.12 -0.12)">
       <use xlink:href="#DejaVuSans-2212"/>
       <use x="83.7890625" xlink:href="#DejaVuSans-30"/>
       <use x="147.412109375" xlink:href="#DejaVuSans-2e"/>
       <use x="179.19921875" xlink:href="#DejaVuSans-33"/>
      </g>
     </g>
    </g>
    <g id="xtick_2">
     <g id="line2d_3">
      <g>
       <use style="stroke:#000000;stroke-linecap:butt;stroke-width:0.5;" x="146.4" xlink:href="#m0012dd4eef" y="388.8"/>
      </g>
     </g>
     <g id="line2d_4">
      <g>
       <use style="stroke:#000000;stroke-linecap:butt;stroke-width:0.5;" x="146.4" xlink:href="#m476344969c" y="43.2"/>
      </g>
     </g>
     <g id="text_2">
      <!-- −0.2 -->
      <defs>
       <path d="
M19.1875 8.29688
L53.6094 8.29688
L53.6094 0
L7.32812 0
L7.32812 8.29688
Q12.9375 14.1094 22.625 23.8906
Q32.3281 33.6875 34.8125 36.5312
Q39.5469 41.8438 41.4219 45.5312
Q43.3125 49.2188 43.3125 52.7812
Q43.3125 58.5938 39.2344 62.25
Q35.1562 65.9219 28.6094 65.9219
Q23.9688 65.9219 18.8125 64.3125
Q13.6719 62.7031 7.8125 59.4219
L7.8125 69.3906
Q13.7656 71.7812 18.9375 73
Q24.125 74.2188 28.4219 74.2188
Q39.75 74.2188 46.4844 68.5469
Q53.2188 62.8906 53.2188 53.4219
Q53.2188 48.9219 51.5312 44.8906
Q49.8594 40.875 45.4062 35.4062
Q44.1875 33.9844 37.6406 27.2188
Q31.1094 20.4531 19.1875 8.29688" id="DejaVuSans-32"/>
      </defs>
      <g transform="translate(133.066875 401.70625)scale(0.12 -0.12)">
       <use xlink:href="#DejaVuSans-2212"/>
       <use x="83.7890625" xlink:href="#DejaVuSans-30"/>
       <use x="147.412109375" xlink:href="#DejaVuSans-2e"/>
       <use x="179.19921875" xlink:href="#DejaVuSans-32"/>
      </g>
     </g>
    </g>
    <g id="xtick_3">
     <g id="line2d_5">
      <g>
       <use style="stroke:#000000;stroke-linecap:butt;stroke-width:0.5;" x="220.8" xlink:href="#m0012dd4eef" y="388.8"/>
      </g>
     </g>
     <g id="line2d_6">
      <g>
       <use style="stroke:#000000;stroke-linecap:butt;stroke-width:0.5;" x="220.8" xlink:href="#m476344969c" y="43.2"/>
      </g>
     </g>
     <g id="text_3">
      <!-- −0.1 -->
      <defs>
       <path d="
M12.4062 8.29688
L28.5156 8.29688
L28.5156 63.9219
L10.9844 60.4062
L10.9844 69.3906
L28.4219 72.9062
L38.2812 72.9062
L38.2812 8.29688
L54.3906 8.29688
L54.3906 0
L12.4062 0
z
" id="DejaVuSans-31"/>
      </defs>
      <g transform="translate(207.42 401.70625)scale(0.12 -0.12)">
       <use xlink:href="#DejaVuSans-2212"/>
       <use x="83.7890625" xlink:href="#DejaVuSans-30"/>
       <use x="147.412109375" xlink:href="#DejaVuSans-2e"/>
       <use x="179.19921875" xlink:href="#DejaVuSans-31"/>
      </g>
     </g>
    </g>
    <g id="xtick_4">
     <g id="line2d_7">
      <g>
       <use style="stroke:#000000;stroke-linecap:butt;stroke-width:0.5;" x="295.2" xlink:href="#m0012dd4eef" y="388.8"/>
      </g>
     </g>
     <g id="line2d_8">
      <g>
       <use style="stroke:#000000;stroke-linecap:butt;stroke-width:0.5;" x="295.2" xlink:href="#m476344969c" y="43.2"/>
      </g>
     </g>
     <g id="text_4">
      <!-- 0.0 -->
      <g transform="translate(286.4521875 401.70625)scale(0.12 -0.12)">
       <use xlink:href="#DejaVuSans-30"/>
       <use x="63.623046875" xlink:href="#DejaVuSans-2e"/>
       <use x="95.41015625" xlink:href="#DejaVuSans-30"/>
      </g>
     </g>
    </g>
    <g id="xtick_5">
     <g id="line2d_9">
      <g>
       <use style="stroke:#000000;stroke-linecap:butt;stroke-width:0.5;" x="369.6" xlink:href="#m0012dd4eef" y="388.8"/>
      </g>
     </g>
     <g id="line2d_10">
      <g>
       <use style="stroke:#000000;stroke-linecap:butt;stroke-width:0.5;" x="369.6" xlink:href="#m476344969c" y="43.2"/>
      </g>
     </g>
     <g id="text_5">
      <!-- 0.1 -->
      <g transform="translate(361.0078125 401.70625)scale(0.12 -0.12)">
       <use xlink:href="#DejaVuSans-30"/>
       <use x="63.623046875" xlink:href="#DejaVuSans-2e"/>
       <use x="95.41015625" xlink:href="#DejaVuSans-31"/>
      </g>
     </g>
    </g>
    <g id="xtick_6">
     <g id="line2d_11">
      <g>
       <use style="stroke:#000000;stroke-linecap:butt;stroke-width:0.5;" x="444.0" xlink:href="#m0012dd4eef" y="388.8"/>
      </g>
     </g>
     <g id="line2d_12">
      <g>
       <use style="stroke:#000000;stroke-linecap:butt;stroke-width:0.5;" x="444.0" xlink:href="#m476344969c" y="43.2"/>
      </g>
     </g>
     <g id="text_6">
      <!-- 0.2 -->
      <g transform="translate(435.4546875 401.70625)scale(0.12 -0.12)">
       <use xlink:href="#DejaVuSans-30"/>
       <use x="63.623046875" xlink:href="#DejaVuSans-2e"/>
       <use x="95.41015625" xlink:href="#DejaVuSans-32"/>
      </g>
     </g>
    </g>
    <g id="xtick_7">
     <g id="line2d_13">
      <g>
       <use style="stroke:#000000;stroke-linecap:butt;stroke-width:0.5;" x="518.4" xlink:href="#m0012dd4eef" y="388.8"/>
      </g>
     </g>
     <g id="line2d_14">
      <g>
       <use style="stroke:#000000;stroke-linecap:butt;stroke-width:0.5;" x="518.4" xlink:href="#m476344969c" y="43.2"/>
      </g>
     </g>
     <g id="text_7">
      <!-- 0.3 -->
      <g transform="translate(509.7346875 401.70625)scale(0.12 -0.12)">
       <use xlink:href="#DejaVuSans-30"/>
       <use x="63.623046875" xlink:href="#DejaVuSans-2e"/>
       <use x="95.41015625" xlink:href="#DejaVuSans-33"/>
      </g>
     </g>
    </g>
    <g id="text_8">
     <!-- Correlation -->
     <defs>
      <path d="
M54.8906 33.0156
L54.8906 0
L45.9062 0
L45.9062 32.7188
Q45.9062 40.4844 42.875 44.3281
Q39.8438 48.1875 33.7969 48.1875
Q26.5156 48.1875 22.3125 43.5469
Q18.1094 38.9219 18.1094 30.9062
L18.1094 0
L9.07812 0
L9.07812 54.6875
L18.1094 54.6875
L18.1094 46.1875
Q21.3438 51.125 25.7031 53.5625
Q30.0781 56 35.7969 56
Q45.2188 56 50.0469 50.1719
Q54.8906 44.3438 54.8906 33.0156" id="DejaVuSans-6e"/>
      <path d="
M30.6094 48.3906
Q23.3906 48.3906 19.1875 42.75
Q14.9844 37.1094 14.9844 27.2969
Q14.9844 17.4844 19.1562 11.8438
Q23.3438 6.20312 30.6094 6.20312
Q37.7969 6.20312 41.9844 11.8594
Q46.1875 17.5312 46.1875 27.2969
Q46.1875 37.0156 41.9844 42.7031
Q37.7969 48.3906 30.6094 48.3906
M30.6094 56
Q42.3281 56 49.0156 48.375
Q55.7188 40.7656 55.7188 27.2969
Q55.7188 13.875 49.0156 6.21875
Q42.3281 -1.42188 30.6094 -1.42188
Q18.8438 -1.42188 12.1719 6.21875
Q5.51562 13.875 5.51562 27.2969
Q5.51562 40.7656 12.1719 48.375
Q18.8438 56 30.6094 56" id="DejaVuSans-6f"/>
      <path d="
M9.42188 54.6875
L18.4062 54.6875
L18.4062 0
L9.42188 0
z

M9.42188 75.9844
L18.4062 75.9844
L18.4062 64.5938
L9.42188 64.5938
z
" id="DejaVuSans-69"/>
      <path d="
M9.42188 75.9844
L18.4062 75.9844
L18.4062 0
L9.42188 0
z
" id="DejaVuSans-6c"/>
      <path d="
M34.2812 27.4844
Q23.3906 27.4844 19.1875 25
Q14.9844 22.5156 14.9844 16.5
Q14.9844 11.7188 18.1406 8.90625
Q21.2969 6.10938 26.7031 6.10938
Q34.1875 6.10938 38.7031 11.4062
Q43.2188 16.7031 43.2188 25.4844
L43.2188 27.4844
z

M52.2031 31.2031
L52.2031 0
L43.2188 0
L43.2188 8.29688
Q40.1406 3.32812 35.5469 0.953125
Q30.9531 -1.42188 24.3125 -1.42188
Q15.9219 -1.42188 10.9531 3.29688
Q6 8.01562 6 15.9219
Q6 25.1406 12.1719 29.8281
Q18.3594 34.5156 30.6094 34.5156
L43.2188 34.5156
L43.2188 35.4062
Q43.2188 41.6094 39.1406 45
Q35.0625 48.3906 27.6875 48.3906
Q23 48.3906 18.5469 47.2656
Q14.1094 46.1406 10.0156 43.8906
L10.0156 52.2031
Q14.9375 54.1094 19.5781 55.0469
Q24.2188 56 28.6094 56
Q40.4844 56 46.3438 49.8438
Q52.2031 43.7031 52.2031 31.2031" id="DejaVuSans-61"/>
      <path d="
M64.4062 67.2812
L64.4062 56.8906
Q59.4219 61.5312 53.7812 63.8125
Q48.1406 66.1094 41.7969 66.1094
Q29.2969 66.1094 22.6562 58.4688
Q16.0156 50.8281 16.0156 36.375
Q16.0156 21.9688 22.6562 14.3281
Q29.2969 6.6875 41.7969 6.6875
Q48.1406 6.6875 53.7812 8.98438
Q59.4219 11.2812 64.4062 15.9219
L64.4062 5.60938
Q59.2344 2.09375 53.4375 0.328125
Q47.6562 -1.42188 41.2188 -1.42188
Q24.6562 -1.42188 15.125 8.70312
Q5.60938 18.8438 5.60938 36.375
Q5.60938 53.9531 15.125 64.0781
Q24.6562 74.2188 41.2188 74.2188
Q47.75 74.2188 53.5312 72.4844
Q59.3281 70.75 64.4062 67.2812" id="DejaVuSans-43"/>
      <path d="
M18.3125 70.2188
L18.3125 54.6875
L36.8125 54.6875
L36.8125 47.7031
L18.3125 47.7031
L18.3125 18.0156
Q18.3125 11.3281 20.1406 9.42188
Q21.9688 7.51562 27.5938 7.51562
L36.8125 7.51562
L36.8125 0
L27.5938 0
Q17.1875 0 13.2344 3.875
Q9.28125 7.76562 9.28125 18.0156
L9.28125 47.7031
L2.6875 47.7031
L2.6875 54.6875
L9.28125 54.6875
L9.28125 70.2188
z
" id="DejaVuSans-74"/>
      <path d="
M56.2031 29.5938
L56.2031 25.2031
L14.8906 25.2031
Q15.4844 15.9219 20.4844 11.0625
Q25.4844 6.20312 34.4219 6.20312
Q39.5938 6.20312 44.4531 7.46875
Q49.3125 8.73438 54.1094 11.2812
L54.1094 2.78125
Q49.2656 0.734375 44.1875 -0.34375
Q39.1094 -1.42188 33.8906 -1.42188
Q20.7969 -1.42188 13.1562 6.1875
Q5.51562 13.8125 5.51562 26.8125
Q5.51562 40.2344 12.7656 48.1094
Q20.0156 56 32.3281 56
Q43.3594 56 49.7812 48.8906
Q56.2031 41.7969 56.2031 29.5938
M47.2188 32.2344
Q47.125 39.5938 43.0938 43.9844
Q39.0625 48.3906 32.4219 48.3906
Q24.9062 48.3906 20.3906 44.1406
Q15.875 39.8906 15.1875 32.1719
z
" id="DejaVuSans-65"/>
      <path d="
M41.1094 46.2969
Q39.5938 47.1719 37.8125 47.5781
Q36.0312 48 33.8906 48
Q26.2656 48 22.1875 43.0469
Q18.1094 38.0938 18.1094 28.8125
L18.1094 0
L9.07812 0
L9.07812 54.6875
L18.1094 54.6875
L18.1094 46.1875
Q20.9531 51.1719 25.4844 53.5781
Q30.0312 56 36.5312 56
Q37.4531 56 38.5781 55.875
Q39.7031 55.7656 41.0625 55.5156
z
" id="DejaVuSans-72"/>
     </defs>
     <g transform="translate(262.963125 415.995)scale(0.12 -0.12)">
      <use xlink:href="#DejaVuSans-43"/>
      <use x="69.82421875" xlink:href="#DejaVuSans-6f"/>
      <use x="131.005859375" xlink:href="#DejaVuSans-72"/>
      <use x="170.369140625" xlink:href="#DejaVuSans-72"/>
      <use x="209.232421875" xlink:href="#DejaVuSans-65"/>
      <use x="270.755859375" xlink:href="#DejaVuSans-6c"/>
      <use x="298.5390625" xlink:href="#DejaVuSans-61"/>
      <use x="359.818359375" xlink:href="#DejaVuSans-74"/>
      <use x="399.02734375" xlink:href="#DejaVuSans-69"/>
      <use x="426.810546875" xlink:href="#DejaVuSans-6f"/>
      <use x="487.9921875" xlink:href="#DejaVuSans-6e"/>
     </g>
    </g>
   </g>
   <g id="matplotlib.axis_2">
    <g id="ytick_1">
     <g id="line2d_15">
      <defs>
       <path d="
M0 0
L4 0" id="me8a85f7bf6" style="stroke:#000000;stroke-linecap:butt;stroke-width:0.5;"/>
      </defs>
      <g>
       <use style="stroke:#000000;stroke-linecap:butt;stroke-width:0.5;" x="72.0" xlink:href="#me8a85f7bf6" y="388.8"/>
      </g>
     </g>
     <g id="line2d_16">
      <defs>
       <path d="
M0 0
L-4 0" id="m1a32005dea" style="stroke:#000000;stroke-linecap:butt;stroke-width:0.5;"/>
      </defs>
      <g>
       <use style="stroke:#000000;stroke-linecap:butt;stroke-width:0.5;" x="518.4" xlink:href="#m1a32005dea" y="388.8"/>
      </g>
     </g>
     <g id="text_9">
      <!-- 0 -->
      <g transform="translate(61.953125 393.1678125)scale(0.12 -0.12)">
       <use xlink:href="#DejaVuSans-30"/>
      </g>
     </g>
    </g>
    <g id="ytick_2">
     <g id="line2d_17">
      <g>
       <use style="stroke:#000000;stroke-linecap:butt;stroke-width:0.5;" x="72.0" xlink:href="#me8a85f7bf6" y="319.68"/>
      </g>
     </g>
     <g id="line2d_18">
      <g>
       <use style="stroke:#000000;stroke-linecap:butt;stroke-width:0.5;" x="518.4" xlink:href="#m1a32005dea" y="319.68"/>
      </g>
     </g>
     <g id="text_10">
      <!-- 200 -->
      <g transform="translate(46.77125 324.0478125)scale(0.12 -0.12)">
       <use xlink:href="#DejaVuSans-32"/>
       <use x="63.623046875" xlink:href="#DejaVuSans-30"/>
       <use x="127.24609375" xlink:href="#DejaVuSans-30"/>
      </g>
     </g>
    </g>
    <g id="ytick_3">
     <g id="line2d_19">
      <g>
       <use style="stroke:#000000;stroke-linecap:butt;stroke-width:0.5;" x="72.0" xlink:href="#me8a85f7bf6" y="250.56"/>
      </g>
     </g>
     <g id="line2d_20">
      <g>
       <use style="stroke:#000000;stroke-linecap:butt;stroke-width:0.5;" x="518.4" xlink:href="#m1a32005dea" y="250.56"/>
      </g>
     </g>
     <g id="text_11">
      <!-- 400 -->
      <defs>
       <path d="
M37.7969 64.3125
L12.8906 25.3906
L37.7969 25.3906
z

M35.2031 72.9062
L47.6094 72.9062
L47.6094 25.3906
L58.0156 25.3906
L58.0156 17.1875
L47.6094 17.1875
L47.6094 0
L37.7969 0
L37.7969 17.1875
L4.89062 17.1875
L4.89062 26.7031
z
" id="DejaVuSans-34"/>
      </defs>
      <g transform="translate(46.47875 254.9278125)scale(0.12 -0.12)">
       <use xlink:href="#DejaVuSans-34"/>
       <use x="63.623046875" xlink:href="#DejaVuSans-30"/>
       <use x="127.24609375" xlink:href="#DejaVuSans-30"/>
      </g>
     </g>
    </g>
    <g id="ytick_4">
     <g id="line2d_21">
      <g>
       <use style="stroke:#000000;stroke-linecap:butt;stroke-width:0.5;" x="72.0" xlink:href="#me8a85f7bf6" y="181.44"/>
      </g>
     </g>
     <g id="line2d_22">
      <g>
       <use style="stroke:#000000;stroke-linecap:butt;stroke-width:0.5;" x="518.4" xlink:href="#m1a32005dea" y="181.44"/>
      </g>
     </g>
     <g id="text_12">
      <!-- 600 -->
      <defs>
       <path d="
M33.0156 40.375
Q26.375 40.375 22.4844 35.8281
Q18.6094 31.2969 18.6094 23.3906
Q18.6094 15.5312 22.4844 10.9531
Q26.375 6.39062 33.0156 6.39062
Q39.6562 6.39062 43.5312 10.9531
Q47.4062 15.5312 47.4062 23.3906
Q47.4062 31.2969 43.5312 35.8281
Q39.6562 40.375 33.0156 40.375
M52.5938 71.2969
L52.5938 62.3125
Q48.875 64.0625 45.0938 64.9844
Q41.3125 65.9219 37.5938 65.9219
Q27.8281 65.9219 22.6719 59.3281
Q17.5312 52.7344 16.7969 39.4062
Q19.6719 43.6562 24.0156 45.9219
Q28.375 48.1875 33.5938 48.1875
Q44.5781 48.1875 50.9531 41.5156
Q57.3281 34.8594 57.3281 23.3906
Q57.3281 12.1562 50.6875 5.35938
Q44.0469 -1.42188 33.0156 -1.42188
Q20.3594 -1.42188 13.6719 8.26562
Q6.98438 17.9688 6.98438 36.375
Q6.98438 53.6562 15.1875 63.9375
Q23.3906 74.2188 37.2031 74.2188
Q40.9219 74.2188 44.7031 73.4844
Q48.4844 72.75 52.5938 71.2969" id="DejaVuSans-36"/>
      </defs>
      <g transform="translate(46.73 185.8078125)scale(0.12 -0.12)">
       <use xlink:href="#DejaVuSans-36"/>
       <use x="63.623046875" xlink:href="#DejaVuSans-30"/>
       <use x="127.24609375" xlink:href="#DejaVuSans-30"/>
      </g>
     </g>
    </g>
    <g id="ytick_5">
     <g id="line2d_23">
      <g>
       <use style="stroke:#000000;stroke-linecap:butt;stroke-width:0.5;" x="72.0" xlink:href="#me8a85f7bf6" y="112.32"/>
      </g>
     </g>
     <g id="line2d_24">
      <g>
       <use style="stroke:#000000;stroke-linecap:butt;stroke-width:0.5;" x="518.4" xlink:href="#m1a32005dea" y="112.32"/>
      </g>
     </g>
     <g id="text_13">
      <!-- 800 -->
      <defs>
       <path d="
M31.7812 34.625
Q24.75 34.625 20.7188 30.8594
Q16.7031 27.0938 16.7031 20.5156
Q16.7031 13.9219 20.7188 10.1562
Q24.75 6.39062 31.7812 6.39062
Q38.8125 6.39062 42.8594 10.1719
Q46.9219 13.9688 46.9219 20.5156
Q46.9219 27.0938 42.8906 30.8594
Q38.875 34.625 31.7812 34.625
M21.9219 38.8125
Q15.5781 40.375 12.0312 44.7188
Q8.5 49.0781 8.5 55.3281
Q8.5 64.0625 14.7188 69.1406
Q20.9531 74.2188 31.7812 74.2188
Q42.6719 74.2188 48.875 69.1406
Q55.0781 64.0625 55.0781 55.3281
Q55.0781 49.0781 51.5312 44.7188
Q48 40.375 41.7031 38.8125
Q48.8281 37.1562 52.7969 32.3125
Q56.7812 27.4844 56.7812 20.5156
Q56.7812 9.90625 50.3125 4.23438
Q43.8438 -1.42188 31.7812 -1.42188
Q19.7344 -1.42188 13.25 4.23438
Q6.78125 9.90625 6.78125 20.5156
Q6.78125 27.4844 10.7812 32.3125
Q14.7969 37.1562 21.9219 38.8125
M18.3125 54.3906
Q18.3125 48.7344 21.8438 45.5625
Q25.3906 42.3906 31.7812 42.3906
Q38.1406 42.3906 41.7188 45.5625
Q45.3125 48.7344 45.3125 54.3906
Q45.3125 60.0625 41.7188 63.2344
Q38.1406 66.4062 31.7812 66.4062
Q25.3906 66.4062 21.8438 63.2344
Q18.3125 60.0625 18.3125 54.3906" id="DejaVuSans-38"/>
      </defs>
      <g transform="translate(46.705625 116.6878125)scale(0.12 -0.12)">
       <use xlink:href="#DejaVuSans-38"/>
       <use x="63.623046875" xlink:href="#DejaVuSans-30"/>
       <use x="127.24609375" xlink:href="#DejaVuSans-30"/>
      </g>
     </g>
    </g>
    <g id="ytick_6">
     <g id="line2d_25">
      <g>
       <use style="stroke:#000000;stroke-linecap:butt;stroke-width:0.5;" x="72.0" xlink:href="#me8a85f7bf6" y="43.2"/>
      </g>
     </g>
     <g id="line2d_26">
      <g>
       <use style="stroke:#000000;stroke-linecap:butt;stroke-width:0.5;" x="518.4" xlink:href="#m1a32005dea" y="43.2"/>
      </g>
     </g>
     <g id="text_14">
      <!-- 1000 -->
      <g transform="translate(39.575 47.5678125)scale(0.12 -0.12)">
       <use xlink:href="#DejaVuSans-31"/>
       <use x="63.623046875" xlink:href="#DejaVuSans-30"/>
       <use x="127.24609375" xlink:href="#DejaVuSans-30"/>
       <use x="190.869140625" xlink:href="#DejaVuSans-30"/>
      </g>
     </g>
    </g>
    <g id="text_15">
     <!-- Frequency -->
     <defs>
      <path d="
M8.5 21.5781
L8.5 54.6875
L17.4844 54.6875
L17.4844 21.9219
Q17.4844 14.1562 20.5 10.2656
Q23.5312 6.39062 29.5938 6.39062
Q36.8594 6.39062 41.0781 11.0312
Q45.3125 15.6719 45.3125 23.6875
L45.3125 54.6875
L54.2969 54.6875
L54.2969 0
L45.3125 0
L45.3125 8.40625
Q42.0469 3.42188 37.7188 1
Q33.4062 -1.42188 27.6875 -1.42188
Q18.2656 -1.42188 13.375 4.4375
Q8.5 10.2969 8.5 21.5781
M31.1094 56
z
" id="DejaVuSans-75"/>
      <path d="
M32.1719 -5.07812
Q28.375 -14.8438 24.75 -17.8125
Q21.1406 -20.7969 15.0938 -20.7969
L7.90625 -20.7969
L7.90625 -13.2812
L13.1875 -13.2812
Q16.8906 -13.2812 18.9375 -11.5156
Q21 -9.76562 23.4844 -3.21875
L25.0938 0.875
L2.98438 54.6875
L12.5 54.6875
L29.5938 11.9219
L46.6875 54.6875
L56.2031 54.6875
z
" id="DejaVuSans-79"/>
      <path d="
M9.8125 72.9062
L51.7031 72.9062
L51.7031 64.5938
L19.6719 64.5938
L19.6719 43.1094
L48.5781 43.1094
L48.5781 34.8125
L19.6719 34.8125
L19.6719 0
L9.8125 0
z
" id="DejaVuSans-46"/>
      <path d="
M14.7969 27.2969
Q14.7969 17.3906 18.875 11.75
Q22.9531 6.10938 30.0781 6.10938
Q37.2031 6.10938 41.2969 11.75
Q45.4062 17.3906 45.4062 27.2969
Q45.4062 37.2031 41.2969 42.8438
Q37.2031 48.4844 30.0781 48.4844
Q22.9531 48.4844 18.875 42.8438
Q14.7969 37.2031 14.7969 27.2969
M45.4062 8.20312
Q42.5781 3.32812 38.25 0.953125
Q33.9375 -1.42188 27.875 -1.42188
Q17.9688 -1.42188 11.7344 6.48438
Q5.51562 14.4062 5.51562 27.2969
Q5.51562 40.1875 11.7344 48.0938
Q17.9688 56 27.875 56
Q33.9375 56 38.25 53.625
Q42.5781 51.2656 45.4062 46.3906
L45.4062 54.6875
L54.3906 54.6875
L54.3906 -20.7969
L45.4062 -20.7969
z
" id="DejaVuSans-71"/>
      <path d="
M48.7812 52.5938
L48.7812 44.1875
Q44.9688 46.2969 41.1406 47.3438
Q37.3125 48.3906 33.4062 48.3906
Q24.6562 48.3906 19.8125 42.8438
Q14.9844 37.3125 14.9844 27.2969
Q14.9844 17.2812 19.8125 11.7344
Q24.6562 6.20312 33.4062 6.20312
Q37.3125 6.20312 41.1406 7.25
Q44.9688 8.29688 48.7812 10.4062
L48.7812 2.09375
Q45.0156 0.34375 40.9844 -0.53125
Q36.9688 -1.42188 32.4219 -1.42188
Q20.0625 -1.42188 12.7812 6.34375
Q5.51562 14.1094 5.51562 27.2969
Q5.51562 40.6719 12.8594 48.3281
Q20.2188 56 33.0156 56
Q37.1562 56 41.1094 55.1406
Q45.0625 54.2969 48.7812 52.5938" id="DejaVuSans-63"/>
     </defs>
     <g transform="translate(34.575 243.7321875)rotate(-90.0)scale(0.12 -0.12)">
      <use xlink:href="#DejaVuSans-46"/>
      <use x="50.26953125" xlink:href="#DejaVuSans-72"/>
      <use x="89.1328125" xlink:href="#DejaVuSans-65"/>
      <use x="150.65625" xlink:href="#DejaVuSans-71"/>
      <use x="214.1328125" xlink:href="#DejaVuSans-75"/>
      <use x="277.51171875" xlink:href="#DejaVuSans-65"/>
      <use x="339.03515625" xlink:href="#DejaVuSans-6e"/>
      <use x="402.4140625" xlink:href="#DejaVuSans-63"/>
      <use x="457.39453125" xlink:href="#DejaVuSans-79"/>
     </g>
    </g>
   </g>
   <g id="patch_103">
    <path d="
M72 43.2
L518.4 43.2" style="fill:none;stroke:#000000;"/>
   </g>
   <g id="patch_104">
    <path d="
M518.4 388.8
L518.4 43.2" style="fill:none;stroke:#000000;"/>
   </g>
   <g id="patch_105">
    <path d="
M72 388.8
L518.4 388.8" style="fill:none;stroke:#000000;"/>
   </g>
   <g id="patch_106">
    <path d="
M72 388.8
L72 43.2" style="fill:none;stroke:#000000;"/>
   </g>
  </g>
 </g>
 <defs>
  <clipPath id="p7ff5b81e1d">
   <rect height="345.6" width="446.4" x="72.0" y="43.2"/>
  </clipPath>
 </defs>
</svg>
