<?xml version="1.0" encoding="UTF-8" standalone="no"?>
<!-- Created with Inkscape (http://www.inkscape.org/) -->

<svg
   xmlns:dc="http://purl.org/dc/elements/1.1/"
   xmlns:cc="http://creativecommons.org/ns#"
   xmlns:rdf="http://www.w3.org/1999/02/22-rdf-syntax-ns#"
   xmlns:svg="http://www.w3.org/2000/svg"
   xmlns="http://www.w3.org/2000/svg"
   xmlns:sodipodi="http://sodipodi.sourceforge.net/DTD/sodipodi-0.dtd"
   xmlns:inkscape="http://www.inkscape.org/namespaces/inkscape"
   width="181.02184"
   height="85.575165"
   id="svg2"
   version="1.1"
   inkscape:version="0.48.1 r9760"
   sodipodi:docname="temporalFeatures.svg">
  <defs
     id="defs4">
    <marker
       inkscape:stockid="Arrow2Lend"
       orient="auto"
       refY="0"
       refX="0"
       id="Arrow2Lend"
       style="overflow:visible">
      <path
         id="path4722"
         style="font-size:12px;fill-rule:evenodd;stroke-width:0.625;stroke-linejoin:round"
         d="M 8.7185878,4.0337352 -2.2072895,0.01601326 8.7185884,-4.0017078 c -1.7454984,2.3720609 -1.7354408,5.6174519 -6e-7,8.035443 z"
         transform="matrix(-1.1,0,0,-1.1,-1.1,0)"
         inkscape:connector-curvature="0" />
    </marker>
  </defs>
  <sodipodi:namedview
     id="base"
     pagecolor="#ffffff"
     bordercolor="#666666"
     borderopacity="1.0"
     inkscape:pageopacity="0.0"
     inkscape:pageshadow="2"
     inkscape:zoom="3.959798"
     inkscape:cx="100.84183"
     inkscape:cy="10.164207"
     inkscape:document-units="px"
     inkscape:current-layer="layer1"
     showgrid="false"
     inkscape:window-width="1280"
     inkscape:window-height="951"
     inkscape:window-x="0"
     inkscape:window-y="25"
     inkscape:window-maximized="1"
     fit-margin-top="0"
     fit-margin-left="0"
     fit-margin-right="0"
     fit-margin-bottom="0" />
  <metadata
     id="metadata7">
    <rdf:RDF>
      <cc:Work
         rdf:about="">
        <dc:format>image/svg+xml</dc:format>
        <dc:type
           rdf:resource="http://purl.org/dc/dcmitype/StillImage" />
        <dc:title />
      </cc:Work>
    </rdf:RDF>
  </metadata>
  <g
     inkscape:label="Layer 1"
     inkscape:groupmode="layer"
     id="layer1"
     transform="translate(-46.32848,-27.981451)">
    <path
       style="fill:none;stroke:#000000;stroke-width:0.82353193px;stroke-linecap:butt;stroke-linejoin:miter;stroke-opacity:0.13793102"
       d="m 58.740099,59.003423 167.504601,0"
       id="path2985"
       inkscape:connector-curvature="0" />
    <path
       style="fill:none;stroke:#000000;stroke-width:0.8226549px;stroke-linecap:butt;stroke-linejoin:miter;stroke-opacity:0.13793102"
       d="m 58.240332,49.213534 167.148028,0"
       id="path2987"
       inkscape:connector-curvature="0" />
    <path
       style="fill:none;stroke:#000000;stroke-width:0.8236112px;stroke-linecap:butt;stroke-linejoin:miter;stroke-opacity:0.13793102"
       d="m 58.847486,68.473603 166.851624,0"
       id="path2989"
       inkscape:connector-curvature="0" />
    <path
       sodipodi:type="arc"
       style="fill:#ffffff;fill-opacity:1;stroke:#ff0000;stroke-opacity:1"
       id="path3759"
       sodipodi:cx="53.033009"
       sodipodi:cy="68.221062"
       sodipodi:rx="2.0203052"
       sodipodi:ry="2.0203052"
       d="m 55.053314,68.221062 c 0,1.115783 -0.904522,2.020305 -2.020305,2.020305 -1.115784,0 -2.020306,-0.904522 -2.020306,-2.020305 0,-1.115784 0.904522,-2.020305 2.020306,-2.020305 1.115783,0 2.020305,0.904521 2.020305,2.020305 z"
       transform="translate(8.9285714,-0.71428572)" />
    <path
       transform="translate(18.84627,-4.3977504)"
       sodipodi:type="arc"
       style="fill:#ffffff;fill-opacity:1;stroke:#ff0000;stroke-opacity:1"
       id="path3759-1"
       sodipodi:cx="53.033009"
       sodipodi:cy="68.221062"
       sodipodi:rx="2.0203052"
       sodipodi:ry="2.0203052"
       d="m 55.053314,68.221062 c 0,1.115783 -0.904522,2.020305 -2.020305,2.020305 -1.115784,0 -2.020306,-0.904522 -2.020306,-2.020305 0,-1.115784 0.904522,-2.020305 2.020306,-2.020305 1.115783,0 2.020305,0.904521 2.020305,2.020305 z" />
    <path
       transform="translate(28.25889,-8.5429654)"
       sodipodi:type="arc"
       style="fill:#ffffff;fill-opacity:1;stroke:#ff0000;stroke-opacity:1"
       id="path3759-8"
       sodipodi:cx="53.033009"
       sodipodi:cy="68.221062"
       sodipodi:rx="2.0203052"
       sodipodi:ry="2.0203052"
       d="m 55.053314,68.221062 c 0,1.115783 -0.904522,2.020305 -2.020305,2.020305 -1.115784,0 -2.020306,-0.904522 -2.020306,-2.020305 0,-1.115784 0.904522,-2.020305 2.020306,-2.020305 1.115783,0 2.020305,0.904521 2.020305,2.020305 z" />
    <path
       transform="translate(37.941997,-3.8926742)"
       sodipodi:type="arc"
       style="fill:#ffffff;fill-opacity:1;stroke:#ff0000;stroke-opacity:1"
       id="path3759-5"
       sodipodi:cx="53.033009"
       sodipodi:cy="68.221062"
       sodipodi:rx="2.0203052"
       sodipodi:ry="2.0203052"
       d="m 55.053314,68.221062 c 0,1.115783 -0.904522,2.020305 -2.020305,2.020305 -1.115784,0 -2.020306,-0.904522 -2.020306,-2.020305 0,-1.115784 0.904522,-2.020305 2.020306,-2.020305 1.115783,0 2.020305,0.904521 2.020305,2.020305 z" />
    <path
       transform="translate(49.244937,-6.3134509)"
       sodipodi:type="arc"
       style="fill:#ffffff;fill-opacity:1;stroke:#ff0000;stroke-opacity:1"
       id="path3759-9"
       sodipodi:cx="53.033009"
       sodipodi:cy="68.221062"
       sodipodi:rx="2.0203052"
       sodipodi:ry="2.0203052"
       d="m 55.053314,68.221062 c 0,1.115783 -0.904522,2.020305 -2.020305,2.020305 -1.115784,0 -2.020306,-0.904522 -2.020306,-2.020305 0,-1.115784 0.904522,-2.020305 2.020306,-2.020305 1.115783,0 2.020305,0.904521 2.020305,2.020305 z" />
    <path
       transform="translate(61.366768,-9.3439085)"
       sodipodi:type="arc"
       style="fill:#ffffff;fill-opacity:1;stroke:#ff0000;stroke-opacity:1"
       id="path3759-7"
       sodipodi:cx="53.033009"
       sodipodi:cy="68.221062"
       sodipodi:rx="2.0203052"
       sodipodi:ry="2.0203052"
       d="m 55.053314,68.221062 c 0,1.115783 -0.904522,2.020305 -2.020305,2.020305 -1.115784,0 -2.020306,-0.904522 -2.020306,-2.020305 0,-1.115784 0.904522,-2.020305 2.020306,-2.020305 1.115783,0 2.020305,0.904521 2.020305,2.020305 z" />
    <path
       style="fill:none;stroke:#000000;stroke-width:1px;stroke-linecap:butt;stroke-linejoin:miter;stroke-opacity:1"
       d="m 101.52033,46.755323 c 0,-3.535534 0,-8.321713 0,-8.321713 l 77.0511,0 0,7.857142"
       id="path3807"
       inkscape:connector-curvature="0" />
    <path
       transform="translate(73.752706,-13.001738)"
       sodipodi:type="arc"
       style="fill:#ffffff;fill-opacity:1;stroke:#ff0000;stroke-opacity:1"
       id="path3759-7-7"
       sodipodi:cx="53.033009"
       sodipodi:cy="68.221062"
       sodipodi:rx="2.0203052"
       sodipodi:ry="2.0203052"
       d="m 55.053314,68.221062 c 0,1.115783 -0.904522,2.020305 -2.020305,2.020305 -1.115784,0 -2.020306,-0.904522 -2.020306,-2.020305 0,-1.115784 0.904522,-2.020305 2.020306,-2.020305 1.115783,0 2.020305,0.904521 2.020305,2.020305 z" />
    <path
       transform="translate(84.824135,-12.644595)"
       sodipodi:type="arc"
       style="fill:#ffffff;fill-opacity:1;stroke:#ff0000;stroke-opacity:1"
       id="path3759-7-1"
       sodipodi:cx="53.033009"
       sodipodi:cy="68.221062"
       sodipodi:rx="2.0203052"
       sodipodi:ry="2.0203052"
       d="m 55.053314,68.221062 c 0,1.115783 -0.904522,2.020305 -2.020305,2.020305 -1.115784,0 -2.020306,-0.904522 -2.020306,-2.020305 0,-1.115784 0.904522,-2.020305 2.020306,-2.020305 1.115783,0 2.020305,0.904521 2.020305,2.020305 z" />
    <path
       transform="translate(95.53842,-10.858881)"
       sodipodi:type="arc"
       style="fill:#ffffff;fill-opacity:1;stroke:#ff0000;stroke-opacity:1"
       id="path3759-7-3"
       sodipodi:cx="53.033009"
       sodipodi:cy="68.221062"
       sodipodi:rx="2.0203052"
       sodipodi:ry="2.0203052"
       d="m 55.053314,68.221062 c 0,1.115783 -0.904522,2.020305 -2.020305,2.020305 -1.115784,0 -2.020306,-0.904522 -2.020306,-2.020305 0,-1.115784 0.904522,-2.020305 2.020306,-2.020305 1.115783,0 2.020305,0.904521 2.020305,2.020305 z" />
    <path
       transform="translate(106.60984,-8.0017379)"
       sodipodi:type="arc"
       style="fill:#ffffff;fill-opacity:1;stroke:#ff0000;stroke-opacity:1"
       id="path3759-7-11"
       sodipodi:cx="53.033009"
       sodipodi:cy="68.221062"
       sodipodi:rx="2.0203052"
       sodipodi:ry="2.0203052"
       d="m 55.053314,68.221062 c 0,1.115783 -0.904522,2.020305 -2.020305,2.020305 -1.115784,0 -2.020306,-0.904522 -2.020306,-2.020305 0,-1.115784 0.904522,-2.020305 2.020306,-2.020305 1.115783,0 2.020305,0.904521 2.020305,2.020305 z" />
    <path
       transform="translate(116.96699,-10.858881)"
       sodipodi:type="arc"
       style="fill:#ffffff;fill-opacity:1;stroke:#ff0000;stroke-opacity:1"
       id="path3759-7-0"
       sodipodi:cx="53.033009"
       sodipodi:cy="68.221062"
       sodipodi:rx="2.0203052"
       sodipodi:ry="2.0203052"
       d="m 55.053314,68.221062 c 0,1.115783 -0.904522,2.020305 -2.020305,2.020305 -1.115784,0 -2.020306,-0.904522 -2.020306,-2.020305 0,-1.115784 0.904522,-2.020305 2.020306,-2.020305 1.115783,0 2.020305,0.904521 2.020305,2.020305 z" />
    <path
       transform="translate(128.75271,-14.073166)"
       sodipodi:type="arc"
       style="fill:#ffffff;fill-opacity:1;stroke:#ff0000;stroke-opacity:1"
       id="path3759-7-34"
       sodipodi:cx="53.033009"
       sodipodi:cy="68.221062"
       sodipodi:rx="2.0203052"
       sodipodi:ry="2.0203052"
       d="m 55.053314,68.221062 c 0,1.115783 -0.904522,2.020305 -2.020305,2.020305 -1.115784,0 -2.020306,-0.904522 -2.020306,-2.020305 0,-1.115784 0.904522,-2.020305 2.020306,-2.020305 1.115783,0 2.020305,0.904521 2.020305,2.020305 z" />
    <path
       transform="translate(140.18128,-11.573166)"
       sodipodi:type="arc"
       style="fill:#ffffff;fill-opacity:1;stroke:#ff0000;stroke-opacity:1"
       id="path3759-7-03"
       sodipodi:cx="53.033009"
       sodipodi:cy="68.221062"
       sodipodi:rx="2.0203052"
       sodipodi:ry="2.0203052"
       d="m 55.053314,68.221062 c 0,1.115783 -0.904522,2.020305 -2.020305,2.020305 -1.115784,0 -2.020306,-0.904522 -2.020306,-2.020305 0,-1.115784 0.904522,-2.020305 2.020306,-2.020305 1.115783,0 2.020305,0.904521 2.020305,2.020305 z" />
    <path
       transform="translate(150.18128,-8.3588807)"
       sodipodi:type="arc"
       style="fill:#ffffff;fill-opacity:1;stroke:#ff0000;stroke-opacity:1"
       id="path3759-7-9"
       sodipodi:cx="53.033009"
       sodipodi:cy="68.221062"
       sodipodi:rx="2.0203052"
       sodipodi:ry="2.0203052"
       d="m 55.053314,68.221062 c 0,1.115783 -0.904522,2.020305 -2.020305,2.020305 -1.115784,0 -2.020306,-0.904522 -2.020306,-2.020305 0,-1.115784 0.904522,-2.020305 2.020306,-2.020305 1.115783,0 2.020305,0.904521 2.020305,2.020305 z" />
    <path
       transform="translate(160.53842,-5.8588807)"
       sodipodi:type="arc"
       style="fill:#ffffff;fill-opacity:1;stroke:#ff0000;stroke-opacity:1"
       id="path3759-7-19"
       sodipodi:cx="53.033009"
       sodipodi:cy="68.221062"
       sodipodi:rx="2.0203052"
       sodipodi:ry="2.0203052"
       d="m 55.053314,68.221062 c 0,1.115783 -0.904522,2.020305 -2.020305,2.020305 -1.115784,0 -2.020306,-0.904522 -2.020306,-2.020305 0,-1.115784 0.904522,-2.020305 2.020306,-2.020305 1.115783,0 2.020305,0.904521 2.020305,2.020305 z" />
    <path
       transform="translate(169.82413,-3.7160235)"
       sodipodi:type="arc"
       style="fill:#ffffff;fill-opacity:1;stroke:#ff0000;stroke-opacity:1"
       id="path3759-7-6"
       sodipodi:cx="53.033009"
       sodipodi:cy="68.221062"
       sodipodi:rx="2.0203052"
       sodipodi:ry="2.0203052"
       d="m 55.053314,68.221062 c 0,1.115783 -0.904522,2.020305 -2.020305,2.020305 -1.115784,0 -2.020306,-0.904522 -2.020306,-2.020305 0,-1.115784 0.904522,-2.020305 2.020306,-2.020305 1.115783,0 2.020305,0.904521 2.020305,2.020305 z" />
    <text
       xml:space="preserve"
       style="font-size:7.64249992px;font-style:normal;font-weight:normal;line-height:125%;letter-spacing:0px;word-spacing:0px;fill:#000000;fill-opacity:1;stroke:none;font-family:Sans"
       x="105.92686"
       y="33.78796"
       id="text3892"
       sodipodi:linespacing="125%"><tspan
         sodipodi:role="line"
         id="tspan3894"
         x="105.92686"
         y="33.78796">Temporal Window</tspan></text>
    <path
       style="fill:none;stroke:#0000ff;stroke-width:1.01342237px;stroke-linecap:butt;stroke-linejoin:miter;stroke-opacity:1"
       d="m 102.70688,62.005038 c 42.54817,-11.428571 75.92648,-6.785714 75.92648,-6.785714"
       id="path3915"
       inkscape:connector-curvature="0" />
    <path
       style="fill:none;stroke:#000000;stroke-width:0.82353193px;stroke-linecap:butt;stroke-linejoin:miter;stroke-opacity:0.13793102"
       d="m 59.433947,92.109816 167.504603,0"
       id="path2985-8"
       inkscape:connector-curvature="0" />
    <path
       style="fill:none;stroke:#000000;stroke-width:0.8226549px;stroke-linecap:butt;stroke-linejoin:miter;stroke-opacity:0.13793102"
       d="m 58.93418,82.319926 167.14803,0"
       id="path2987-7"
       inkscape:connector-curvature="0" />
    <path
       style="fill:none;stroke:#000000;stroke-width:0.8236112px;stroke-linecap:butt;stroke-linejoin:miter;stroke-opacity:0.13793102"
       d="m 59.541334,101.58 166.851626,0"
       id="path2989-0"
       inkscape:connector-curvature="0" />
    <path
       sodipodi:type="arc"
       style="fill:#ffffff;fill-opacity:1;stroke:#ff0000;stroke-opacity:1"
       id="path3759-86"
       sodipodi:cx="53.033009"
       sodipodi:cy="68.221062"
       sodipodi:rx="2.0203052"
       sodipodi:ry="2.0203052"
       d="m 55.053314,68.221062 c 0,1.115783 -0.904522,2.020305 -2.020305,2.020305 -1.115784,0 -2.020306,-0.904522 -2.020306,-2.020305 0,-1.115784 0.904522,-2.020305 2.020306,-2.020305 1.115783,0 2.020305,0.904521 2.020305,2.020305 z"
       transform="translate(9.2652759,21.677824)" />
    <path
       transform="translate(19.540117,26.565788)"
       sodipodi:type="arc"
       style="fill:#ffffff;fill-opacity:1;stroke:#ff0000;stroke-opacity:1"
       id="path3759-1-2"
       sodipodi:cx="53.033009"
       sodipodi:cy="68.221062"
       sodipodi:rx="2.0203052"
       sodipodi:ry="2.0203052"
       d="m 55.053314,68.221062 c 0,1.115783 -0.904522,2.020305 -2.020305,2.020305 -1.115784,0 -2.020306,-0.904522 -2.020306,-2.020305 0,-1.115784 0.904522,-2.020305 2.020306,-2.020305 1.115783,0 2.020305,0.904521 2.020305,2.020305 z" />
    <path
       transform="translate(28.952737,28.849144)"
       sodipodi:type="arc"
       style="fill:#ffffff;fill-opacity:1;stroke:#ff0000;stroke-opacity:1"
       id="path3759-8-4"
       sodipodi:cx="53.033009"
       sodipodi:cy="68.221062"
       sodipodi:rx="2.0203052"
       sodipodi:ry="2.0203052"
       d="m 55.053314,68.221062 c 0,1.115783 -0.904522,2.020305 -2.020305,2.020305 -1.115784,0 -2.020306,-0.904522 -2.020306,-2.020305 0,-1.115784 0.904522,-2.020305 2.020306,-2.020305 1.115783,0 2.020305,0.904521 2.020305,2.020305 z" />
    <path
       transform="translate(39.707273,25.28515)"
       sodipodi:type="arc"
       style="fill:#ffffff;fill-opacity:1;stroke:#ff0000;stroke-opacity:1"
       id="path3759-5-7"
       sodipodi:cx="53.033009"
       sodipodi:cy="68.221062"
       sodipodi:rx="2.0203052"
       sodipodi:ry="2.0203052"
       d="m 55.053314,68.221062 c 0,1.115783 -0.904522,2.020305 -2.020305,2.020305 -1.115784,0 -2.020306,-0.904522 -2.020306,-2.020305 0,-1.115784 0.904522,-2.020305 2.020306,-2.020305 1.115783,0 2.020305,0.904521 2.020305,2.020305 z" />
    <path
       transform="translate(49.581642,29.292945)"
       sodipodi:type="arc"
       style="fill:#ffffff;fill-opacity:1;stroke:#ff0000;stroke-opacity:1"
       id="path3759-9-9"
       sodipodi:cx="53.033009"
       sodipodi:cy="68.221062"
       sodipodi:rx="2.0203052"
       sodipodi:ry="2.0203052"
       d="m 55.053314,68.221062 c 0,1.115783 -0.904522,2.020305 -2.020305,2.020305 -1.115784,0 -2.020306,-0.904522 -2.020306,-2.020305 0,-1.115784 0.904522,-2.020305 2.020306,-2.020305 1.115783,0 2.020305,0.904521 2.020305,2.020305 z" />
    <path
       transform="translate(61.703473,29.11963)"
       sodipodi:type="arc"
       style="fill:#ffffff;fill-opacity:1;stroke:#ff0000;stroke-opacity:1"
       id="path3759-7-39"
       sodipodi:cx="53.033009"
       sodipodi:cy="68.221062"
       sodipodi:rx="2.0203052"
       sodipodi:ry="2.0203052"
       d="m 55.053314,68.221062 c 0,1.115783 -0.904522,2.020305 -2.020305,2.020305 -1.115784,0 -2.020306,-0.904522 -2.020306,-2.020305 0,-1.115784 0.904522,-2.020305 2.020306,-2.020305 1.115783,0 2.020305,0.904521 2.020305,2.020305 z" />
    <path
       transform="translate(74.446553,31.176087)"
       sodipodi:type="arc"
       style="fill:#ffffff;fill-opacity:1;stroke:#ff0000;stroke-opacity:1"
       id="path3759-7-7-8"
       sodipodi:cx="53.033009"
       sodipodi:cy="68.221062"
       sodipodi:rx="2.0203052"
       sodipodi:ry="2.0203052"
       d="m 55.053314,68.221062 c 0,1.115783 -0.904522,2.020305 -2.020305,2.020305 -1.115784,0 -2.020306,-0.904522 -2.020306,-2.020305 0,-1.115784 0.904522,-2.020305 2.020306,-2.020305 1.115783,0 2.020305,0.904521 2.020305,2.020305 z" />
    <path
       transform="translate(84.089411,29.03323)"
       sodipodi:type="arc"
       style="fill:#ffffff;fill-opacity:1;stroke:#ff0000;stroke-opacity:1"
       id="path3759-7-1-3"
       sodipodi:cx="53.033009"
       sodipodi:cy="68.221062"
       sodipodi:rx="2.0203052"
       sodipodi:ry="2.0203052"
       d="m 55.053314,68.221062 c 0,1.115783 -0.904522,2.020305 -2.020305,2.020305 -1.115784,0 -2.020306,-0.904522 -2.020306,-2.020305 0,-1.115784 0.904522,-2.020305 2.020306,-2.020305 1.115783,0 2.020305,0.904521 2.020305,2.020305 z" />
    <path
       transform="translate(95.160838,31.176086)"
       sodipodi:type="arc"
       style="fill:#ffffff;fill-opacity:1;stroke:#ff0000;stroke-opacity:1"
       id="path3759-7-3-0"
       sodipodi:cx="53.033009"
       sodipodi:cy="68.221062"
       sodipodi:rx="2.0203052"
       sodipodi:ry="2.0203052"
       d="m 55.053314,68.221062 c 0,1.115783 -0.904522,2.020305 -2.020305,2.020305 -1.115784,0 -2.020306,-0.904522 -2.020306,-2.020305 0,-1.115784 0.904522,-2.020305 2.020306,-2.020305 1.115783,0 2.020305,0.904521 2.020305,2.020305 z" />
    <path
       transform="translate(106.94655,27.604658)"
       sodipodi:type="arc"
       style="fill:#ffffff;fill-opacity:1;stroke:#ff0000;stroke-opacity:1"
       id="path3759-7-11-1"
       sodipodi:cx="53.033009"
       sodipodi:cy="68.221062"
       sodipodi:rx="2.0203052"
       sodipodi:ry="2.0203052"
       d="m 55.053314,68.221062 c 0,1.115783 -0.904522,2.020305 -2.020305,2.020305 -1.115784,0 -2.020306,-0.904522 -2.020306,-2.020305 0,-1.115784 0.904522,-2.020305 2.020306,-2.020305 1.115783,0 2.020305,0.904521 2.020305,2.020305 z" />
    <path
       transform="translate(118.73227,29.390372)"
       sodipodi:type="arc"
       style="fill:#ffffff;fill-opacity:1;stroke:#ff0000;stroke-opacity:1"
       id="path3759-7-0-7"
       sodipodi:cx="53.033009"
       sodipodi:cy="68.221062"
       sodipodi:rx="2.0203052"
       sodipodi:ry="2.0203052"
       d="m 55.053314,68.221062 c 0,1.115783 -0.904522,2.020305 -2.020305,2.020305 -1.115784,0 -2.020306,-0.904522 -2.020306,-2.020305 0,-1.115784 0.904522,-2.020305 2.020306,-2.020305 1.115783,0 2.020305,0.904521 2.020305,2.020305 z" />
    <path
       transform="translate(129.44656,26.53323)"
       sodipodi:type="arc"
       style="fill:#ffffff;fill-opacity:1;stroke:#ff0000;stroke-opacity:1"
       id="path3759-7-34-8"
       sodipodi:cx="53.033009"
       sodipodi:cy="68.221062"
       sodipodi:rx="2.0203052"
       sodipodi:ry="2.0203052"
       d="m 55.053314,68.221062 c 0,1.115783 -0.904522,2.020305 -2.020305,2.020305 -1.115784,0 -2.020306,-0.904522 -2.020306,-2.020305 0,-1.115784 0.904522,-2.020305 2.020306,-2.020305 1.115783,0 2.020305,0.904521 2.020305,2.020305 z" />
    <path
       transform="translate(140.16084,21.890373)"
       sodipodi:type="arc"
       style="fill:#ffffff;fill-opacity:1;stroke:#ff0000;stroke-opacity:1"
       id="path3759-7-03-9"
       sodipodi:cx="53.033009"
       sodipodi:cy="68.221062"
       sodipodi:rx="2.0203052"
       sodipodi:ry="2.0203052"
       d="m 55.053314,68.221062 c 0,1.115783 -0.904522,2.020305 -2.020305,2.020305 -1.115784,0 -2.020306,-0.904522 -2.020306,-2.020305 0,-1.115784 0.904522,-2.020305 2.020306,-2.020305 1.115783,0 2.020305,0.904521 2.020305,2.020305 z" />
    <path
       transform="translate(149.44656,16.890372)"
       sodipodi:type="arc"
       style="fill:#ffffff;fill-opacity:1;stroke:#ff0000;stroke-opacity:1"
       id="path3759-7-9-1"
       sodipodi:cx="53.033009"
       sodipodi:cy="68.221062"
       sodipodi:rx="2.0203052"
       sodipodi:ry="2.0203052"
       d="m 55.053314,68.221062 c 0,1.115783 -0.904522,2.020305 -2.020305,2.020305 -1.115784,0 -2.020306,-0.904522 -2.020306,-2.020305 0,-1.115784 0.904522,-2.020305 2.020306,-2.020305 1.115783,0 2.020305,0.904521 2.020305,2.020305 z" />
    <path
       transform="translate(160.51798,17.247515)"
       sodipodi:type="arc"
       style="fill:#ffffff;fill-opacity:1;stroke:#ff0000;stroke-opacity:1"
       id="path3759-7-19-5"
       sodipodi:cx="53.033009"
       sodipodi:cy="68.221062"
       sodipodi:rx="2.0203052"
       sodipodi:ry="2.0203052"
       d="m 55.053314,68.221062 c 0,1.115783 -0.904522,2.020305 -2.020305,2.020305 -1.115784,0 -2.020306,-0.904522 -2.020306,-2.020305 0,-1.115784 0.904522,-2.020305 2.020306,-2.020305 1.115783,0 2.020305,0.904521 2.020305,2.020305 z" />
    <path
       transform="translate(169.44655,14.747515)"
       sodipodi:type="arc"
       style="fill:#ffffff;fill-opacity:1;stroke:#ff0000;stroke-opacity:1"
       id="path3759-7-6-4"
       sodipodi:cx="53.033009"
       sodipodi:cy="68.221062"
       sodipodi:rx="2.0203052"
       sodipodi:ry="2.0203052"
       d="m 55.053314,68.221062 c 0,1.115783 -0.904522,2.020305 -2.020305,2.020305 -1.115784,0 -2.020306,-0.904522 -2.020306,-2.020305 0,-1.115784 0.904522,-2.020305 2.020306,-2.020305 1.115783,0 2.020305,0.904521 2.020305,2.020305 z" />
    <path
       style="fill:none;stroke:#000000;stroke-width:1px;stroke-linecap:butt;stroke-linejoin:miter;stroke-opacity:0.13362068"
       d="m 101.42857,46.290752 0,63.214288"
       id="path4001"
       inkscape:connector-curvature="0" />
    <path
       style="fill:none;stroke:#000000;stroke-width:1px;stroke-linecap:butt;stroke-linejoin:miter;stroke-opacity:0.13362068"
       d="m 178.57143,45.93361 0,62.5"
       id="path4003"
       inkscape:connector-curvature="0" />
    <path
       style="fill:none;stroke:#0000ff;stroke-width:1px;stroke-linecap:butt;stroke-linejoin:miter;stroke-opacity:1"
       d="m 102.14286,97.719324 c 34.28571,2.499996 76.07143,-0.714286 76.07143,-0.714286"
       id="path4005"
       inkscape:connector-curvature="0" />
    <text
       xml:space="preserve"
       style="font-size:11.01565075px;font-style:normal;font-weight:normal;line-height:125%;letter-spacing:0px;word-spacing:0px;fill:#ff0000;fill-opacity:1;stroke:none;font-family:Sans"
       x="46.773224"
       y="63.982639"
       id="text4007"
       sodipodi:linespacing="125%"><tspan
         sodipodi:role="line"
         id="tspan4009"
         x="46.773224"
         y="63.982639">f</tspan></text>
    <text
       xml:space="preserve"
       style="font-size:11.01565075px;font-style:normal;font-weight:normal;line-height:125%;letter-spacing:0px;word-spacing:0px;fill:#ff0000;fill-opacity:1;stroke:none;font-family:Sans"
       x="46.07568"
       y="95.431061"
       id="text4007-0"
       sodipodi:linespacing="125%"><tspan
         sodipodi:role="line"
         id="tspan4009-9"
         x="46.07568"
         y="95.431061">f</tspan></text>
    <text
       xml:space="preserve"
       style="font-size:7.00326061px;font-style:normal;font-weight:normal;line-height:125%;letter-spacing:0px;word-spacing:0px;fill:#ff0000;fill-opacity:1;stroke:none;font-family:Sans"
       x="51.438946"
       y="67.058395"
       id="text4032"
       sodipodi:linespacing="125%"><tspan
         sodipodi:role="line"
         id="tspan4034"
         x="51.438946"
         y="67.058395">1</tspan></text>
    <text
       xml:space="preserve"
       style="font-size:6.80028677px;font-style:normal;font-weight:normal;line-height:125%;letter-spacing:0px;word-spacing:0px;fill:#ff0000;fill-opacity:1;stroke:none;font-family:Sans"
       x="50.90239"
       y="99.321014"
       id="text4032-3"
       sodipodi:linespacing="125%"><tspan
         sodipodi:role="line"
         id="tspan4034-8"
         x="50.90239"
         y="99.321014">2</tspan></text>
    <text
       xml:space="preserve"
       style="font-size:9.06142426px;font-style:normal;font-weight:normal;line-height:125%;letter-spacing:0px;word-spacing:0px;fill:#ff0000;fill-opacity:1;stroke:none;font-family:Sans"
       x="133.83894"
       y="48.908951"
       id="text4057"
       sodipodi:linespacing="125%"><tspan
         sodipodi:role="line"
         id="tspan4059"
         x="133.83894"
         y="48.908951">f</tspan></text>
    <text
       xml:space="preserve"
       style="font-size:7.00326061px;font-style:normal;font-weight:normal;line-height:125%;letter-spacing:0px;word-spacing:0px;fill:#ff0000;fill-opacity:1;stroke:none;font-family:Sans"
       x="139.26111"
       y="51.959671"
       id="text4032-2"
       sodipodi:linespacing="125%"><tspan
         sodipodi:role="line"
         id="tspan4034-4"
         x="139.26111"
         y="51.959671">1</tspan></text>
    <text
       xml:space="preserve"
       style="font-size:8.73533726px;font-style:normal;font-weight:normal;line-height:125%;letter-spacing:0px;word-spacing:0px;fill:#ff0000;fill-opacity:1;stroke:none;font-family:Sans"
       x="139.82843"
       y="44.63607"
       id="text4032-0"
       sodipodi:linespacing="125%"><tspan
         sodipodi:role="line"
         id="tspan4034-89"
         x="139.82843"
         y="44.63607">j</tspan></text>
    <text
       xml:space="preserve"
       style="font-size:9.06142426px;font-style:normal;font-weight:normal;line-height:125%;letter-spacing:0px;word-spacing:0px;fill:#ff0000;fill-opacity:1;stroke:none;font-family:Sans"
       x="132.14565"
       y="90.218658"
       id="text4057-9"
       sodipodi:linespacing="125%"><tspan
         sodipodi:role="line"
         id="tspan4059-3"
         x="132.14565"
         y="90.218658">f</tspan></text>
    <text
       xml:space="preserve"
       style="font-size:7.00326061px;font-style:normal;font-weight:normal;line-height:125%;letter-spacing:0px;word-spacing:0px;fill:#ff0000;fill-opacity:1;stroke:none;font-family:Sans"
       x="137.56781"
       y="93.269371"
       id="text4032-2-1"
       sodipodi:linespacing="125%"><tspan
         sodipodi:role="line"
         id="tspan4034-4-4"
         x="137.56781"
         y="93.269371">2</tspan></text>
    <text
       xml:space="preserve"
       style="font-size:8.73533726px;font-style:normal;font-weight:normal;line-height:125%;letter-spacing:0px;word-spacing:0px;fill:#ff0000;fill-opacity:1;stroke:none;font-family:Sans"
       x="138.13513"
       y="85.94577"
       id="text4032-0-8"
       sodipodi:linespacing="125%"><tspan
         sodipodi:role="line"
         id="tspan4034-89-9"
         x="138.13513"
         y="85.94577">j</tspan></text>
    <text
       xml:space="preserve"
       style="font-size:9.06142426px;font-style:normal;font-weight:normal;line-height:125%;letter-spacing:0px;word-spacing:0px;fill:#0000ff;fill-opacity:1;stroke:none;font-family:Sans"
       x="123.68466"
       y="69.768898"
       id="text4057-7"
       sodipodi:linespacing="125%"><tspan
         sodipodi:role="line"
         id="tspan4059-7"
         x="123.68466"
         y="69.768898">g</tspan></text>
    <text
       xml:space="preserve"
       style="font-size:5.61759949px;font-style:normal;font-weight:normal;line-height:125%;letter-spacing:0px;word-spacing:0px;fill:#0000ff;fill-opacity:1;stroke:none;font-family:Sans"
       x="129.13319"
       y="72.301682"
       id="text4032-2-16"
       sodipodi:linespacing="125%"><tspan
         sodipodi:role="line"
         id="tspan4034-4-2"
         x="129.13319"
         y="72.301682">1</tspan></text>
    <text
       xml:space="preserve"
       style="font-size:9.06142426px;font-style:normal;font-weight:normal;line-height:125%;letter-spacing:0px;word-spacing:0px;fill:#0000ff;fill-opacity:1;stroke:none;font-family:Sans"
       x="132.38855"
       y="69.764473"
       id="text4057-7-3"
       sodipodi:linespacing="125%"><tspan
         sodipodi:role="line"
         id="tspan4059-7-0"
         x="132.38855"
         y="69.764473">t</tspan></text>
    <text
       xml:space="preserve"
       style="font-size:4.3707962px;font-style:normal;font-weight:normal;line-height:125%;letter-spacing:0px;word-spacing:0px;fill:#0000ff;fill-opacity:1;stroke:none;font-family:Sans"
       x="136.21619"
       y="64.618988"
       id="text4032-0-8-4"
       sodipodi:linespacing="125%"><tspan
         sodipodi:role="line"
         id="tspan4034-89-9-5"
         x="136.21619"
         y="64.618988">2</tspan></text>
    <text
       xml:space="preserve"
       style="font-size:9.06142426px;font-style:normal;font-weight:normal;line-height:125%;letter-spacing:0px;word-spacing:0px;fill:#0000ff;fill-opacity:1;stroke:none;font-family:Sans"
       x="137.06052"
       y="70.14328"
       id="text4057-7-1"
       sodipodi:linespacing="125%"><tspan
         sodipodi:role="line"
         id="tspan4059-7-3"
         x="137.06052"
         y="70.14328">+g</tspan></text>
    <text
       xml:space="preserve"
       style="font-size:5.61759949px;font-style:normal;font-weight:normal;line-height:125%;letter-spacing:0px;word-spacing:0px;fill:#0000ff;fill-opacity:1;stroke:none;font-family:Sans"
       x="150.14206"
       y="72.554222"
       id="text4032-2-16-9"
       sodipodi:linespacing="125%"><tspan
         sodipodi:role="line"
         id="tspan4034-4-2-4"
         x="150.14206"
         y="72.554222">2</tspan></text>
    <text
       xml:space="preserve"
       style="font-size:9.06142426px;font-style:normal;font-weight:normal;line-height:125%;letter-spacing:0px;word-spacing:0px;fill:#0000ff;fill-opacity:1;stroke:none;font-family:Sans"
       x="153.72427"
       y="70.026024"
       id="text4057-7-3-3"
       sodipodi:linespacing="125%"><tspan
         sodipodi:role="line"
         id="tspan4059-7-0-2"
         x="153.72427"
         y="70.026024">t</tspan></text>
    <text
       xml:space="preserve"
       style="font-size:9.06142426px;font-style:normal;font-weight:normal;line-height:125%;letter-spacing:0px;word-spacing:0px;fill:#0000ff;fill-opacity:1;stroke:none;font-family:Sans"
       x="156.69519"
       y="70.143272"
       id="text4057-7-1-7"
       sodipodi:linespacing="125%"><tspan
         sodipodi:role="line"
         id="tspan4059-7-3-9"
         x="156.69519"
         y="70.143272">+g</tspan></text>
    <text
       xml:space="preserve"
       style="font-size:5.61759949px;font-style:normal;font-weight:normal;line-height:125%;letter-spacing:0px;word-spacing:0px;fill:#0000ff;fill-opacity:1;stroke:none;font-family:Sans"
       x="169.58603"
       y="72.970062"
       id="text4032-2-16-9-5"
       sodipodi:linespacing="125%"><tspan
         sodipodi:role="line"
         id="tspan4034-4-2-4-3"
         x="169.58603"
         y="72.970062">3</tspan></text>
    <text
       xml:space="preserve"
       style="font-size:9.06142426px;font-style:normal;font-weight:normal;line-height:125%;letter-spacing:0px;word-spacing:0px;fill:#0000ff;fill-opacity:1;stroke:none;font-family:Sans"
       x="123.75997"
       y="110.2759"
       id="text4057-7-9"
       sodipodi:linespacing="125%"><tspan
         sodipodi:role="line"
         id="tspan4059-7-5"
         x="123.75997"
         y="110.2759">g</tspan></text>
    <text
       xml:space="preserve"
       style="font-size:5.61759949px;font-style:normal;font-weight:normal;line-height:125%;letter-spacing:0px;word-spacing:0px;fill:#0000ff;fill-opacity:1;stroke:none;font-family:Sans"
       x="129.20851"
       y="112.80869"
       id="text4032-2-16-5"
       sodipodi:linespacing="125%"><tspan
         sodipodi:role="line"
         id="tspan4034-4-2-2"
         x="129.20851"
         y="112.80869">4</tspan></text>
    <text
       xml:space="preserve"
       style="font-size:9.06142426px;font-style:normal;font-weight:normal;line-height:125%;letter-spacing:0px;word-spacing:0px;fill:#0000ff;fill-opacity:1;stroke:none;font-family:Sans"
       x="132.46387"
       y="110.27148"
       id="text4057-7-3-1"
       sodipodi:linespacing="125%"><tspan
         sodipodi:role="line"
         id="tspan4059-7-0-5"
         x="132.46387"
         y="110.27148">t</tspan></text>
    <text
       xml:space="preserve"
       style="font-size:4.3707962px;font-style:normal;font-weight:normal;line-height:125%;letter-spacing:0px;word-spacing:0px;fill:#0000ff;fill-opacity:1;stroke:none;font-family:Sans"
       x="136.2915"
       y="105.12599"
       id="text4032-0-8-4-9"
       sodipodi:linespacing="125%"><tspan
         sodipodi:role="line"
         id="tspan4034-89-9-5-9"
         x="136.2915"
         y="105.12599">2</tspan></text>
    <text
       xml:space="preserve"
       style="font-size:9.06142426px;font-style:normal;font-weight:normal;line-height:125%;letter-spacing:0px;word-spacing:0px;fill:#0000ff;fill-opacity:1;stroke:none;font-family:Sans"
       x="137.13583"
       y="110.65028"
       id="text4057-7-1-1"
       sodipodi:linespacing="125%"><tspan
         sodipodi:role="line"
         id="tspan4059-7-3-6"
         x="137.13583"
         y="110.65028">+g</tspan></text>
    <text
       xml:space="preserve"
       style="font-size:5.61759949px;font-style:normal;font-weight:normal;line-height:125%;letter-spacing:0px;word-spacing:0px;fill:#0000ff;fill-opacity:1;stroke:none;font-family:Sans"
       x="150.21738"
       y="113.06123"
       id="text4032-2-16-9-2"
       sodipodi:linespacing="125%"><tspan
         sodipodi:role="line"
         id="tspan4034-4-2-4-1"
         x="150.21738"
         y="113.06123">5</tspan></text>
    <text
       xml:space="preserve"
       style="font-size:9.06142426px;font-style:normal;font-weight:normal;line-height:125%;letter-spacing:0px;word-spacing:0px;fill:#0000ff;fill-opacity:1;stroke:none;font-family:Sans"
       x="153.79958"
       y="110.53302"
       id="text4057-7-3-3-0"
       sodipodi:linespacing="125%"><tspan
         sodipodi:role="line"
         id="tspan4059-7-0-2-5"
         x="153.79958"
         y="110.53302">t</tspan></text>
    <text
       xml:space="preserve"
       style="font-size:9.06142426px;font-style:normal;font-weight:normal;line-height:125%;letter-spacing:0px;word-spacing:0px;fill:#0000ff;fill-opacity:1;stroke:none;font-family:Sans"
       x="156.77049"
       y="110.65028"
       id="text4057-7-1-7-3"
       sodipodi:linespacing="125%"><tspan
         sodipodi:role="line"
         id="tspan4059-7-3-9-2"
         x="156.77049"
         y="110.65028">+g</tspan></text>
    <text
       xml:space="preserve"
       style="font-size:5.61759949px;font-style:normal;font-weight:normal;line-height:125%;letter-spacing:0px;word-spacing:0px;fill:#0000ff;fill-opacity:1;stroke:none;font-family:Sans"
       x="169.66133"
       y="113.47707"
       id="text4032-2-16-9-5-1"
       sodipodi:linespacing="125%"><tspan
         sodipodi:role="line"
         id="tspan4034-4-2-4-3-9"
         x="169.66133"
         y="113.47707">6</tspan></text>
  </g>
</svg>
