<?xml version="1.0" encoding="UTF-8" standalone="no"?>
<!-- Created with matplotlib (http://matplotlib.sourceforge.net/) -->

<svg
   xmlns:dc="http://purl.org/dc/elements/1.1/"
   xmlns:cc="http://creativecommons.org/ns#"
   xmlns:rdf="http://www.w3.org/1999/02/22-rdf-syntax-ns#"
   xmlns:svg="http://www.w3.org/2000/svg"
   xmlns="http://www.w3.org/2000/svg"
   xmlns:xlink="http://www.w3.org/1999/xlink"
   xmlns:sodipodi="http://sodipodi.sourceforge.net/DTD/sodipodi-0.dtd"
   xmlns:inkscape="http://www.inkscape.org/namespaces/inkscape"
   width="576pt"
   height="432pt"
   viewBox="0 0 576 432"
   version="1.1"
   id="svg1"
   inkscape:version="0.48.3.1 r9886"
   sodipodi:docname="traj50.svg">
  <metadata
     id="metadata3595">
    <rdf:RDF>
      <cc:Work
         rdf:about="">
        <dc:format>image/svg+xml</dc:format>
        <dc:type
           rdf:resource="http://purl.org/dc/dcmitype/StillImage" />
        <dc:title></dc:title>
      </cc:Work>
    </rdf:RDF>
  </metadata>
  <defs
     id="defs3593" />
  <sodipodi:namedview
     pagecolor="#ffffff"
     bordercolor="#666666"
     borderopacity="1"
     objecttolerance="10"
     gridtolerance="10"
     guidetolerance="10"
     inkscape:pageopacity="0"
     inkscape:pageshadow="2"
     inkscape:window-width="1280"
     inkscape:window-height="974"
     id="namedview3591"
     showgrid="false"
     inkscape:zoom="0.87407407"
     inkscape:cx="294.06743"
     inkscape:cy="75.681362"
     inkscape:window-x="0"
     inkscape:window-y="0"
     inkscape:window-maximized="1"
     inkscape:current-layer="svg1" />
  <g
     id="axes1">
    <g
       id="patch2">
      <path
         inkscape:connector-curvature="0"
         id="path3294"
         d="m 72,388.8 446.4,0 0,-345.6 -446.4,0 0,345.6"
         style="fill:#ffffff" />
    </g>
    <g
       id="line2d1">
      <defs
         id="defs3297">
        <clipPath
           id="p50431ccdcb28178602d99d9270004dde">
          <rect
             id="rect3300"
             height="345.60001"
             width="446.39999"
             y="43.200001"
             x="72" />
        </clipPath>
      </defs>
      <path
         inkscape:connector-curvature="0"
         id="path3302"
         d="m 265.38884,232.10035 26.62954,-28.40635 2.61592,-7.69657 -3.59003,22.67739 2.46695,-7.98141 11.72559,2.24833 0,0 1.17807,-15.03181 -2.03727,27.45886 -8.62018,-15.35568 -2.16705,0.0495 -2.56814,7.06241 15.30978,-12.44591 -25.37226,11.95454 23.41785,8.73516 1.04393,-14.06516 -14.16393,5.48482 0.4569,8.98672 -13.78907,-0.77663 -12.18628,-3.17918 35.8101,4.82383 -11.87503,-7.92833 10.45075,14.82922 -12.74665,-13.72644 24.13175,1.45238 -23.5504,-2.53509 10.43012,9.04412 -10.18737,-13.25907 10.87392,20.642 11.03733,-5.49608 -23.74481,-1.19538 3.23247,-22.6003 10.17464,21.32074 -10.17464,-21.32074 -2.32048,14.88865 12.66491,7.14192 -12.33779,-7.09331 1.1072,0.32309 11.85083,0.93923 -11.85083,-0.93923 10.99525,-0.34129 15.94981,-18.7226 -14.56841,11.77472 0.97097,0.78078 -2.05429,20.10302 -9.68881,-22.21825 11.7431,2.11523 -0.87247,6.05329 0.87247,-6.05329 -10.56326,-3.02421 23.58986,-10.13691 -13.54623,12.56459 14.3647,6.63003 -1.48806,0.29613 -10.15648,-13.97302 -0.53214,6.33625 13.04323,7.66576 -10.1449,-15.80718 -1.87211,15.83169 1.30726,-15.9271 -1.96612,0.9734 -8.81088,-2.98762 24.38882,-12.28717 -11.38506,21.67524 1.3486,-14.02849 11.80032,1.60325 -12.991,17.32753 -1.58259,-11.01283 12.69116,-8.35156 -12.80305,6.30517 11.67043,2.52826 -13.54149,-7.56716 -50.74058,28.61725 36.25155,-16.07677 24.86703,3.41191 -9.02532,-8.97569 -1.19612,-8.75205 -13.22381,12.98527 24.12285,-5.33423 -22.66974,11.84657 11.40727,2.12282 -1.11052,-6.71345 4.15776,-15.60375 -13.48521,12.68336 25.31895,-11.47751 -12.80305,6.30517 -3.28422,7.1817 1.33164,6.746 3.0806,-19.60515 -2.01801,13.9145 0.55371,-7.97892 -0.0908,0.9304 1.83824,7.84688 10.17898,-5.83564 -10.62087,-10.71079 -2.75008,22.59344 0,0 11.6285,0.44853 -11.80031,-1.60325 0,0 3.24621,-7.16544 -0.15383,1.16586 1.74536,-13.79968 -1.63655,19.19101 8.59912,2.2115 -0.0848,0.71803 -22.35737,-10.41098 10.64185,8.0897 0.40678,-5.45776 -13.24361,-1.37933 13.07491,-13.90486 3.1257,15.84966 -2.1014,-8.25233 -9.69437,6.60256 8.83877,1.0843 11.71553,2.32128 -2.64503,7.01556 -23.52566,-1.80565 10.05994,14.90389 -9.59611,-8.30409 11.16584,-5.69186 1.92625,-1.80604 13.5669,2.10143 -11.46495,-1.48473 -1.03089,-6.09507 1.55623,-15.12428 -17.40562,23.48634 -23.00899,3.72126 25.94376,-19.03466 0.78752,5.94679 23.35223,3.29497 -11.62149,-3.48701 0.46269,-6.79819 -0.46269,6.79819 -0.82169,-5.47947 -0.14482,12.69849 -12.5006,-8.51132 2.15537,-6.82721 13.54061,8.30534 0.80671,-9.16024 -2.74891,14.79806 2.06584,6.13701 -11.65122,-2.50301 27.48987,-26.03895 -0.21323,1.26347 -8.96232,6.54531 -14.97343,13.07013 -24.33715,5.71863 27.89927,11.21999 -11.7449,-0.27043 1.12197,-8.18709 -13.84078,0.014 23.04186,9.39066 -9.20108,-9.40465 0.59621,6.35225 2.07849,0.74714 0.0366,-7.64445 -3.20313,18.94452 10.02957,-10.71517 11.09781,-1.87827 -13.97916,22.78525 -0.0448,-2.37877 -12.7076,8.1828 -11.02449,-5.07262 -11.23405,5.01834 -0.7561,-1.13644 -0.0938,5.79517 -10.92457,-9.34801 22.97051,9.34093 -21.23099,-10.24864 9.24916,10.61814 -22.41283,-9.57243 -9.12488,-16.76489 9.32958,15.21136 14.49599,-6.65736 -13.36355,-3.68134 -0.98805,-4.84675 10.60238,0.74385 0.95565,-4.589 -0.81717,-14.15327 12.48883,9.78276 -11.5851,-4.66738 0.0199,9.18346 12.33704,0.0787 -0.43959,14.11013 -13.30487,5.13726 0.006,-0.10382 -10.89698,-14.81693 22.85988,29.22946 0.30739,-2.65983 -24.85438,8.56553 12.45847,-14.75034 0.42142,-13.6935 24.02333,8.26645 -23.35297,-14.80673 11.96679,8.285 -0.453,5.84011 11.87095,0.45524 0.42392,-14.11081 -11.88314,21.18266 0.56166,-7.82929 11.76362,7.55936 -11.88569,-13.84021 0.4396,0.01 10.60285,7.033 -11.03389,-7.32228 -0.009,14.39941 11.88569,-0.2796 1.323,-19.6313 11.87713,0 -13.10246,6.03756 12.19699,-13.69384 2.35368,0.84031 -1.16643,6.82339 -1.14192,-7.64175 -23.27413,-1.38593 12.56274,7.78716 10.71139,-6.40123 -21.40214,-7.87283 9.92507,6.93603 0.76568,7.33803 -1.34259,-14.37371 0.91828,-6.86496 1.78966,8.49963 -0.78937,-8.4241 11.27733,22.40366 -12.54472,-8.58665 -11.42726,-1.34412 1.4472,1.65446 22.70814,-14.18141 2.26826,0.13655 -14.26571,20.86825 -12.52103,-7.61462 0,0"
         clip-path="url(#p50431ccdcb28178602d99d9270004dde)"
         style="fill:none;stroke:#98ff7e;stroke-width:1;stroke-linecap:square;stroke-linejoin:round" />
    </g>
    <g
       id="line2d2">
      <path
         inkscape:connector-curvature="0"
         id="path3305"
         d="m 324.31957,236.11127 -9.62844,-4.64643 20.33924,-4.62596 -9.76021,11.84118 0.83927,-8.22656 2.4248,0.74362 -1.8331,-3.79556 -11.40962,-0.3259 22.06157,0.37763 -20.76779,-9.00956 -0.50611,5.15126 -1.31341,8.96618 -0.74548,-4.58515 -2.07098,4.45478 13.57344,-17.81481 -20.75218,8.69835 19.14513,-1.40887 -7.30045,-3.68787 6.56295,9.48271 -10.26008,-4.81817 -9.90786,-8.63946 7.27964,17.72106 -8.52144,-17.50097 -0.26708,4.15884 11.32366,3.79075 -0.88827,-4.11179 10.48478,4.42981 1.62851,-0.3005 8.71795,-4.76072 -9.56996,0.53109 8.8598,8.3611 -9.5884,0.54809 -10.45282,3.92745 11.34345,-3.6071 -10.59431,-4.06922 18.95386,3.92026 1.92866,-3.70691 -9.11923,8.33417 0.91882,-4.64775 8.79796,-7.7944 -18.76164,12.72365 0.0103,-0.89262 8.98012,-2.31551 -1.44253,-5.75884 2.02948,8.55579 -1.22427,0.0626 9.45653,-4.9061 -8.97429,9.17632"
         clip-path="url(#p50431ccdcb28178602d99d9270004dde)"
         style="fill:none;stroke:#8bff6e;stroke-width:1;stroke-linecap:square;stroke-linejoin:round" />
    </g>
    <g
       id="line2d3">
      <path
         inkscape:connector-curvature="0"
         id="path3308"
         d="m 259.62026,234.70772 28.91801,-51.68047 -0.0453,-8.4908 -1.36979,23.21005 -21.15706,-10.29081 -25.16129,14.78849 31.76864,-13.56418 30.29041,9.95258 -0.89609,8.89952 -10.20033,-7.43189 -10.74509,13.82869 0,0 10.1606,0.99656 23.0929,5.26808 -10.2034,-8.92816 -10.79306,0.49513 0.0167,15.0754 -0.61761,8.71437 11.31122,-7.47933 -11.31122,-7.87741 -10.26977,8.0959 10.26977,-8.0959 32.64313,6.43657 20.88476,-7.76949 10.86027,-7.47446 -22.10836,9.61193 -54.08385,7.36094 -9.15662,-5.00076 1.23098,-23.32546 10.68506,17.20338 15.08864,-19.88633 -2.05,22.99616 -16.19054,13.27284 -5.93021,5.63219 0.85703,7.97864 9.55281,-3.89484 22.23679,-19.84703 0.74589,6.24433 -16.60491,-7.20574 -22.01644,7.69215 -20.62528,-2.57425 0,0 -2.59714,14.71502 6.38783,-8.34635 -10.58196,2.60808 6.70345,9.43514 0.42123,5.23293 8.41006,-15.05708 22.00872,-17.61259 7.85414,5.07451 3.2042,2.73578 -14.3111,-2.92629 -20.79871,18.1379 13.32691,-20.9293 -3.14738,10.85021 20.78655,-12.73672 12.02233,-6.19367 -1.4635,7.44714 -39.74999,-1.06278 7.93613,18.77766 -11.01407,-8.31534 29.64287,3.02633 -8.66564,-9.49204 -22.98157,12.40681 24.44512,3.68919 -2.47995,6.74891 1.77529,-15.1478 21.45042,2.52463 -10.72853,-19.20288 -10.72189,16.67825 -10.22336,5.13854 0.0664,1.57595 -10.00128,-10.27087 10.8368,1.2315 -0.90197,7.46342 -0.9388,15.13677 -12.06355,-7.65215 11.486,-14.05307 30.09379,-5.7494 10.7526,-0.38632 -10.70706,-0.64144 1.08377,0.76475 -0.85257,8.28221 -0.69117,-24.26751 -21.43553,0.50229 10.7194,7.44227 -1.01172,15.66301 -10.79867,0 -9.37883,-14.5331 9.37475,13.63904 -0.77405,7.41632 -10.56784,-1.36999 11.02338,-5.26163 10.49615,-1.89821 11.32759,23.45264 -9.98836,-23.23166 0.23662,7.16646 0.0172,-0.48454 -0.0774,-14.53618 -10.59606,21.72941 -10.0754,-14.85759 21.54452,0.78996 -0.89499,-8.19109 10.77627,16.34544 0.0224,-0.9887 0.76034,-0.74138 1.44072,-0.2399 -11.79455,-0.22215 10.77033,-0.20422 1.0003,-14.34391 -22.55706,14.02304 -10.40418,15.55248 0.70328,-29.61133 -1.36738,7.83176 9.87278,-6.87182 10.00306,22.23114 -10.02499,-7.40371 10.01938,7.89884 10.79867,-15.35675 -0.25272,-8.42504 10.64271,-6.22422 9.85613,8.63225 13.36242,-33.49119 -8.7044,-3.97823 9.62665,24.24707 -1.87494,18.29365 -11.31122,-22.83608 -0.43741,9.10613 -32.16038,6.57681 11.23837,-8.65931 10.89541,7.01897 -11.67568,17.73813 -10.43292,-15.85982 10.43872,15.58058 -10.66219,-8.3757 -10.56921,-7.71649 -0.003,0.0757 -0.30169,15.06854 -10.98607,-0.68263 0,0"
         clip-path="url(#p50431ccdcb28178602d99d9270004dde)"
         style="fill:none;stroke:#85ff77;stroke-width:1;stroke-linecap:square;stroke-linejoin:round" />
    </g>
    <g
       id="line2d4">
      <path
         inkscape:connector-curvature="0"
         id="path3311"
         d="m 296.08502,191.92137 52.12545,42.16296 0.32646,-7.15404 0.50172,15.34016 0.54753,14.264 -0.52299,-14.60539 -11.08578,9.07256 0.81296,6.99725 -1.44839,-30.40993 11.27617,14.72103 -0.0176,-0.73064 -1.06128,-7.44305 0.95273,7.00199 9.82867,-7.18815 -9.5933,16.66325 10.14824,-24.95504 -9.837,16.61212 -1.49934,-8.13417 -10.7805,0.19502 11.87823,6.90584 -19.98998,9.15361 17.96468,-32.84152 -19.47948,25.42699 20.60013,-16.30908 10.8383,21.33953 -11.27931,-6.91117 -0.007,0.7064 -1.60108,-8.00218 -10.78004,0.90178 -20.62781,16.20552 1.51882,8.21493 -0.96323,-15.88334 1.02998,-7.63533 0.038,0.46776 -1.86474,-1.08638 11.73304,-6.55856 -11.42048,-8.31181 21.09372,-7.85663 -11.67523,30.83576 -21.22655,-16.33351 10.45611,15.82891 1.30333,-22.02533 -0.97424,6.96329 0.008,-0.28721 -11.16877,15.48339 11.52072,8.54148 -0.36015,-23.73766 10.8764,-0.0555 10.32443,-7.33526 10.37745,6.52608 10.84012,0.63617 -0.0711,-7.53979 11.22439,9.10995 -0.40615,-8.57137 1.40431,15.3825 -10.3421,-30.21635 11.10045,15.48455 -10.93808,-14.98868 -10.87703,7.63065 0.23352,-7.89453 -10.69753,6.58038 -9.27351,-1.50811 -31.01495,-18.84614"
         clip-path="url(#p50431ccdcb28178602d99d9270004dde)"
         style="fill:none;stroke:#54ff46;stroke-width:1;stroke-linecap:square;stroke-linejoin:round" />
    </g>
    <g
       id="line2d5">
      <path
         inkscape:connector-curvature="0"
         id="path3314"
         d="m 274.47953,220.69028 35.51219,-6.33936 -12.84296,0 25.68592,0 -25.68592,20.94308 -25.68593,-20.94308 23.78898,-13.33477 -10.03437,3.65126 24.40904,27.91795 25.6563,-3.59185 -1.08665,9.24676 -26.40773,-23.24318 0.6833,23.88289 26.11631,-31.58332 -25.62063,1.69382 -0.72052,9.7411 0.0126,-3.78613 12.80778,3.51938 -25.73073,0.67309 -0.31315,-20.93685 13.56052,20.64193 25.01698,-21.81382 -38.5775,1.17189 -0.55375,9.7149 14.11427,10.92703 -25.30817,-27.41914 11.74765,6.77721 -11.03057,35.47463 0.02,-0.2306 -0.68975,-41.64127 14.3833,13.34285 0,0 -0.87553,27.94749 -1.18248,-32.29241 -11.34252,13.54916 12.21185,-2.19361 -0.52235,9.57989 -11.11976,-16.82081 24.82963,28.04276 -12.10948,-9.55816 -13.90388,-10.89243 -1.17445,6.90942 -11.65159,-6.61469 13.93807,11.18479 12.04695,8.87549 -27.15125,-13.1512 26.47307,-10.16331 -12.13963,23.6089 -1.42309,-13.85194 0.77087,-9.16988 -0.0313,0.57463 0.0313,-0.57463 0.7124,20.91084 -0.38938,-18.82522 12.45725,27.45828 -36.53087,19.66846 11.65823,-24.87809 0.54089,4.395 49.39156,-41.47923 -24.34658,35.70614 0.83207,-7.00256 -12.21933,-7.04073 0.30861,21.15406 -24.20317,-7.39148 13.09262,21.34007 -12.7503,-0.61915 -1.06039,-12.53544 12.78395,-0.70262 -0.92008,8.60986 -12.53132,-42.78856 2.36845,25.77733 -2.32842,-25.43312 -10.74142,13.13042 -14.93982,-13.69624 0,0 1.42237,12.53531 11.41591,8.9736 12.46508,-0.35147 13.22084,-20.59162 -0.35167,42.44435 -11.90708,-8.59712 0.13093,0.16522 12.35459,-21.98812 -13.38426,9.27406 25.64878,0.20287 -12.84296,0 0,0 -12.84296,0 0.0322,21.32174 -12.83801,-21.52461 12.80582,0.20287 1.74129,13.67213 12.84296,-20.94309"
         clip-path="url(#p50431ccdcb28178602d99d9270004dde)"
         style="fill:none;stroke:#3aff29;stroke-width:1;stroke-linecap:square;stroke-linejoin:round" />
    </g>
    <g
       id="matplotlib.axis1">
      <g
         id="xtick1">
        <g
           id="line2d6">
          <defs
             id="defs3319">
            <path
               inkscape:connector-curvature="0"
               d="M 0,0 0,-4"
               id="m30e32995789d870ad79a2e54c91cf9c6" />
          </defs>
          <g
             id="g3322">
            <use
               height="432"
               width="576"
               id="use3324"
               y="388.79999"
               x="72"
               xlink:href="#m30e32995789d870ad79a2e54c91cf9c6"
               style="fill:none;stroke:#000000;stroke-width:0.5;stroke-linecap:butt;stroke-linejoin:round" />
          </g>
        </g>
        <g
           id="line2d7">
          <defs
             id="defs3327">
            <path
               inkscape:connector-curvature="0"
               d="M 0,0 0,4"
               id="m9281cae24120827b11d5ea8a7ad3e96b" />
          </defs>
          <g
             id="g3330">
            <use
               height="432"
               width="576"
               id="use3332"
               y="43.200001"
               x="72"
               xlink:href="#m9281cae24120827b11d5ea8a7ad3e96b"
               style="fill:none;stroke:#000000;stroke-width:0.5;stroke-linecap:butt;stroke-linejoin:round" />
          </g>
        </g>
        <g
           id="text1">
          <defs
             id="defs3335">
            <path
               inkscape:connector-curvature="0"
               d="m 10.59375,-35.5 62.59375,0 0,8.296875 -62.59375,0 z"
               id="c_6a8d56c819c37117ab4cf023bec22a5a" />
            <path
               inkscape:connector-curvature="0"
               d="m 33.015625,-40.375 q -6.640625,0 -10.53125,4.546875 -3.875,4.53125 -3.875,12.4375 0,7.859375 3.875,12.4375 3.890625,4.5625 10.53125,4.5625 6.640625,0 10.515625,-4.5625 3.875,-4.578125 3.875,-12.4375 0,-7.90625 -3.875,-12.4375 Q 39.65625,-40.375 33.015625,-40.375 m 19.578125,-30.921875 0,8.984375 q -3.71875,-1.75 -7.5,-2.671875 -3.78125,-0.9375 -7.5,-0.9375 -9.765625,0 -14.921875,6.59375 -5.140625,6.59375 -5.875,19.921875 2.875,-4.25 7.21875,-6.515625 4.359375,-2.265625 9.578125,-2.265625 10.984375,0 17.359375,6.671875 6.375,6.65625 6.375,18.125 0,11.234375 -6.640625,18.03125 -6.640625,6.78125 -17.671875,6.78125 -12.65625,0 -19.34375,-9.6875 -6.6875,-9.703125 -6.6875,-28.109375 0,-17.28125 8.203125,-27.5625 8.203125,-10.28125 22.015625,-10.28125 3.71875,0 7.5,0.734375 3.78125,0.734375 7.890625,2.1875"
               id="c_cc8d6d580d1b10c8632f7a42cd53db8a" />
          </defs>
          <g
             id="g3339"
             transform="matrix(0.12,0,0,0.12,64.164062,401.70625)"
             style="fill:#000000">
            <use
               height="432"
               width="576"
               y="0"
               x="0"
               id="use3341"
               xlink:href="#c_6a8d56c819c37117ab4cf023bec22a5a" />
            <use
               height="432"
               width="576"
               y="0"
               id="use3343"
               x="83.789062"
               xlink:href="#c_cc8d6d580d1b10c8632f7a42cd53db8a" />
          </g>
        </g>
      </g>
      <g
         id="xtick2">
        <g
           id="line2d8">
          <g
             id="g3347">
            <use
               height="432"
               width="576"
               id="use3349"
               y="388.79999"
               x="146.39999"
               xlink:href="#m30e32995789d870ad79a2e54c91cf9c6"
               style="fill:none;stroke:#000000;stroke-width:0.5;stroke-linecap:butt;stroke-linejoin:round" />
          </g>
        </g>
        <g
           id="line2d9">
          <g
             id="g3352">
            <use
               height="432"
               width="576"
               id="use3354"
               y="43.200001"
               x="146.39999"
               xlink:href="#m9281cae24120827b11d5ea8a7ad3e96b"
               style="fill:none;stroke:#000000;stroke-width:0.5;stroke-linecap:butt;stroke-linejoin:round" />
          </g>
        </g>
        <g
           id="text2">
          <defs
             id="defs3357">
            <path
               inkscape:connector-curvature="0"
               d="m 37.796875,-64.3125 -24.90625,38.921875 24.90625,0 z m -2.59375,-8.59375 12.40625,0 0,47.515625 10.40625,0 0,8.203125 -10.40625,0 0,17.1875 -9.8125,0 0,-17.1875 -32.90625,0 0,-9.515625 z"
               id="c_a0416418d96557a09b8c1332d34883ba" />
          </defs>
          <g
             id="g3360"
             transform="matrix(0.12,0,0,0.12,138.51719,401.55)"
             style="fill:#000000">
            <use
               height="432"
               width="576"
               y="0"
               x="0"
               id="use3362"
               xlink:href="#c_6a8d56c819c37117ab4cf023bec22a5a" />
            <use
               height="432"
               width="576"
               y="0"
               id="use3364"
               x="83.789062"
               xlink:href="#c_a0416418d96557a09b8c1332d34883ba" />
          </g>
        </g>
      </g>
      <g
         id="xtick3">
        <g
           id="line2d10">
          <g
             id="g3368">
            <use
               height="432"
               width="576"
               id="use3370"
               y="388.79999"
               x="220.8"
               xlink:href="#m30e32995789d870ad79a2e54c91cf9c6"
               style="fill:none;stroke:#000000;stroke-width:0.5;stroke-linecap:butt;stroke-linejoin:round" />
          </g>
        </g>
        <g
           id="line2d11">
          <g
             id="g3373">
            <use
               height="432"
               width="576"
               id="use3375"
               y="43.200001"
               x="220.8"
               xlink:href="#m9281cae24120827b11d5ea8a7ad3e96b"
               style="fill:none;stroke:#000000;stroke-width:0.5;stroke-linecap:butt;stroke-linejoin:round" />
          </g>
        </g>
        <g
           id="text3">
          <defs
             id="defs3378">
            <path
               inkscape:connector-curvature="0"
               d="m 19.1875,-8.296875 34.421875,0 0,8.296875 -46.28125,0 0,-8.296875 q 5.609375,-5.8125 15.296875,-15.59375 9.703125,-9.796875 12.1875,-12.640625 4.734375,-5.3125 6.609375,-9 1.890625,-3.6875 1.890625,-7.25 0,-5.8125 -4.078125,-9.46875 -4.078125,-3.671875 -10.625,-3.671875 -4.640625,0 -9.796875,1.609375 -5.140625,1.609375 -11,4.890625 l 0,-9.96875 Q 13.765625,-71.78125 18.9375,-73 q 5.1875,-1.21875 9.484375,-1.21875 11.328125,0 18.0625,5.671875 6.734375,5.65625 6.734375,15.125 0,4.5 -1.6875,8.53125 -1.671875,4.015625 -6.125,9.484375 -1.21875,1.421875 -7.765625,8.1875 -6.53125,6.765625 -18.453125,18.921875"
               id="c_ed3f3ed3ebfbd18bcb9c012009a68ad1" />
          </defs>
          <g
             id="g3381"
             transform="matrix(0.12,0,0,0.12,213.18281,401.70625)"
             style="fill:#000000">
            <use
               height="432"
               width="576"
               y="0"
               x="0"
               id="use3383"
               xlink:href="#c_6a8d56c819c37117ab4cf023bec22a5a" />
            <use
               height="432"
               width="576"
               y="0"
               id="use3385"
               x="83.789062"
               xlink:href="#c_ed3f3ed3ebfbd18bcb9c012009a68ad1" />
          </g>
        </g>
      </g>
      <g
         id="xtick4">
        <g
           id="line2d12">
          <g
             id="g3389">
            <use
               height="432"
               width="576"
               id="use3391"
               y="388.79999"
               x="295.20001"
               xlink:href="#m30e32995789d870ad79a2e54c91cf9c6"
               style="fill:none;stroke:#000000;stroke-width:0.5;stroke-linecap:butt;stroke-linejoin:round" />
          </g>
        </g>
        <g
           id="line2d13">
          <g
             id="g3394">
            <use
               height="432"
               width="576"
               id="use3396"
               y="43.200001"
               x="295.20001"
               xlink:href="#m9281cae24120827b11d5ea8a7ad3e96b"
               style="fill:none;stroke:#000000;stroke-width:0.5;stroke-linecap:butt;stroke-linejoin:round" />
          </g>
        </g>
        <g
           id="text4">
          <defs
             id="defs3399">
            <path
               inkscape:connector-curvature="0"
               d="m 31.78125,-66.40625 q -7.609375,0 -11.453125,7.5 Q 16.5,-51.421875 16.5,-36.375 q 0,14.984375 3.828125,22.484375 3.84375,7.5 11.453125,7.5 7.671875,0 11.5,-7.5 3.84375,-7.5 3.84375,-22.484375 0,-15.046875 -3.84375,-22.53125 -3.828125,-7.5 -11.5,-7.5 m 0,-7.8125 q 12.265625,0 18.734375,9.703125 6.46875,9.6875 6.46875,28.140625 0,18.40625 -6.46875,28.109375 -6.46875,9.6875 -18.734375,9.6875 -12.25,0 -18.71875,-9.6875 Q 6.59375,-17.96875 6.59375,-36.375 q 0,-18.453125 6.46875,-28.140625 6.46875,-9.703125 18.71875,-9.703125"
               id="c_7a2040fe3b94fcd41d0a72c84e93b115" />
          </defs>
          <g
             id="g3402"
             transform="matrix(0.12,0,0,0.12,292.17656,401.70625)"
             style="fill:#000000">
            <use
               height="432"
               width="576"
               y="0"
               x="0"
               id="use3404"
               xlink:href="#c_7a2040fe3b94fcd41d0a72c84e93b115" />
          </g>
        </g>
      </g>
      <g
         id="xtick5">
        <g
           id="line2d14">
          <g
             id="g3408">
            <use
               height="432"
               width="576"
               id="use3410"
               y="388.79999"
               x="369.60001"
               xlink:href="#m30e32995789d870ad79a2e54c91cf9c6"
               style="fill:none;stroke:#000000;stroke-width:0.5;stroke-linecap:butt;stroke-linejoin:round" />
          </g>
        </g>
        <g
           id="line2d15">
          <g
             id="g3413">
            <use
               height="432"
               width="576"
               id="use3415"
               y="43.200001"
               x="369.60001"
               xlink:href="#m9281cae24120827b11d5ea8a7ad3e96b"
               style="fill:none;stroke:#000000;stroke-width:0.5;stroke-linecap:butt;stroke-linejoin:round" />
          </g>
        </g>
        <g
           id="text5">
          <g
             id="g3418"
             transform="matrix(0.12,0,0,0.12,366.81875,401.70625)"
             style="fill:#000000">
            <use
               height="432"
               width="576"
               y="0"
               x="0"
               id="use3420"
               xlink:href="#c_ed3f3ed3ebfbd18bcb9c012009a68ad1" />
          </g>
        </g>
      </g>
      <g
         id="xtick6">
        <g
           id="line2d16">
          <g
             id="g3424">
            <use
               height="432"
               width="576"
               id="use3426"
               y="388.79999"
               x="444"
               xlink:href="#m30e32995789d870ad79a2e54c91cf9c6"
               style="fill:none;stroke:#000000;stroke-width:0.5;stroke-linecap:butt;stroke-linejoin:round" />
          </g>
        </g>
        <g
           id="line2d17">
          <g
             id="g3429">
            <use
               height="432"
               width="576"
               id="use3431"
               y="43.200001"
               x="444"
               xlink:href="#m9281cae24120827b11d5ea8a7ad3e96b"
               style="fill:none;stroke:#000000;stroke-width:0.5;stroke-linecap:butt;stroke-linejoin:round" />
          </g>
        </g>
        <g
           id="text6">
          <g
             id="g3434"
             transform="matrix(0.12,0,0,0.12,440.8125,401.55)"
             style="fill:#000000">
            <use
               height="432"
               width="576"
               y="0"
               x="0"
               id="use3436"
               xlink:href="#c_a0416418d96557a09b8c1332d34883ba" />
          </g>
        </g>
      </g>
      <g
         id="xtick7">
        <g
           id="line2d18">
          <g
             id="g3440">
            <use
               height="432"
               width="576"
               id="use3442"
               y="388.79999"
               x="518.40002"
               xlink:href="#m30e32995789d870ad79a2e54c91cf9c6"
               style="fill:none;stroke:#000000;stroke-width:0.5;stroke-linecap:butt;stroke-linejoin:round" />
          </g>
        </g>
        <g
           id="line2d19">
          <g
             id="g3445">
            <use
               height="432"
               width="576"
               id="use3447"
               y="43.200001"
               x="518.40002"
               xlink:href="#m9281cae24120827b11d5ea8a7ad3e96b"
               style="fill:none;stroke:#000000;stroke-width:0.5;stroke-linecap:butt;stroke-linejoin:round" />
          </g>
        </g>
        <g
           id="text7">
          <g
             id="g3450"
             transform="matrix(0.12,0,0,0.12,515.38437,401.70625)"
             style="fill:#000000">
            <use
               height="432"
               width="576"
               y="0"
               x="0"
               id="use3452"
               xlink:href="#c_cc8d6d580d1b10c8632f7a42cd53db8a" />
          </g>
        </g>
      </g>
    </g>
    <g
       id="matplotlib.axis2">
      <g
         id="ytick1">
        <g
           id="line2d20">
          <defs
             id="defs3457">
            <path
               inkscape:connector-curvature="0"
               d="M 0,0 4,0"
               id="m3400efa6b1638b3fea9e19e898273957" />
          </defs>
          <g
             id="g3460">
            <use
               height="432"
               width="576"
               id="use3462"
               y="388.79999"
               x="72"
               xlink:href="#m3400efa6b1638b3fea9e19e898273957"
               style="fill:none;stroke:#000000;stroke-width:0.5;stroke-linecap:butt;stroke-linejoin:round" />
          </g>
        </g>
        <g
           id="line2d21">
          <defs
             id="defs3465">
            <path
               inkscape:connector-curvature="0"
               d="M 0,0 -4,0"
               id="m20b58b2501143cb5e0a5e8f1ef6f1643" />
          </defs>
          <g
             id="g3468">
            <use
               height="432"
               width="576"
               id="use3470"
               y="388.79999"
               x="518.40002"
               xlink:href="#m20b58b2501143cb5e0a5e8f1ef6f1643"
               style="fill:none;stroke:#000000;stroke-width:0.5;stroke-linecap:butt;stroke-linejoin:round" />
          </g>
        </g>
        <g
           id="text8">
          <g
             id="g3473"
             transform="matrix(0.12,0,0,0.12,52.328125,393.16719)"
             style="fill:#000000">
            <use
               height="432"
               width="576"
               y="0"
               x="0"
               id="use3475"
               xlink:href="#c_6a8d56c819c37117ab4cf023bec22a5a" />
            <use
               height="432"
               width="576"
               y="0"
               id="use3477"
               x="83.789062"
               xlink:href="#c_cc8d6d580d1b10c8632f7a42cd53db8a" />
          </g>
        </g>
      </g>
      <g
         id="ytick2">
        <g
           id="line2d22">
          <g
             id="g3481">
            <use
               height="432"
               width="576"
               id="use3483"
               y="331.20001"
               x="72"
               xlink:href="#m3400efa6b1638b3fea9e19e898273957"
               style="fill:none;stroke:#000000;stroke-width:0.5;stroke-linecap:butt;stroke-linejoin:round" />
          </g>
        </g>
        <g
           id="line2d23">
          <g
             id="g3486">
            <use
               height="432"
               width="576"
               id="use3488"
               y="331.20001"
               x="518.40002"
               xlink:href="#m20b58b2501143cb5e0a5e8f1ef6f1643"
               style="fill:none;stroke:#000000;stroke-width:0.5;stroke-linecap:butt;stroke-linejoin:round" />
          </g>
        </g>
        <g
           id="text9">
          <g
             id="g3491"
             transform="matrix(0.12,0,0,0.12,52.234375,335.575)"
             style="fill:#000000">
            <use
               height="432"
               width="576"
               y="0"
               x="0"
               id="use3493"
               xlink:href="#c_6a8d56c819c37117ab4cf023bec22a5a" />
            <use
               height="432"
               width="576"
               y="0"
               id="use3495"
               x="83.789062"
               xlink:href="#c_a0416418d96557a09b8c1332d34883ba" />
          </g>
        </g>
      </g>
      <g
         id="ytick3">
        <g
           id="line2d24">
          <g
             id="g3499">
            <use
               height="432"
               width="576"
               id="use3501"
               y="273.60001"
               x="72"
               xlink:href="#m3400efa6b1638b3fea9e19e898273957"
               style="fill:none;stroke:#000000;stroke-width:0.5;stroke-linecap:butt;stroke-linejoin:round" />
          </g>
        </g>
        <g
           id="line2d25">
          <g
             id="g3504">
            <use
               height="432"
               width="576"
               id="use3506"
               y="273.60001"
               x="518.40002"
               xlink:href="#m20b58b2501143cb5e0a5e8f1ef6f1643"
               style="fill:none;stroke:#000000;stroke-width:0.5;stroke-linecap:butt;stroke-linejoin:round" />
          </g>
        </g>
        <g
           id="text10">
          <g
             id="g3509"
             transform="matrix(0.12,0,0,0.12,52.765625,278.05313)"
             style="fill:#000000">
            <use
               height="432"
               width="576"
               y="0"
               x="0"
               id="use3511"
               xlink:href="#c_6a8d56c819c37117ab4cf023bec22a5a" />
            <use
               height="432"
               width="576"
               y="0"
               id="use3513"
               x="83.789062"
               xlink:href="#c_ed3f3ed3ebfbd18bcb9c012009a68ad1" />
          </g>
        </g>
      </g>
      <g
         id="ytick4">
        <g
           id="line2d26">
          <g
             id="g3517">
            <use
               height="432"
               width="576"
               id="use3519"
               y="216"
               x="72"
               xlink:href="#m3400efa6b1638b3fea9e19e898273957"
               style="fill:none;stroke:#000000;stroke-width:0.5;stroke-linecap:butt;stroke-linejoin:round" />
          </g>
        </g>
        <g
           id="line2d27">
          <g
             id="g3522">
            <use
               height="432"
               width="576"
               id="use3524"
               y="216"
               x="518.40002"
               xlink:href="#m20b58b2501143cb5e0a5e8f1ef6f1643"
               style="fill:none;stroke:#000000;stroke-width:0.5;stroke-linecap:butt;stroke-linejoin:round" />
          </g>
        </g>
        <g
           id="text11">
          <g
             id="g3527"
             transform="matrix(0.12,0,0,0.12,61.953125,220.36719)"
             style="fill:#000000">
            <use
               height="432"
               width="576"
               y="0"
               x="0"
               id="use3529"
               xlink:href="#c_7a2040fe3b94fcd41d0a72c84e93b115" />
          </g>
        </g>
      </g>
      <g
         id="ytick5">
        <g
           id="line2d28">
          <g
             id="g3533">
            <use
               height="432"
               width="576"
               id="use3535"
               y="158.39999"
               x="72"
               xlink:href="#m3400efa6b1638b3fea9e19e898273957"
               style="fill:none;stroke:#000000;stroke-width:0.5;stroke-linecap:butt;stroke-linejoin:round" />
          </g>
        </g>
        <g
           id="line2d29">
          <g
             id="g3538">
            <use
               height="432"
               width="576"
               id="use3540"
               y="158.39999"
               x="518.40002"
               xlink:href="#m20b58b2501143cb5e0a5e8f1ef6f1643"
               style="fill:none;stroke:#000000;stroke-width:0.5;stroke-linecap:butt;stroke-linejoin:round" />
          </g>
        </g>
        <g
           id="text12">
          <g
             id="g3543"
             transform="matrix(0.12,0,0,0.12,62.4375,162.85312)"
             style="fill:#000000">
            <use
               height="432"
               width="576"
               y="0"
               x="0"
               id="use3545"
               xlink:href="#c_ed3f3ed3ebfbd18bcb9c012009a68ad1" />
          </g>
        </g>
      </g>
      <g
         id="ytick6">
        <g
           id="line2d30">
          <g
             id="g3549">
            <use
               height="432"
               width="576"
               id="use3551"
               y="100.8"
               x="72"
               xlink:href="#m3400efa6b1638b3fea9e19e898273957"
               style="fill:none;stroke:#000000;stroke-width:0.5;stroke-linecap:butt;stroke-linejoin:round" />
          </g>
        </g>
        <g
           id="line2d31">
          <g
             id="g3554">
            <use
               height="432"
               width="576"
               id="use3556"
               y="100.8"
               x="518.40002"
               xlink:href="#m20b58b2501143cb5e0a5e8f1ef6f1643"
               style="fill:none;stroke:#000000;stroke-width:0.5;stroke-linecap:butt;stroke-linejoin:round" />
          </g>
        </g>
        <g
           id="text13">
          <g
             id="g3559"
             transform="matrix(0.12,0,0,0.12,61.625,105.175)"
             style="fill:#000000">
            <use
               height="432"
               width="576"
               y="0"
               x="0"
               id="use3561"
               xlink:href="#c_a0416418d96557a09b8c1332d34883ba" />
          </g>
        </g>
      </g>
      <g
         id="ytick7">
        <g
           id="line2d32">
          <g
             id="g3565">
            <use
               height="432"
               width="576"
               id="use3567"
               y="43.200001"
               x="72"
               xlink:href="#m3400efa6b1638b3fea9e19e898273957"
               style="fill:none;stroke:#000000;stroke-width:0.5;stroke-linecap:butt;stroke-linejoin:round" />
          </g>
        </g>
        <g
           id="line2d33">
          <g
             id="g3570">
            <use
               height="432"
               width="576"
               id="use3572"
               y="43.200001"
               x="518.40002"
               xlink:href="#m20b58b2501143cb5e0a5e8f1ef6f1643"
               style="fill:none;stroke:#000000;stroke-width:0.5;stroke-linecap:butt;stroke-linejoin:round" />
          </g>
        </g>
        <g
           id="text14">
          <g
             id="g3575"
             transform="matrix(0.12,0,0,0.12,61.96875,47.567187)"
             style="fill:#000000">
            <use
               height="432"
               width="576"
               y="0"
               x="0"
               id="use3577"
               xlink:href="#c_cc8d6d580d1b10c8632f7a42cd53db8a" />
          </g>
        </g>
      </g>
    </g>
    <g
       id="patch3">
      <path
         inkscape:connector-curvature="0"
         id="path3580"
         d="m 72,43.2 446.4,0"
         style="fill:none;stroke:#000000;stroke-width:1;stroke-linecap:square;stroke-linejoin:round" />
    </g>
    <g
       id="patch4">
      <path
         inkscape:connector-curvature="0"
         id="path3583"
         d="m 518.4,388.8 0,-345.6"
         style="fill:none;stroke:#000000;stroke-width:1;stroke-linecap:square;stroke-linejoin:round" />
    </g>
    <g
       id="patch5">
      <path
         inkscape:connector-curvature="0"
         id="path3586"
         d="m 72,388.8 446.4,0"
         style="fill:none;stroke:#000000;stroke-width:1;stroke-linecap:square;stroke-linejoin:round" />
    </g>
    <g
       id="patch6">
      <path
         inkscape:connector-curvature="0"
         id="path3589"
         d="M 72,388.8 72,43.2"
         style="fill:none;stroke:#000000;stroke-width:1;stroke-linecap:square;stroke-linejoin:round" />
    </g>
  </g>
  <text
     xml:space="preserve"
     style="font-size:32px;font-style:normal;font-weight:normal;line-height:125%;letter-spacing:0px;word-spacing:0px;fill:#000000;fill-opacity:1;stroke:none;font-family:Bitstream Vera Sans"
     x="154.71815"
     y="422.22763"
     id="text3910"
     sodipodi:linespacing="125%"><tspan
       sodipodi:role="line"
       id="tspan3912"
       x="154.71815"
       y="422.22763"
       style="font-size:16px">Normalise Horizontal Displacement</tspan></text>
  <text
     xml:space="preserve"
     style="font-size:32px;font-style:normal;font-weight:normal;line-height:125%;letter-spacing:0px;word-spacing:0px;fill:#000000;fill-opacity:1;stroke:none;font-family:Bitstream Vera Sans"
     x="-346.00272"
     y="33.702198"
     id="text3910-6"
     sodipodi:linespacing="125%"
     transform="matrix(0,-1,1,0,0,0)"><tspan
       sodipodi:role="line"
       id="tspan3912-3"
       x="-346.00272"
       y="33.702198"
       style="font-size:16px">Normalise Vertical Displacement</tspan></text>
</svg>
