<?xml version="1.0" encoding="UTF-8" standalone="no"?>
<!-- Created with matplotlib (http://matplotlib.sourceforge.net/) -->

<svg
   xmlns:dc="http://purl.org/dc/elements/1.1/"
   xmlns:cc="http://creativecommons.org/ns#"
   xmlns:rdf="http://www.w3.org/1999/02/22-rdf-syntax-ns#"
   xmlns:svg="http://www.w3.org/2000/svg"
   xmlns="http://www.w3.org/2000/svg"
   xmlns:xlink="http://www.w3.org/1999/xlink"
   xmlns:sodipodi="http://sodipodi.sourceforge.net/DTD/sodipodi-0.dtd"
   xmlns:inkscape="http://www.inkscape.org/namespaces/inkscape"
   width="576pt"
   height="432pt"
   viewBox="0 0 576 432"
   version="1.1"
   id="svg1"
   inkscape:version="0.48.3.1 r9886"
   sodipodi:docname="traj99.svg">
  <metadata
     id="metadata3908">
    <rdf:RDF>
      <cc:Work
         rdf:about="">
        <dc:format>image/svg+xml</dc:format>
        <dc:type
           rdf:resource="http://purl.org/dc/dcmitype/StillImage" />
        <dc:title></dc:title>
      </cc:Work>
    </rdf:RDF>
  </metadata>
  <defs
     id="defs3906" />
  <sodipodi:namedview
     pagecolor="#ffffff"
     bordercolor="#666666"
     borderopacity="1"
     objecttolerance="10"
     gridtolerance="10"
     guidetolerance="10"
     inkscape:pageopacity="0"
     inkscape:pageshadow="2"
     inkscape:window-width="1280"
     inkscape:window-height="974"
     id="namedview3904"
     showgrid="false"
     inkscape:zoom="0.87407407"
     inkscape:cx="386.95394"
     inkscape:cy="218.41971"
     inkscape:window-x="0"
     inkscape:window-y="0"
     inkscape:window-maximized="1"
     inkscape:current-layer="svg1" />
  <g
     id="axes1">
    <g
       id="patch2">
      <path
         inkscape:connector-curvature="0"
         id="path3604"
         d="m 72,388.8 446.4,0 0,-345.6 -446.4,0 0,345.6"
         style="fill:#ffffff" />
    </g>
    <g
       id="line2d1">
      <defs
         id="defs3607">
        <clipPath
           id="p50431ccdcb28178602d99d9270004dde">
          <rect
             id="rect3610"
             height="345.60001"
             width="446.39999"
             y="43.200001"
             x="72" />
        </clipPath>
      </defs>
      <path
         inkscape:connector-curvature="0"
         id="path3612"
         d="m 317.92785,295.95742 7.61254,-79.31179 -11.23538,-8.15096 -3.0468,0.0921 0.31794,-5.17583 -1.44394,8.63465 3.48109,12.98199 19.9062,15.33179 -5.16201,-31.38227 -3.34358,2.25135 -0.18409,11.52374 26.81597,-0.60874 -22.40701,-29.74754 10.56995,15.74098 25.63184,-1.63843 -40.63105,7.97142 30.43471,32.47682 -14.34357,-51.39272 -15.27079,13.05283 20.0641,-27.35019 4.90736,43.0707 -2.06905,-24.09297 -1.2108,3.50499 25.23867,26.98163 -24.14383,-35.28188 7.94319,-0.0681 -46.10388,5.16567 25.70261,-11.22245 -2.86535,-6.8146 8.59466,-1.00932 -23.46533,23.2147 9.21738,-5.65244 -35.25051,55.79514 69.96384,-40.12189 -40.53222,-23.87518 -26.9476,-2.79307 33.70657,-1.59304 4.05628,40.28972 6.16747,-32.4389 -16.69418,-11.37145 33.50022,22.76123 -10.90042,15.06595 -19.8211,-22.352 -11.16818,4.25699 5.49133,-18.10413 -17.02558,-7.04012 -1.38003,41.17763 -1.52674,26.48528 15.15847,-5.1524 -22.42967,-50.273 34.10826,9.73079 -13.18117,23.00159 -3.00025,-50.01873 11.38669,16.66572 0.16351,-10.88442 13.00327,51.52619 -4.54959,-40.97414 4.30661,27.13072 3.24446,-31.99443 0.87726,-0.21183 4.51716,-7.59024 5.22875,42.96095 -7.36729,-30.53073 -12.46029,22.87643 12.5333,-3.36135 2.16993,-33.90916 -21.67401,10.35206 4.89195,28.68158 -26.55745,-21.1288 8.46755,-9.96261 14.60906,32.02021 -25.6322,-27.57688 25.48388,23.69937 18.91178,-34.14923 8.08723,18.38708 -16.4261,-22.51836 -16.69206,23.08241 -3.38823,-25.91553 2.03848,28.46963 -3.28057,7.98536 -11.31566,44.96834 21.28741,-28.22767 74.22827,59.95552 -159.25642,-71.36911 17.18702,15.18429 30.04317,19.4989 -26.44824,-12.01277 15.13937,-7.35039 31.03087,-8.98887 -49.06252,-2.51469 29.97567,13.04455 -3.60203,27.1188 73.45503,-67.16041 -63.70924,63.17822 2.08182,-69.92526 21.63175,42.06839 -15.17443,-37.6845 18.80854,110.56111"
         clip-path="url(#p50431ccdcb28178602d99d9270004dde)"
         style="fill:none;stroke:#f204ff;stroke-width:1;stroke-linecap:square;stroke-linejoin:round" />
    </g>
    <g
       id="line2d2">
      <path
         inkscape:connector-curvature="0"
         id="path3615"
         d="m 295.52156,251.34786 37.0806,-17.6755 -10.04277,-73.63671 -5.57857,-2.44458 -9.13313,4.53247 6.2506,67.25232 -17.09282,-76.74695 10.28494,17.5537 11.12995,-15.01501 14.28667,5.66488 -5.44976,2.4757 4.87715,-6.68709 24.80437,9.22338 -27.24501,-7.96664 12.03174,18.67514 29.53407,-0.21834 -13.85243,66.24467 9.99098,-37.40504 -13.33042,30.05201 -2.11481,-0.35262 0.79632,-37.54524 33.82051,31.39187 -77.48584,42.90317 63.00724,-10.45491 25.70004,-51.89339 -13.52528,71.2033 -105.13461,32.47049 20.75605,-139.07256 -2.17428,-21.86183 39.52358,-69.133963 -3.53233,49.600193 -80.50836,6.3509 27.6954,-31.55746 44.04042,9.57369 118.0064,54.30598 -208.62052,53.16456 61.12604,32.02601 83.62579,-12.38998 -135.59776,-13.96017 91.36837,51.59641 -40.67867,-55.94215 43.47417,34.47599 27.84321,85.74835 19.63271,-72.66873 -124.29054,-24.61003 19.95203,4.91737 135.14181,54.46159 -13.92542,25.67749 -133.32435,-98.60628 71.52735,30.10868 95.18395,-15.68548 -156.52571,-9.11781 36.82858,-7.54687 -132.99645,-19.70011 59.28692,47.21397 99.91317,-3.72831 -12.06818,58.93312 50.29788,-12.94288 -30.60557,10.47427 13.39279,-9.22637 -39.00735,-13.72557 -18.17681,-5.43986 51.64951,-36.50737 -61.84356,3.19413"
         clip-path="url(#p50431ccdcb28178602d99d9270004dde)"
         style="fill:none;stroke:#fa42ff;stroke-width:1;stroke-linecap:square;stroke-linejoin:round" />
    </g>
    <g
       id="line2d3">
      <path
         inkscape:connector-curvature="0"
         id="path3618"
         d="m 234.10808,261.92384 66.24979,-10.22945 -0.67875,21.86947 37.53902,-66.70097 13.42597,23.59465 1.38478,-8.99733 -29.19421,-7.10929 14.37924,13.99188 14.09681,-7.61227 -1.61053,7.25531 0.54994,-10.22555 -1.49275,-13.6287 -1.26742,-23.45326 11.85952,-25.93076 -25.01499,34.1456 -36.1176,6.17975 -23.14599,-8.05615 -9.75269,12.46293 0.37679,-1.99467 15.00689,-11.76399 102.69867,5.13719 12.00599,22.84937 -10.42772,0.91127 -47.15214,3.02599 2.20023,14.72262 -3.15583,-33.29741 -10.86597,20.05767 12.11356,-13.77523 -25.58822,-4.84608 -25.46452,5.1429 -27.91378,-1.74597 -43.54566,-27.6391 -11.9596,20.73678 -2.52368,4.6994 -1.41375,-17.29197 -39.12811,-0.44442 3.45492,-0.73501 -17.86188,-18.51003 42.23301,34.11282 17.77029,-0.94219 12.1767,12.76205 1.40467,-18.63631 -2.75983,16.11137 0.44749,2.12206 9.52432,0.81559 11.18174,57.87193 -37.45379,-27.74517 -9.09838,20.35133 76.37636,-6.59944 -33.86891,6.98079"
         clip-path="url(#p50431ccdcb28178602d99d9270004dde)"
         style="fill:none;stroke:#ff21ff;stroke-width:1;stroke-linecap:square;stroke-linejoin:round" />
    </g>
    <g
       id="line2d4">
      <path
         inkscape:connector-curvature="0"
         id="path3621"
         d="m 393.19153,188.76566 -91.15875,38.16815 -1.20565,7.03579 -12.71933,-8.48156 12.85098,-13.55847 -12.06967,21.54821 12.31613,-13.32235 -13.12896,5.08765 2.05307,16.74977 -2.02235,-16.47544 -9.85507,-20.30587 11.45289,15.22491 0.81704,9.05261 11.3635,-23.01037 -23.68089,-0.59618 13.57596,10.47237 11.19182,-8.75295 -23.06316,8.31192 2.47377,-5.8801 12.72958,13.28135 1.57692,0.0495 -12.98264,-12.22096 -0.7185,14.09394 10.7676,1.97151 -11.26045,-24.64017 14.85415,-3.41688 -14.93005,4.36963 1.16662,8.94756 -2.07583,3.81854 12.68868,-10.95917 -9.21304,5.43983 -0.35975,14.11332 0.068,-23.22508 17.23341,-3.94292 24.49603,-0.70709 -0.66238,-17.85637 -25.47192,-20.20753 14.87117,15.4103 -3.46529,-27.82855 20.51718,32.26938 -18.86359,-18.06694 -14.70797,16.44418 -21.34974,-17.39213 -20.24887,13.0033 22.14456,18.98528 -20.02069,-8.34263 18.37135,8.3069 14.24024,1.91752 19.24575,6.15125 33.86659,-1.3728 -14.59933,24.42506 -17.1551,3.77184 40.20955,-2.87461 9.5122,-3.71221 -21.7799,19.48611 -0.61045,-19.0076 -10.13111,19.63104 13.09162,-6.62684 -0.15302,-16.6136 -49.78354,-13.69546 73.17841,-19.49415 7.14814,-20.32901 -9.27082,14.6978 31.91979,-46.94063 -29.49048,63.60386 2.28597,4.16755 9.88533,9.04418 9.12538,-49.38424 -35.51634,43.06417 12.77193,-50.35297 -2.11419,16.24898 22.77815,-14.8667 -25.22367,-1.99876 -14.08619,21.51177 -3.41013,11.35699 12.58784,-7.66508 -12.83631,7.29677 -10.47721,22.2672 -3.40397,-5.61453 -11.6798,28.93457 -10.36539,-8.32901 -4.45484,15.94707 -9.02253,-17.85524 -0.31635,1.57113 0.70559,23.74806 -41.67425,-20.2041 27.59919,25.82893 -0.35533,-22.90952 -25.33366,-22.00698 -22.93771,10.17409 9.5026,-5.53507 -10.74859,-3.75656 53.2025,41.37864 20.50934,-18.2508 -11.01096,-14.37664 -13.6815,25.04435 12.58849,1.79027 3.91904,-28.47716 5.36815,-19.09096 22.9965,0.81978 2.9986,5.68465 -0.62626,-24.742 64.39011,21.69059 -56.99905,10.96269 35.73386,-30.20381 -18.28991,28.8157 -20.94104,4.46202 23.13643,5.98423 -24.26594,-5.80682 -2.85432,-9.30648 -9.76608,5.54688 -11.20686,-0.36962 0.0383,-0.79074 -1.05258,14.85896 21.45808,-4.80824 -8.64828,-7.2634 8.74578,7.93509 4.14926,11.88389 -3.80008,-25.99759 1.4891,34.54105 39.7429,-28.58414 -38.7701,13.92348 95.20461,-16.01499 44.56626,-24.63164 14.2363,7.28162 -24.35514,14.12654 -131.94561,10.40745 52.07807,-48.23821 111.75305,-42.66836 -41.77112,71.58396 -2.42658,16.01989 4.77521,22.96916 2.06597,-28.17845 28.13635,-47.03185 -14.41467,57.99457 -54.38281,-34.54446 94.79343,82.53377 -30.91747,-94.94769 -15.31681,69.27468 -24.32017,-7.87123 -47.84066,-16.86017 -3.65997,1.152 5.43581,20.9686 -4.40691,-10.90043 -23.93832,22.79554 12.32715,11.38625 -50.33528,-27.39918 37.22965,2.52772 -10.31539,0.29117 68.23701,-36.50624 -95.17323,33.86677 36.82444,-22.5292 -13.63406,-39.86625 45.56333,34.56044 -80.57099,35.2776 80.87518,-50.74971 0,0"
         clip-path="url(#p50431ccdcb28178602d99d9270004dde)"
         style="fill:none;stroke:#ff47ed;stroke-width:1;stroke-linecap:square;stroke-linejoin:round" />
    </g>
    <g
       id="line2d5">
      <path
         inkscape:connector-curvature="0"
         id="path3624"
         d="m 294.62074,233.65833 92.73437,-7.07958 0.33077,17.72185 -10.95086,10.24663 -14.92361,27.47428 15.31903,-29.47049 -0.41399,-11.12521 -1.09243,1.44567 0.26987,26.46357 -4.47644,1.48118 11.50713,2.79612 -7.79695,-31.88492 -3.36521,3.34543 2.07416,12.38508 13.9743,-14.31437 -16.04846,1.92929 0.43273,1.22502 10.65447,0.42594 1.64701,11.25372 -1.1147,-11.15685 -10.40801,-18.35771 7.36141,1.5436 2.61332,-13.3488 11.00222,0.65069 11.49756,2.86732 -13.65385,2.27884 3.11793,-22.72749 6.96043,6.37829 -20.02213,-0.0638 7.32505,3.25482 16.37969,-0.9743 -12.55708,-3.0642 -23.32067,-3.82287 24.6259,-3.42314 -5.4274,12.79439 -4.30502,-11.93059 6.51794,6.67182 -1.13006,-10.50051 -9.95296,9.93348 10.22811,-11.4464 -24.87032,15.10314 0.17786,-0.44434 10.73677,-1.27855 13.93497,-11.73441 -8.85812,8.64504 16.99344,-20.01487 3.251,12.70289 9.36124,4.85965 -11.55506,-2.40666 -9.35413,-4.92145 -11.07533,-0.63206 6.43405,-3.93795 15.31313,22.29035 -22.2198,-20.18881 11.82535,0.9225 -0.1901,2.07106 -9.55141,27.70864 -5.60767,-6.97104 5.60767,6.97104 11.52604,-26.66521 -50.77761,-0.59211 -51.6128,37.27885 -9.74984,-34.44517 0.50733,-2.80538 12.32821,11.2317 10.72267,13.70831 2.14182,-17.65999 18.63951,24.09875 1.14428,-10.26692 -7.21519,-13.00446 6.24773,22.22595 -11.4627,-2.64405 11.60073,1.96314 -10.24745,-17.03057 -1.92199,15.61196 0.37116,0.67618 -0.53374,0.53128 -13.2125,-2.0255 -35.88434,0.57339 23.2111,4.30228 -0.20834,8.66018 0.38378,-9.51033 8.69454,16.75866 -10.73168,8.41991 23.28963,1.81567 -0.94222,-8.44106 -45.30241,-20.38256 32.35358,34.40681 0.56332,-23.44077 12.59504,9.87437 -1.23525,15.88061 -12.43901,13.73386 25.28966,-27.81733 -11.6154,-1.79714 0.0922,0.15566 0.93488,-6.24837 9.26081,23.6148 -10.28792,-17.52209 0.0943,1.17744 -10.26078,-17.37578 20.77554,8.18166 -23.18163,-2.16772 0.36129,-9.2003 -1.41134,25.27639 1.37729,-23.52081 0.81566,-7.28571 -2.08893,21.30409 15.41935,-19.48202 -13.41739,22.42092 11.97863,-7.60592 -11.71258,-1.24981 0,0 11.5857,2.11956 -9.34692,-24.06376 -2.50365,32.44416 11.97745,-9.25015 -10.14695,-16.93456 0.081,-0.82224 0.91987,9.85662 1.30882,-14.89566 -24.03927,5.23146 5.0874,-26.60795 -4.78443,9.31399 8.84781,15.74473 -37.14672,23.12904 11.5191,23.30188 11.99143,-17.25693 13.48471,-17.03721 23.5285,-2.23859 -13.19798,7.01563 -0.40007,-1.36573 0,0"
         clip-path="url(#p50431ccdcb28178602d99d9270004dde)"
         style="fill:none;stroke:#ff2c95;stroke-width:1;stroke-linecap:square;stroke-linejoin:round" />
    </g>
    <g
       id="line2d6">
      <path
         inkscape:connector-curvature="0"
         id="path3627"
         d="m 290.85029,230.58339 11.8406,-39.3247 0.76477,8.96535 -0.67962,-6.62306 1.58541,28.82941 -15.42132,-18.32458 0.19959,11.54079 -1.05177,-21.26379 12.52469,-21.86963 -11.47292,43.13342 -1.73611,-11.32898 -13.91861,-6.81069 29.69043,-14.20755 -2.23527,-0.93696 -26.67489,23.21871 -0.59611,-19.61374 13.6079,-11.22472 1.92251,19.46415 -0.67425,-9.73725 -12.83359,34.15944 0.533,-7.40454 -15.36866,7.42741 29.66856,-15.11277 -14.41338,5.18514 -0.37173,10.04054 1.84198,1.91641 1.29444,19.37939 -15.71169,-6.23687 26.5518,-37.67508 4.20661,34.25691 -14.40959,23.32327 -0.53451,-28.94018 -0.51123,16.39061 15.62876,-11.9528 -0.51996,13.73272 2.1041,-0.0816 11.08449,-13.71725 -1.79711,-22.23552 -29.58654,3.58848 45.85703,5.63812 0,0 -1.92505,-10.88559 -32.00431,12.32464 46.78933,-26.04433 -32.06453,24.52549 6.76703,10.71703 25.30315,-35.16505 14.52002,-0.92626 -61.00726,15.58649 55.76877,-15.70012 -8.99457,32.87269 -2.983,-12.99606 0.22937,-1.05755 -13.79378,-5.98643 11.29887,-12.18199 0.64583,7.17169 -28.90634,11.19358 15.68934,-14.21422 15.24071,-12.93335 -3.75944,61.80368 33.24711,-48.15975 19.78501,-11.54653 -127.68287,26.34653 72.38318,29.80548 -90.90178,-8.77188 1.44529,-54.47903 47.27775,62.25611 -42.67942,-130.36616 71.57935,60.88843 88.08736,42.37391 -43.91631,21.41143 -18.40604,-60.12682 -33.2791,17.31236 -14.23071,16.49321 -42.16824,25.13093 1.71894,-38.5101 73.73276,-14.35423 -9.0169,119.01671 37.15146,-79.4777 -85.77657,34.56806 87.92438,10.97038 14.14009,0.76494 -120.22501,-29.63923 28.89902,-8.67462 -0.87708,12.06164 29.39316,-10.25717 -14.80678,1.29079"
         clip-path="url(#p50431ccdcb28178602d99d9270004dde)"
         style="fill:none;stroke:#ff449e;stroke-width:1;stroke-linecap:square;stroke-linejoin:round" />
    </g>
    <g
       id="matplotlib.axis1">
      <g
         id="xtick1">
        <g
           id="line2d7">
          <defs
             id="defs3632">
            <path
               inkscape:connector-curvature="0"
               d="M 0,0 0,-4"
               id="m30e32995789d870ad79a2e54c91cf9c6" />
          </defs>
          <g
             id="g3635">
            <use
               height="432"
               width="576"
               id="use3637"
               y="388.79999"
               x="72"
               xlink:href="#m30e32995789d870ad79a2e54c91cf9c6"
               style="fill:none;stroke:#000000;stroke-width:0.5;stroke-linecap:butt;stroke-linejoin:round" />
          </g>
        </g>
        <g
           id="line2d8">
          <defs
             id="defs3640">
            <path
               inkscape:connector-curvature="0"
               d="M 0,0 0,4"
               id="m9281cae24120827b11d5ea8a7ad3e96b" />
          </defs>
          <g
             id="g3643">
            <use
               height="432"
               width="576"
               id="use3645"
               y="43.200001"
               x="72"
               xlink:href="#m9281cae24120827b11d5ea8a7ad3e96b"
               style="fill:none;stroke:#000000;stroke-width:0.5;stroke-linecap:butt;stroke-linejoin:round" />
          </g>
        </g>
        <g
           id="text1">
          <defs
             id="defs3648">
            <path
               inkscape:connector-curvature="0"
               d="m 10.59375,-35.5 62.59375,0 0,8.296875 -62.59375,0 z"
               id="c_6a8d56c819c37117ab4cf023bec22a5a" />
            <path
               inkscape:connector-curvature="0"
               d="m 33.015625,-40.375 q -6.640625,0 -10.53125,4.546875 -3.875,4.53125 -3.875,12.4375 0,7.859375 3.875,12.4375 3.890625,4.5625 10.53125,4.5625 6.640625,0 10.515625,-4.5625 3.875,-4.578125 3.875,-12.4375 0,-7.90625 -3.875,-12.4375 Q 39.65625,-40.375 33.015625,-40.375 m 19.578125,-30.921875 0,8.984375 q -3.71875,-1.75 -7.5,-2.671875 -3.78125,-0.9375 -7.5,-0.9375 -9.765625,0 -14.921875,6.59375 -5.140625,6.59375 -5.875,19.921875 2.875,-4.25 7.21875,-6.515625 4.359375,-2.265625 9.578125,-2.265625 10.984375,0 17.359375,6.671875 6.375,6.65625 6.375,18.125 0,11.234375 -6.640625,18.03125 -6.640625,6.78125 -17.671875,6.78125 -12.65625,0 -19.34375,-9.6875 -6.6875,-9.703125 -6.6875,-28.109375 0,-17.28125 8.203125,-27.5625 8.203125,-10.28125 22.015625,-10.28125 3.71875,0 7.5,0.734375 3.78125,0.734375 7.890625,2.1875"
               id="c_cc8d6d580d1b10c8632f7a42cd53db8a" />
          </defs>
          <g
             id="g3652"
             transform="matrix(0.12,0,0,0.12,64.164062,401.70625)"
             style="fill:#000000">
            <use
               height="432"
               width="576"
               y="0"
               x="0"
               id="use3654"
               xlink:href="#c_6a8d56c819c37117ab4cf023bec22a5a" />
            <use
               height="432"
               width="576"
               y="0"
               id="use3656"
               x="83.789062"
               xlink:href="#c_cc8d6d580d1b10c8632f7a42cd53db8a" />
          </g>
        </g>
      </g>
      <g
         id="xtick2">
        <g
           id="line2d9">
          <g
             id="g3660">
            <use
               height="432"
               width="576"
               id="use3662"
               y="388.79999"
               x="146.39999"
               xlink:href="#m30e32995789d870ad79a2e54c91cf9c6"
               style="fill:none;stroke:#000000;stroke-width:0.5;stroke-linecap:butt;stroke-linejoin:round" />
          </g>
        </g>
        <g
           id="line2d10">
          <g
             id="g3665">
            <use
               height="432"
               width="576"
               id="use3667"
               y="43.200001"
               x="146.39999"
               xlink:href="#m9281cae24120827b11d5ea8a7ad3e96b"
               style="fill:none;stroke:#000000;stroke-width:0.5;stroke-linecap:butt;stroke-linejoin:round" />
          </g>
        </g>
        <g
           id="text2">
          <defs
             id="defs3670">
            <path
               inkscape:connector-curvature="0"
               d="m 37.796875,-64.3125 -24.90625,38.921875 24.90625,0 z m -2.59375,-8.59375 12.40625,0 0,47.515625 10.40625,0 0,8.203125 -10.40625,0 0,17.1875 -9.8125,0 0,-17.1875 -32.90625,0 0,-9.515625 z"
               id="c_a0416418d96557a09b8c1332d34883ba" />
          </defs>
          <g
             id="g3673"
             transform="matrix(0.12,0,0,0.12,138.51719,401.55)"
             style="fill:#000000">
            <use
               height="432"
               width="576"
               y="0"
               x="0"
               id="use3675"
               xlink:href="#c_6a8d56c819c37117ab4cf023bec22a5a" />
            <use
               height="432"
               width="576"
               y="0"
               id="use3677"
               x="83.789062"
               xlink:href="#c_a0416418d96557a09b8c1332d34883ba" />
          </g>
        </g>
      </g>
      <g
         id="xtick3">
        <g
           id="line2d11">
          <g
             id="g3681">
            <use
               height="432"
               width="576"
               id="use3683"
               y="388.79999"
               x="220.8"
               xlink:href="#m30e32995789d870ad79a2e54c91cf9c6"
               style="fill:none;stroke:#000000;stroke-width:0.5;stroke-linecap:butt;stroke-linejoin:round" />
          </g>
        </g>
        <g
           id="line2d12">
          <g
             id="g3686">
            <use
               height="432"
               width="576"
               id="use3688"
               y="43.200001"
               x="220.8"
               xlink:href="#m9281cae24120827b11d5ea8a7ad3e96b"
               style="fill:none;stroke:#000000;stroke-width:0.5;stroke-linecap:butt;stroke-linejoin:round" />
          </g>
        </g>
        <g
           id="text3">
          <defs
             id="defs3691">
            <path
               inkscape:connector-curvature="0"
               d="m 19.1875,-8.296875 34.421875,0 0,8.296875 -46.28125,0 0,-8.296875 q 5.609375,-5.8125 15.296875,-15.59375 9.703125,-9.796875 12.1875,-12.640625 4.734375,-5.3125 6.609375,-9 1.890625,-3.6875 1.890625,-7.25 0,-5.8125 -4.078125,-9.46875 -4.078125,-3.671875 -10.625,-3.671875 -4.640625,0 -9.796875,1.609375 -5.140625,1.609375 -11,4.890625 l 0,-9.96875 Q 13.765625,-71.78125 18.9375,-73 q 5.1875,-1.21875 9.484375,-1.21875 11.328125,0 18.0625,5.671875 6.734375,5.65625 6.734375,15.125 0,4.5 -1.6875,8.53125 -1.671875,4.015625 -6.125,9.484375 -1.21875,1.421875 -7.765625,8.1875 -6.53125,6.765625 -18.453125,18.921875"
               id="c_ed3f3ed3ebfbd18bcb9c012009a68ad1" />
          </defs>
          <g
             id="g3694"
             transform="matrix(0.12,0,0,0.12,213.18281,401.70625)"
             style="fill:#000000">
            <use
               height="432"
               width="576"
               y="0"
               x="0"
               id="use3696"
               xlink:href="#c_6a8d56c819c37117ab4cf023bec22a5a" />
            <use
               height="432"
               width="576"
               y="0"
               id="use3698"
               x="83.789062"
               xlink:href="#c_ed3f3ed3ebfbd18bcb9c012009a68ad1" />
          </g>
        </g>
      </g>
      <g
         id="xtick4">
        <g
           id="line2d13">
          <g
             id="g3702">
            <use
               height="432"
               width="576"
               id="use3704"
               y="388.79999"
               x="295.20001"
               xlink:href="#m30e32995789d870ad79a2e54c91cf9c6"
               style="fill:none;stroke:#000000;stroke-width:0.5;stroke-linecap:butt;stroke-linejoin:round" />
          </g>
        </g>
        <g
           id="line2d14">
          <g
             id="g3707">
            <use
               height="432"
               width="576"
               id="use3709"
               y="43.200001"
               x="295.20001"
               xlink:href="#m9281cae24120827b11d5ea8a7ad3e96b"
               style="fill:none;stroke:#000000;stroke-width:0.5;stroke-linecap:butt;stroke-linejoin:round" />
          </g>
        </g>
        <g
           id="text4">
          <defs
             id="defs3712">
            <path
               inkscape:connector-curvature="0"
               d="m 31.78125,-66.40625 q -7.609375,0 -11.453125,7.5 Q 16.5,-51.421875 16.5,-36.375 q 0,14.984375 3.828125,22.484375 3.84375,7.5 11.453125,7.5 7.671875,0 11.5,-7.5 3.84375,-7.5 3.84375,-22.484375 0,-15.046875 -3.84375,-22.53125 -3.828125,-7.5 -11.5,-7.5 m 0,-7.8125 q 12.265625,0 18.734375,9.703125 6.46875,9.6875 6.46875,28.140625 0,18.40625 -6.46875,28.109375 -6.46875,9.6875 -18.734375,9.6875 -12.25,0 -18.71875,-9.6875 Q 6.59375,-17.96875 6.59375,-36.375 q 0,-18.453125 6.46875,-28.140625 6.46875,-9.703125 18.71875,-9.703125"
               id="c_7a2040fe3b94fcd41d0a72c84e93b115" />
          </defs>
          <g
             id="g3715"
             transform="matrix(0.12,0,0,0.12,292.17656,401.70625)"
             style="fill:#000000">
            <use
               height="432"
               width="576"
               y="0"
               x="0"
               id="use3717"
               xlink:href="#c_7a2040fe3b94fcd41d0a72c84e93b115" />
          </g>
        </g>
      </g>
      <g
         id="xtick5">
        <g
           id="line2d15">
          <g
             id="g3721">
            <use
               height="432"
               width="576"
               id="use3723"
               y="388.79999"
               x="369.60001"
               xlink:href="#m30e32995789d870ad79a2e54c91cf9c6"
               style="fill:none;stroke:#000000;stroke-width:0.5;stroke-linecap:butt;stroke-linejoin:round" />
          </g>
        </g>
        <g
           id="line2d16">
          <g
             id="g3726">
            <use
               height="432"
               width="576"
               id="use3728"
               y="43.200001"
               x="369.60001"
               xlink:href="#m9281cae24120827b11d5ea8a7ad3e96b"
               style="fill:none;stroke:#000000;stroke-width:0.5;stroke-linecap:butt;stroke-linejoin:round" />
          </g>
        </g>
        <g
           id="text5">
          <g
             id="g3731"
             transform="matrix(0.12,0,0,0.12,366.81875,401.70625)"
             style="fill:#000000">
            <use
               height="432"
               width="576"
               y="0"
               x="0"
               id="use3733"
               xlink:href="#c_ed3f3ed3ebfbd18bcb9c012009a68ad1" />
          </g>
        </g>
      </g>
      <g
         id="xtick6">
        <g
           id="line2d17">
          <g
             id="g3737">
            <use
               height="432"
               width="576"
               id="use3739"
               y="388.79999"
               x="444"
               xlink:href="#m30e32995789d870ad79a2e54c91cf9c6"
               style="fill:none;stroke:#000000;stroke-width:0.5;stroke-linecap:butt;stroke-linejoin:round" />
          </g>
        </g>
        <g
           id="line2d18">
          <g
             id="g3742">
            <use
               height="432"
               width="576"
               id="use3744"
               y="43.200001"
               x="444"
               xlink:href="#m9281cae24120827b11d5ea8a7ad3e96b"
               style="fill:none;stroke:#000000;stroke-width:0.5;stroke-linecap:butt;stroke-linejoin:round" />
          </g>
        </g>
        <g
           id="text6">
          <g
             id="g3747"
             transform="matrix(0.12,0,0,0.12,440.8125,401.55)"
             style="fill:#000000">
            <use
               height="432"
               width="576"
               y="0"
               x="0"
               id="use3749"
               xlink:href="#c_a0416418d96557a09b8c1332d34883ba" />
          </g>
        </g>
      </g>
      <g
         id="xtick7">
        <g
           id="line2d19">
          <g
             id="g3753">
            <use
               height="432"
               width="576"
               id="use3755"
               y="388.79999"
               x="518.40002"
               xlink:href="#m30e32995789d870ad79a2e54c91cf9c6"
               style="fill:none;stroke:#000000;stroke-width:0.5;stroke-linecap:butt;stroke-linejoin:round" />
          </g>
        </g>
        <g
           id="line2d20">
          <g
             id="g3758">
            <use
               height="432"
               width="576"
               id="use3760"
               y="43.200001"
               x="518.40002"
               xlink:href="#m9281cae24120827b11d5ea8a7ad3e96b"
               style="fill:none;stroke:#000000;stroke-width:0.5;stroke-linecap:butt;stroke-linejoin:round" />
          </g>
        </g>
        <g
           id="text7">
          <g
             id="g3763"
             transform="matrix(0.12,0,0,0.12,515.38437,401.70625)"
             style="fill:#000000">
            <use
               height="432"
               width="576"
               y="0"
               x="0"
               id="use3765"
               xlink:href="#c_cc8d6d580d1b10c8632f7a42cd53db8a" />
          </g>
        </g>
      </g>
    </g>
    <g
       id="matplotlib.axis2">
      <g
         id="ytick1">
        <g
           id="line2d21">
          <defs
             id="defs3770">
            <path
               inkscape:connector-curvature="0"
               d="M 0,0 4,0"
               id="m3400efa6b1638b3fea9e19e898273957" />
          </defs>
          <g
             id="g3773">
            <use
               height="432"
               width="576"
               id="use3775"
               y="388.79999"
               x="72"
               xlink:href="#m3400efa6b1638b3fea9e19e898273957"
               style="fill:none;stroke:#000000;stroke-width:0.5;stroke-linecap:butt;stroke-linejoin:round" />
          </g>
        </g>
        <g
           id="line2d22">
          <defs
             id="defs3778">
            <path
               inkscape:connector-curvature="0"
               d="M 0,0 -4,0"
               id="m20b58b2501143cb5e0a5e8f1ef6f1643" />
          </defs>
          <g
             id="g3781">
            <use
               height="432"
               width="576"
               id="use3783"
               y="388.79999"
               x="518.40002"
               xlink:href="#m20b58b2501143cb5e0a5e8f1ef6f1643"
               style="fill:none;stroke:#000000;stroke-width:0.5;stroke-linecap:butt;stroke-linejoin:round" />
          </g>
        </g>
        <g
           id="text8">
          <g
             id="g3786"
             transform="matrix(0.12,0,0,0.12,52.328125,393.16719)"
             style="fill:#000000">
            <use
               height="432"
               width="576"
               y="0"
               x="0"
               id="use3788"
               xlink:href="#c_6a8d56c819c37117ab4cf023bec22a5a" />
            <use
               height="432"
               width="576"
               y="0"
               id="use3790"
               x="83.789062"
               xlink:href="#c_cc8d6d580d1b10c8632f7a42cd53db8a" />
          </g>
        </g>
      </g>
      <g
         id="ytick2">
        <g
           id="line2d23">
          <g
             id="g3794">
            <use
               height="432"
               width="576"
               id="use3796"
               y="331.20001"
               x="72"
               xlink:href="#m3400efa6b1638b3fea9e19e898273957"
               style="fill:none;stroke:#000000;stroke-width:0.5;stroke-linecap:butt;stroke-linejoin:round" />
          </g>
        </g>
        <g
           id="line2d24">
          <g
             id="g3799">
            <use
               height="432"
               width="576"
               id="use3801"
               y="331.20001"
               x="518.40002"
               xlink:href="#m20b58b2501143cb5e0a5e8f1ef6f1643"
               style="fill:none;stroke:#000000;stroke-width:0.5;stroke-linecap:butt;stroke-linejoin:round" />
          </g>
        </g>
        <g
           id="text9">
          <g
             id="g3804"
             transform="matrix(0.12,0,0,0.12,52.234375,335.575)"
             style="fill:#000000">
            <use
               height="432"
               width="576"
               y="0"
               x="0"
               id="use3806"
               xlink:href="#c_6a8d56c819c37117ab4cf023bec22a5a" />
            <use
               height="432"
               width="576"
               y="0"
               id="use3808"
               x="83.789062"
               xlink:href="#c_a0416418d96557a09b8c1332d34883ba" />
          </g>
        </g>
      </g>
      <g
         id="ytick3">
        <g
           id="line2d25">
          <g
             id="g3812">
            <use
               height="432"
               width="576"
               id="use3814"
               y="273.60001"
               x="72"
               xlink:href="#m3400efa6b1638b3fea9e19e898273957"
               style="fill:none;stroke:#000000;stroke-width:0.5;stroke-linecap:butt;stroke-linejoin:round" />
          </g>
        </g>
        <g
           id="line2d26">
          <g
             id="g3817">
            <use
               height="432"
               width="576"
               id="use3819"
               y="273.60001"
               x="518.40002"
               xlink:href="#m20b58b2501143cb5e0a5e8f1ef6f1643"
               style="fill:none;stroke:#000000;stroke-width:0.5;stroke-linecap:butt;stroke-linejoin:round" />
          </g>
        </g>
        <g
           id="text10">
          <g
             id="g3822"
             transform="matrix(0.12,0,0,0.12,52.765625,278.05313)"
             style="fill:#000000">
            <use
               height="432"
               width="576"
               y="0"
               x="0"
               id="use3824"
               xlink:href="#c_6a8d56c819c37117ab4cf023bec22a5a" />
            <use
               height="432"
               width="576"
               y="0"
               id="use3826"
               x="83.789062"
               xlink:href="#c_ed3f3ed3ebfbd18bcb9c012009a68ad1" />
          </g>
        </g>
      </g>
      <g
         id="ytick4">
        <g
           id="line2d27">
          <g
             id="g3830">
            <use
               height="432"
               width="576"
               id="use3832"
               y="216"
               x="72"
               xlink:href="#m3400efa6b1638b3fea9e19e898273957"
               style="fill:none;stroke:#000000;stroke-width:0.5;stroke-linecap:butt;stroke-linejoin:round" />
          </g>
        </g>
        <g
           id="line2d28">
          <g
             id="g3835">
            <use
               height="432"
               width="576"
               id="use3837"
               y="216"
               x="518.40002"
               xlink:href="#m20b58b2501143cb5e0a5e8f1ef6f1643"
               style="fill:none;stroke:#000000;stroke-width:0.5;stroke-linecap:butt;stroke-linejoin:round" />
          </g>
        </g>
        <g
           id="text11">
          <g
             id="g3840"
             transform="matrix(0.12,0,0,0.12,61.953125,220.36719)"
             style="fill:#000000">
            <use
               height="432"
               width="576"
               y="0"
               x="0"
               id="use3842"
               xlink:href="#c_7a2040fe3b94fcd41d0a72c84e93b115" />
          </g>
        </g>
      </g>
      <g
         id="ytick5">
        <g
           id="line2d29">
          <g
             id="g3846">
            <use
               height="432"
               width="576"
               id="use3848"
               y="158.39999"
               x="72"
               xlink:href="#m3400efa6b1638b3fea9e19e898273957"
               style="fill:none;stroke:#000000;stroke-width:0.5;stroke-linecap:butt;stroke-linejoin:round" />
          </g>
        </g>
        <g
           id="line2d30">
          <g
             id="g3851">
            <use
               height="432"
               width="576"
               id="use3853"
               y="158.39999"
               x="518.40002"
               xlink:href="#m20b58b2501143cb5e0a5e8f1ef6f1643"
               style="fill:none;stroke:#000000;stroke-width:0.5;stroke-linecap:butt;stroke-linejoin:round" />
          </g>
        </g>
        <g
           id="text12">
          <g
             id="g3856"
             transform="matrix(0.12,0,0,0.12,62.4375,162.85312)"
             style="fill:#000000">
            <use
               height="432"
               width="576"
               y="0"
               x="0"
               id="use3858"
               xlink:href="#c_ed3f3ed3ebfbd18bcb9c012009a68ad1" />
          </g>
        </g>
      </g>
      <g
         id="ytick6">
        <g
           id="line2d31">
          <g
             id="g3862">
            <use
               height="432"
               width="576"
               id="use3864"
               y="100.8"
               x="72"
               xlink:href="#m3400efa6b1638b3fea9e19e898273957"
               style="fill:none;stroke:#000000;stroke-width:0.5;stroke-linecap:butt;stroke-linejoin:round" />
          </g>
        </g>
        <g
           id="line2d32">
          <g
             id="g3867">
            <use
               height="432"
               width="576"
               id="use3869"
               y="100.8"
               x="518.40002"
               xlink:href="#m20b58b2501143cb5e0a5e8f1ef6f1643"
               style="fill:none;stroke:#000000;stroke-width:0.5;stroke-linecap:butt;stroke-linejoin:round" />
          </g>
        </g>
        <g
           id="text13">
          <g
             id="g3872"
             transform="matrix(0.12,0,0,0.12,61.625,105.175)"
             style="fill:#000000">
            <use
               height="432"
               width="576"
               y="0"
               x="0"
               id="use3874"
               xlink:href="#c_a0416418d96557a09b8c1332d34883ba" />
          </g>
        </g>
      </g>
      <g
         id="ytick7">
        <g
           id="line2d33">
          <g
             id="g3878">
            <use
               height="432"
               width="576"
               id="use3880"
               y="43.200001"
               x="72"
               xlink:href="#m3400efa6b1638b3fea9e19e898273957"
               style="fill:none;stroke:#000000;stroke-width:0.5;stroke-linecap:butt;stroke-linejoin:round" />
          </g>
        </g>
        <g
           id="line2d34">
          <g
             id="g3883">
            <use
               height="432"
               width="576"
               id="use3885"
               y="43.200001"
               x="518.40002"
               xlink:href="#m20b58b2501143cb5e0a5e8f1ef6f1643"
               style="fill:none;stroke:#000000;stroke-width:0.5;stroke-linecap:butt;stroke-linejoin:round" />
          </g>
        </g>
        <g
           id="text14">
          <g
             id="g3888"
             transform="matrix(0.12,0,0,0.12,61.96875,47.567187)"
             style="fill:#000000">
            <use
               height="432"
               width="576"
               y="0"
               x="0"
               id="use3890"
               xlink:href="#c_cc8d6d580d1b10c8632f7a42cd53db8a" />
          </g>
        </g>
      </g>
    </g>
    <g
       id="patch3">
      <path
         inkscape:connector-curvature="0"
         id="path3893"
         d="m 72,43.2 446.4,0"
         style="fill:none;stroke:#000000;stroke-width:1;stroke-linecap:square;stroke-linejoin:round" />
    </g>
    <g
       id="patch4">
      <path
         inkscape:connector-curvature="0"
         id="path3896"
         d="m 518.4,388.8 0,-345.6"
         style="fill:none;stroke:#000000;stroke-width:1;stroke-linecap:square;stroke-linejoin:round" />
    </g>
    <g
       id="patch5">
      <path
         inkscape:connector-curvature="0"
         id="path3899"
         d="m 72,388.8 446.4,0"
         style="fill:none;stroke:#000000;stroke-width:1;stroke-linecap:square;stroke-linejoin:round" />
    </g>
    <g
       id="patch6">
      <path
         inkscape:connector-curvature="0"
         id="path3902"
         d="M 72,388.8 72,43.2"
         style="fill:none;stroke:#000000;stroke-width:1;stroke-linecap:square;stroke-linejoin:round" />
    </g>
  </g>
  <text
     xml:space="preserve"
     style="font-size:32px;font-style:normal;font-weight:normal;line-height:125%;letter-spacing:0px;word-spacing:0px;fill:#000000;fill-opacity:1;stroke:none;font-family:Bitstream Vera Sans"
     x="163.83052"
     y="424.67795"
     id="text3910"
     sodipodi:linespacing="125%"><tspan
       sodipodi:role="line"
       id="tspan3912"
       x="163.83052"
       y="424.67795"
       style="font-size:16px">Normalise Horizontal Displacement</tspan></text>
  <text
     xml:space="preserve"
     style="font-size:32px;font-style:normal;font-weight:normal;line-height:125%;letter-spacing:0px;word-spacing:0px;fill:#000000;fill-opacity:1;stroke:none;font-family:Bitstream Vera Sans"
     x="-360.56998"
     y="36.447964"
     id="text3910-6"
     sodipodi:linespacing="125%"
     transform="matrix(0,-1,1,0,0,0)"><tspan
       sodipodi:role="line"
       id="tspan3912-3"
       x="-360.56998"
       y="36.447964"
       style="font-size:16px">Normalise Vertical Displacement</tspan></text>
</svg>
