<?xml version="1.0" encoding="utf-8" standalone="no"?>
<!DOCTYPE svg PUBLIC "-//W3C//DTD SVG 1.1//EN"
  "http://www.w3.org/Graphics/SVG/1.1/DTD/svg11.dtd">
<!-- Created with matplotlib (http://matplotlib.sourceforge.net/) -->
<svg height="432pt" version="1.1" viewBox="0 0 576 432" width="576pt" xmlns="http://www.w3.org/2000/svg" xmlns:xlink="http://www.w3.org/1999/xlink">
 <defs>
  <style type="text/css">
*{stroke-linecap:square;stroke-linejoin:round;}
  </style>
 </defs>
 <g id="figure_1">
  <g id="patch_1">
   <path d="
M0 432
L576 432
L576 0
L0 0
z
" style="fill:#ffffff;"/>
  </g>
  <g id="axes_1">
   <g id="patch_2">
    <path d="
M72 388.8
L518.4 388.8
L518.4 43.2
L72 43.2
z
" style="fill:#ffffff;"/>
   </g>
   <g id="line2d_1">
    <path clip-path="url(#p7ff5b81e1d)" d="
M72 388.8
L72 381.312
L105.48 380.736
L107.072 380.16
L107.072 379.008
L108.908 378.432
L108.908 377.856
L111.052 376.704
L111.052 373.248
L113.591 372.672
L113.591 370.944
L114.544 370.368
L116.64 369.792
L116.64 369.216
L118.397 368.64
L118.397 364.608
L120.324 364.032
L120.324 361.728
L122.416 361.152
L122.416 358.272
L124.609 357.696
L124.609 354.816
L125.153 354.24
L125.474 353.664
L126.673 352.512
L126.673 350.784
L127.02 350.208
L127.228 349.632
L127.228 347.904
L127.454 347.328
L127.454 346.752
L127.569 346.176
L127.8 345.6
L131.476 345.024
L140.189 344.448
L140.81 343.872
L143.435 343.296
L143.459 342.144
L143.739 341.568
L145.16 340.992
L145.16 339.264
L145.816 338.688
L145.816 337.536
L146.027 336.96
L146.4 336.384
L146.4 334.08
L146.864 333.504
L148.439 332.928
L148.439 331.2
L149.67 330.624
L149.67 327.744
L150.104 327.168
L150.104 326.592
L150.913 326.016
L150.913 325.44
L151.537 324.864
L153.293 324.288
L153.293 321.984
L153.683 321.408
L155.182 320.832
L155.231 317.952
L155.662 317.376
L155.893 316.8
L157.236 316.224
L158.087 315.648
L161.28 314.496
L161.28 313.92
L163.121 313.344
L164.534 312.768
L164.534 312.192
L166.678 311.616
L166.842 311.04
L166.842 310.464
L167.636 309.888
L167.636 309.312
L168.487 308.736
L168.648 308.16
L168.648 307.584
L169.006 307.008
L169.934 306.432
L174.123 305.856
L174.283 305.28
L174.89 304.704
L175.015 304.128
L177.217 303.552
L177.217 302.976
L178.669 302.4
L178.669 300.672
L178.784 300.096
L180.498 299.52
L180.665 298.944
L181.27 298.368
L182.455 297.792
L185.81 297.216
L186.8 296.64
L186.966 296.064
L186.993 295.488
L188.487 294.912
L189.156 294.336
L189.545 293.76
L189.637 292.608
L189.637 292.032
L190.937 291.456
L195.99 289.728
L197.534 288.576
L198.75 288
L201.925 287.424
L202.147 286.848
L202.813 286.272
L204.437 285.696
L204.505 284.544
L204.518 283.968
L205.056 283.392
L205.091 282.816
L208.225 282.24
L208.962 281.664
L209.377 280.512
L209.991 279.936
L211.19 279.36
L211.453 278.784
L211.498 278.208
L213.164 277.632
L213.577 277.056
L213.605 275.904
L214.918 275.328
L215.54 274.752
L216.564 274.176
L216.973 273.6
L217.08 273.024
L221.83 271.296
L223.247 270.72
L223.247 270.144
L224.177 268.992
L225.425 267.84
L226.045 267.264
L228.207 266.688
L228.24 266.112
L229.338 265.536
L230.698 264.96
L231.311 264.384
L231.349 263.808
L231.771 263.232
L234.586 262.656
L234.586 262.08
L235.214 261.504
L235.214 260.352
L236.844 259.776
L237.53 259.2
L237.53 258.048
L240.723 257.472
L240.783 256.896
L244.529 255.744
L245.848 255.168
L246.483 254.592
L246.623 254.016
L248.455 252.864
L249.532 252.288
L249.532 251.712
L250.405 251.136
L250.56 249.984
L250.56 249.408
L254.242 248.256
L254.242 247.68
L254.953 247.104
L256.834 246.528
L257.068 245.952
L257.068 245.376
L258.928 244.224
L260.079 243.648
L260.712 243.072
L261.684 242.496
L264.291 241.92
L264.4 241.344
L264.894 240.768
L265.154 239.616
L266.117 238.464
L266.901 237.888
L267.259 237.312
L267.259 236.736
L268.844 236.16
L269.721 235.584
L270.384 235.008
L270.594 234.432
L270.594 233.856
L271.636 233.28
L271.763 232.704
L271.763 232.128
L271.948 231.552
L272.328 230.976
L274.238 230.4
L274.238 229.824
L275.512 229.248
L275.753 228.672
L276.389 228.096
L276.566 227.52
L278.031 226.944
L278.749 226.368
L278.749 225.792
L279.121 225.216
L280.784 224.064
L280.784 223.488
L280.969 222.912
L280.969 221.76
L281.4 221.184
L281.644 220.608
L283.164 220.032
L283.298 219.456
L283.843 218.88
L284.04 218.304
L285.338 217.728
L286.304 217.152
L286.739 216.576
L288.846 216
L290.068 215.424
L291.241 214.272
L291.241 213.12
L291.729 211.968
L292.416 211.392
L293.449 210.816
L294.058 209.088
L294.081 207.936
L294.764 206.208
L295.2 205.632
L296.313 204.48
L296.745 203.904
L296.902 203.328
L297.812 202.752
L299.031 201.024
L299.151 200.448
L299.62 199.872
L300.371 199.296
L300.712 198.72
L300.984 197.568
L301.516 196.992
L301.646 196.416
L301.901 195.84
L301.964 195.264
L302.483 194.688
L302.516 193.536
L303.034 192.96
L303.034 192.384
L305.011 191.808
L305.842 191.232
L306.311 190.656
L306.353 189.504
L308.328 188.352
L308.328 187.776
L309.148 187.2
L309.543 186.624
L310.921 185.472
L312.085 183.168
L312.139 182.592
L312.369 182.016
L312.864 181.44
L313.084 180.864
L313.441 180.288
L315.068 179.712
L315.068 179.136
L315.482 178.56
L315.621 177.984
L315.879 177.408
L315.937 176.832
L316.645 176.256
L316.645 175.68
L317.52 175.104
L317.804 174.528
L318.757 173.952
L318.757 173.376
L321.155 172.8
L321.155 172.224
L321.505 171.072
L323.081 170.496
L324.212 169.92
L324.911 169.344
L324.987 168.768
L325.938 168.192
L326.181 167.616
L326.181 167.04
L327.456 166.464
L328.08 165.888
L328.248 165.312
L328.68 164.736
L330.395 163.584
L330.395 163.008
L331.575 161.856
L332.294 160.128
L333.487 158.976
L333.487 158.4
L333.872 157.248
L335.044 156.672
L335.149 156.096
L337.27 155.52
L338.208 154.944
L338.208 153.792
L339.84 152.64
L339.84 152.064
L340.792 151.488
L340.897 150.912
L341.233 150.336
L342.677 149.184
L342.82 148.608
L342.846 148.032
L343.497 146.88
L344.236 146.304
L345.363 145.728
L347.604 145.152
L347.604 144.576
L348.138 144
L349.372 143.424
L351 141.696
L354.984 141.12
L355.154 140.544
L355.154 139.968
L355.429 139.392
L356.302 138.816
L356.302 138.24
L358.343 137.664
L359.081 137.088
L359.193 136.512
L359.553 135.936
L360.15 135.36
L360.15 134.784
L360.683 134.208
L363.136 133.056
L363.802 132.48
L364.64 131.904
L364.913 131.328
L364.937 130.176
L365.945 129.6
L368.108 129.024
L369.523 128.448
L369.6 127.872
L370.621 127.296
L373.641 126.72
L373.848 126.144
L374.75 125.568
L375.334 124.992
L375.334 124.416
L375.585 123.84
L377.039 123.264
L377.063 122.688
L377.311 122.112
L377.755 121.536
L378.053 120.96
L378.759 120.384
L378.759 119.808
L379.862 119.232
L380.32 118.656
L380.32 118.08
L380.758 117.504
L380.758 116.928
L381.006 116.352
L384.415 115.2
L385.074 114.624
L390.381 114.048
L390.793 113.472
L391.653 112.896
L391.769 112.32
L392.006 111.744
L392.487 111.168
L392.506 110.592
L395.352 110.016
L395.605 109.44
L396.302 108.864
L397.665 108.288
L398.016 107.712
L398.826 107.136
L398.958 106.56
L398.958 105.984
L399.81 105.408
L401.822 104.832
L403.164 104.256
L403.392 103.68
L404.076 103.104
L405.189 102.528
L405.246 101.952
L411.235 100.8
L412.28 100.224
L412.742 99.648
L414.189 99.072
L418.731 98.496
L420.471 97.92
L421.571 97.344
L422.017 96.768
L424.634 95.616
L424.91 95.04
L425.328 94.464
L428.649 93.888
L433.625 93.312
L435.058 92.736
L435.825 92.16
L444.465 89.856
L456.322 88.128
L461.162 87.552
L474.38 86.976
L482.107 86.4
L484.165 85.824
L484.165 85.824" style="fill:none;stroke:#0000ff;"/>
   </g>
   <g id="line2d_2">
    <path clip-path="url(#p7ff5b81e1d)" d="
M72 388.8
L72 325.44
L107.072 324.864
L107.072 324.288
L108.908 323.712
L108.908 322.56
L111.052 321.984
L111.052 315.648
L113.591 315.072
L113.591 307.008
L116.64 306.432
L116.64 293.184
L120.324 292.608
L120.324 282.816
L122.416 282.24
L122.416 278.208
L124.609 277.632
L124.609 267.264
L126.028 266.688
L126.673 266.112
L126.673 263.808
L127.454 263.232
L127.8 262.656
L127.8 260.352
L128.185 259.776
L129.411 259.2
L132.051 258.624
L142.582 258.048
L146.864 257.472
L148.69 256.896
L149.67 256.32
L149.67 255.168
L150.104 254.592
L150.913 254.016
L150.913 253.44
L153.239 252.864
L153.293 251.136
L153.293 250.56
L155.182 249.984
L155.182 248.832
L155.514 248.256
L157.236 247.68
L157.236 244.224
L161.28 243.648
L161.28 239.616
L163.121 239.04
L164.534 238.464
L164.534 236.736
L168.648 236.16
L168.648 234.432
L172.164 233.856
L172.164 232.704
L172.831 232.128
L175.456 230.976
L175.715 230.4
L177.217 229.824
L177.217 226.944
L178.862 226.368
L181.345 225.216
L189.051 224.64
L189.156 224.064
L189.545 223.488
L190.937 222.912
L196.773 222.336
L198.051 221.76
L205.92 220.608
L207.41 220.032
L211.107 219.456
L211.19 218.88
L211.569 218.304
L213.577 217.728
L216.973 217.152
L216.973 216.576
L217.432 216
L223.247 215.424
L225.38 214.848
L225.724 214.272
L226.572 213.696
L226.572 213.12
L228.207 212.544
L228.207 211.392
L229.826 210.816
L234.084 210.24
L235.214 209.664
L235.214 207.936
L238.363 207.36
L238.363 206.784
L242.998 206.208
L244.316 205.632
L244.89 205.056
L244.89 204.48
L248.179 203.904
L248.455 203.328
L250.56 202.752
L250.56 201.024
L254.242 200.448
L254.953 199.872
L258.436 199.296
L260.638 198.72
L261.684 198.144
L264.638 197.568
L264.638 196.992
L265.297 196.416
L265.297 194.688
L267.259 194.112
L269.623 193.536
L270.384 192.96
L271.592 192.384
L272.328 191.808
L272.519 191.232
L273.19 190.656
L273.663 190.08
L275.753 189.504
L276.566 188.928
L278.912 188.352
L279.954 187.776
L279.954 186.624
L280.784 186.048
L282.435 185.472
L282.435 184.896
L283.746 184.32
L284.718 183.744
L285.95 182.016
L288.4 181.44
L289.707 180.864
L290.597 180.288
L290.69 179.136
L295.2 178.56
L295.2 177.984
L299.042 177.408
L302.069 176.832
L302.069 176.256
L303.034 175.68
L303.034 175.104
L304.195 174.528
L306.311 173.952
L306.311 171.072
L308.008 170.496
L310.196 169.92
L310.869 169.344
L315.083 168.768
L315.879 168.192
L317.507 167.616
L317.954 167.04
L318.757 166.464
L321.545 165.888
L321.545 162.432
L322.541 161.856
L322.541 161.28
L326.181 160.704
L327.708 160.128
L327.708 158.976
L328.452 158.4
L330.058 157.824
L330.058 157.248
L330.358 156.672
L330.373 154.944
L332.294 154.368
L332.294 153.792
L332.825 153.216
L333.872 152.64
L334.609 152.064
L334.675 151.488
L335.044 150.912
L336.863 150.336
L337.553 149.76
L337.821 149.184
L339.244 148.608
L339.84 148.032
L339.84 146.304
L343.497 145.728
L345.363 144.576
L345.363 142.848
L345.925 142.272
L348.138 141.696
L348.984 141.12
L349.601 140.544
L349.601 139.392
L350.379 138.816
L351 137.088
L351.708 136.512
L355.75 135.936
L356.302 135.36
L357.739 134.784
L363.017 134.208
L363.136 133.632
L363.136 131.904
L366.421 130.752
L366.421 130.176
L366.835 129.6
L368.483 129.024
L374.763 128.448
L374.763 127.296
L375.334 126.72
L376.404 126.144
L376.404 125.568
L377.629 124.416
L379.66 123.84
L379.66 123.264
L380.32 122.688
L380.32 122.112
L383.793 121.536
L383.793 120.96
L384.48 120.384
L384.48 113.472
L387.652 112.896
L387.652 111.744
L390.381 111.168
L392.21 110.592
L395.605 110.016
L396.835 109.44
L398.513 108.864
L398.958 108.288
L400.542 107.712
L403.164 107.136
L410.27 105.984
L410.27 103.104
L410.5 102.528
L416.897 101.952
L416.979 101.376
L420.65 100.8
L423.467 100.224
L424.91 99.648
L427.722 99.072
L429.12 98.496
L437.905 97.92
L440.261 96.192
L440.261 95.616
L452.096 95.04
L454.708 94.464
L454.708 93.888
L457.249 93.312
L458.594 92.736
L462.6 92.16
L462.6 90.432
L467.511 89.856
L469.187 89.28
L472.021 88.704
L472.163 88.128
L474.998 87.552
L483.56 86.976
L509.381 86.4
L518.4 85.824
L518.4 85.824" style="fill:none;stroke:#008000;"/>
   </g>
   <g id="line2d_3">
    <path clip-path="url(#p7ff5b81e1d)" d="
M72 388.8
L72 213.12
L103.241 212.544
L105.273 211.968
L107.712 211.392
L107.712 208.512
L110.659 207.936
L110.659 205.056
L114.087 204.48
L114.087 203.904
L134.483 203.328
L138.545 202.752
L138.545 202.176
L143.424 201.6
L143.424 200.448
L149.319 199.872
L149.319 196.416
L156.174 195.84
L156.174 192.384
L161.28 191.808
L161.28 191.232
L168.648 190.656
L168.648 190.08
L169.291 189.504
L171.818 188.928
L171.818 188.352
L177.26 187.776
L179.136 187.2
L179.136 184.896
L183.352 183.744
L183.352 183.168
L184.931 182.592
L184.931 182.016
L187.978 181.44
L187.978 179.712
L193.105 179.136
L196.966 178.56
L198.261 177.984
L198.261 173.952
L205.091 173.376
L205.92 172.8
L205.92 172.224
L210.312 171.648
L210.312 171.072
L214.848 170.496
L218.362 169.92
L226.637 169.344
L226.637 168.768
L240.348 168.192
L240.348 166.464
L241.397 165.888
L245.12 165.312
L245.12 164.736
L246.952 164.16
L250.56 163.584
L250.56 160.704
L263.137 160.128
L265.297 159.552
L265.297 157.824
L269.406 157.248
L282.435 156.096
L282.435 154.944
L286.272 154.368
L286.272 152.64
L290.69 152.064
L290.69 151.488
L295.2 150.912
L301.075 150.336
L304.909 149.76
L321.932 149.184
L321.984 147.456
L321.984 146.304
L323.877 145.728
L324.522 145.152
L327.464 144.576
L328.437 143.424
L332.137 142.848
L332.294 142.272
L334.833 141.696
L335.149 141.12
L338.182 140.544
L338.182 139.968
L342.616 139.392
L347.983 138.816
L348.624 138.24
L353.173 137.088
L357.696 136.512
L357.696 134.208
L363.587 133.632
L363.872 133.056
L366.609 132.48
L366.609 131.904
L368.108 131.328
L374.397 130.752
L375.494 130.176
L381.275 129.6
L381.275 124.992
L383.33 124.416
L383.33 123.264
L383.682 122.688
L384.48 122.112
L384.48 121.536
L388.703 120.96
L389.415 120.384
L390.793 119.808
L393.408 119.232
L393.408 118.656
L398.33 118.08
L399.698 117.504
L404.727 116.352
L404.727 115.776
L407.959 115.2
L408.696 114.624
L408.696 113.472
L418.241 112.32
L418.241 111.744
L419.934 111.168
L419.934 109.44
L420.332 108.864
L421.905 108.288
L425.917 107.712
L426.431 107.136
L429.12 106.56
L429.12 102.528
L436.712 101.952
L436.712 101.376
L437.394 100.8
L437.394 100.224
L446.077 99.648
L447.481 99.072
L456.63 98.496
L457.734 97.92
L457.734 96.768
L458.594 96.192
L458.594 92.736
L472.866 92.16
L473.484 91.584
L473.76 91.008
L492.87 90.432
L492.87 87.552
L518.4 86.976
L518.4 85.824
L518.4 85.824" style="fill:none;stroke:#ff0000;"/>
   </g>
   <g id="matplotlib.axis_1">
    <g id="xtick_1">
     <g id="line2d_4">
      <defs>
       <path d="
M0 0
L0 -4" id="m0012dd4eef" style="stroke:#000000;stroke-linecap:butt;stroke-width:0.5;"/>
      </defs>
      <g>
       <use style="stroke:#000000;stroke-linecap:butt;stroke-width:0.5;" x="72.0" xlink:href="#m0012dd4eef" y="388.8"/>
      </g>
     </g>
     <g id="line2d_5">
      <defs>
       <path d="
M0 0
L0 4" id="m476344969c" style="stroke:#000000;stroke-linecap:butt;stroke-width:0.5;"/>
      </defs>
      <g>
       <use style="stroke:#000000;stroke-linecap:butt;stroke-width:0.5;" x="72.0" xlink:href="#m476344969c" y="43.2"/>
      </g>
     </g>
     <g id="text_1">
      <!-- 0.0 -->
      <defs>
       <path d="
M31.7812 66.4062
Q24.1719 66.4062 20.3281 58.9062
Q16.5 51.4219 16.5 36.375
Q16.5 21.3906 20.3281 13.8906
Q24.1719 6.39062 31.7812 6.39062
Q39.4531 6.39062 43.2812 13.8906
Q47.125 21.3906 47.125 36.375
Q47.125 51.4219 43.2812 58.9062
Q39.4531 66.4062 31.7812 66.4062
M31.7812 74.2188
Q44.0469 74.2188 50.5156 64.5156
Q56.9844 54.8281 56.9844 36.375
Q56.9844 17.9688 50.5156 8.26562
Q44.0469 -1.42188 31.7812 -1.42188
Q19.5312 -1.42188 13.0625 8.26562
Q6.59375 17.9688 6.59375 36.375
Q6.59375 54.8281 13.0625 64.5156
Q19.5312 74.2188 31.7812 74.2188" id="DejaVuSans-30"/>
       <path d="
M10.6875 12.4062
L21 12.4062
L21 0
L10.6875 0
z
" id="DejaVuSans-2e"/>
      </defs>
      <g transform="translate(63.2521875 401.70625)scale(0.12 -0.12)">
       <use xlink:href="#DejaVuSans-30"/>
       <use x="63.623046875" xlink:href="#DejaVuSans-2e"/>
       <use x="95.41015625" xlink:href="#DejaVuSans-30"/>
      </g>
     </g>
    </g>
    <g id="xtick_2">
     <g id="line2d_6">
      <g>
       <use style="stroke:#000000;stroke-linecap:butt;stroke-width:0.5;" x="161.28" xlink:href="#m0012dd4eef" y="388.8"/>
      </g>
     </g>
     <g id="line2d_7">
      <g>
       <use style="stroke:#000000;stroke-linecap:butt;stroke-width:0.5;" x="161.28" xlink:href="#m476344969c" y="43.2"/>
      </g>
     </g>
     <g id="text_2">
      <!-- 0.1 -->
      <defs>
       <path d="
M12.4062 8.29688
L28.5156 8.29688
L28.5156 63.9219
L10.9844 60.4062
L10.9844 69.3906
L28.4219 72.9062
L38.2812 72.9062
L38.2812 8.29688
L54.3906 8.29688
L54.3906 0
L12.4062 0
z
" id="DejaVuSans-31"/>
      </defs>
      <g transform="translate(152.6878125 401.70625)scale(0.12 -0.12)">
       <use xlink:href="#DejaVuSans-30"/>
       <use x="63.623046875" xlink:href="#DejaVuSans-2e"/>
       <use x="95.41015625" xlink:href="#DejaVuSans-31"/>
      </g>
     </g>
    </g>
    <g id="xtick_3">
     <g id="line2d_8">
      <g>
       <use style="stroke:#000000;stroke-linecap:butt;stroke-width:0.5;" x="250.56" xlink:href="#m0012dd4eef" y="388.8"/>
      </g>
     </g>
     <g id="line2d_9">
      <g>
       <use style="stroke:#000000;stroke-linecap:butt;stroke-width:0.5;" x="250.56" xlink:href="#m476344969c" y="43.2"/>
      </g>
     </g>
     <g id="text_3">
      <!-- 0.2 -->
      <defs>
       <path d="
M19.1875 8.29688
L53.6094 8.29688
L53.6094 0
L7.32812 0
L7.32812 8.29688
Q12.9375 14.1094 22.625 23.8906
Q32.3281 33.6875 34.8125 36.5312
Q39.5469 41.8438 41.4219 45.5312
Q43.3125 49.2188 43.3125 52.7812
Q43.3125 58.5938 39.2344 62.25
Q35.1562 65.9219 28.6094 65.9219
Q23.9688 65.9219 18.8125 64.3125
Q13.6719 62.7031 7.8125 59.4219
L7.8125 69.3906
Q13.7656 71.7812 18.9375 73
Q24.125 74.2188 28.4219 74.2188
Q39.75 74.2188 46.4844 68.5469
Q53.2188 62.8906 53.2188 53.4219
Q53.2188 48.9219 51.5312 44.8906
Q49.8594 40.875 45.4062 35.4062
Q44.1875 33.9844 37.6406 27.2188
Q31.1094 20.4531 19.1875 8.29688" id="DejaVuSans-32"/>
      </defs>
      <g transform="translate(242.0146875 401.70625)scale(0.12 -0.12)">
       <use xlink:href="#DejaVuSans-30"/>
       <use x="63.623046875" xlink:href="#DejaVuSans-2e"/>
       <use x="95.41015625" xlink:href="#DejaVuSans-32"/>
      </g>
     </g>
    </g>
    <g id="xtick_4">
     <g id="line2d_10">
      <g>
       <use style="stroke:#000000;stroke-linecap:butt;stroke-width:0.5;" x="339.84" xlink:href="#m0012dd4eef" y="388.8"/>
      </g>
     </g>
     <g id="line2d_11">
      <g>
       <use style="stroke:#000000;stroke-linecap:butt;stroke-width:0.5;" x="339.84" xlink:href="#m476344969c" y="43.2"/>
      </g>
     </g>
     <g id="text_4">
      <!-- 0.3 -->
      <defs>
       <path d="
M40.5781 39.3125
Q47.6562 37.7969 51.625 33
Q55.6094 28.2188 55.6094 21.1875
Q55.6094 10.4062 48.1875 4.48438
Q40.7656 -1.42188 27.0938 -1.42188
Q22.5156 -1.42188 17.6562 -0.515625
Q12.7969 0.390625 7.625 2.20312
L7.625 11.7188
Q11.7188 9.32812 16.5938 8.10938
Q21.4844 6.89062 26.8125 6.89062
Q36.0781 6.89062 40.9375 10.5469
Q45.7969 14.2031 45.7969 21.1875
Q45.7969 27.6406 41.2812 31.2656
Q36.7656 34.9062 28.7188 34.9062
L20.2188 34.9062
L20.2188 43.0156
L29.1094 43.0156
Q36.375 43.0156 40.2344 45.9219
Q44.0938 48.8281 44.0938 54.2969
Q44.0938 59.9062 40.1094 62.9062
Q36.1406 65.9219 28.7188 65.9219
Q24.6562 65.9219 20.0156 65.0312
Q15.375 64.1562 9.8125 62.3125
L9.8125 71.0938
Q15.4375 72.6562 20.3438 73.4375
Q25.25 74.2188 29.5938 74.2188
Q40.8281 74.2188 47.3594 69.1094
Q53.9062 64.0156 53.9062 55.3281
Q53.9062 49.2656 50.4375 45.0938
Q46.9688 40.9219 40.5781 39.3125" id="DejaVuSans-33"/>
      </defs>
      <g transform="translate(331.1746875 401.70625)scale(0.12 -0.12)">
       <use xlink:href="#DejaVuSans-30"/>
       <use x="63.623046875" xlink:href="#DejaVuSans-2e"/>
       <use x="95.41015625" xlink:href="#DejaVuSans-33"/>
      </g>
     </g>
    </g>
    <g id="xtick_5">
     <g id="line2d_12">
      <g>
       <use style="stroke:#000000;stroke-linecap:butt;stroke-width:0.5;" x="429.12" xlink:href="#m0012dd4eef" y="388.8"/>
      </g>
     </g>
     <g id="line2d_13">
      <g>
       <use style="stroke:#000000;stroke-linecap:butt;stroke-width:0.5;" x="429.12" xlink:href="#m476344969c" y="43.2"/>
      </g>
     </g>
     <g id="text_5">
      <!-- 0.4 -->
      <defs>
       <path d="
M37.7969 64.3125
L12.8906 25.3906
L37.7969 25.3906
z

M35.2031 72.9062
L47.6094 72.9062
L47.6094 25.3906
L58.0156 25.3906
L58.0156 17.1875
L47.6094 17.1875
L47.6094 0
L37.7969 0
L37.7969 17.1875
L4.89062 17.1875
L4.89062 26.7031
z
" id="DejaVuSans-34"/>
      </defs>
      <g transform="translate(420.3103125 401.70625)scale(0.12 -0.12)">
       <use xlink:href="#DejaVuSans-30"/>
       <use x="63.623046875" xlink:href="#DejaVuSans-2e"/>
       <use x="95.41015625" xlink:href="#DejaVuSans-34"/>
      </g>
     </g>
    </g>
    <g id="xtick_6">
     <g id="line2d_14">
      <g>
       <use style="stroke:#000000;stroke-linecap:butt;stroke-width:0.5;" x="518.4" xlink:href="#m0012dd4eef" y="388.8"/>
      </g>
     </g>
     <g id="line2d_15">
      <g>
       <use style="stroke:#000000;stroke-linecap:butt;stroke-width:0.5;" x="518.4" xlink:href="#m476344969c" y="43.2"/>
      </g>
     </g>
     <g id="text_6">
      <!-- 0.5 -->
      <defs>
       <path d="
M10.7969 72.9062
L49.5156 72.9062
L49.5156 64.5938
L19.8281 64.5938
L19.8281 46.7344
Q21.9688 47.4688 24.1094 47.8281
Q26.2656 48.1875 28.4219 48.1875
Q40.625 48.1875 47.75 41.5
Q54.8906 34.8125 54.8906 23.3906
Q54.8906 11.625 47.5625 5.09375
Q40.2344 -1.42188 26.9062 -1.42188
Q22.3125 -1.42188 17.5469 -0.640625
Q12.7969 0.140625 7.71875 1.70312
L7.71875 11.625
Q12.1094 9.23438 16.7969 8.0625
Q21.4844 6.89062 26.7031 6.89062
Q35.1562 6.89062 40.0781 11.3281
Q45.0156 15.7656 45.0156 23.3906
Q45.0156 31 40.0781 35.4375
Q35.1562 39.8906 26.7031 39.8906
Q22.75 39.8906 18.8125 39.0156
Q14.8906 38.1406 10.7969 36.2812
z
" id="DejaVuSans-35"/>
      </defs>
      <g transform="translate(509.7778125 401.70625)scale(0.12 -0.12)">
       <use xlink:href="#DejaVuSans-30"/>
       <use x="63.623046875" xlink:href="#DejaVuSans-2e"/>
       <use x="95.41015625" xlink:href="#DejaVuSans-35"/>
      </g>
     </g>
    </g>
    <g id="text_7">
     <!-- Standard Deviation of Ratings -->
     <defs>
      <path d="
M45.4062 27.9844
Q45.4062 37.75 41.375 43.1094
Q37.3594 48.4844 30.0781 48.4844
Q22.8594 48.4844 18.8281 43.1094
Q14.7969 37.75 14.7969 27.9844
Q14.7969 18.2656 18.8281 12.8906
Q22.8594 7.51562 30.0781 7.51562
Q37.3594 7.51562 41.375 12.8906
Q45.4062 18.2656 45.4062 27.9844
M54.3906 6.78125
Q54.3906 -7.17188 48.1875 -13.9844
Q42 -20.7969 29.2031 -20.7969
Q24.4688 -20.7969 20.2656 -20.0938
Q16.0625 -19.3906 12.1094 -17.9219
L12.1094 -9.1875
Q16.0625 -11.3281 19.9219 -12.3438
Q23.7812 -13.375 27.7812 -13.375
Q36.625 -13.375 41.0156 -8.76562
Q45.4062 -4.15625 45.4062 5.17188
L45.4062 9.625
Q42.625 4.78125 38.2812 2.39062
Q33.9375 0 27.875 0
Q17.8281 0 11.6719 7.65625
Q5.51562 15.3281 5.51562 27.9844
Q5.51562 40.6719 11.6719 48.3281
Q17.8281 56 27.875 56
Q33.9375 56 38.2812 53.6094
Q42.625 51.2188 45.4062 46.3906
L45.4062 54.6875
L54.3906 54.6875
z
" id="DejaVuSans-67"/>
      <path d="
M56.2031 29.5938
L56.2031 25.2031
L14.8906 25.2031
Q15.4844 15.9219 20.4844 11.0625
Q25.4844 6.20312 34.4219 6.20312
Q39.5938 6.20312 44.4531 7.46875
Q49.3125 8.73438 54.1094 11.2812
L54.1094 2.78125
Q49.2656 0.734375 44.1875 -0.34375
Q39.1094 -1.42188 33.8906 -1.42188
Q20.7969 -1.42188 13.1562 6.1875
Q5.51562 13.8125 5.51562 26.8125
Q5.51562 40.2344 12.7656 48.1094
Q20.0156 56 32.3281 56
Q43.3594 56 49.7812 48.8906
Q56.2031 41.7969 56.2031 29.5938
M47.2188 32.2344
Q47.125 39.5938 43.0938 43.9844
Q39.0625 48.3906 32.4219 48.3906
Q24.9062 48.3906 20.3906 44.1406
Q15.875 39.8906 15.1875 32.1719
z
" id="DejaVuSans-65"/>
      <path d="
M30.6094 48.3906
Q23.3906 48.3906 19.1875 42.75
Q14.9844 37.1094 14.9844 27.2969
Q14.9844 17.4844 19.1562 11.8438
Q23.3438 6.20312 30.6094 6.20312
Q37.7969 6.20312 41.9844 11.8594
Q46.1875 17.5312 46.1875 27.2969
Q46.1875 37.0156 41.9844 42.7031
Q37.7969 48.3906 30.6094 48.3906
M30.6094 56
Q42.3281 56 49.0156 48.375
Q55.7188 40.7656 55.7188 27.2969
Q55.7188 13.875 49.0156 6.21875
Q42.3281 -1.42188 30.6094 -1.42188
Q18.8438 -1.42188 12.1719 6.21875
Q5.51562 13.875 5.51562 27.2969
Q5.51562 40.7656 12.1719 48.375
Q18.8438 56 30.6094 56" id="DejaVuSans-6f"/>
      <path d="
M54.8906 33.0156
L54.8906 0
L45.9062 0
L45.9062 32.7188
Q45.9062 40.4844 42.875 44.3281
Q39.8438 48.1875 33.7969 48.1875
Q26.5156 48.1875 22.3125 43.5469
Q18.1094 38.9219 18.1094 30.9062
L18.1094 0
L9.07812 0
L9.07812 54.6875
L18.1094 54.6875
L18.1094 46.1875
Q21.3438 51.125 25.7031 53.5625
Q30.0781 56 35.7969 56
Q45.2188 56 50.0469 50.1719
Q54.8906 44.3438 54.8906 33.0156" id="DejaVuSans-6e"/>
      <path d="
M19.6719 64.7969
L19.6719 8.10938
L31.5938 8.10938
Q46.6875 8.10938 53.6875 14.9375
Q60.6875 21.7812 60.6875 36.5312
Q60.6875 51.1719 53.6875 57.9844
Q46.6875 64.7969 31.5938 64.7969
z

M9.8125 72.9062
L30.0781 72.9062
Q51.2656 72.9062 61.1719 64.0938
Q71.0938 55.2812 71.0938 36.5312
Q71.0938 17.6719 61.125 8.82812
Q51.1719 0 30.0781 0
L9.8125 0
z
" id="DejaVuSans-44"/>
      <path d="
M37.1094 75.9844
L37.1094 68.5
L28.5156 68.5
Q23.6875 68.5 21.7969 66.5469
Q19.9219 64.5938 19.9219 59.5156
L19.9219 54.6875
L34.7188 54.6875
L34.7188 47.7031
L19.9219 47.7031
L19.9219 0
L10.8906 0
L10.8906 47.7031
L2.29688 47.7031
L2.29688 54.6875
L10.8906 54.6875
L10.8906 58.5
Q10.8906 67.625 15.1406 71.7969
Q19.3906 75.9844 28.6094 75.9844
z
" id="DejaVuSans-66"/>
      <path id="DejaVuSans-20"/>
      <path d="
M2.98438 54.6875
L12.5 54.6875
L29.5938 8.79688
L46.6875 54.6875
L56.2031 54.6875
L35.6875 0
L23.4844 0
z
" id="DejaVuSans-76"/>
      <path d="
M9.42188 54.6875
L18.4062 54.6875
L18.4062 0
L9.42188 0
z

M9.42188 75.9844
L18.4062 75.9844
L18.4062 64.5938
L9.42188 64.5938
z
" id="DejaVuSans-69"/>
      <path d="
M53.5156 70.5156
L53.5156 60.8906
Q47.9062 63.5781 42.9219 64.8906
Q37.9375 66.2188 33.2969 66.2188
Q25.25 66.2188 20.875 63.0938
Q16.5 59.9688 16.5 54.2031
Q16.5 49.3594 19.4062 46.8906
Q22.3125 44.4375 30.4219 42.9219
L36.375 41.7031
Q47.4062 39.5938 52.6562 34.2969
Q57.9062 29 57.9062 20.125
Q57.9062 9.51562 50.7969 4.04688
Q43.7031 -1.42188 29.9844 -1.42188
Q24.8125 -1.42188 18.9688 -0.25
Q13.1406 0.921875 6.89062 3.21875
L6.89062 13.375
Q12.8906 10.0156 18.6562 8.29688
Q24.4219 6.59375 29.9844 6.59375
Q38.4219 6.59375 43.0156 9.90625
Q47.6094 13.2344 47.6094 19.3906
Q47.6094 24.75 44.3125 27.7812
Q41.0156 30.8125 33.5 32.3281
L27.4844 33.5
Q16.4531 35.6875 11.5156 40.375
Q6.59375 45.0625 6.59375 53.4219
Q6.59375 63.0938 13.4062 68.6562
Q20.2188 74.2188 32.1719 74.2188
Q37.3125 74.2188 42.625 73.2812
Q47.9531 72.3594 53.5156 70.5156" id="DejaVuSans-53"/>
      <path d="
M18.3125 70.2188
L18.3125 54.6875
L36.8125 54.6875
L36.8125 47.7031
L18.3125 47.7031
L18.3125 18.0156
Q18.3125 11.3281 20.1406 9.42188
Q21.9688 7.51562 27.5938 7.51562
L36.8125 7.51562
L36.8125 0
L27.5938 0
Q17.1875 0 13.2344 3.875
Q9.28125 7.76562 9.28125 18.0156
L9.28125 47.7031
L2.6875 47.7031
L2.6875 54.6875
L9.28125 54.6875
L9.28125 70.2188
z
" id="DejaVuSans-74"/>
      <path d="
M45.4062 46.3906
L45.4062 75.9844
L54.3906 75.9844
L54.3906 0
L45.4062 0
L45.4062 8.20312
Q42.5781 3.32812 38.25 0.953125
Q33.9375 -1.42188 27.875 -1.42188
Q17.9688 -1.42188 11.7344 6.48438
Q5.51562 14.4062 5.51562 27.2969
Q5.51562 40.1875 11.7344 48.0938
Q17.9688 56 27.875 56
Q33.9375 56 38.25 53.625
Q42.5781 51.2656 45.4062 46.3906
M14.7969 27.2969
Q14.7969 17.3906 18.875 11.75
Q22.9531 6.10938 30.0781 6.10938
Q37.2031 6.10938 41.2969 11.75
Q45.4062 17.3906 45.4062 27.2969
Q45.4062 37.2031 41.2969 42.8438
Q37.2031 48.4844 30.0781 48.4844
Q22.9531 48.4844 18.875 42.8438
Q14.7969 37.2031 14.7969 27.2969" id="DejaVuSans-64"/>
      <path d="
M34.2812 27.4844
Q23.3906 27.4844 19.1875 25
Q14.9844 22.5156 14.9844 16.5
Q14.9844 11.7188 18.1406 8.90625
Q21.2969 6.10938 26.7031 6.10938
Q34.1875 6.10938 38.7031 11.4062
Q43.2188 16.7031 43.2188 25.4844
L43.2188 27.4844
z

M52.2031 31.2031
L52.2031 0
L43.2188 0
L43.2188 8.29688
Q40.1406 3.32812 35.5469 0.953125
Q30.9531 -1.42188 24.3125 -1.42188
Q15.9219 -1.42188 10.9531 3.29688
Q6 8.01562 6 15.9219
Q6 25.1406 12.1719 29.8281
Q18.3594 34.5156 30.6094 34.5156
L43.2188 34.5156
L43.2188 35.4062
Q43.2188 41.6094 39.1406 45
Q35.0625 48.3906 27.6875 48.3906
Q23 48.3906 18.5469 47.2656
Q14.1094 46.1406 10.0156 43.8906
L10.0156 52.2031
Q14.9375 54.1094 19.5781 55.0469
Q24.2188 56 28.6094 56
Q40.4844 56 46.3438 49.8438
Q52.2031 43.7031 52.2031 31.2031" id="DejaVuSans-61"/>
      <path d="
M44.3906 34.1875
Q47.5625 33.1094 50.5625 29.5938
Q53.5625 26.0781 56.5938 19.9219
L66.6094 0
L56 0
L46.6875 18.7031
Q43.0625 26.0312 39.6719 28.4219
Q36.2812 30.8125 30.4219 30.8125
L19.6719 30.8125
L19.6719 0
L9.8125 0
L9.8125 72.9062
L32.0781 72.9062
Q44.5781 72.9062 50.7344 67.6719
Q56.8906 62.4531 56.8906 51.9062
Q56.8906 45.0156 53.6875 40.4688
Q50.4844 35.9375 44.3906 34.1875
M19.6719 64.7969
L19.6719 38.9219
L32.0781 38.9219
Q39.2031 38.9219 42.8438 42.2188
Q46.4844 45.5156 46.4844 51.9062
Q46.4844 58.2969 42.8438 61.5469
Q39.2031 64.7969 32.0781 64.7969
z
" id="DejaVuSans-52"/>
      <path d="
M44.2812 53.0781
L44.2812 44.5781
Q40.4844 46.5312 36.375 47.5
Q32.2812 48.4844 27.875 48.4844
Q21.1875 48.4844 17.8438 46.4375
Q14.5 44.3906 14.5 40.2812
Q14.5 37.1562 16.8906 35.375
Q19.2812 33.5938 26.5156 31.9844
L29.5938 31.2969
Q39.1562 29.25 43.1875 25.5156
Q47.2188 21.7812 47.2188 15.0938
Q47.2188 7.46875 41.1875 3.01562
Q35.1562 -1.42188 24.6094 -1.42188
Q20.2188 -1.42188 15.4531 -0.5625
Q10.6875 0.296875 5.42188 2
L5.42188 11.2812
Q10.4062 8.6875 15.2344 7.39062
Q20.0625 6.10938 24.8125 6.10938
Q31.1562 6.10938 34.5625 8.28125
Q37.9844 10.4531 37.9844 14.4062
Q37.9844 18.0625 35.5156 20.0156
Q33.0625 21.9688 24.7031 23.7812
L21.5781 24.5156
Q13.2344 26.2656 9.51562 29.9062
Q5.8125 33.5469 5.8125 39.8906
Q5.8125 47.6094 11.2812 51.7969
Q16.75 56 26.8125 56
Q31.7812 56 36.1719 55.2656
Q40.5781 54.5469 44.2812 53.0781" id="DejaVuSans-73"/>
      <path d="
M41.1094 46.2969
Q39.5938 47.1719 37.8125 47.5781
Q36.0312 48 33.8906 48
Q26.2656 48 22.1875 43.0469
Q18.1094 38.0938 18.1094 28.8125
L18.1094 0
L9.07812 0
L9.07812 54.6875
L18.1094 54.6875
L18.1094 46.1875
Q20.9531 51.1719 25.4844 53.5781
Q30.0312 56 36.5312 56
Q37.4531 56 38.5781 55.875
Q39.7031 55.7656 41.0625 55.5156
z
" id="DejaVuSans-72"/>
     </defs>
     <g transform="translate(205.524375 415.995)scale(0.12 -0.12)">
      <use xlink:href="#DejaVuSans-53"/>
      <use x="63.4765625" xlink:href="#DejaVuSans-74"/>
      <use x="102.685546875" xlink:href="#DejaVuSans-61"/>
      <use x="163.96484375" xlink:href="#DejaVuSans-6e"/>
      <use x="227.34375" xlink:href="#DejaVuSans-64"/>
      <use x="290.8203125" xlink:href="#DejaVuSans-61"/>
      <use x="352.099609375" xlink:href="#DejaVuSans-72"/>
      <use x="391.462890625" xlink:href="#DejaVuSans-64"/>
      <use x="454.939453125" xlink:href="#DejaVuSans-20"/>
      <use x="486.7265625" xlink:href="#DejaVuSans-44"/>
      <use x="563.728515625" xlink:href="#DejaVuSans-65"/>
      <use x="625.251953125" xlink:href="#DejaVuSans-76"/>
      <use x="684.431640625" xlink:href="#DejaVuSans-69"/>
      <use x="712.21484375" xlink:href="#DejaVuSans-61"/>
      <use x="773.494140625" xlink:href="#DejaVuSans-74"/>
      <use x="812.703125" xlink:href="#DejaVuSans-69"/>
      <use x="840.486328125" xlink:href="#DejaVuSans-6f"/>
      <use x="901.66796875" xlink:href="#DejaVuSans-6e"/>
      <use x="965.046875" xlink:href="#DejaVuSans-20"/>
      <use x="996.833984375" xlink:href="#DejaVuSans-6f"/>
      <use x="1058.015625" xlink:href="#DejaVuSans-66"/>
      <use x="1093.22070312" xlink:href="#DejaVuSans-20"/>
      <use x="1125.0078125" xlink:href="#DejaVuSans-52"/>
      <use x="1192.24023438" xlink:href="#DejaVuSans-61"/>
      <use x="1253.51953125" xlink:href="#DejaVuSans-74"/>
      <use x="1292.72851562" xlink:href="#DejaVuSans-69"/>
      <use x="1320.51171875" xlink:href="#DejaVuSans-6e"/>
      <use x="1383.890625" xlink:href="#DejaVuSans-67"/>
      <use x="1447.3671875" xlink:href="#DejaVuSans-73"/>
     </g>
    </g>
   </g>
   <g id="matplotlib.axis_2">
    <g id="ytick_1">
     <g id="line2d_16">
      <defs>
       <path d="
M0 0
L4 0" id="me8a85f7bf6" style="stroke:#000000;stroke-linecap:butt;stroke-width:0.5;"/>
      </defs>
      <g>
       <use style="stroke:#000000;stroke-linecap:butt;stroke-width:0.5;" x="72.0" xlink:href="#me8a85f7bf6" y="388.8"/>
      </g>
     </g>
     <g id="line2d_17">
      <defs>
       <path d="
M0 0
L-4 0" id="m1a32005dea" style="stroke:#000000;stroke-linecap:butt;stroke-width:0.5;"/>
      </defs>
      <g>
       <use style="stroke:#000000;stroke-linecap:butt;stroke-width:0.5;" x="518.4" xlink:href="#m1a32005dea" y="388.8"/>
      </g>
     </g>
     <g id="text_8">
      <!-- 0 -->
      <g transform="translate(61.953125 393.1678125)scale(0.12 -0.12)">
       <use xlink:href="#DejaVuSans-30"/>
      </g>
     </g>
    </g>
    <g id="ytick_2">
     <g id="line2d_18">
      <g>
       <use style="stroke:#000000;stroke-linecap:butt;stroke-width:0.5;" x="72.0" xlink:href="#me8a85f7bf6" y="331.2"/>
      </g>
     </g>
     <g id="line2d_19">
      <g>
       <use style="stroke:#000000;stroke-linecap:butt;stroke-width:0.5;" x="518.4" xlink:href="#m1a32005dea" y="331.2"/>
      </g>
     </g>
     <g id="text_9">
      <!-- 100 -->
      <g transform="translate(47.21 335.5678125)scale(0.12 -0.12)">
       <use xlink:href="#DejaVuSans-31"/>
       <use x="63.623046875" xlink:href="#DejaVuSans-30"/>
       <use x="127.24609375" xlink:href="#DejaVuSans-30"/>
      </g>
     </g>
    </g>
    <g id="ytick_3">
     <g id="line2d_20">
      <g>
       <use style="stroke:#000000;stroke-linecap:butt;stroke-width:0.5;" x="72.0" xlink:href="#me8a85f7bf6" y="273.6"/>
      </g>
     </g>
     <g id="line2d_21">
      <g>
       <use style="stroke:#000000;stroke-linecap:butt;stroke-width:0.5;" x="518.4" xlink:href="#m1a32005dea" y="273.6"/>
      </g>
     </g>
     <g id="text_10">
      <!-- 200 -->
      <g transform="translate(46.77125 277.9678125)scale(0.12 -0.12)">
       <use xlink:href="#DejaVuSans-32"/>
       <use x="63.623046875" xlink:href="#DejaVuSans-30"/>
       <use x="127.24609375" xlink:href="#DejaVuSans-30"/>
      </g>
     </g>
    </g>
    <g id="ytick_4">
     <g id="line2d_22">
      <g>
       <use style="stroke:#000000;stroke-linecap:butt;stroke-width:0.5;" x="72.0" xlink:href="#me8a85f7bf6" y="216.0"/>
      </g>
     </g>
     <g id="line2d_23">
      <g>
       <use style="stroke:#000000;stroke-linecap:butt;stroke-width:0.5;" x="518.4" xlink:href="#m1a32005dea" y="216.0"/>
      </g>
     </g>
     <g id="text_11">
      <!-- 300 -->
      <g transform="translate(46.806875 220.3678125)scale(0.12 -0.12)">
       <use xlink:href="#DejaVuSans-33"/>
       <use x="63.623046875" xlink:href="#DejaVuSans-30"/>
       <use x="127.24609375" xlink:href="#DejaVuSans-30"/>
      </g>
     </g>
    </g>
    <g id="ytick_5">
     <g id="line2d_24">
      <g>
       <use style="stroke:#000000;stroke-linecap:butt;stroke-width:0.5;" x="72.0" xlink:href="#me8a85f7bf6" y="158.4"/>
      </g>
     </g>
     <g id="line2d_25">
      <g>
       <use style="stroke:#000000;stroke-linecap:butt;stroke-width:0.5;" x="518.4" xlink:href="#m1a32005dea" y="158.4"/>
      </g>
     </g>
     <g id="text_12">
      <!-- 400 -->
      <g transform="translate(46.47875 162.7678125)scale(0.12 -0.12)">
       <use xlink:href="#DejaVuSans-34"/>
       <use x="63.623046875" xlink:href="#DejaVuSans-30"/>
       <use x="127.24609375" xlink:href="#DejaVuSans-30"/>
      </g>
     </g>
    </g>
    <g id="ytick_6">
     <g id="line2d_26">
      <g>
       <use style="stroke:#000000;stroke-linecap:butt;stroke-width:0.5;" x="72.0" xlink:href="#me8a85f7bf6" y="100.8"/>
      </g>
     </g>
     <g id="line2d_27">
      <g>
       <use style="stroke:#000000;stroke-linecap:butt;stroke-width:0.5;" x="518.4" xlink:href="#m1a32005dea" y="100.8"/>
      </g>
     </g>
     <g id="text_13">
      <!-- 500 -->
      <g transform="translate(46.818125 105.1678125)scale(0.12 -0.12)">
       <use xlink:href="#DejaVuSans-35"/>
       <use x="63.623046875" xlink:href="#DejaVuSans-30"/>
       <use x="127.24609375" xlink:href="#DejaVuSans-30"/>
      </g>
     </g>
    </g>
    <g id="ytick_7">
     <g id="line2d_28">
      <g>
       <use style="stroke:#000000;stroke-linecap:butt;stroke-width:0.5;" x="72.0" xlink:href="#me8a85f7bf6" y="43.2"/>
      </g>
     </g>
     <g id="line2d_29">
      <g>
       <use style="stroke:#000000;stroke-linecap:butt;stroke-width:0.5;" x="518.4" xlink:href="#m1a32005dea" y="43.2"/>
      </g>
     </g>
     <g id="text_14">
      <!-- 600 -->
      <defs>
       <path d="
M33.0156 40.375
Q26.375 40.375 22.4844 35.8281
Q18.6094 31.2969 18.6094 23.3906
Q18.6094 15.5312 22.4844 10.9531
Q26.375 6.39062 33.0156 6.39062
Q39.6562 6.39062 43.5312 10.9531
Q47.4062 15.5312 47.4062 23.3906
Q47.4062 31.2969 43.5312 35.8281
Q39.6562 40.375 33.0156 40.375
M52.5938 71.2969
L52.5938 62.3125
Q48.875 64.0625 45.0938 64.9844
Q41.3125 65.9219 37.5938 65.9219
Q27.8281 65.9219 22.6719 59.3281
Q17.5312 52.7344 16.7969 39.4062
Q19.6719 43.6562 24.0156 45.9219
Q28.375 48.1875 33.5938 48.1875
Q44.5781 48.1875 50.9531 41.5156
Q57.3281 34.8594 57.3281 23.3906
Q57.3281 12.1562 50.6875 5.35938
Q44.0469 -1.42188 33.0156 -1.42188
Q20.3594 -1.42188 13.6719 8.26562
Q6.98438 17.9688 6.98438 36.375
Q6.98438 53.6562 15.1875 63.9375
Q23.3906 74.2188 37.2031 74.2188
Q40.9219 74.2188 44.7031 73.4844
Q48.4844 72.75 52.5938 71.2969" id="DejaVuSans-36"/>
      </defs>
      <g transform="translate(46.73 47.5678125)scale(0.12 -0.12)">
       <use xlink:href="#DejaVuSans-36"/>
       <use x="63.623046875" xlink:href="#DejaVuSans-30"/>
       <use x="127.24609375" xlink:href="#DejaVuSans-30"/>
      </g>
     </g>
    </g>
    <g id="text_15">
     <!-- Number of clips with a lower standard deviation -->
     <defs>
      <path d="
M9.8125 72.9062
L23.0938 72.9062
L55.4219 11.9219
L55.4219 72.9062
L64.9844 72.9062
L64.9844 0
L51.7031 0
L19.3906 60.9844
L19.3906 0
L9.8125 0
z
" id="DejaVuSans-4e"/>
      <path d="
M52 44.1875
Q55.375 50.25 60.0625 53.125
Q64.75 56 71.0938 56
Q79.6406 56 84.2812 50.0156
Q88.9219 44.0469 88.9219 33.0156
L88.9219 0
L79.8906 0
L79.8906 32.7188
Q79.8906 40.5781 77.0938 44.375
Q74.3125 48.1875 68.6094 48.1875
Q61.625 48.1875 57.5625 43.5469
Q53.5156 38.9219 53.5156 30.9062
L53.5156 0
L44.4844 0
L44.4844 32.7188
Q44.4844 40.625 41.7031 44.4062
Q38.9219 48.1875 33.1094 48.1875
Q26.2188 48.1875 22.1562 43.5312
Q18.1094 38.875 18.1094 30.9062
L18.1094 0
L9.07812 0
L9.07812 54.6875
L18.1094 54.6875
L18.1094 46.1875
Q21.1875 51.2188 25.4844 53.6094
Q29.7812 56 35.6875 56
Q41.6562 56 45.8281 52.9688
Q50 49.9531 52 44.1875" id="DejaVuSans-6d"/>
      <path d="
M9.42188 75.9844
L18.4062 75.9844
L18.4062 0
L9.42188 0
z
" id="DejaVuSans-6c"/>
      <path d="
M18.1094 8.20312
L18.1094 -20.7969
L9.07812 -20.7969
L9.07812 54.6875
L18.1094 54.6875
L18.1094 46.3906
Q20.9531 51.2656 25.2656 53.625
Q29.5938 56 35.5938 56
Q45.5625 56 51.7812 48.0938
Q58.0156 40.1875 58.0156 27.2969
Q58.0156 14.4062 51.7812 6.48438
Q45.5625 -1.42188 35.5938 -1.42188
Q29.5938 -1.42188 25.2656 0.953125
Q20.9531 3.32812 18.1094 8.20312
M48.6875 27.2969
Q48.6875 37.2031 44.6094 42.8438
Q40.5312 48.4844 33.4062 48.4844
Q26.2656 48.4844 22.1875 42.8438
Q18.1094 37.2031 18.1094 27.2969
Q18.1094 17.3906 22.1875 11.75
Q26.2656 6.10938 33.4062 6.10938
Q40.5312 6.10938 44.6094 11.75
Q48.6875 17.3906 48.6875 27.2969" id="DejaVuSans-70"/>
      <path d="
M54.8906 33.0156
L54.8906 0
L45.9062 0
L45.9062 32.7188
Q45.9062 40.4844 42.875 44.3281
Q39.8438 48.1875 33.7969 48.1875
Q26.5156 48.1875 22.3125 43.5469
Q18.1094 38.9219 18.1094 30.9062
L18.1094 0
L9.07812 0
L9.07812 75.9844
L18.1094 75.9844
L18.1094 46.1875
Q21.3438 51.125 25.7031 53.5625
Q30.0781 56 35.7969 56
Q45.2188 56 50.0469 50.1719
Q54.8906 44.3438 54.8906 33.0156" id="DejaVuSans-68"/>
      <path d="
M8.5 21.5781
L8.5 54.6875
L17.4844 54.6875
L17.4844 21.9219
Q17.4844 14.1562 20.5 10.2656
Q23.5312 6.39062 29.5938 6.39062
Q36.8594 6.39062 41.0781 11.0312
Q45.3125 15.6719 45.3125 23.6875
L45.3125 54.6875
L54.2969 54.6875
L54.2969 0
L45.3125 0
L45.3125 8.40625
Q42.0469 3.42188 37.7188 1
Q33.4062 -1.42188 27.6875 -1.42188
Q18.2656 -1.42188 13.375 4.4375
Q8.5 10.2969 8.5 21.5781
M31.1094 56
z
" id="DejaVuSans-75"/>
      <path d="
M4.20312 54.6875
L13.1875 54.6875
L24.4219 12.0156
L35.5938 54.6875
L46.1875 54.6875
L57.4219 12.0156
L68.6094 54.6875
L77.5938 54.6875
L63.2812 0
L52.6875 0
L40.9219 44.8281
L29.1094 0
L18.5 0
z
" id="DejaVuSans-77"/>
      <path d="
M48.6875 27.2969
Q48.6875 37.2031 44.6094 42.8438
Q40.5312 48.4844 33.4062 48.4844
Q26.2656 48.4844 22.1875 42.8438
Q18.1094 37.2031 18.1094 27.2969
Q18.1094 17.3906 22.1875 11.75
Q26.2656 6.10938 33.4062 6.10938
Q40.5312 6.10938 44.6094 11.75
Q48.6875 17.3906 48.6875 27.2969
M18.1094 46.3906
Q20.9531 51.2656 25.2656 53.625
Q29.5938 56 35.5938 56
Q45.5625 56 51.7812 48.0938
Q58.0156 40.1875 58.0156 27.2969
Q58.0156 14.4062 51.7812 6.48438
Q45.5625 -1.42188 35.5938 -1.42188
Q29.5938 -1.42188 25.2656 0.953125
Q20.9531 3.32812 18.1094 8.20312
L18.1094 0
L9.07812 0
L9.07812 75.9844
L18.1094 75.9844
z
" id="DejaVuSans-62"/>
      <path d="
M48.7812 52.5938
L48.7812 44.1875
Q44.9688 46.2969 41.1406 47.3438
Q37.3125 48.3906 33.4062 48.3906
Q24.6562 48.3906 19.8125 42.8438
Q14.9844 37.3125 14.9844 27.2969
Q14.9844 17.2812 19.8125 11.7344
Q24.6562 6.20312 33.4062 6.20312
Q37.3125 6.20312 41.1406 7.25
Q44.9688 8.29688 48.7812 10.4062
L48.7812 2.09375
Q45.0156 0.34375 40.9844 -0.53125
Q36.9688 -1.42188 32.4219 -1.42188
Q20.0625 -1.42188 12.7812 6.34375
Q5.51562 14.1094 5.51562 27.2969
Q5.51562 40.6719 12.8594 48.3281
Q20.2188 56 33.0156 56
Q37.1562 56 41.1094 55.1406
Q45.0625 54.2969 48.7812 52.5938" id="DejaVuSans-63"/>
     </defs>
     <g transform="translate(41.47875 357.10875)rotate(-90.0)scale(0.12 -0.12)">
      <use xlink:href="#DejaVuSans-4e"/>
      <use x="74.8046875" xlink:href="#DejaVuSans-75"/>
      <use x="138.18359375" xlink:href="#DejaVuSans-6d"/>
      <use x="235.595703125" xlink:href="#DejaVuSans-62"/>
      <use x="299.072265625" xlink:href="#DejaVuSans-65"/>
      <use x="360.595703125" xlink:href="#DejaVuSans-72"/>
      <use x="401.708984375" xlink:href="#DejaVuSans-20"/>
      <use x="433.49609375" xlink:href="#DejaVuSans-6f"/>
      <use x="494.677734375" xlink:href="#DejaVuSans-66"/>
      <use x="529.8828125" xlink:href="#DejaVuSans-20"/>
      <use x="561.669921875" xlink:href="#DejaVuSans-63"/>
      <use x="616.650390625" xlink:href="#DejaVuSans-6c"/>
      <use x="644.43359375" xlink:href="#DejaVuSans-69"/>
      <use x="672.216796875" xlink:href="#DejaVuSans-70"/>
      <use x="735.693359375" xlink:href="#DejaVuSans-73"/>
      <use x="787.79296875" xlink:href="#DejaVuSans-20"/>
      <use x="819.580078125" xlink:href="#DejaVuSans-77"/>
      <use x="901.3671875" xlink:href="#DejaVuSans-69"/>
      <use x="929.150390625" xlink:href="#DejaVuSans-74"/>
      <use x="968.359375" xlink:href="#DejaVuSans-68"/>
      <use x="1031.73828125" xlink:href="#DejaVuSans-20"/>
      <use x="1063.52539062" xlink:href="#DejaVuSans-61"/>
      <use x="1124.8046875" xlink:href="#DejaVuSans-20"/>
      <use x="1156.59179688" xlink:href="#DejaVuSans-6c"/>
      <use x="1184.375" xlink:href="#DejaVuSans-6f"/>
      <use x="1245.55664062" xlink:href="#DejaVuSans-77"/>
      <use x="1327.34375" xlink:href="#DejaVuSans-65"/>
      <use x="1388.8671875" xlink:href="#DejaVuSans-72"/>
      <use x="1429.98046875" xlink:href="#DejaVuSans-20"/>
      <use x="1461.76757812" xlink:href="#DejaVuSans-73"/>
      <use x="1513.8671875" xlink:href="#DejaVuSans-74"/>
      <use x="1553.07617188" xlink:href="#DejaVuSans-61"/>
      <use x="1614.35546875" xlink:href="#DejaVuSans-6e"/>
      <use x="1677.734375" xlink:href="#DejaVuSans-64"/>
      <use x="1741.2109375" xlink:href="#DejaVuSans-61"/>
      <use x="1802.49023438" xlink:href="#DejaVuSans-72"/>
      <use x="1841.85351562" xlink:href="#DejaVuSans-64"/>
      <use x="1905.33007812" xlink:href="#DejaVuSans-20"/>
      <use x="1937.1171875" xlink:href="#DejaVuSans-64"/>
      <use x="2000.59375" xlink:href="#DejaVuSans-65"/>
      <use x="2062.1171875" xlink:href="#DejaVuSans-76"/>
      <use x="2121.296875" xlink:href="#DejaVuSans-69"/>
      <use x="2149.08007812" xlink:href="#DejaVuSans-61"/>
      <use x="2210.359375" xlink:href="#DejaVuSans-74"/>
      <use x="2249.56835938" xlink:href="#DejaVuSans-69"/>
      <use x="2277.3515625" xlink:href="#DejaVuSans-6f"/>
      <use x="2338.53320312" xlink:href="#DejaVuSans-6e"/>
     </g>
    </g>
   </g>
   <g id="patch_3">
    <path d="
M72 43.2
L518.4 43.2" style="fill:none;stroke:#000000;"/>
   </g>
   <g id="patch_4">
    <path d="
M518.4 388.8
L518.4 43.2" style="fill:none;stroke:#000000;"/>
   </g>
   <g id="patch_5">
    <path d="
M72 388.8
L518.4 388.8" style="fill:none;stroke:#000000;"/>
   </g>
   <g id="patch_6">
    <path d="
M72 388.8
L72 43.2" style="fill:none;stroke:#000000;"/>
   </g>
   <g id="text_16">
    <!-- question -->
    <defs>
     <path d="
M14.7969 27.2969
Q14.7969 17.3906 18.875 11.75
Q22.9531 6.10938 30.0781 6.10938
Q37.2031 6.10938 41.2969 11.75
Q45.4062 17.3906 45.4062 27.2969
Q45.4062 37.2031 41.2969 42.8438
Q37.2031 48.4844 30.0781 48.4844
Q22.9531 48.4844 18.875 42.8438
Q14.7969 37.2031 14.7969 27.2969
M45.4062 8.20312
Q42.5781 3.32812 38.25 0.953125
Q33.9375 -1.42188 27.875 -1.42188
Q17.9688 -1.42188 11.7344 6.48438
Q5.51562 14.4062 5.51562 27.2969
Q5.51562 40.1875 11.7344 48.0938
Q17.9688 56 27.875 56
Q33.9375 56 38.25 53.625
Q42.5781 51.2656 45.4062 46.3906
L45.4062 54.6875
L54.3906 54.6875
L54.3906 -20.7969
L45.4062 -20.7969
z
" id="DejaVuSans-71"/>
    </defs>
    <g transform="translate(265.10175 38.2)scale(0.144 -0.144)">
     <use xlink:href="#DejaVuSans-71"/>
     <use x="63.4765625" xlink:href="#DejaVuSans-75"/>
     <use x="126.85546875" xlink:href="#DejaVuSans-65"/>
     <use x="188.37890625" xlink:href="#DejaVuSans-73"/>
     <use x="240.478515625" xlink:href="#DejaVuSans-74"/>
     <use x="279.6875" xlink:href="#DejaVuSans-69"/>
     <use x="307.470703125" xlink:href="#DejaVuSans-6f"/>
     <use x="368.65234375" xlink:href="#DejaVuSans-6e"/>
    </g>
   </g>
   <g id="legend_1">
    <g id="patch_7">
     <path d="
M429.538 381.6
L511.2 381.6
L511.2 316.661
L429.538 316.661
L429.538 381.6
z
" style="fill:#ffffff;stroke:#000000;"/>
    </g>
    <g id="line2d_30">
     <path d="
M439.618 328.322
L459.779 328.322" style="fill:none;stroke:#0000ff;"/>
    </g>
    <g id="line2d_31"/>
    <g id="text_17">
     <!-- IND -->
     <defs>
      <path d="
M9.8125 72.9062
L19.6719 72.9062
L19.6719 0
L9.8125 0
z
" id="DejaVuSans-49"/>
     </defs>
     <g transform="translate(475.6185 333.36225)scale(0.144 -0.144)">
      <use xlink:href="#DejaVuSans-49"/>
      <use x="29.4921875" xlink:href="#DejaVuSans-4e"/>
      <use x="104.296875" xlink:href="#DejaVuSans-44"/>
     </g>
    </g>
    <g id="line2d_32">
     <path d="
M439.618 349.459
L459.779 349.459" style="fill:none;stroke:#008000;"/>
    </g>
    <g id="line2d_33"/>
    <g id="text_18">
     <!-- KEN -->
     <defs>
      <path d="
M9.8125 72.9062
L55.9062 72.9062
L55.9062 64.5938
L19.6719 64.5938
L19.6719 43.0156
L54.3906 43.0156
L54.3906 34.7188
L19.6719 34.7188
L19.6719 8.29688
L56.7812 8.29688
L56.7812 0
L9.8125 0
z
" id="DejaVuSans-45"/>
      <path d="
M9.8125 72.9062
L19.6719 72.9062
L19.6719 42.0938
L52.3906 72.9062
L65.0938 72.9062
L28.9062 38.9219
L67.6719 0
L54.6875 0
L19.6719 35.1094
L19.6719 0
L9.8125 0
z
" id="DejaVuSans-4b"/>
     </defs>
     <g transform="translate(475.6185 354.49875)scale(0.144 -0.144)">
      <use xlink:href="#DejaVuSans-4b"/>
      <use x="65.576171875" xlink:href="#DejaVuSans-45"/>
      <use x="128.759765625" xlink:href="#DejaVuSans-4e"/>
     </g>
    </g>
    <g id="line2d_34">
     <path d="
M439.618 370.595
L459.779 370.595" style="fill:none;stroke:#ff0000;"/>
    </g>
    <g id="line2d_35"/>
    <g id="text_19">
     <!-- GBR -->
     <defs>
      <path d="
M59.5156 10.4062
L59.5156 29.9844
L43.4062 29.9844
L43.4062 38.0938
L69.2812 38.0938
L69.2812 6.78125
Q63.5781 2.73438 56.6875 0.65625
Q49.8125 -1.42188 42 -1.42188
Q24.9062 -1.42188 15.25 8.5625
Q5.60938 18.5625 5.60938 36.375
Q5.60938 54.25 15.25 64.2344
Q24.9062 74.2188 42 74.2188
Q49.125 74.2188 55.5469 72.4531
Q61.9688 70.7031 67.3906 67.2812
L67.3906 56.7812
Q61.9219 61.4219 55.7656 63.7656
Q49.6094 66.1094 42.8281 66.1094
Q29.4375 66.1094 22.7188 58.6406
Q16.0156 51.1719 16.0156 36.375
Q16.0156 21.625 22.7188 14.1562
Q29.4375 6.6875 42.8281 6.6875
Q48.0469 6.6875 52.1406 7.59375
Q56.25 8.5 59.5156 10.4062" id="DejaVuSans-47"/>
      <path d="
M19.6719 34.8125
L19.6719 8.10938
L35.5 8.10938
Q43.4531 8.10938 47.2812 11.4062
Q51.125 14.7031 51.125 21.4844
Q51.125 28.3281 47.2812 31.5625
Q43.4531 34.8125 35.5 34.8125
z

M19.6719 64.7969
L19.6719 42.8281
L34.2812 42.8281
Q41.5 42.8281 45.0312 45.5312
Q48.5781 48.25 48.5781 53.8125
Q48.5781 59.3281 45.0312 62.0625
Q41.5 64.7969 34.2812 64.7969
z

M9.8125 72.9062
L35.0156 72.9062
Q46.2969 72.9062 52.3906 68.2188
Q58.5 63.5312 58.5 54.8906
Q58.5 48.1875 55.375 44.2344
Q52.25 40.2812 46.1875 39.3125
Q53.4688 37.75 57.5 32.7812
Q61.5312 27.8281 61.5312 20.4062
Q61.5312 10.6406 54.8906 5.3125
Q48.25 0 35.9844 0
L9.8125 0
z
" id="DejaVuSans-42"/>
     </defs>
     <g transform="translate(475.6185 375.63525)scale(0.144 -0.144)">
      <use xlink:href="#DejaVuSans-47"/>
      <use x="77.490234375" xlink:href="#DejaVuSans-42"/>
      <use x="146.09375" xlink:href="#DejaVuSans-52"/>
     </g>
    </g>
   </g>
  </g>
 </g>
 <defs>
  <clipPath id="p7ff5b81e1d">
   <rect height="345.6" width="446.4" x="72.0" y="43.2"/>
  </clipPath>
 </defs>
</svg>
