<?xml version="1.0" encoding="utf-8" standalone="no"?>
<!DOCTYPE svg PUBLIC "-//W3C//DTD SVG 1.1//EN"
  "http://www.w3.org/Graphics/SVG/1.1/DTD/svg11.dtd">
<!-- Created with matplotlib (http://matplotlib.sourceforge.net/) -->
<svg height="432pt" version="1.1" viewBox="0 0 576 432" width="576pt" xmlns="http://www.w3.org/2000/svg" xmlns:xlink="http://www.w3.org/1999/xlink">
 <defs>
  <style type="text/css">
*{stroke-linecap:square;stroke-linejoin:round;}
  </style>
 </defs>
 <g id="figure_1">
  <g id="patch_1">
   <path d="
M0 432
L576 432
L576 0
L0 0
z
" style="fill:#ffffff;"/>
  </g>
  <g id="axes_1">
   <g id="patch_2">
    <path d="
M72 388.8
L518.4 388.8
L518.4 43.2
L72 43.2
z
" style="fill:#ffffff;"/>
   </g>
   <g id="line2d_1">
    <path clip-path="url(#p7ff5b81e1d)" d="
M124.609 388.8
L127.8 388.224
L136.432 387.648
L142.145 387.072
L142.582 386.496
L148.69 385.92
L149.67 385.344
L150.104 384.768
L150.913 384.192
L153.293 383.616
L155.182 383.04
L155.182 381.888
L155.514 381.312
L155.662 380.736
L156.362 380.16
L159.118 379.584
L159.162 378.432
L159.681 377.856
L159.681 377.28
L161.28 376.128
L161.28 375.552
L163.121 374.976
L163.121 373.248
L164.534 372.672
L164.534 372.096
L164.793 371.52
L168.648 370.944
L170.278 370.368
L170.278 369.216
L171.818 368.64
L171.818 368.064
L172.164 367.488
L172.164 366.912
L172.831 366.336
L174.253 365.76
L174.253 365.184
L176.454 364.608
L176.454 364.032
L177.217 363.456
L177.217 360.576
L179.831 359.424
L180.056 358.848
L182.455 358.272
L182.455 355.968
L182.725 355.392
L182.725 354.816
L182.909 354.24
L182.909 353.664
L183.6 353.088
L183.6 352.512
L184.157 351.936
L186.533 351.36
L186.658 350.784
L186.658 350.208
L186.966 349.632
L186.993 348.48
L188.514 347.904
L189.545 347.328
L189.545 345.6
L190.235 345.024
L190.235 344.448
L190.937 343.872
L190.937 342.72
L191.305 342.144
L192.197 341.568
L193.613 340.992
L194.252 340.416
L194.252 339.84
L194.613 339.264
L194.76 337.536
L196.256 336.96
L196.273 336.384
L196.773 335.808
L197.534 335.232
L197.534 334.656
L197.902 334.08
L198.456 333.504
L198.456 331.2
L198.753 330.624
L200.865 330.048
L202.052 328.896
L202.117 327.744
L205.056 326.592
L205.424 326.016
L205.552 325.44
L205.804 324.864
L205.92 324.288
L207.357 323.712
L207.41 323.136
L207.968 322.56
L207.968 321.984
L208.225 321.408
L208.682 320.832
L208.682 319.68
L208.962 319.104
L208.962 317.952
L209.62 317.376
L210.492 316.8
L210.987 316.224
L211.388 315.072
L212.29 314.496
L213.577 313.92
L213.577 313.344
L214.597 312.768
L214.618 312.192
L214.869 311.616
L214.924 310.464
L215.353 309.888
L215.54 309.312
L215.54 308.16
L215.883 307.584
L216.075 307.008
L216.16 305.856
L216.369 305.28
L216.973 304.704
L216.973 304.128
L218.119 302.976
L218.191 301.824
L218.719 301.248
L218.972 300.672
L219.633 300.096
L220.054 299.52
L220.054 298.944
L220.8 298.368
L220.8 297.792
L221.83 297.216
L221.83 296.64
L222.142 296.064
L223.247 295.488
L223.247 293.76
L223.382 293.184
L224.177 292.032
L224.177 291.456
L224.877 290.88
L224.942 289.152
L225.863 288
L226.503 287.424
L226.572 286.272
L226.572 285.12
L227.341 284.544
L227.341 283.392
L227.845 282.24
L227.866 281.088
L228.207 280.512
L228.24 279.36
L229.209 278.208
L229.332 277.632
L229.672 277.056
L229.672 276.48
L230.646 275.328
L230.915 273.024
L231.787 272.448
L233.338 271.872
L233.676 271.296
L234.586 270.72
L234.586 270.144
L236.505 269.568
L237.059 268.416
L237.683 267.264
L237.683 266.688
L238.335 266.112
L238.363 264.384
L239.028 263.808
L239.4 263.232
L239.4 262.656
L243.443 262.08
L244.248 261.504
L244.489 260.928
L245.24 260.352
L246.249 259.776
L246.682 258.624
L246.782 258.048
L247.117 257.472
L249.6 256.32
L249.973 255.744
L249.973 254.592
L250.405 254.016
L250.405 253.44
L253.329 251.712
L253.951 251.136
L254.179 250.56
L254.242 249.984
L254.953 249.408
L255.181 247.68
L256.541 247.104
L256.859 246.528
L256.859 245.952
L257.404 245.376
L257.446 244.8
L257.924 243.648
L257.924 243.072
L259.286 241.344
L261.261 240.768
L261.355 240.192
L262.427 239.616
L262.649 238.464
L264.004 237.312
L266.901 236.736
L268.844 236.16
L268.844 235.584
L271.246 235.008
L271.246 234.432
L271.825 233.856
L271.944 232.704
L273.499 230.4
L275.753 229.824
L275.753 229.248
L276.425 228.672
L276.595 226.944
L276.945 226.368
L277.409 224.64
L277.444 223.488
L278.083 222.336
L278.749 221.76
L278.987 221.184
L279.802 220.608
L279.998 220.032
L280.318 219.456
L280.784 218.88
L282.435 218.304
L283.051 217.728
L283.255 217.152
L283.255 216.576
L284.372 215.424
L284.429 214.848
L284.704 214.272
L284.833 213.696
L285.698 213.12
L286.044 212.544
L286.259 211.968
L286.304 211.392
L286.938 210.816
L287.218 210.24
L287.221 209.664
L287.662 209.088
L289.122 208.512
L290.015 207.936
L290.417 207.36
L290.69 206.208
L290.69 205.632
L291.241 205.056
L291.477 204.48
L292.078 203.904
L293.421 203.328
L293.449 202.752
L293.957 202.176
L294.185 201.024
L295.2 200.448
L295.2 198.72
L295.943 198.144
L296.126 197.568
L296.579 196.992
L297.037 195.84
L297.037 195.264
L297.172 194.688
L297.683 194.112
L299.62 193.536
L300.984 192.96
L300.984 192.384
L301.316 191.232
L301.316 190.08
L301.483 189.504
L301.798 188.928
L302.029 187.2
L302.261 186.624
L302.516 184.896
L303.034 184.32
L303.149 183.744
L305.842 183.168
L306.353 182.592
L306.353 182.016
L307.099 181.44
L307.273 180.864
L307.322 180.288
L308.117 179.712
L308.416 179.136
L308.476 178.56
L308.739 177.984
L308.739 177.408
L309.065 176.832
L309.148 175.68
L309.904 174.528
L310.611 173.376
L311.226 172.8
L311.355 172.224
L311.599 171.648
L311.656 170.496
L312.365 169.92
L313.686 169.344
L314.514 168.768
L314.826 168.192
L315.482 167.616
L315.823 167.04
L316.756 165.888
L316.919 165.312
L316.919 164.736
L317.453 164.16
L317.52 163.008
L317.954 162.432
L318.011 161.856
L318.694 161.28
L318.757 160.704
L319.682 160.128
L319.981 159.552
L321.795 158.976
L321.988 158.4
L322.79 157.824
L323.081 156.672
L323.781 156.096
L324.079 154.368
L324.303 153.792
L324.911 153.216
L324.987 152.64
L325.506 152.064
L325.571 151.488
L326.181 150.912
L328.08 149.76
L328.533 149.184
L328.68 148.608
L328.68 148.032
L329.663 147.456
L329.862 146.304
L331.735 145.728
L331.85 145.152
L333.353 142.848
L333.482 142.272
L334.216 141.12
L334.936 140.544
L335.044 137.088
L335.536 136.512
L335.701 135.936
L337.683 134.208
L339.607 133.632
L339.84 133.056
L340.267 132.48
L340.423 131.904
L343.497 131.328
L344.432 130.752
L345.018 129.024
L345.363 128.448
L345.363 127.872
L347.239 127.296
L347.604 126.72
L348.509 126.144
L348.984 125.568
L349.272 124.992
L349.973 124.416
L349.973 123.84
L350.379 123.264
L350.931 122.688
L351 122.112
L352.755 121.536
L353.89 120.96
L354.083 119.808
L355.162 119.232
L355.307 118.656
L355.917 118.08
L357.551 117.504
L357.89 116.352
L358.909 115.776
L358.957 114.624
L359.79 114.048
L360.297 112.896
L360.6 112.32
L360.737 111.744
L362.872 110.592
L364.913 110.016
L365.356 109.44
L365.503 108.864
L366.835 108.288
L368.565 107.712
L369.38 107.136
L369.564 106.56
L370.181 105.984
L370.621 105.408
L371.454 104.832
L371.916 104.256
L372.168 103.68
L372.285 103.104
L372.809 102.528
L374.214 101.952
L374.723 101.376
L374.75 100.8
L375.334 100.224
L375.334 99.648
L375.585 99.072
L377.425 98.496
L378.386 97.92
L382.882 97.344
L383.238 96.768
L384.48 96.192
L387.344 95.04
L389.595 94.464
L389.803 93.888
L391.044 93.312
L391.653 92.736
L392.006 92.16
L400.036 91.584
L401.822 91.008
L403.017 90.432
L403.164 89.856
L404.174 89.28
L413.394 88.704
L413.936 88.128
L428.81 86.976
L457.249 85.824
L457.249 85.824" style="fill:none;stroke:#0000ff;"/>
   </g>
   <g id="line2d_2">
    <path clip-path="url(#p7ff5b81e1d)" d="
M72 388.8
L72 384.192
L108.908 383.616
L111.052 383.04
L111.052 381.312
L113.591 380.736
L116.64 380.16
L116.64 377.28
L120.324 376.704
L120.324 373.824
L122.416 373.248
L122.416 372.672
L124.609 372.096
L124.609 366.912
L126.673 366.336
L126.673 363.456
L127.8 362.88
L127.8 358.272
L136.343 357.696
L139.05 357.12
L145.816 355.968
L146.864 355.392
L148.439 354.816
L148.69 354.24
L148.69 353.664
L149.67 353.088
L149.67 352.512
L150.104 351.936
L150.913 351.36
L153.293 350.784
L153.293 347.328
L155.182 346.752
L155.182 343.872
L155.514 343.296
L155.514 339.264
L156.362 338.688
L156.362 338.112
L156.911 337.536
L157.236 336.96
L157.236 335.232
L161.28 334.08
L161.28 328.32
L163.121 327.744
L163.121 325.44
L164.534 324.864
L164.534 320.256
L164.962 319.68
L164.962 318.528
L168.648 317.952
L171.818 316.8
L172.164 316.224
L172.164 313.92
L177.217 313.344
L177.217 306.432
L179.999 305.856
L180.056 305.28
L181.345 304.704
L181.345 304.128
L183.6 302.976
L183.6 299.52
L185.81 298.368
L185.81 297.792
L186.882 297.216
L186.966 296.64
L189.156 296.064
L189.156 295.488
L191.098 294.912
L195.378 294.336
L195.378 293.76
L196.773 293.184
L196.773 292.608
L196.979 292.032
L197.534 291.456
L201.52 290.88
L202.147 290.304
L202.147 288.576
L203.468 288
L205.92 287.424
L205.92 286.848
L210.987 285.696
L211.19 285.12
L212.427 284.544
L213.164 283.968
L214.597 283.392
L216.369 282.24
L216.973 281.664
L218.119 281.088
L223.247 280.512
L223.382 279.36
L223.382 276.48
L227.341 275.904
L234.586 275.328
L235.214 274.752
L236.018 274.176
L239.028 273.6
L239.028 271.872
L239.4 270.72
L239.4 269.568
L240.674 268.992
L253.329 268.416
L254.242 267.84
L254.242 267.264
L254.953 266.688
L254.953 265.536
L255.169 264.96
L257.068 264.384
L258.743 263.232
L260.638 262.656
L260.712 262.08
L261.684 261.504
L261.684 260.928
L264.004 260.352
L264.638 259.2
L269.721 258.624
L269.846 258.048
L271.246 257.472
L271.246 256.896
L271.636 256.32
L273.19 255.744
L276.506 255.168
L278.987 254.592
L278.987 252.864
L280.784 251.712
L280.784 249.408
L282.435 248.832
L282.435 247.68
L283.746 247.104
L283.746 246.528
L285.698 245.952
L285.896 245.376
L286.304 244.8
L286.304 243.072
L288.112 242.496
L288.4 241.92
L288.4 241.344
L289.707 240.768
L289.707 239.616
L289.835 239.04
L291.241 238.464
L294.764 237.888
L295.2 237.312
L295.2 235.584
L296.379 235.008
L298.591 234.432
L299.042 233.856
L299.042 233.28
L299.62 232.704
L299.62 231.552
L300.371 230.976
L301.316 229.824
L301.316 228.096
L301.798 227.52
L302.069 226.368
L302.069 225.792
L303.858 225.216
L304.314 224.64
L305.529 224.064
L305.566 223.488
L306.094 222.912
L306.094 221.76
L308.008 221.184
L308.328 220.608
L308.443 220.032
L308.739 219.456
L310.196 218.88
L312.394 217.152
L312.394 216.576
L313.084 216
L313.084 214.272
L313.621 213.696
L313.621 213.12
L315.227 211.392
L315.325 210.816
L316.503 210.24
L316.503 209.664
L316.645 209.088
L316.645 208.512
L317.954 207.936
L318.011 207.36
L318.757 206.784
L318.757 205.632
L320.365 205.056
L320.545 204.48
L320.545 203.328
L322.541 202.176
L322.541 201.6
L324.26 201.024
L324.26 200.448
L324.987 199.872
L326.181 199.296
L327.03 198.72
L327.03 197.568
L327.708 196.992
L327.708 196.416
L328.533 195.84
L329.841 195.264
L330.058 194.688
L330.058 194.112
L330.373 193.536
L331.041 192.96
L331.041 192.384
L331.898 191.808
L332.234 191.232
L332.294 190.08
L332.294 188.352
L333.353 187.776
L333.872 187.2
L334.936 186.624
L335.044 185.472
L335.701 184.896
L336.863 184.32
L336.896 183.744
L337.661 183.168
L337.821 182.592
L338.149 182.016
L338.149 180.288
L338.508 179.712
L338.727 179.136
L339.244 178.56
L339.371 177.984
L339.84 177.408
L339.84 175.68
L340.897 175.104
L340.897 174.528
L341.694 173.952
L341.694 172.224
L343.497 171.648
L343.497 170.496
L345.363 169.92
L345.363 167.616
L345.925 167.04
L348.138 166.464
L348.984 165.888
L348.984 164.736
L349.601 164.16
L349.601 163.584
L350.379 163.008
L350.379 161.856
L350.651 161.28
L350.777 160.704
L350.777 160.128
L351 159.552
L351 158.976
L352.581 157.824
L352.843 157.248
L352.854 156.672
L355.917 155.52
L357.739 154.944
L358.084 153.216
L358.343 152.64
L359.573 152.064
L360.6 150.912
L360.733 150.336
L360.737 149.76
L361.792 149.184
L361.929 148.608
L361.945 146.88
L363.136 145.728
L363.136 145.152
L363.366 144.576
L363.366 144
L364.913 143.424
L364.913 142.272
L365.438 141.696
L369.41 139.392
L370.598 138.816
L371.174 138.24
L372.304 137.664
L372.492 137.088
L372.492 136.512
L373.195 135.936
L374.494 135.36
L374.75 134.784
L374.763 133.056
L375.334 132.48
L375.438 131.904
L376.404 131.328
L376.404 130.752
L377.629 129.6
L378.667 129.024
L378.759 127.872
L381.426 127.296
L381.426 126.72
L382.681 126.144
L382.882 125.568
L382.882 124.992
L383.238 124.416
L383.793 123.84
L383.793 123.264
L384.415 122.688
L384.48 121.536
L386.038 120.96
L386.417 120.384
L387.652 119.808
L390.059 119.232
L391.33 118.656
L391.33 118.08
L392.006 117.504
L392.006 116.928
L392.352 116.352
L392.447 114.624
L395.605 114.048
L397.172 113.472
L397.367 112.896
L399.454 112.32
L400.542 111.744
L400.542 111.168
L400.936 110.592
L403.059 110.016
L403.059 109.44
L404.727 108.864
L405.635 108.288
L406.055 107.712
L408.693 107.136
L408.693 106.56
L410.27 105.984
L411.131 105.408
L412.944 104.832
L413.192 104.256
L413.936 103.68
L414.886 103.104
L414.886 102.528
L416.979 101.376
L416.979 99.072
L419.352 98.496
L420.65 97.92
L422.944 97.344
L424.189 96.768
L424.91 96.192
L427.353 95.616
L435.058 95.04
L436.84 94.464
L437.905 93.888
L440.261 93.312
L441.872 92.736
L445.277 92.16
L445.277 91.584
L445.485 91.008
L445.485 89.856
L448.143 89.28
L451.367 88.704
L469.187 88.128
L469.514 87.552
L475.334 86.976
L492.87 85.824
L492.87 85.824" style="fill:none;stroke:#008000;"/>
   </g>
   <g id="line2d_3">
    <path clip-path="url(#p7ff5b81e1d)" d="
M72 388.8
L72 338.112
L114.087 337.536
L114.087 336.96
L116.64 336.384
L116.64 331.2
L135.13 330.624
L144.897 330.048
L144.897 329.472
L146.027 328.896
L149.319 328.32
L149.319 325.44
L156.174 324.864
L156.174 321.408
L161.28 320.832
L161.28 314.496
L169.291 313.92
L169.291 312.768
L171.818 312.192
L176.117 311.616
L179.136 311.04
L181.345 310.464
L181.345 309.888
L183.352 309.312
L183.352 307.584
L185.124 307.008
L187.978 306.432
L187.978 305.28
L198.261 304.704
L198.261 302.4
L203.214 301.824
L203.214 301.248
L204.047 300.672
L204.047 298.944
L205.92 298.368
L205.92 294.336
L213.164 293.76
L214.848 293.184
L217.063 292.608
L217.063 291.456
L217.794 290.88
L217.794 288.576
L221.394 288
L223.747 286.848
L223.747 283.968
L225.603 283.392
L226.637 282.816
L226.637 281.664
L227.665 281.088
L231.397 280.512
L231.397 279.936
L231.709 279.36
L231.709 278.784
L232.952 278.208
L232.952 277.632
L236.327 277.056
L238.363 276.48
L239.028 275.904
L239.028 275.328
L239.307 274.752
L240.348 274.176
L240.348 271.872
L241.004 271.296
L241.397 270.72
L241.397 270.144
L243.443 269.568
L243.443 267.84
L245.12 267.264
L245.12 266.688
L246.166 266.112
L246.166 265.536
L250.56 264.96
L250.56 259.2
L254.096 258.624
L254.697 258.048
L254.697 256.896
L255.453 256.32
L255.453 252.864
L255.839 252.288
L255.945 249.984
L256.055 248.832
L262.557 248.256
L262.65 247.68
L264.867 247.104
L264.867 244.8
L265.297 244.224
L265.297 243.072
L267.603 241.92
L267.716 241.344
L269.406 240.768
L271.636 240.192
L272.433 239.616
L274.39 239.04
L275.345 238.464
L275.345 237.312
L275.59 236.736
L276.566 236.16
L276.566 235.584
L280.235 235.008
L282.435 233.856
L282.435 231.552
L284.919 230.976
L286.272 230.4
L286.272 228.096
L287.118 227.52
L287.755 226.944
L287.755 225.792
L289.548 224.64
L290.69 224.064
L290.69 223.488
L293.587 222.912
L293.587 222.336
L294.081 221.76
L294.081 220.608
L294.703 220.032
L294.703 217.152
L295.2 216.576
L295.2 213.696
L299.62 213.12
L300.668 212.544
L302.52 211.968
L302.88 211.392
L303.956 210.816
L303.956 208.512
L304.909 207.936
L304.909 206.784
L306.33 206.208
L306.33 203.904
L307.537 203.328
L307.537 202.176
L311.563 201.6
L312.394 201.024
L314.211 200.448
L314.211 199.296
L315.523 198.72
L316.503 198.144
L319.541 196.992
L321.984 195.84
L321.984 193.536
L324.522 192.96
L324.522 191.808
L327.464 191.232
L327.464 190.08
L328.005 189.504
L328.005 187.2
L328.437 186.048
L333.143 185.472
L333.211 184.896
L333.567 184.32
L334.429 183.744
L334.429 182.592
L334.833 182.016
L334.833 180.864
L335.149 180.288
L335.245 179.712
L336.094 179.136
L336.094 178.56
L336.931 177.984
L339.244 176.832
L339.244 175.68
L339.84 175.104
L339.84 173.952
L340.435 173.376
L340.435 172.8
L342.616 172.224
L342.616 169.344
L347.179 168.192
L347.179 167.616
L347.983 167.04
L347.983 166.464
L349.882 165.888
L349.882 164.736
L350.92 164.16
L350.92 163.584
L351.446 163.008
L352.755 162.432
L356.051 161.856
L357.696 161.28
L357.696 158.976
L357.835 158.4
L357.835 157.824
L362.126 157.248
L362.126 156.672
L362.446 156.096
L363.872 155.52
L363.872 154.944
L364.724 154.368
L364.724 153.216
L365.947 152.64
L366.609 152.064
L366.609 149.76
L367.569 149.184
L368.646 148.032
L370.025 147.456
L370.621 146.88
L370.788 146.304
L371.658 145.728
L373.972 145.152
L375.494 144.576
L375.494 143.424
L377.221 142.848
L377.221 142.272
L379.206 141.12
L379.84 140.544
L381.275 139.968
L381.275 137.088
L383.33 136.512
L383.33 135.936
L383.682 135.36
L383.894 134.784
L384.48 134.208
L384.48 132.48
L389.75 131.904
L390.091 131.328
L391.487 130.176
L393.408 129.024
L393.408 128.448
L393.904 127.872
L396.37 127.296
L396.984 126.72
L396.984 125.568
L398.004 124.992
L398.004 124.416
L398.33 123.84
L398.33 122.688
L400.036 122.112
L400.71 121.536
L403.727 120.96
L404.141 120.384
L404.141 119.808
L404.727 119.232
L406.055 118.656
L406.055 116.352
L408.285 115.776
L408.285 114.624
L408.696 114.048
L408.696 109.44
L408.906 108.864
L412.619 108.288
L418.241 107.136
L419.934 106.56
L419.934 105.984
L423.496 105.408
L425.615 104.256
L426.431 103.68
L429.12 102.528
L429.12 100.8
L430.667 100.224
L430.667 99.648
L436.484 99.072
L436.712 98.496
L437.394 97.92
L437.394 97.344
L442.135 96.192
L444.844 95.616
L446.077 95.04
L449.905 94.464
L449.923 93.888
L450.783 93.312
L450.783 92.736
L453.3 92.16
L457.734 91.584
L458.594 91.008
L459.166 90.432
L463.078 89.856
L463.078 88.704
L464.832 88.128
L469.672 87.552
L471.272 86.976
L518.4 85.824
L518.4 85.824" style="fill:none;stroke:#ff0000;"/>
   </g>
   <g id="matplotlib.axis_1">
    <g id="xtick_1">
     <g id="line2d_4">
      <defs>
       <path d="
M0 0
L0 -4" id="m0012dd4eef" style="stroke:#000000;stroke-linecap:butt;stroke-width:0.5;"/>
      </defs>
      <g>
       <use style="stroke:#000000;stroke-linecap:butt;stroke-width:0.5;" x="72.0" xlink:href="#m0012dd4eef" y="388.8"/>
      </g>
     </g>
     <g id="line2d_5">
      <defs>
       <path d="
M0 0
L0 4" id="m476344969c" style="stroke:#000000;stroke-linecap:butt;stroke-width:0.5;"/>
      </defs>
      <g>
       <use style="stroke:#000000;stroke-linecap:butt;stroke-width:0.5;" x="72.0" xlink:href="#m476344969c" y="43.2"/>
      </g>
     </g>
     <g id="text_1">
      <!-- 0.0 -->
      <defs>
       <path d="
M31.7812 66.4062
Q24.1719 66.4062 20.3281 58.9062
Q16.5 51.4219 16.5 36.375
Q16.5 21.3906 20.3281 13.8906
Q24.1719 6.39062 31.7812 6.39062
Q39.4531 6.39062 43.2812 13.8906
Q47.125 21.3906 47.125 36.375
Q47.125 51.4219 43.2812 58.9062
Q39.4531 66.4062 31.7812 66.4062
M31.7812 74.2188
Q44.0469 74.2188 50.5156 64.5156
Q56.9844 54.8281 56.9844 36.375
Q56.9844 17.9688 50.5156 8.26562
Q44.0469 -1.42188 31.7812 -1.42188
Q19.5312 -1.42188 13.0625 8.26562
Q6.59375 17.9688 6.59375 36.375
Q6.59375 54.8281 13.0625 64.5156
Q19.5312 74.2188 31.7812 74.2188" id="DejaVuSans-30"/>
       <path d="
M10.6875 12.4062
L21 12.4062
L21 0
L10.6875 0
z
" id="DejaVuSans-2e"/>
      </defs>
      <g transform="translate(63.2521875 401.70625)scale(0.12 -0.12)">
       <use xlink:href="#DejaVuSans-30"/>
       <use x="63.623046875" xlink:href="#DejaVuSans-2e"/>
       <use x="95.41015625" xlink:href="#DejaVuSans-30"/>
      </g>
     </g>
    </g>
    <g id="xtick_2">
     <g id="line2d_6">
      <g>
       <use style="stroke:#000000;stroke-linecap:butt;stroke-width:0.5;" x="161.28" xlink:href="#m0012dd4eef" y="388.8"/>
      </g>
     </g>
     <g id="line2d_7">
      <g>
       <use style="stroke:#000000;stroke-linecap:butt;stroke-width:0.5;" x="161.28" xlink:href="#m476344969c" y="43.2"/>
      </g>
     </g>
     <g id="text_2">
      <!-- 0.1 -->
      <defs>
       <path d="
M12.4062 8.29688
L28.5156 8.29688
L28.5156 63.9219
L10.9844 60.4062
L10.9844 69.3906
L28.4219 72.9062
L38.2812 72.9062
L38.2812 8.29688
L54.3906 8.29688
L54.3906 0
L12.4062 0
z
" id="DejaVuSans-31"/>
      </defs>
      <g transform="translate(152.6878125 401.70625)scale(0.12 -0.12)">
       <use xlink:href="#DejaVuSans-30"/>
       <use x="63.623046875" xlink:href="#DejaVuSans-2e"/>
       <use x="95.41015625" xlink:href="#DejaVuSans-31"/>
      </g>
     </g>
    </g>
    <g id="xtick_3">
     <g id="line2d_8">
      <g>
       <use style="stroke:#000000;stroke-linecap:butt;stroke-width:0.5;" x="250.56" xlink:href="#m0012dd4eef" y="388.8"/>
      </g>
     </g>
     <g id="line2d_9">
      <g>
       <use style="stroke:#000000;stroke-linecap:butt;stroke-width:0.5;" x="250.56" xlink:href="#m476344969c" y="43.2"/>
      </g>
     </g>
     <g id="text_3">
      <!-- 0.2 -->
      <defs>
       <path d="
M19.1875 8.29688
L53.6094 8.29688
L53.6094 0
L7.32812 0
L7.32812 8.29688
Q12.9375 14.1094 22.625 23.8906
Q32.3281 33.6875 34.8125 36.5312
Q39.5469 41.8438 41.4219 45.5312
Q43.3125 49.2188 43.3125 52.7812
Q43.3125 58.5938 39.2344 62.25
Q35.1562 65.9219 28.6094 65.9219
Q23.9688 65.9219 18.8125 64.3125
Q13.6719 62.7031 7.8125 59.4219
L7.8125 69.3906
Q13.7656 71.7812 18.9375 73
Q24.125 74.2188 28.4219 74.2188
Q39.75 74.2188 46.4844 68.5469
Q53.2188 62.8906 53.2188 53.4219
Q53.2188 48.9219 51.5312 44.8906
Q49.8594 40.875 45.4062 35.4062
Q44.1875 33.9844 37.6406 27.2188
Q31.1094 20.4531 19.1875 8.29688" id="DejaVuSans-32"/>
      </defs>
      <g transform="translate(242.0146875 401.70625)scale(0.12 -0.12)">
       <use xlink:href="#DejaVuSans-30"/>
       <use x="63.623046875" xlink:href="#DejaVuSans-2e"/>
       <use x="95.41015625" xlink:href="#DejaVuSans-32"/>
      </g>
     </g>
    </g>
    <g id="xtick_4">
     <g id="line2d_10">
      <g>
       <use style="stroke:#000000;stroke-linecap:butt;stroke-width:0.5;" x="339.84" xlink:href="#m0012dd4eef" y="388.8"/>
      </g>
     </g>
     <g id="line2d_11">
      <g>
       <use style="stroke:#000000;stroke-linecap:butt;stroke-width:0.5;" x="339.84" xlink:href="#m476344969c" y="43.2"/>
      </g>
     </g>
     <g id="text_4">
      <!-- 0.3 -->
      <defs>
       <path d="
M40.5781 39.3125
Q47.6562 37.7969 51.625 33
Q55.6094 28.2188 55.6094 21.1875
Q55.6094 10.4062 48.1875 4.48438
Q40.7656 -1.42188 27.0938 -1.42188
Q22.5156 -1.42188 17.6562 -0.515625
Q12.7969 0.390625 7.625 2.20312
L7.625 11.7188
Q11.7188 9.32812 16.5938 8.10938
Q21.4844 6.89062 26.8125 6.89062
Q36.0781 6.89062 40.9375 10.5469
Q45.7969 14.2031 45.7969 21.1875
Q45.7969 27.6406 41.2812 31.2656
Q36.7656 34.9062 28.7188 34.9062
L20.2188 34.9062
L20.2188 43.0156
L29.1094 43.0156
Q36.375 43.0156 40.2344 45.9219
Q44.0938 48.8281 44.0938 54.2969
Q44.0938 59.9062 40.1094 62.9062
Q36.1406 65.9219 28.7188 65.9219
Q24.6562 65.9219 20.0156 65.0312
Q15.375 64.1562 9.8125 62.3125
L9.8125 71.0938
Q15.4375 72.6562 20.3438 73.4375
Q25.25 74.2188 29.5938 74.2188
Q40.8281 74.2188 47.3594 69.1094
Q53.9062 64.0156 53.9062 55.3281
Q53.9062 49.2656 50.4375 45.0938
Q46.9688 40.9219 40.5781 39.3125" id="DejaVuSans-33"/>
      </defs>
      <g transform="translate(331.1746875 401.70625)scale(0.12 -0.12)">
       <use xlink:href="#DejaVuSans-30"/>
       <use x="63.623046875" xlink:href="#DejaVuSans-2e"/>
       <use x="95.41015625" xlink:href="#DejaVuSans-33"/>
      </g>
     </g>
    </g>
    <g id="xtick_5">
     <g id="line2d_12">
      <g>
       <use style="stroke:#000000;stroke-linecap:butt;stroke-width:0.5;" x="429.12" xlink:href="#m0012dd4eef" y="388.8"/>
      </g>
     </g>
     <g id="line2d_13">
      <g>
       <use style="stroke:#000000;stroke-linecap:butt;stroke-width:0.5;" x="429.12" xlink:href="#m476344969c" y="43.2"/>
      </g>
     </g>
     <g id="text_5">
      <!-- 0.4 -->
      <defs>
       <path d="
M37.7969 64.3125
L12.8906 25.3906
L37.7969 25.3906
z

M35.2031 72.9062
L47.6094 72.9062
L47.6094 25.3906
L58.0156 25.3906
L58.0156 17.1875
L47.6094 17.1875
L47.6094 0
L37.7969 0
L37.7969 17.1875
L4.89062 17.1875
L4.89062 26.7031
z
" id="DejaVuSans-34"/>
      </defs>
      <g transform="translate(420.3103125 401.70625)scale(0.12 -0.12)">
       <use xlink:href="#DejaVuSans-30"/>
       <use x="63.623046875" xlink:href="#DejaVuSans-2e"/>
       <use x="95.41015625" xlink:href="#DejaVuSans-34"/>
      </g>
     </g>
    </g>
    <g id="xtick_6">
     <g id="line2d_14">
      <g>
       <use style="stroke:#000000;stroke-linecap:butt;stroke-width:0.5;" x="518.4" xlink:href="#m0012dd4eef" y="388.8"/>
      </g>
     </g>
     <g id="line2d_15">
      <g>
       <use style="stroke:#000000;stroke-linecap:butt;stroke-width:0.5;" x="518.4" xlink:href="#m476344969c" y="43.2"/>
      </g>
     </g>
     <g id="text_6">
      <!-- 0.5 -->
      <defs>
       <path d="
M10.7969 72.9062
L49.5156 72.9062
L49.5156 64.5938
L19.8281 64.5938
L19.8281 46.7344
Q21.9688 47.4688 24.1094 47.8281
Q26.2656 48.1875 28.4219 48.1875
Q40.625 48.1875 47.75 41.5
Q54.8906 34.8125 54.8906 23.3906
Q54.8906 11.625 47.5625 5.09375
Q40.2344 -1.42188 26.9062 -1.42188
Q22.3125 -1.42188 17.5469 -0.640625
Q12.7969 0.140625 7.71875 1.70312
L7.71875 11.625
Q12.1094 9.23438 16.7969 8.0625
Q21.4844 6.89062 26.7031 6.89062
Q35.1562 6.89062 40.0781 11.3281
Q45.0156 15.7656 45.0156 23.3906
Q45.0156 31 40.0781 35.4375
Q35.1562 39.8906 26.7031 39.8906
Q22.75 39.8906 18.8125 39.0156
Q14.8906 38.1406 10.7969 36.2812
z
" id="DejaVuSans-35"/>
      </defs>
      <g transform="translate(509.7778125 401.70625)scale(0.12 -0.12)">
       <use xlink:href="#DejaVuSans-30"/>
       <use x="63.623046875" xlink:href="#DejaVuSans-2e"/>
       <use x="95.41015625" xlink:href="#DejaVuSans-35"/>
      </g>
     </g>
    </g>
    <g id="text_7">
     <!-- Standard Deviation of Ratings -->
     <defs>
      <path d="
M45.4062 27.9844
Q45.4062 37.75 41.375 43.1094
Q37.3594 48.4844 30.0781 48.4844
Q22.8594 48.4844 18.8281 43.1094
Q14.7969 37.75 14.7969 27.9844
Q14.7969 18.2656 18.8281 12.8906
Q22.8594 7.51562 30.0781 7.51562
Q37.3594 7.51562 41.375 12.8906
Q45.4062 18.2656 45.4062 27.9844
M54.3906 6.78125
Q54.3906 -7.17188 48.1875 -13.9844
Q42 -20.7969 29.2031 -20.7969
Q24.4688 -20.7969 20.2656 -20.0938
Q16.0625 -19.3906 12.1094 -17.9219
L12.1094 -9.1875
Q16.0625 -11.3281 19.9219 -12.3438
Q23.7812 -13.375 27.7812 -13.375
Q36.625 -13.375 41.0156 -8.76562
Q45.4062 -4.15625 45.4062 5.17188
L45.4062 9.625
Q42.625 4.78125 38.2812 2.39062
Q33.9375 0 27.875 0
Q17.8281 0 11.6719 7.65625
Q5.51562 15.3281 5.51562 27.9844
Q5.51562 40.6719 11.6719 48.3281
Q17.8281 56 27.875 56
Q33.9375 56 38.2812 53.6094
Q42.625 51.2188 45.4062 46.3906
L45.4062 54.6875
L54.3906 54.6875
z
" id="DejaVuSans-67"/>
      <path d="
M56.2031 29.5938
L56.2031 25.2031
L14.8906 25.2031
Q15.4844 15.9219 20.4844 11.0625
Q25.4844 6.20312 34.4219 6.20312
Q39.5938 6.20312 44.4531 7.46875
Q49.3125 8.73438 54.1094 11.2812
L54.1094 2.78125
Q49.2656 0.734375 44.1875 -0.34375
Q39.1094 -1.42188 33.8906 -1.42188
Q20.7969 -1.42188 13.1562 6.1875
Q5.51562 13.8125 5.51562 26.8125
Q5.51562 40.2344 12.7656 48.1094
Q20.0156 56 32.3281 56
Q43.3594 56 49.7812 48.8906
Q56.2031 41.7969 56.2031 29.5938
M47.2188 32.2344
Q47.125 39.5938 43.0938 43.9844
Q39.0625 48.3906 32.4219 48.3906
Q24.9062 48.3906 20.3906 44.1406
Q15.875 39.8906 15.1875 32.1719
z
" id="DejaVuSans-65"/>
      <path d="
M30.6094 48.3906
Q23.3906 48.3906 19.1875 42.75
Q14.9844 37.1094 14.9844 27.2969
Q14.9844 17.4844 19.1562 11.8438
Q23.3438 6.20312 30.6094 6.20312
Q37.7969 6.20312 41.9844 11.8594
Q46.1875 17.5312 46.1875 27.2969
Q46.1875 37.0156 41.9844 42.7031
Q37.7969 48.3906 30.6094 48.3906
M30.6094 56
Q42.3281 56 49.0156 48.375
Q55.7188 40.7656 55.7188 27.2969
Q55.7188 13.875 49.0156 6.21875
Q42.3281 -1.42188 30.6094 -1.42188
Q18.8438 -1.42188 12.1719 6.21875
Q5.51562 13.875 5.51562 27.2969
Q5.51562 40.7656 12.1719 48.375
Q18.8438 56 30.6094 56" id="DejaVuSans-6f"/>
      <path d="
M54.8906 33.0156
L54.8906 0
L45.9062 0
L45.9062 32.7188
Q45.9062 40.4844 42.875 44.3281
Q39.8438 48.1875 33.7969 48.1875
Q26.5156 48.1875 22.3125 43.5469
Q18.1094 38.9219 18.1094 30.9062
L18.1094 0
L9.07812 0
L9.07812 54.6875
L18.1094 54.6875
L18.1094 46.1875
Q21.3438 51.125 25.7031 53.5625
Q30.0781 56 35.7969 56
Q45.2188 56 50.0469 50.1719
Q54.8906 44.3438 54.8906 33.0156" id="DejaVuSans-6e"/>
      <path d="
M19.6719 64.7969
L19.6719 8.10938
L31.5938 8.10938
Q46.6875 8.10938 53.6875 14.9375
Q60.6875 21.7812 60.6875 36.5312
Q60.6875 51.1719 53.6875 57.9844
Q46.6875 64.7969 31.5938 64.7969
z

M9.8125 72.9062
L30.0781 72.9062
Q51.2656 72.9062 61.1719 64.0938
Q71.0938 55.2812 71.0938 36.5312
Q71.0938 17.6719 61.125 8.82812
Q51.1719 0 30.0781 0
L9.8125 0
z
" id="DejaVuSans-44"/>
      <path d="
M37.1094 75.9844
L37.1094 68.5
L28.5156 68.5
Q23.6875 68.5 21.7969 66.5469
Q19.9219 64.5938 19.9219 59.5156
L19.9219 54.6875
L34.7188 54.6875
L34.7188 47.7031
L19.9219 47.7031
L19.9219 0
L10.8906 0
L10.8906 47.7031
L2.29688 47.7031
L2.29688 54.6875
L10.8906 54.6875
L10.8906 58.5
Q10.8906 67.625 15.1406 71.7969
Q19.3906 75.9844 28.6094 75.9844
z
" id="DejaVuSans-66"/>
      <path id="DejaVuSans-20"/>
      <path d="
M2.98438 54.6875
L12.5 54.6875
L29.5938 8.79688
L46.6875 54.6875
L56.2031 54.6875
L35.6875 0
L23.4844 0
z
" id="DejaVuSans-76"/>
      <path d="
M9.42188 54.6875
L18.4062 54.6875
L18.4062 0
L9.42188 0
z

M9.42188 75.9844
L18.4062 75.9844
L18.4062 64.5938
L9.42188 64.5938
z
" id="DejaVuSans-69"/>
      <path d="
M53.5156 70.5156
L53.5156 60.8906
Q47.9062 63.5781 42.9219 64.8906
Q37.9375 66.2188 33.2969 66.2188
Q25.25 66.2188 20.875 63.0938
Q16.5 59.9688 16.5 54.2031
Q16.5 49.3594 19.4062 46.8906
Q22.3125 44.4375 30.4219 42.9219
L36.375 41.7031
Q47.4062 39.5938 52.6562 34.2969
Q57.9062 29 57.9062 20.125
Q57.9062 9.51562 50.7969 4.04688
Q43.7031 -1.42188 29.9844 -1.42188
Q24.8125 -1.42188 18.9688 -0.25
Q13.1406 0.921875 6.89062 3.21875
L6.89062 13.375
Q12.8906 10.0156 18.6562 8.29688
Q24.4219 6.59375 29.9844 6.59375
Q38.4219 6.59375 43.0156 9.90625
Q47.6094 13.2344 47.6094 19.3906
Q47.6094 24.75 44.3125 27.7812
Q41.0156 30.8125 33.5 32.3281
L27.4844 33.5
Q16.4531 35.6875 11.5156 40.375
Q6.59375 45.0625 6.59375 53.4219
Q6.59375 63.0938 13.4062 68.6562
Q20.2188 74.2188 32.1719 74.2188
Q37.3125 74.2188 42.625 73.2812
Q47.9531 72.3594 53.5156 70.5156" id="DejaVuSans-53"/>
      <path d="
M18.3125 70.2188
L18.3125 54.6875
L36.8125 54.6875
L36.8125 47.7031
L18.3125 47.7031
L18.3125 18.0156
Q18.3125 11.3281 20.1406 9.42188
Q21.9688 7.51562 27.5938 7.51562
L36.8125 7.51562
L36.8125 0
L27.5938 0
Q17.1875 0 13.2344 3.875
Q9.28125 7.76562 9.28125 18.0156
L9.28125 47.7031
L2.6875 47.7031
L2.6875 54.6875
L9.28125 54.6875
L9.28125 70.2188
z
" id="DejaVuSans-74"/>
      <path d="
M45.4062 46.3906
L45.4062 75.9844
L54.3906 75.9844
L54.3906 0
L45.4062 0
L45.4062 8.20312
Q42.5781 3.32812 38.25 0.953125
Q33.9375 -1.42188 27.875 -1.42188
Q17.9688 -1.42188 11.7344 6.48438
Q5.51562 14.4062 5.51562 27.2969
Q5.51562 40.1875 11.7344 48.0938
Q17.9688 56 27.875 56
Q33.9375 56 38.25 53.625
Q42.5781 51.2656 45.4062 46.3906
M14.7969 27.2969
Q14.7969 17.3906 18.875 11.75
Q22.9531 6.10938 30.0781 6.10938
Q37.2031 6.10938 41.2969 11.75
Q45.4062 17.3906 45.4062 27.2969
Q45.4062 37.2031 41.2969 42.8438
Q37.2031 48.4844 30.0781 48.4844
Q22.9531 48.4844 18.875 42.8438
Q14.7969 37.2031 14.7969 27.2969" id="DejaVuSans-64"/>
      <path d="
M34.2812 27.4844
Q23.3906 27.4844 19.1875 25
Q14.9844 22.5156 14.9844 16.5
Q14.9844 11.7188 18.1406 8.90625
Q21.2969 6.10938 26.7031 6.10938
Q34.1875 6.10938 38.7031 11.4062
Q43.2188 16.7031 43.2188 25.4844
L43.2188 27.4844
z

M52.2031 31.2031
L52.2031 0
L43.2188 0
L43.2188 8.29688
Q40.1406 3.32812 35.5469 0.953125
Q30.9531 -1.42188 24.3125 -1.42188
Q15.9219 -1.42188 10.9531 3.29688
Q6 8.01562 6 15.9219
Q6 25.1406 12.1719 29.8281
Q18.3594 34.5156 30.6094 34.5156
L43.2188 34.5156
L43.2188 35.4062
Q43.2188 41.6094 39.1406 45
Q35.0625 48.3906 27.6875 48.3906
Q23 48.3906 18.5469 47.2656
Q14.1094 46.1406 10.0156 43.8906
L10.0156 52.2031
Q14.9375 54.1094 19.5781 55.0469
Q24.2188 56 28.6094 56
Q40.4844 56 46.3438 49.8438
Q52.2031 43.7031 52.2031 31.2031" id="DejaVuSans-61"/>
      <path d="
M44.3906 34.1875
Q47.5625 33.1094 50.5625 29.5938
Q53.5625 26.0781 56.5938 19.9219
L66.6094 0
L56 0
L46.6875 18.7031
Q43.0625 26.0312 39.6719 28.4219
Q36.2812 30.8125 30.4219 30.8125
L19.6719 30.8125
L19.6719 0
L9.8125 0
L9.8125 72.9062
L32.0781 72.9062
Q44.5781 72.9062 50.7344 67.6719
Q56.8906 62.4531 56.8906 51.9062
Q56.8906 45.0156 53.6875 40.4688
Q50.4844 35.9375 44.3906 34.1875
M19.6719 64.7969
L19.6719 38.9219
L32.0781 38.9219
Q39.2031 38.9219 42.8438 42.2188
Q46.4844 45.5156 46.4844 51.9062
Q46.4844 58.2969 42.8438 61.5469
Q39.2031 64.7969 32.0781 64.7969
z
" id="DejaVuSans-52"/>
      <path d="
M44.2812 53.0781
L44.2812 44.5781
Q40.4844 46.5312 36.375 47.5
Q32.2812 48.4844 27.875 48.4844
Q21.1875 48.4844 17.8438 46.4375
Q14.5 44.3906 14.5 40.2812
Q14.5 37.1562 16.8906 35.375
Q19.2812 33.5938 26.5156 31.9844
L29.5938 31.2969
Q39.1562 29.25 43.1875 25.5156
Q47.2188 21.7812 47.2188 15.0938
Q47.2188 7.46875 41.1875 3.01562
Q35.1562 -1.42188 24.6094 -1.42188
Q20.2188 -1.42188 15.4531 -0.5625
Q10.6875 0.296875 5.42188 2
L5.42188 11.2812
Q10.4062 8.6875 15.2344 7.39062
Q20.0625 6.10938 24.8125 6.10938
Q31.1562 6.10938 34.5625 8.28125
Q37.9844 10.4531 37.9844 14.4062
Q37.9844 18.0625 35.5156 20.0156
Q33.0625 21.9688 24.7031 23.7812
L21.5781 24.5156
Q13.2344 26.2656 9.51562 29.9062
Q5.8125 33.5469 5.8125 39.8906
Q5.8125 47.6094 11.2812 51.7969
Q16.75 56 26.8125 56
Q31.7812 56 36.1719 55.2656
Q40.5781 54.5469 44.2812 53.0781" id="DejaVuSans-73"/>
      <path d="
M41.1094 46.2969
Q39.5938 47.1719 37.8125 47.5781
Q36.0312 48 33.8906 48
Q26.2656 48 22.1875 43.0469
Q18.1094 38.0938 18.1094 28.8125
L18.1094 0
L9.07812 0
L9.07812 54.6875
L18.1094 54.6875
L18.1094 46.1875
Q20.9531 51.1719 25.4844 53.5781
Q30.0312 56 36.5312 56
Q37.4531 56 38.5781 55.875
Q39.7031 55.7656 41.0625 55.5156
z
" id="DejaVuSans-72"/>
     </defs>
     <g transform="translate(205.524375 415.995)scale(0.12 -0.12)">
      <use xlink:href="#DejaVuSans-53"/>
      <use x="63.4765625" xlink:href="#DejaVuSans-74"/>
      <use x="102.685546875" xlink:href="#DejaVuSans-61"/>
      <use x="163.96484375" xlink:href="#DejaVuSans-6e"/>
      <use x="227.34375" xlink:href="#DejaVuSans-64"/>
      <use x="290.8203125" xlink:href="#DejaVuSans-61"/>
      <use x="352.099609375" xlink:href="#DejaVuSans-72"/>
      <use x="391.462890625" xlink:href="#DejaVuSans-64"/>
      <use x="454.939453125" xlink:href="#DejaVuSans-20"/>
      <use x="486.7265625" xlink:href="#DejaVuSans-44"/>
      <use x="563.728515625" xlink:href="#DejaVuSans-65"/>
      <use x="625.251953125" xlink:href="#DejaVuSans-76"/>
      <use x="684.431640625" xlink:href="#DejaVuSans-69"/>
      <use x="712.21484375" xlink:href="#DejaVuSans-61"/>
      <use x="773.494140625" xlink:href="#DejaVuSans-74"/>
      <use x="812.703125" xlink:href="#DejaVuSans-69"/>
      <use x="840.486328125" xlink:href="#DejaVuSans-6f"/>
      <use x="901.66796875" xlink:href="#DejaVuSans-6e"/>
      <use x="965.046875" xlink:href="#DejaVuSans-20"/>
      <use x="996.833984375" xlink:href="#DejaVuSans-6f"/>
      <use x="1058.015625" xlink:href="#DejaVuSans-66"/>
      <use x="1093.22070312" xlink:href="#DejaVuSans-20"/>
      <use x="1125.0078125" xlink:href="#DejaVuSans-52"/>
      <use x="1192.24023438" xlink:href="#DejaVuSans-61"/>
      <use x="1253.51953125" xlink:href="#DejaVuSans-74"/>
      <use x="1292.72851562" xlink:href="#DejaVuSans-69"/>
      <use x="1320.51171875" xlink:href="#DejaVuSans-6e"/>
      <use x="1383.890625" xlink:href="#DejaVuSans-67"/>
      <use x="1447.3671875" xlink:href="#DejaVuSans-73"/>
     </g>
    </g>
   </g>
   <g id="matplotlib.axis_2">
    <g id="ytick_1">
     <g id="line2d_16">
      <defs>
       <path d="
M0 0
L4 0" id="me8a85f7bf6" style="stroke:#000000;stroke-linecap:butt;stroke-width:0.5;"/>
      </defs>
      <g>
       <use style="stroke:#000000;stroke-linecap:butt;stroke-width:0.5;" x="72.0" xlink:href="#me8a85f7bf6" y="388.8"/>
      </g>
     </g>
     <g id="line2d_17">
      <defs>
       <path d="
M0 0
L-4 0" id="m1a32005dea" style="stroke:#000000;stroke-linecap:butt;stroke-width:0.5;"/>
      </defs>
      <g>
       <use style="stroke:#000000;stroke-linecap:butt;stroke-width:0.5;" x="518.4" xlink:href="#m1a32005dea" y="388.8"/>
      </g>
     </g>
     <g id="text_8">
      <!-- 0 -->
      <g transform="translate(61.953125 393.1678125)scale(0.12 -0.12)">
       <use xlink:href="#DejaVuSans-30"/>
      </g>
     </g>
    </g>
    <g id="ytick_2">
     <g id="line2d_18">
      <g>
       <use style="stroke:#000000;stroke-linecap:butt;stroke-width:0.5;" x="72.0" xlink:href="#me8a85f7bf6" y="331.2"/>
      </g>
     </g>
     <g id="line2d_19">
      <g>
       <use style="stroke:#000000;stroke-linecap:butt;stroke-width:0.5;" x="518.4" xlink:href="#m1a32005dea" y="331.2"/>
      </g>
     </g>
     <g id="text_9">
      <!-- 100 -->
      <g transform="translate(47.21 335.5678125)scale(0.12 -0.12)">
       <use xlink:href="#DejaVuSans-31"/>
       <use x="63.623046875" xlink:href="#DejaVuSans-30"/>
       <use x="127.24609375" xlink:href="#DejaVuSans-30"/>
      </g>
     </g>
    </g>
    <g id="ytick_3">
     <g id="line2d_20">
      <g>
       <use style="stroke:#000000;stroke-linecap:butt;stroke-width:0.5;" x="72.0" xlink:href="#me8a85f7bf6" y="273.6"/>
      </g>
     </g>
     <g id="line2d_21">
      <g>
       <use style="stroke:#000000;stroke-linecap:butt;stroke-width:0.5;" x="518.4" xlink:href="#m1a32005dea" y="273.6"/>
      </g>
     </g>
     <g id="text_10">
      <!-- 200 -->
      <g transform="translate(46.77125 277.9678125)scale(0.12 -0.12)">
       <use xlink:href="#DejaVuSans-32"/>
       <use x="63.623046875" xlink:href="#DejaVuSans-30"/>
       <use x="127.24609375" xlink:href="#DejaVuSans-30"/>
      </g>
     </g>
    </g>
    <g id="ytick_4">
     <g id="line2d_22">
      <g>
       <use style="stroke:#000000;stroke-linecap:butt;stroke-width:0.5;" x="72.0" xlink:href="#me8a85f7bf6" y="216.0"/>
      </g>
     </g>
     <g id="line2d_23">
      <g>
       <use style="stroke:#000000;stroke-linecap:butt;stroke-width:0.5;" x="518.4" xlink:href="#m1a32005dea" y="216.0"/>
      </g>
     </g>
     <g id="text_11">
      <!-- 300 -->
      <g transform="translate(46.806875 220.3678125)scale(0.12 -0.12)">
       <use xlink:href="#DejaVuSans-33"/>
       <use x="63.623046875" xlink:href="#DejaVuSans-30"/>
       <use x="127.24609375" xlink:href="#DejaVuSans-30"/>
      </g>
     </g>
    </g>
    <g id="ytick_5">
     <g id="line2d_24">
      <g>
       <use style="stroke:#000000;stroke-linecap:butt;stroke-width:0.5;" x="72.0" xlink:href="#me8a85f7bf6" y="158.4"/>
      </g>
     </g>
     <g id="line2d_25">
      <g>
       <use style="stroke:#000000;stroke-linecap:butt;stroke-width:0.5;" x="518.4" xlink:href="#m1a32005dea" y="158.4"/>
      </g>
     </g>
     <g id="text_12">
      <!-- 400 -->
      <g transform="translate(46.47875 162.7678125)scale(0.12 -0.12)">
       <use xlink:href="#DejaVuSans-34"/>
       <use x="63.623046875" xlink:href="#DejaVuSans-30"/>
       <use x="127.24609375" xlink:href="#DejaVuSans-30"/>
      </g>
     </g>
    </g>
    <g id="ytick_6">
     <g id="line2d_26">
      <g>
       <use style="stroke:#000000;stroke-linecap:butt;stroke-width:0.5;" x="72.0" xlink:href="#me8a85f7bf6" y="100.8"/>
      </g>
     </g>
     <g id="line2d_27">
      <g>
       <use style="stroke:#000000;stroke-linecap:butt;stroke-width:0.5;" x="518.4" xlink:href="#m1a32005dea" y="100.8"/>
      </g>
     </g>
     <g id="text_13">
      <!-- 500 -->
      <g transform="translate(46.818125 105.1678125)scale(0.12 -0.12)">
       <use xlink:href="#DejaVuSans-35"/>
       <use x="63.623046875" xlink:href="#DejaVuSans-30"/>
       <use x="127.24609375" xlink:href="#DejaVuSans-30"/>
      </g>
     </g>
    </g>
    <g id="ytick_7">
     <g id="line2d_28">
      <g>
       <use style="stroke:#000000;stroke-linecap:butt;stroke-width:0.5;" x="72.0" xlink:href="#me8a85f7bf6" y="43.2"/>
      </g>
     </g>
     <g id="line2d_29">
      <g>
       <use style="stroke:#000000;stroke-linecap:butt;stroke-width:0.5;" x="518.4" xlink:href="#m1a32005dea" y="43.2"/>
      </g>
     </g>
     <g id="text_14">
      <!-- 600 -->
      <defs>
       <path d="
M33.0156 40.375
Q26.375 40.375 22.4844 35.8281
Q18.6094 31.2969 18.6094 23.3906
Q18.6094 15.5312 22.4844 10.9531
Q26.375 6.39062 33.0156 6.39062
Q39.6562 6.39062 43.5312 10.9531
Q47.4062 15.5312 47.4062 23.3906
Q47.4062 31.2969 43.5312 35.8281
Q39.6562 40.375 33.0156 40.375
M52.5938 71.2969
L52.5938 62.3125
Q48.875 64.0625 45.0938 64.9844
Q41.3125 65.9219 37.5938 65.9219
Q27.8281 65.9219 22.6719 59.3281
Q17.5312 52.7344 16.7969 39.4062
Q19.6719 43.6562 24.0156 45.9219
Q28.375 48.1875 33.5938 48.1875
Q44.5781 48.1875 50.9531 41.5156
Q57.3281 34.8594 57.3281 23.3906
Q57.3281 12.1562 50.6875 5.35938
Q44.0469 -1.42188 33.0156 -1.42188
Q20.3594 -1.42188 13.6719 8.26562
Q6.98438 17.9688 6.98438 36.375
Q6.98438 53.6562 15.1875 63.9375
Q23.3906 74.2188 37.2031 74.2188
Q40.9219 74.2188 44.7031 73.4844
Q48.4844 72.75 52.5938 71.2969" id="DejaVuSans-36"/>
      </defs>
      <g transform="translate(46.73 47.5678125)scale(0.12 -0.12)">
       <use xlink:href="#DejaVuSans-36"/>
       <use x="63.623046875" xlink:href="#DejaVuSans-30"/>
       <use x="127.24609375" xlink:href="#DejaVuSans-30"/>
      </g>
     </g>
    </g>
    <g id="text_15">
     <!-- Number of clips with a lower standard deviation -->
     <defs>
      <path d="
M9.8125 72.9062
L23.0938 72.9062
L55.4219 11.9219
L55.4219 72.9062
L64.9844 72.9062
L64.9844 0
L51.7031 0
L19.3906 60.9844
L19.3906 0
L9.8125 0
z
" id="DejaVuSans-4e"/>
      <path d="
M52 44.1875
Q55.375 50.25 60.0625 53.125
Q64.75 56 71.0938 56
Q79.6406 56 84.2812 50.0156
Q88.9219 44.0469 88.9219 33.0156
L88.9219 0
L79.8906 0
L79.8906 32.7188
Q79.8906 40.5781 77.0938 44.375
Q74.3125 48.1875 68.6094 48.1875
Q61.625 48.1875 57.5625 43.5469
Q53.5156 38.9219 53.5156 30.9062
L53.5156 0
L44.4844 0
L44.4844 32.7188
Q44.4844 40.625 41.7031 44.4062
Q38.9219 48.1875 33.1094 48.1875
Q26.2188 48.1875 22.1562 43.5312
Q18.1094 38.875 18.1094 30.9062
L18.1094 0
L9.07812 0
L9.07812 54.6875
L18.1094 54.6875
L18.1094 46.1875
Q21.1875 51.2188 25.4844 53.6094
Q29.7812 56 35.6875 56
Q41.6562 56 45.8281 52.9688
Q50 49.9531 52 44.1875" id="DejaVuSans-6d"/>
      <path d="
M9.42188 75.9844
L18.4062 75.9844
L18.4062 0
L9.42188 0
z
" id="DejaVuSans-6c"/>
      <path d="
M18.1094 8.20312
L18.1094 -20.7969
L9.07812 -20.7969
L9.07812 54.6875
L18.1094 54.6875
L18.1094 46.3906
Q20.9531 51.2656 25.2656 53.625
Q29.5938 56 35.5938 56
Q45.5625 56 51.7812 48.0938
Q58.0156 40.1875 58.0156 27.2969
Q58.0156 14.4062 51.7812 6.48438
Q45.5625 -1.42188 35.5938 -1.42188
Q29.5938 -1.42188 25.2656 0.953125
Q20.9531 3.32812 18.1094 8.20312
M48.6875 27.2969
Q48.6875 37.2031 44.6094 42.8438
Q40.5312 48.4844 33.4062 48.4844
Q26.2656 48.4844 22.1875 42.8438
Q18.1094 37.2031 18.1094 27.2969
Q18.1094 17.3906 22.1875 11.75
Q26.2656 6.10938 33.4062 6.10938
Q40.5312 6.10938 44.6094 11.75
Q48.6875 17.3906 48.6875 27.2969" id="DejaVuSans-70"/>
      <path d="
M54.8906 33.0156
L54.8906 0
L45.9062 0
L45.9062 32.7188
Q45.9062 40.4844 42.875 44.3281
Q39.8438 48.1875 33.7969 48.1875
Q26.5156 48.1875 22.3125 43.5469
Q18.1094 38.9219 18.1094 30.9062
L18.1094 0
L9.07812 0
L9.07812 75.9844
L18.1094 75.9844
L18.1094 46.1875
Q21.3438 51.125 25.7031 53.5625
Q30.0781 56 35.7969 56
Q45.2188 56 50.0469 50.1719
Q54.8906 44.3438 54.8906 33.0156" id="DejaVuSans-68"/>
      <path d="
M8.5 21.5781
L8.5 54.6875
L17.4844 54.6875
L17.4844 21.9219
Q17.4844 14.1562 20.5 10.2656
Q23.5312 6.39062 29.5938 6.39062
Q36.8594 6.39062 41.0781 11.0312
Q45.3125 15.6719 45.3125 23.6875
L45.3125 54.6875
L54.2969 54.6875
L54.2969 0
L45.3125 0
L45.3125 8.40625
Q42.0469 3.42188 37.7188 1
Q33.4062 -1.42188 27.6875 -1.42188
Q18.2656 -1.42188 13.375 4.4375
Q8.5 10.2969 8.5 21.5781
M31.1094 56
z
" id="DejaVuSans-75"/>
      <path d="
M4.20312 54.6875
L13.1875 54.6875
L24.4219 12.0156
L35.5938 54.6875
L46.1875 54.6875
L57.4219 12.0156
L68.6094 54.6875
L77.5938 54.6875
L63.2812 0
L52.6875 0
L40.9219 44.8281
L29.1094 0
L18.5 0
z
" id="DejaVuSans-77"/>
      <path d="
M48.6875 27.2969
Q48.6875 37.2031 44.6094 42.8438
Q40.5312 48.4844 33.4062 48.4844
Q26.2656 48.4844 22.1875 42.8438
Q18.1094 37.2031 18.1094 27.2969
Q18.1094 17.3906 22.1875 11.75
Q26.2656 6.10938 33.4062 6.10938
Q40.5312 6.10938 44.6094 11.75
Q48.6875 17.3906 48.6875 27.2969
M18.1094 46.3906
Q20.9531 51.2656 25.2656 53.625
Q29.5938 56 35.5938 56
Q45.5625 56 51.7812 48.0938
Q58.0156 40.1875 58.0156 27.2969
Q58.0156 14.4062 51.7812 6.48438
Q45.5625 -1.42188 35.5938 -1.42188
Q29.5938 -1.42188 25.2656 0.953125
Q20.9531 3.32812 18.1094 8.20312
L18.1094 0
L9.07812 0
L9.07812 75.9844
L18.1094 75.9844
z
" id="DejaVuSans-62"/>
      <path d="
M48.7812 52.5938
L48.7812 44.1875
Q44.9688 46.2969 41.1406 47.3438
Q37.3125 48.3906 33.4062 48.3906
Q24.6562 48.3906 19.8125 42.8438
Q14.9844 37.3125 14.9844 27.2969
Q14.9844 17.2812 19.8125 11.7344
Q24.6562 6.20312 33.4062 6.20312
Q37.3125 6.20312 41.1406 7.25
Q44.9688 8.29688 48.7812 10.4062
L48.7812 2.09375
Q45.0156 0.34375 40.9844 -0.53125
Q36.9688 -1.42188 32.4219 -1.42188
Q20.0625 -1.42188 12.7812 6.34375
Q5.51562 14.1094 5.51562 27.2969
Q5.51562 40.6719 12.8594 48.3281
Q20.2188 56 33.0156 56
Q37.1562 56 41.1094 55.1406
Q45.0625 54.2969 48.7812 52.5938" id="DejaVuSans-63"/>
     </defs>
     <g transform="translate(41.47875 357.10875)rotate(-90.0)scale(0.12 -0.12)">
      <use xlink:href="#DejaVuSans-4e"/>
      <use x="74.8046875" xlink:href="#DejaVuSans-75"/>
      <use x="138.18359375" xlink:href="#DejaVuSans-6d"/>
      <use x="235.595703125" xlink:href="#DejaVuSans-62"/>
      <use x="299.072265625" xlink:href="#DejaVuSans-65"/>
      <use x="360.595703125" xlink:href="#DejaVuSans-72"/>
      <use x="401.708984375" xlink:href="#DejaVuSans-20"/>
      <use x="433.49609375" xlink:href="#DejaVuSans-6f"/>
      <use x="494.677734375" xlink:href="#DejaVuSans-66"/>
      <use x="529.8828125" xlink:href="#DejaVuSans-20"/>
      <use x="561.669921875" xlink:href="#DejaVuSans-63"/>
      <use x="616.650390625" xlink:href="#DejaVuSans-6c"/>
      <use x="644.43359375" xlink:href="#DejaVuSans-69"/>
      <use x="672.216796875" xlink:href="#DejaVuSans-70"/>
      <use x="735.693359375" xlink:href="#DejaVuSans-73"/>
      <use x="787.79296875" xlink:href="#DejaVuSans-20"/>
      <use x="819.580078125" xlink:href="#DejaVuSans-77"/>
      <use x="901.3671875" xlink:href="#DejaVuSans-69"/>
      <use x="929.150390625" xlink:href="#DejaVuSans-74"/>
      <use x="968.359375" xlink:href="#DejaVuSans-68"/>
      <use x="1031.73828125" xlink:href="#DejaVuSans-20"/>
      <use x="1063.52539062" xlink:href="#DejaVuSans-61"/>
      <use x="1124.8046875" xlink:href="#DejaVuSans-20"/>
      <use x="1156.59179688" xlink:href="#DejaVuSans-6c"/>
      <use x="1184.375" xlink:href="#DejaVuSans-6f"/>
      <use x="1245.55664062" xlink:href="#DejaVuSans-77"/>
      <use x="1327.34375" xlink:href="#DejaVuSans-65"/>
      <use x="1388.8671875" xlink:href="#DejaVuSans-72"/>
      <use x="1429.98046875" xlink:href="#DejaVuSans-20"/>
      <use x="1461.76757812" xlink:href="#DejaVuSans-73"/>
      <use x="1513.8671875" xlink:href="#DejaVuSans-74"/>
      <use x="1553.07617188" xlink:href="#DejaVuSans-61"/>
      <use x="1614.35546875" xlink:href="#DejaVuSans-6e"/>
      <use x="1677.734375" xlink:href="#DejaVuSans-64"/>
      <use x="1741.2109375" xlink:href="#DejaVuSans-61"/>
      <use x="1802.49023438" xlink:href="#DejaVuSans-72"/>
      <use x="1841.85351562" xlink:href="#DejaVuSans-64"/>
      <use x="1905.33007812" xlink:href="#DejaVuSans-20"/>
      <use x="1937.1171875" xlink:href="#DejaVuSans-64"/>
      <use x="2000.59375" xlink:href="#DejaVuSans-65"/>
      <use x="2062.1171875" xlink:href="#DejaVuSans-76"/>
      <use x="2121.296875" xlink:href="#DejaVuSans-69"/>
      <use x="2149.08007812" xlink:href="#DejaVuSans-61"/>
      <use x="2210.359375" xlink:href="#DejaVuSans-74"/>
      <use x="2249.56835938" xlink:href="#DejaVuSans-69"/>
      <use x="2277.3515625" xlink:href="#DejaVuSans-6f"/>
      <use x="2338.53320312" xlink:href="#DejaVuSans-6e"/>
     </g>
    </g>
   </g>
   <g id="patch_3">
    <path d="
M72 43.2
L518.4 43.2" style="fill:none;stroke:#000000;"/>
   </g>
   <g id="patch_4">
    <path d="
M518.4 388.8
L518.4 43.2" style="fill:none;stroke:#000000;"/>
   </g>
   <g id="patch_5">
    <path d="
M72 388.8
L518.4 388.8" style="fill:none;stroke:#000000;"/>
   </g>
   <g id="patch_6">
    <path d="
M72 388.8
L72 43.2" style="fill:none;stroke:#000000;"/>
   </g>
   <g id="text_16">
    <!-- understand -->
    <g transform="translate(255.26025 38.2)scale(0.144 -0.144)">
     <use xlink:href="#DejaVuSans-75"/>
     <use x="63.37890625" xlink:href="#DejaVuSans-6e"/>
     <use x="126.7578125" xlink:href="#DejaVuSans-64"/>
     <use x="190.234375" xlink:href="#DejaVuSans-65"/>
     <use x="251.7578125" xlink:href="#DejaVuSans-72"/>
     <use x="292.87109375" xlink:href="#DejaVuSans-73"/>
     <use x="344.970703125" xlink:href="#DejaVuSans-74"/>
     <use x="384.1796875" xlink:href="#DejaVuSans-61"/>
     <use x="445.458984375" xlink:href="#DejaVuSans-6e"/>
     <use x="508.837890625" xlink:href="#DejaVuSans-64"/>
    </g>
   </g>
   <g id="legend_1">
    <g id="patch_7">
     <path d="
M429.538 381.6
L511.2 381.6
L511.2 316.661
L429.538 316.661
L429.538 381.6
z
" style="fill:#ffffff;stroke:#000000;"/>
    </g>
    <g id="line2d_30">
     <path d="
M439.618 328.322
L459.779 328.322" style="fill:none;stroke:#0000ff;"/>
    </g>
    <g id="line2d_31"/>
    <g id="text_17">
     <!-- IND -->
     <defs>
      <path d="
M9.8125 72.9062
L19.6719 72.9062
L19.6719 0
L9.8125 0
z
" id="DejaVuSans-49"/>
     </defs>
     <g transform="translate(475.6185 333.36225)scale(0.144 -0.144)">
      <use xlink:href="#DejaVuSans-49"/>
      <use x="29.4921875" xlink:href="#DejaVuSans-4e"/>
      <use x="104.296875" xlink:href="#DejaVuSans-44"/>
     </g>
    </g>
    <g id="line2d_32">
     <path d="
M439.618 349.459
L459.779 349.459" style="fill:none;stroke:#008000;"/>
    </g>
    <g id="line2d_33"/>
    <g id="text_18">
     <!-- KEN -->
     <defs>
      <path d="
M9.8125 72.9062
L55.9062 72.9062
L55.9062 64.5938
L19.6719 64.5938
L19.6719 43.0156
L54.3906 43.0156
L54.3906 34.7188
L19.6719 34.7188
L19.6719 8.29688
L56.7812 8.29688
L56.7812 0
L9.8125 0
z
" id="DejaVuSans-45"/>
      <path d="
M9.8125 72.9062
L19.6719 72.9062
L19.6719 42.0938
L52.3906 72.9062
L65.0938 72.9062
L28.9062 38.9219
L67.6719 0
L54.6875 0
L19.6719 35.1094
L19.6719 0
L9.8125 0
z
" id="DejaVuSans-4b"/>
     </defs>
     <g transform="translate(475.6185 354.49875)scale(0.144 -0.144)">
      <use xlink:href="#DejaVuSans-4b"/>
      <use x="65.576171875" xlink:href="#DejaVuSans-45"/>
      <use x="128.759765625" xlink:href="#DejaVuSans-4e"/>
     </g>
    </g>
    <g id="line2d_34">
     <path d="
M439.618 370.595
L459.779 370.595" style="fill:none;stroke:#ff0000;"/>
    </g>
    <g id="line2d_35"/>
    <g id="text_19">
     <!-- GBR -->
     <defs>
      <path d="
M59.5156 10.4062
L59.5156 29.9844
L43.4062 29.9844
L43.4062 38.0938
L69.2812 38.0938
L69.2812 6.78125
Q63.5781 2.73438 56.6875 0.65625
Q49.8125 -1.42188 42 -1.42188
Q24.9062 -1.42188 15.25 8.5625
Q5.60938 18.5625 5.60938 36.375
Q5.60938 54.25 15.25 64.2344
Q24.9062 74.2188 42 74.2188
Q49.125 74.2188 55.5469 72.4531
Q61.9688 70.7031 67.3906 67.2812
L67.3906 56.7812
Q61.9219 61.4219 55.7656 63.7656
Q49.6094 66.1094 42.8281 66.1094
Q29.4375 66.1094 22.7188 58.6406
Q16.0156 51.1719 16.0156 36.375
Q16.0156 21.625 22.7188 14.1562
Q29.4375 6.6875 42.8281 6.6875
Q48.0469 6.6875 52.1406 7.59375
Q56.25 8.5 59.5156 10.4062" id="DejaVuSans-47"/>
      <path d="
M19.6719 34.8125
L19.6719 8.10938
L35.5 8.10938
Q43.4531 8.10938 47.2812 11.4062
Q51.125 14.7031 51.125 21.4844
Q51.125 28.3281 47.2812 31.5625
Q43.4531 34.8125 35.5 34.8125
z

M19.6719 64.7969
L19.6719 42.8281
L34.2812 42.8281
Q41.5 42.8281 45.0312 45.5312
Q48.5781 48.25 48.5781 53.8125
Q48.5781 59.3281 45.0312 62.0625
Q41.5 64.7969 34.2812 64.7969
z

M9.8125 72.9062
L35.0156 72.9062
Q46.2969 72.9062 52.3906 68.2188
Q58.5 63.5312 58.5 54.8906
Q58.5 48.1875 55.375 44.2344
Q52.25 40.2812 46.1875 39.3125
Q53.4688 37.75 57.5 32.7812
Q61.5312 27.8281 61.5312 20.4062
Q61.5312 10.6406 54.8906 5.3125
Q48.25 0 35.9844 0
L9.8125 0
z
" id="DejaVuSans-42"/>
     </defs>
     <g transform="translate(475.6185 375.63525)scale(0.144 -0.144)">
      <use xlink:href="#DejaVuSans-47"/>
      <use x="77.490234375" xlink:href="#DejaVuSans-42"/>
      <use x="146.09375" xlink:href="#DejaVuSans-52"/>
     </g>
    </g>
   </g>
  </g>
 </g>
 <defs>
  <clipPath id="p7ff5b81e1d">
   <rect height="345.6" width="446.4" x="72.0" y="43.2"/>
  </clipPath>
 </defs>
</svg>
