<?xml version="1.0" encoding="utf-8" standalone="no"?>
<!DOCTYPE svg PUBLIC "-//W3C//DTD SVG 1.1//EN"
  "http://www.w3.org/Graphics/SVG/1.1/DTD/svg11.dtd">
<!-- Created with matplotlib (http://matplotlib.sourceforge.net/) -->
<svg height="432pt" version="1.1" viewBox="0 0 576 432" width="576pt" xmlns="http://www.w3.org/2000/svg" xmlns:xlink="http://www.w3.org/1999/xlink">
 <defs>
  <style type="text/css">
*{stroke-linecap:square;stroke-linejoin:round;}
  </style>
 </defs>
 <g id="figure_1">
  <g id="patch_1">
   <path d="
M0 432
L576 432
L576 0
L0 0
z
" style="fill:#ffffff;"/>
  </g>
  <g id="axes_1">
   <g id="patch_2">
    <path d="
M72 388.8
L518.4 388.8
L518.4 43.2
L72 43.2
z
" style="fill:#ffffff;"/>
   </g>
   <g id="line2d_1">
    <path clip-path="url(#p7ff5b81e1d)" d="
M128.017 388.8
L130.454 388.224
L130.454 387.648
L134 387.072
L154.018 386.496
L157.211 385.92
L157.211 385.344
L158.3 384.768
L159.681 384.192
L164.793 383.616
L167.652 381.888
L171.2 381.312
L171.2 380.736
L173.246 380.16
L174.815 379.584
L175.103 379.008
L178.263 378.432
L178.263 377.856
L179.387 377.28
L179.387 376.704
L180.101 376.128
L181.198 375.552
L181.198 374.976
L183.293 374.4
L183.293 373.824
L183.6 373.248
L184.035 372.672
L185.614 372.096
L186.802 371.52
L186.951 370.944
L186.951 370.368
L188.06 369.792
L188.06 369.216
L188.908 368.64
L188.908 367.488
L192.062 366.912
L192.062 365.76
L194.728 365.184
L194.728 364.032
L195.232 363.456
L195.232 362.88
L196 362.304
L196 361.728
L199.398 361.152
L199.74 360.576
L199.77 359.424
L202.605 357.696
L202.707 357.12
L204.331 356.544
L204.562 355.968
L204.562 355.392
L205.381 354.816
L207.835 354.24
L208.393 353.664
L208.393 353.088
L209.087 352.512
L209.087 351.936
L210.295 351.36
L210.353 350.784
L210.636 350.208
L210.636 348.48
L212.506 347.904
L212.837 347.328
L215.183 346.752
L215.183 346.176
L215.478 345.6
L216.297 344.448
L216.608 343.296
L216.608 342.144
L218.076 341.568
L218.076 340.992
L219.242 340.416
L223.075 339.264
L223.075 338.688
L223.361 338.112
L223.868 337.536
L223.868 336.384
L224.181 335.808
L224.181 335.232
L225.74 334.656
L226.655 334.08
L226.655 331.2
L227.878 330.624
L227.878 329.472
L228.03 328.896
L228.03 328.32
L229.308 327.168
L229.319 325.44
L229.796 324.864
L229.92 324.288
L230.441 323.712
L230.441 323.136
L230.797 322.56
L230.797 321.984
L231.42 321.408
L231.489 320.832
L232.41 320.256
L232.41 319.104
L233.081 318.528
L233.081 317.952
L233.2 317.376
L234.729 316.224
L235.303 315.072
L236.037 314.496
L236.505 313.92
L237.228 313.344
L237.333 312.192
L237.333 311.616
L238.478 311.04
L238.478 310.464
L240.052 309.888
L240.052 309.312
L242.422 308.736
L242.472 308.16
L243.746 307.584
L243.746 307.008
L244.601 306.432
L244.601 305.28
L245.564 304.704
L245.564 303.552
L247.362 302.976
L247.362 299.52
L248.442 298.944
L249.107 298.368
L250.68 297.792
L252.651 296.64
L252.651 295.488
L253.035 294.336
L253.349 293.76
L253.349 291.456
L254.242 290.88
L254.242 289.728
L255.398 288.576
L255.398 287.424
L256.092 286.848
L257.353 286.272
L257.353 285.696
L257.713 284.544
L257.789 282.816
L257.915 282.24
L257.915 281.664
L260.911 280.512
L261.301 279.936
L262.467 279.36
L262.492 278.208
L263.902 277.632
L264.1 277.056
L264.426 276.48
L264.5 274.752
L265.161 274.176
L265.595 273.6
L266.847 273.024
L267.57 271.872
L267.669 270.72
L268.061 270.144
L268.061 269.568
L270.4 267.84
L270.4 266.688
L271.302 266.112
L271.842 265.536
L271.944 264.96
L272.304 264.384
L272.328 263.808
L272.797 263.232
L273.434 262.656
L273.476 261.504
L274.491 260.928
L275.281 260.352
L275.375 259.2
L275.522 258.624
L275.534 256.896
L276.821 256.32
L277.371 255.168
L278.582 252.288
L279.862 251.712
L280.096 251.136
L280.95 250.56
L280.969 249.408
L281.68 248.256
L282.29 247.68
L282.395 246.528
L282.759 245.952
L282.759 245.376
L283.832 244.8
L284.119 244.224
L285.082 243.648
L285.29 243.072
L286.326 242.496
L286.332 241.344
L286.774 240.768
L286.827 239.616
L287.409 238.464
L288.835 237.888
L288.955 237.312
L289.435 236.736
L290.345 236.16
L290.396 235.584
L290.715 234.432
L290.802 233.856
L291.582 233.28
L291.69 232.704
L292.272 232.128
L292.427 231.552
L294.16 230.4
L294.47 229.824
L295.006 229.248
L295.072 228.672
L295.544 227.52
L296.324 226.368
L297.525 224.064
L298.017 222.912
L298.392 222.336
L298.392 221.184
L298.854 220.608
L298.854 220.032
L299.206 219.456
L299.296 218.88
L300.271 218.304
L301.568 217.152
L301.986 216.576
L301.986 215.424
L302.112 214.848
L303.06 214.272
L303.464 213.696
L303.464 213.12
L303.651 212.544
L305.105 211.968
L305.121 211.392
L306.501 210.24
L306.692 209.664
L307.381 209.088
L307.583 207.936
L308.356 206.784
L309.042 206.208
L310.116 205.632
L310.321 205.056
L310.979 204.48
L311.404 203.904
L311.432 202.752
L311.903 202.176
L311.903 201.6
L312.125 201.024
L313.799 200.448
L314.401 199.872
L314.822 199.296
L314.989 198.144
L315.437 197.568
L316.302 196.992
L316.302 196.416
L316.488 195.84
L317.185 195.264
L317.185 194.688
L318.055 194.112
L318.464 192.96
L319.137 192.384
L319.172 191.808
L320 190.656
L320 188.928
L321.028 188.352
L321.402 187.776
L322.048 187.2
L322.357 186.624
L322.357 186.048
L323.043 185.472
L323.411 184.896
L323.557 184.32
L324.911 182.592
L326.074 181.44
L326.796 180.864
L326.796 180.288
L327.633 177.408
L330.901 176.832
L331.087 176.256
L331.123 175.68
L332.4 175.104
L333.469 173.952
L334.231 173.376
L334.386 172.8
L335.498 172.224
L335.937 171.648
L336.016 171.072
L336.662 170.496
L336.792 169.92
L337.807 169.344
L338.285 168.768
L338.45 167.616
L338.45 167.04
L338.697 166.464
L339.104 165.888
L339.871 165.312
L340.066 164.736
L340.097 164.16
L340.578 163.584
L340.65 161.856
L341.807 161.28
L342.075 160.704
L342.69 160.128
L343.483 159.552
L343.828 158.976
L343.828 158.4
L344.132 157.248
L345.14 156.672
L345.345 156.096
L346.174 154.944
L346.205 153.216
L346.758 152.064
L346.866 151.488
L348.584 150.912
L348.706 150.336
L348.706 149.184
L348.93 148.032
L349.849 146.304
L349.979 145.728
L350.872 145.152
L350.979 144
L351.782 143.424
L352.087 142.848
L352.087 142.272
L352.336 141.696
L353.593 141.12
L354.423 139.968
L354.423 139.392
L355.849 138.816
L355.932 138.24
L356.534 137.664
L356.734 137.088
L357.18 136.512
L357.2 134.784
L357.836 134.208
L358.056 133.632
L359.823 133.056
L361.005 132.48
L361.451 131.328
L362.392 130.752
L362.806 130.176
L364.271 129.024
L364.388 128.448
L364.92 127.872
L365.001 126.72
L366.292 125.568
L366.82 123.84
L367.721 123.264
L370.059 122.112
L370.517 121.536
L371.66 120.96
L371.66 120.384
L372.156 119.808
L372.911 119.232
L372.94 118.08
L373.663 117.504
L373.934 116.928
L375.341 115.776
L375.737 115.2
L375.737 114.624
L376.155 113.472
L376.361 112.896
L377.14 112.32
L377.406 111.744
L377.406 111.168
L378.226 110.016
L378.444 109.44
L381.006 108.864
L381.972 108.288
L383.375 107.712
L385.898 107.136
L387.463 106.56
L387.891 105.984
L390.589 105.408
L390.788 104.832
L392.125 104.256
L392.924 103.68
L394.014 103.104
L394.4 102.528
L395.74 101.952
L396.302 101.376
L397.459 100.8
L398.042 100.224
L400.073 99.648
L400.073 99.072
L403.496 98.496
L404.939 97.92
L405.52 97.344
L407.613 96.768
L408.163 96.192
L410.227 95.616
L410.227 95.04
L410.791 94.464
L410.959 93.888
L412.741 93.312
L412.843 92.736
L414.589 92.16
L414.661 91.584
L415.686 91.008
L419.2 90.432
L420.893 89.856
L421.829 89.28
L423.266 88.704
L429.957 88.128
L429.957 87.552
L444 86.976
L468.455 86.4
L504.027 85.824
L504.027 85.824" style="fill:none;stroke:#0000ff;"/>
   </g>
   <g id="line2d_2">
    <path clip-path="url(#p7ff5b81e1d)" d="
M72 388.8
L72 380.16
L113.009 379.584
L118.212 378.432
L118.212 377.856
L121.6 377.28
L121.6 370.368
L125.694 369.792
L125.694 366.336
L128.017 365.76
L128.017 365.184
L130.454 364.608
L130.454 355.392
L132.031 354.816
L132.747 354.24
L132.747 353.664
L134 352.512
L134 349.056
L142.253 347.904
L143.591 347.328
L143.591 345.6
L150.424 345.024
L150.424 343.872
L154.018 343.296
L154.018 342.144
L157.211 341.568
L157.211 339.264
L158.3 338.688
L158.3 338.112
L158.782 337.536
L158.782 336.96
L159.681 336.384
L159.681 332.352
L162.325 331.776
L162.325 328.896
L164.424 328.32
L164.424 327.168
L164.793 326.592
L164.793 322.56
L165.735 321.984
L165.735 321.408
L168.797 320.832
L171.2 320.256
L171.2 313.344
L173.246 312.768
L173.246 309.312
L174.815 308.736
L174.815 305.856
L175.291 304.704
L175.291 304.128
L178.263 303.552
L178.263 302.976
L179.387 302.4
L179.387 300.672
L181.198 300.096
L181.198 299.52
L182.909 298.944
L183.293 298.368
L184.035 297.792
L184.035 297.216
L188.756 296.64
L188.908 296.064
L188.908 289.728
L190.721 289.152
L190.721 288.576
L192.739 288
L193.411 287.424
L193.495 286.272
L193.495 284.544
L194.728 283.968
L194.728 281.664
L196 281.088
L196 275.328
L198.456 274.752
L198.456 272.448
L199.74 271.872
L199.74 271.296
L202.173 270.72
L202.173 270.144
L202.707 269.568
L204.331 268.992
L204.331 268.416
L207.126 267.84
L207.126 263.808
L207.835 263.232
L207.835 261.504
L209.055 260.352
L209.087 259.776
L210.636 259.2
L210.636 254.592
L211.482 254.016
L213.556 253.44
L213.924 252.864
L215.131 252.288
L215.183 251.712
L215.912 251.136
L215.912 249.984
L216.522 249.408
L216.608 247.68
L216.608 245.376
L220.208 244.8
L220.208 244.224
L220.391 243.648
L220.8 243.072
L220.8 240.768
L222.05 240.192
L222.456 239.616
L222.456 237.888
L223.868 236.736
L223.868 232.704
L226.655 232.128
L226.655 229.824
L227.811 229.248
L228.03 228.672
L228.03 226.944
L228.271 226.368
L228.849 225.792
L228.849 224.064
L229.308 223.488
L229.308 222.912
L230.441 222.336
L230.441 220.032
L232.083 219.456
L232.165 218.88
L232.41 218.304
L232.41 217.728
L233.081 217.152
L233.081 215.424
L234.247 214.848
L234.354 213.696
L234.354 213.12
L236.037 212.544
L236.118 211.968
L236.505 211.392
L236.505 209.664
L238.129 208.512
L238.62 207.936
L238.62 207.36
L240.052 206.784
L240.052 205.056
L240.202 204.48
L240.202 196.992
L241.085 196.416
L241.085 195.84
L242.422 194.688
L242.422 191.808
L242.81 191.232
L243.746 190.656
L245.184 190.08
L245.564 189.504
L245.564 188.928
L245.907 188.352
L246.077 187.776
L246.676 187.2
L246.915 186.624
L247.362 186.048
L247.362 177.984
L248.382 177.408
L248.477 176.832
L249.781 176.256
L249.841 175.68
L251.64 175.104
L252.651 173.952
L252.651 172.224
L253.349 171.648
L253.349 169.92
L254.242 169.344
L254.242 165.312
L254.542 164.736
L255.398 164.16
L255.398 161.856
L255.736 161.28
L256.848 160.704
L256.848 158.976
L257.353 158.4
L257.586 157.824
L257.586 155.52
L257.789 154.944
L257.872 152.064
L258 151.488
L258 148.032
L261.413 147.456
L261.413 146.304
L261.866 145.728
L264.1 145.152
L264.1 144.576
L264.426 144
L264.499 143.424
L265.287 142.848
L266.969 142.272
L266.969 141.696
L269.258 140.544
L269.258 139.968
L270.4 139.392
L270.4 136.512
L271.302 135.36
L271.302 134.784
L271.659 134.208
L273.476 133.632
L273.476 133.056
L274.1 132.48
L274.491 131.904
L274.491 130.752
L275.281 130.176
L275.522 129.6
L277.046 129.024
L277.631 128.448
L279.697 127.872
L282.759 127.296
L282.759 123.84
L284.782 122.688
L285.338 122.112
L285.338 121.536
L288.201 120.96
L288.955 120.384
L288.973 119.808
L290.396 119.232
L290.396 118.656
L290.654 118.08
L291.69 117.504
L293.384 116.928
L293.818 116.352
L293.818 115.776
L294.587 115.2
L299.296 114.624
L301.603 114.048
L301.902 113.472
L302.031 112.896
L303.464 112.32
L305.817 111.744
L305.817 110.016
L307.273 109.44
L308.338 108.864
L310.979 108.288
L312.445 107.712
L312.445 107.136
L314.886 106.56
L314.989 105.408
L316.531 104.832
L317.456 104.256
L320 103.68
L323.767 103.104
L324.911 102.528
L324.911 101.952
L326.248 101.376
L326.796 100.8
L327.633 100.224
L333.211 99.648
L346.174 98.496
L346.174 97.344
L349.272 96.768
L350.379 96.192
L353.097 95.616
L364.271 94.464
L375.737 93.888
L375.737 93.312
L379.232 92.736
L379.719 92.16
L381.31 91.584
L389.487 90.432
L391.526 89.856
L399.134 89.28
L404.438 88.704
L410.959 88.128
L422.725 87.552
L422.725 86.976
L468.8 86.4
L478.561 85.824
L478.561 85.824" style="fill:none;stroke:#008000;"/>
   </g>
   <g id="line2d_3">
    <path clip-path="url(#p7ff5b81e1d)" d="
M72 388.8
L72 299.52
L108.97 298.944
L108.97 297.792
L111.68 297.216
L111.68 293.184
L114.955 292.608
L114.955 288
L118.763 287.424
L118.763 274.752
L120.598 273.6
L120.598 273.024
L121.6 272.448
L121.6 266.688
L142.145 266.112
L142.145 264.96
L144.26 264.384
L145.939 263.808
L146.234 263.232
L146.234 262.656
L147.765 262.08
L148.197 261.504
L151.36 260.928
L151.36 254.592
L152.996 254.016
L152.996 251.712
L154.252 251.136
L154.252 245.952
L156.784 245.376
L157.91 244.8
L157.91 240.192
L160.727 239.616
L160.727 238.464
L161.035 237.888
L165.527 237.312
L165.527 226.944
L169.196 225.792
L169.196 224.64
L171.2 224.064
L171.2 214.848
L173.165 214.272
L176.138 213.696
L177.865 213.12
L180.101 212.544
L180.101 211.392
L182.464 210.816
L182.909 210.24
L182.909 206.208
L187.686 205.632
L187.686 203.328
L191.04 202.752
L191.04 199.872
L193.495 199.296
L193.495 197.568
L195.544 196.992
L195.724 196.416
L195.724 188.928
L197.479 188.352
L197.479 187.776
L200.865 187.2
L200.865 182.016
L206.561 181.44
L206.561 180.864
L212.29 180.288
L212.29 173.952
L217.079 173.376
L217.079 172.8
L217.794 172.224
L218.719 171.648
L218.719 171.072
L220.469 170.496
L220.469 169.92
L220.8 169.344
L220.8 161.28
L228.529 160.704
L228.849 160.128
L230.582 159.552
L230.72 158.976
L230.72 155.52
L233.181 154.944
L233.181 153.216
L233.993 152.64
L233.993 152.064
L234.817 151.488
L236.505 150.912
L236.505 149.184
L237.993 148.608
L238.158 148.032
L239.679 147.456
L239.744 146.88
L240.608 146.304
L243.819 145.728
L243.819 143.424
L247.752 142.848
L247.752 141.12
L249.107 140.544
L249.107 137.088
L249.454 136.512
L250.835 135.36
L253.483 134.784
L253.837 134.208
L253.837 133.632
L255.989 133.056
L256.848 132.48
L256.848 130.752
L259.053 130.176
L259.053 129.024
L260.219 128.448
L260.219 126.72
L264.356 125.568
L264.356 124.992
L265.518 124.416
L268.322 123.84
L270.4 123.264
L270.4 121.536
L275.837 120.96
L275.837 118.656
L276.383 118.08
L276.506 117.504
L276.506 115.2
L282.435 114.624
L282.435 111.744
L284.375 111.168
L284.375 110.592
L286.296 110.016
L286.296 109.44
L286.774 108.864
L289.462 107.712
L292.929 107.136
L292.929 105.984
L294.703 105.408
L294.703 104.832
L296.878 104.256
L297.939 103.68
L297.939 102.528
L303.372 101.952
L305.817 100.8
L305.817 97.92
L314.989 97.344
L318.208 96.768
L318.757 96.192
L318.757 95.616
L320 95.04
L320 93.888
L327.621 93.312
L332.367 92.736
L333.708 92.16
L333.708 91.584
L337.009 90.432
L337.049 89.856
L355.849 89.28
L356.93 88.704
L387.869 88.128
L388.198 87.552
L389.595 86.976
L436.484 86.4
L445.65 85.824
L445.65 85.824" style="fill:none;stroke:#ff0000;"/>
   </g>
   <g id="matplotlib.axis_1">
    <g id="xtick_1">
     <g id="line2d_4">
      <defs>
       <path d="
M0 0
L0 -4" id="m0012dd4eef" style="stroke:#000000;stroke-linecap:butt;stroke-width:0.5;"/>
      </defs>
      <g>
       <use style="stroke:#000000;stroke-linecap:butt;stroke-width:0.5;" x="72.0" xlink:href="#m0012dd4eef" y="388.8"/>
      </g>
     </g>
     <g id="line2d_5">
      <defs>
       <path d="
M0 0
L0 4" id="m476344969c" style="stroke:#000000;stroke-linecap:butt;stroke-width:0.5;"/>
      </defs>
      <g>
       <use style="stroke:#000000;stroke-linecap:butt;stroke-width:0.5;" x="72.0" xlink:href="#m476344969c" y="43.2"/>
      </g>
     </g>
     <g id="text_1">
      <!-- 0.00 -->
      <defs>
       <path d="
M31.7812 66.4062
Q24.1719 66.4062 20.3281 58.9062
Q16.5 51.4219 16.5 36.375
Q16.5 21.3906 20.3281 13.8906
Q24.1719 6.39062 31.7812 6.39062
Q39.4531 6.39062 43.2812 13.8906
Q47.125 21.3906 47.125 36.375
Q47.125 51.4219 43.2812 58.9062
Q39.4531 66.4062 31.7812 66.4062
M31.7812 74.2188
Q44.0469 74.2188 50.5156 64.5156
Q56.9844 54.8281 56.9844 36.375
Q56.9844 17.9688 50.5156 8.26562
Q44.0469 -1.42188 31.7812 -1.42188
Q19.5312 -1.42188 13.0625 8.26562
Q6.59375 17.9688 6.59375 36.375
Q6.59375 54.8281 13.0625 64.5156
Q19.5312 74.2188 31.7812 74.2188" id="DejaVuSans-30"/>
       <path d="
M10.6875 12.4062
L21 12.4062
L21 0
L10.6875 0
z
" id="DejaVuSans-2e"/>
      </defs>
      <g transform="translate(59.4346875 401.70625)scale(0.12 -0.12)">
       <use xlink:href="#DejaVuSans-30"/>
       <use x="63.623046875" xlink:href="#DejaVuSans-2e"/>
       <use x="95.41015625" xlink:href="#DejaVuSans-30"/>
       <use x="159.033203125" xlink:href="#DejaVuSans-30"/>
      </g>
     </g>
    </g>
    <g id="xtick_2">
     <g id="line2d_6">
      <g>
       <use style="stroke:#000000;stroke-linecap:butt;stroke-width:0.5;" x="121.6" xlink:href="#m0012dd4eef" y="388.8"/>
      </g>
     </g>
     <g id="line2d_7">
      <g>
       <use style="stroke:#000000;stroke-linecap:butt;stroke-width:0.5;" x="121.6" xlink:href="#m476344969c" y="43.2"/>
      </g>
     </g>
     <g id="text_2">
      <!-- 0.05 -->
      <defs>
       <path d="
M10.7969 72.9062
L49.5156 72.9062
L49.5156 64.5938
L19.8281 64.5938
L19.8281 46.7344
Q21.9688 47.4688 24.1094 47.8281
Q26.2656 48.1875 28.4219 48.1875
Q40.625 48.1875 47.75 41.5
Q54.8906 34.8125 54.8906 23.3906
Q54.8906 11.625 47.5625 5.09375
Q40.2344 -1.42188 26.9062 -1.42188
Q22.3125 -1.42188 17.5469 -0.640625
Q12.7969 0.140625 7.71875 1.70312
L7.71875 11.625
Q12.1094 9.23438 16.7969 8.0625
Q21.4844 6.89062 26.7031 6.89062
Q35.1562 6.89062 40.0781 11.3281
Q45.0156 15.7656 45.0156 23.3906
Q45.0156 31 40.0781 35.4375
Q35.1562 39.8906 26.7031 39.8906
Q22.75 39.8906 18.8125 39.0156
Q14.8906 38.1406 10.7969 36.2812
z
" id="DejaVuSans-35"/>
      </defs>
      <g transform="translate(109.1603125 401.70625)scale(0.12 -0.12)">
       <use xlink:href="#DejaVuSans-30"/>
       <use x="63.623046875" xlink:href="#DejaVuSans-2e"/>
       <use x="95.41015625" xlink:href="#DejaVuSans-30"/>
       <use x="159.033203125" xlink:href="#DejaVuSans-35"/>
      </g>
     </g>
    </g>
    <g id="xtick_3">
     <g id="line2d_8">
      <g>
       <use style="stroke:#000000;stroke-linecap:butt;stroke-width:0.5;" x="171.2" xlink:href="#m0012dd4eef" y="388.8"/>
      </g>
     </g>
     <g id="line2d_9">
      <g>
       <use style="stroke:#000000;stroke-linecap:butt;stroke-width:0.5;" x="171.2" xlink:href="#m476344969c" y="43.2"/>
      </g>
     </g>
     <g id="text_3">
      <!-- 0.10 -->
      <defs>
       <path d="
M12.4062 8.29688
L28.5156 8.29688
L28.5156 63.9219
L10.9844 60.4062
L10.9844 69.3906
L28.4219 72.9062
L38.2812 72.9062
L38.2812 8.29688
L54.3906 8.29688
L54.3906 0
L12.4062 0
z
" id="DejaVuSans-31"/>
      </defs>
      <g transform="translate(158.6346875 401.70625)scale(0.12 -0.12)">
       <use xlink:href="#DejaVuSans-30"/>
       <use x="63.623046875" xlink:href="#DejaVuSans-2e"/>
       <use x="95.41015625" xlink:href="#DejaVuSans-31"/>
       <use x="159.033203125" xlink:href="#DejaVuSans-30"/>
      </g>
     </g>
    </g>
    <g id="xtick_4">
     <g id="line2d_10">
      <g>
       <use style="stroke:#000000;stroke-linecap:butt;stroke-width:0.5;" x="220.8" xlink:href="#m0012dd4eef" y="388.8"/>
      </g>
     </g>
     <g id="line2d_11">
      <g>
       <use style="stroke:#000000;stroke-linecap:butt;stroke-width:0.5;" x="220.8" xlink:href="#m476344969c" y="43.2"/>
      </g>
     </g>
     <g id="text_4">
      <!-- 0.15 -->
      <g transform="translate(208.3603125 401.70625)scale(0.12 -0.12)">
       <use xlink:href="#DejaVuSans-30"/>
       <use x="63.623046875" xlink:href="#DejaVuSans-2e"/>
       <use x="95.41015625" xlink:href="#DejaVuSans-31"/>
       <use x="159.033203125" xlink:href="#DejaVuSans-35"/>
      </g>
     </g>
    </g>
    <g id="xtick_5">
     <g id="line2d_12">
      <g>
       <use style="stroke:#000000;stroke-linecap:butt;stroke-width:0.5;" x="270.4" xlink:href="#m0012dd4eef" y="388.8"/>
      </g>
     </g>
     <g id="line2d_13">
      <g>
       <use style="stroke:#000000;stroke-linecap:butt;stroke-width:0.5;" x="270.4" xlink:href="#m476344969c" y="43.2"/>
      </g>
     </g>
     <g id="text_5">
      <!-- 0.20 -->
      <defs>
       <path d="
M19.1875 8.29688
L53.6094 8.29688
L53.6094 0
L7.32812 0
L7.32812 8.29688
Q12.9375 14.1094 22.625 23.8906
Q32.3281 33.6875 34.8125 36.5312
Q39.5469 41.8438 41.4219 45.5312
Q43.3125 49.2188 43.3125 52.7812
Q43.3125 58.5938 39.2344 62.25
Q35.1562 65.9219 28.6094 65.9219
Q23.9688 65.9219 18.8125 64.3125
Q13.6719 62.7031 7.8125 59.4219
L7.8125 69.3906
Q13.7656 71.7812 18.9375 73
Q24.125 74.2188 28.4219 74.2188
Q39.75 74.2188 46.4844 68.5469
Q53.2188 62.8906 53.2188 53.4219
Q53.2188 48.9219 51.5312 44.8906
Q49.8594 40.875 45.4062 35.4062
Q44.1875 33.9844 37.6406 27.2188
Q31.1094 20.4531 19.1875 8.29688" id="DejaVuSans-32"/>
      </defs>
      <g transform="translate(257.8346875 401.70625)scale(0.12 -0.12)">
       <use xlink:href="#DejaVuSans-30"/>
       <use x="63.623046875" xlink:href="#DejaVuSans-2e"/>
       <use x="95.41015625" xlink:href="#DejaVuSans-32"/>
       <use x="159.033203125" xlink:href="#DejaVuSans-30"/>
      </g>
     </g>
    </g>
    <g id="xtick_6">
     <g id="line2d_14">
      <g>
       <use style="stroke:#000000;stroke-linecap:butt;stroke-width:0.5;" x="320.0" xlink:href="#m0012dd4eef" y="388.8"/>
      </g>
     </g>
     <g id="line2d_15">
      <g>
       <use style="stroke:#000000;stroke-linecap:butt;stroke-width:0.5;" x="320.0" xlink:href="#m476344969c" y="43.2"/>
      </g>
     </g>
     <g id="text_6">
      <!-- 0.25 -->
      <g transform="translate(307.5603125 401.70625)scale(0.12 -0.12)">
       <use xlink:href="#DejaVuSans-30"/>
       <use x="63.623046875" xlink:href="#DejaVuSans-2e"/>
       <use x="95.41015625" xlink:href="#DejaVuSans-32"/>
       <use x="159.033203125" xlink:href="#DejaVuSans-35"/>
      </g>
     </g>
    </g>
    <g id="xtick_7">
     <g id="line2d_16">
      <g>
       <use style="stroke:#000000;stroke-linecap:butt;stroke-width:0.5;" x="369.6" xlink:href="#m0012dd4eef" y="388.8"/>
      </g>
     </g>
     <g id="line2d_17">
      <g>
       <use style="stroke:#000000;stroke-linecap:butt;stroke-width:0.5;" x="369.6" xlink:href="#m476344969c" y="43.2"/>
      </g>
     </g>
     <g id="text_7">
      <!-- 0.30 -->
      <defs>
       <path d="
M40.5781 39.3125
Q47.6562 37.7969 51.625 33
Q55.6094 28.2188 55.6094 21.1875
Q55.6094 10.4062 48.1875 4.48438
Q40.7656 -1.42188 27.0938 -1.42188
Q22.5156 -1.42188 17.6562 -0.515625
Q12.7969 0.390625 7.625 2.20312
L7.625 11.7188
Q11.7188 9.32812 16.5938 8.10938
Q21.4844 6.89062 26.8125 6.89062
Q36.0781 6.89062 40.9375 10.5469
Q45.7969 14.2031 45.7969 21.1875
Q45.7969 27.6406 41.2812 31.2656
Q36.7656 34.9062 28.7188 34.9062
L20.2188 34.9062
L20.2188 43.0156
L29.1094 43.0156
Q36.375 43.0156 40.2344 45.9219
Q44.0938 48.8281 44.0938 54.2969
Q44.0938 59.9062 40.1094 62.9062
Q36.1406 65.9219 28.7188 65.9219
Q24.6562 65.9219 20.0156 65.0312
Q15.375 64.1562 9.8125 62.3125
L9.8125 71.0938
Q15.4375 72.6562 20.3438 73.4375
Q25.25 74.2188 29.5938 74.2188
Q40.8281 74.2188 47.3594 69.1094
Q53.9062 64.0156 53.9062 55.3281
Q53.9062 49.2656 50.4375 45.0938
Q46.9688 40.9219 40.5781 39.3125" id="DejaVuSans-33"/>
      </defs>
      <g transform="translate(357.0346875 401.70625)scale(0.12 -0.12)">
       <use xlink:href="#DejaVuSans-30"/>
       <use x="63.623046875" xlink:href="#DejaVuSans-2e"/>
       <use x="95.41015625" xlink:href="#DejaVuSans-33"/>
       <use x="159.033203125" xlink:href="#DejaVuSans-30"/>
      </g>
     </g>
    </g>
    <g id="xtick_8">
     <g id="line2d_18">
      <g>
       <use style="stroke:#000000;stroke-linecap:butt;stroke-width:0.5;" x="419.2" xlink:href="#m0012dd4eef" y="388.8"/>
      </g>
     </g>
     <g id="line2d_19">
      <g>
       <use style="stroke:#000000;stroke-linecap:butt;stroke-width:0.5;" x="419.2" xlink:href="#m476344969c" y="43.2"/>
      </g>
     </g>
     <g id="text_8">
      <!-- 0.35 -->
      <g transform="translate(406.7603125 401.70625)scale(0.12 -0.12)">
       <use xlink:href="#DejaVuSans-30"/>
       <use x="63.623046875" xlink:href="#DejaVuSans-2e"/>
       <use x="95.41015625" xlink:href="#DejaVuSans-33"/>
       <use x="159.033203125" xlink:href="#DejaVuSans-35"/>
      </g>
     </g>
    </g>
    <g id="xtick_9">
     <g id="line2d_20">
      <g>
       <use style="stroke:#000000;stroke-linecap:butt;stroke-width:0.5;" x="468.8" xlink:href="#m0012dd4eef" y="388.8"/>
      </g>
     </g>
     <g id="line2d_21">
      <g>
       <use style="stroke:#000000;stroke-linecap:butt;stroke-width:0.5;" x="468.8" xlink:href="#m476344969c" y="43.2"/>
      </g>
     </g>
     <g id="text_9">
      <!-- 0.40 -->
      <defs>
       <path d="
M37.7969 64.3125
L12.8906 25.3906
L37.7969 25.3906
z

M35.2031 72.9062
L47.6094 72.9062
L47.6094 25.3906
L58.0156 25.3906
L58.0156 17.1875
L47.6094 17.1875
L47.6094 0
L37.7969 0
L37.7969 17.1875
L4.89062 17.1875
L4.89062 26.7031
z
" id="DejaVuSans-34"/>
      </defs>
      <g transform="translate(456.2346875 401.70625)scale(0.12 -0.12)">
       <use xlink:href="#DejaVuSans-30"/>
       <use x="63.623046875" xlink:href="#DejaVuSans-2e"/>
       <use x="95.41015625" xlink:href="#DejaVuSans-34"/>
       <use x="159.033203125" xlink:href="#DejaVuSans-30"/>
      </g>
     </g>
    </g>
    <g id="xtick_10">
     <g id="line2d_22">
      <g>
       <use style="stroke:#000000;stroke-linecap:butt;stroke-width:0.5;" x="518.4" xlink:href="#m0012dd4eef" y="388.8"/>
      </g>
     </g>
     <g id="line2d_23">
      <g>
       <use style="stroke:#000000;stroke-linecap:butt;stroke-width:0.5;" x="518.4" xlink:href="#m476344969c" y="43.2"/>
      </g>
     </g>
     <g id="text_10">
      <!-- 0.45 -->
      <g transform="translate(505.9603125 401.70625)scale(0.12 -0.12)">
       <use xlink:href="#DejaVuSans-30"/>
       <use x="63.623046875" xlink:href="#DejaVuSans-2e"/>
       <use x="95.41015625" xlink:href="#DejaVuSans-34"/>
       <use x="159.033203125" xlink:href="#DejaVuSans-35"/>
      </g>
     </g>
    </g>
    <g id="text_11">
     <!-- Standard Deviation of Ratings -->
     <defs>
      <path d="
M45.4062 27.9844
Q45.4062 37.75 41.375 43.1094
Q37.3594 48.4844 30.0781 48.4844
Q22.8594 48.4844 18.8281 43.1094
Q14.7969 37.75 14.7969 27.9844
Q14.7969 18.2656 18.8281 12.8906
Q22.8594 7.51562 30.0781 7.51562
Q37.3594 7.51562 41.375 12.8906
Q45.4062 18.2656 45.4062 27.9844
M54.3906 6.78125
Q54.3906 -7.17188 48.1875 -13.9844
Q42 -20.7969 29.2031 -20.7969
Q24.4688 -20.7969 20.2656 -20.0938
Q16.0625 -19.3906 12.1094 -17.9219
L12.1094 -9.1875
Q16.0625 -11.3281 19.9219 -12.3438
Q23.7812 -13.375 27.7812 -13.375
Q36.625 -13.375 41.0156 -8.76562
Q45.4062 -4.15625 45.4062 5.17188
L45.4062 9.625
Q42.625 4.78125 38.2812 2.39062
Q33.9375 0 27.875 0
Q17.8281 0 11.6719 7.65625
Q5.51562 15.3281 5.51562 27.9844
Q5.51562 40.6719 11.6719 48.3281
Q17.8281 56 27.875 56
Q33.9375 56 38.2812 53.6094
Q42.625 51.2188 45.4062 46.3906
L45.4062 54.6875
L54.3906 54.6875
z
" id="DejaVuSans-67"/>
      <path d="
M56.2031 29.5938
L56.2031 25.2031
L14.8906 25.2031
Q15.4844 15.9219 20.4844 11.0625
Q25.4844 6.20312 34.4219 6.20312
Q39.5938 6.20312 44.4531 7.46875
Q49.3125 8.73438 54.1094 11.2812
L54.1094 2.78125
Q49.2656 0.734375 44.1875 -0.34375
Q39.1094 -1.42188 33.8906 -1.42188
Q20.7969 -1.42188 13.1562 6.1875
Q5.51562 13.8125 5.51562 26.8125
Q5.51562 40.2344 12.7656 48.1094
Q20.0156 56 32.3281 56
Q43.3594 56 49.7812 48.8906
Q56.2031 41.7969 56.2031 29.5938
M47.2188 32.2344
Q47.125 39.5938 43.0938 43.9844
Q39.0625 48.3906 32.4219 48.3906
Q24.9062 48.3906 20.3906 44.1406
Q15.875 39.8906 15.1875 32.1719
z
" id="DejaVuSans-65"/>
      <path d="
M30.6094 48.3906
Q23.3906 48.3906 19.1875 42.75
Q14.9844 37.1094 14.9844 27.2969
Q14.9844 17.4844 19.1562 11.8438
Q23.3438 6.20312 30.6094 6.20312
Q37.7969 6.20312 41.9844 11.8594
Q46.1875 17.5312 46.1875 27.2969
Q46.1875 37.0156 41.9844 42.7031
Q37.7969 48.3906 30.6094 48.3906
M30.6094 56
Q42.3281 56 49.0156 48.375
Q55.7188 40.7656 55.7188 27.2969
Q55.7188 13.875 49.0156 6.21875
Q42.3281 -1.42188 30.6094 -1.42188
Q18.8438 -1.42188 12.1719 6.21875
Q5.51562 13.875 5.51562 27.2969
Q5.51562 40.7656 12.1719 48.375
Q18.8438 56 30.6094 56" id="DejaVuSans-6f"/>
      <path d="
M54.8906 33.0156
L54.8906 0
L45.9062 0
L45.9062 32.7188
Q45.9062 40.4844 42.875 44.3281
Q39.8438 48.1875 33.7969 48.1875
Q26.5156 48.1875 22.3125 43.5469
Q18.1094 38.9219 18.1094 30.9062
L18.1094 0
L9.07812 0
L9.07812 54.6875
L18.1094 54.6875
L18.1094 46.1875
Q21.3438 51.125 25.7031 53.5625
Q30.0781 56 35.7969 56
Q45.2188 56 50.0469 50.1719
Q54.8906 44.3438 54.8906 33.0156" id="DejaVuSans-6e"/>
      <path d="
M19.6719 64.7969
L19.6719 8.10938
L31.5938 8.10938
Q46.6875 8.10938 53.6875 14.9375
Q60.6875 21.7812 60.6875 36.5312
Q60.6875 51.1719 53.6875 57.9844
Q46.6875 64.7969 31.5938 64.7969
z

M9.8125 72.9062
L30.0781 72.9062
Q51.2656 72.9062 61.1719 64.0938
Q71.0938 55.2812 71.0938 36.5312
Q71.0938 17.6719 61.125 8.82812
Q51.1719 0 30.0781 0
L9.8125 0
z
" id="DejaVuSans-44"/>
      <path d="
M37.1094 75.9844
L37.1094 68.5
L28.5156 68.5
Q23.6875 68.5 21.7969 66.5469
Q19.9219 64.5938 19.9219 59.5156
L19.9219 54.6875
L34.7188 54.6875
L34.7188 47.7031
L19.9219 47.7031
L19.9219 0
L10.8906 0
L10.8906 47.7031
L2.29688 47.7031
L2.29688 54.6875
L10.8906 54.6875
L10.8906 58.5
Q10.8906 67.625 15.1406 71.7969
Q19.3906 75.9844 28.6094 75.9844
z
" id="DejaVuSans-66"/>
      <path id="DejaVuSans-20"/>
      <path d="
M2.98438 54.6875
L12.5 54.6875
L29.5938 8.79688
L46.6875 54.6875
L56.2031 54.6875
L35.6875 0
L23.4844 0
z
" id="DejaVuSans-76"/>
      <path d="
M9.42188 54.6875
L18.4062 54.6875
L18.4062 0
L9.42188 0
z

M9.42188 75.9844
L18.4062 75.9844
L18.4062 64.5938
L9.42188 64.5938
z
" id="DejaVuSans-69"/>
      <path d="
M53.5156 70.5156
L53.5156 60.8906
Q47.9062 63.5781 42.9219 64.8906
Q37.9375 66.2188 33.2969 66.2188
Q25.25 66.2188 20.875 63.0938
Q16.5 59.9688 16.5 54.2031
Q16.5 49.3594 19.4062 46.8906
Q22.3125 44.4375 30.4219 42.9219
L36.375 41.7031
Q47.4062 39.5938 52.6562 34.2969
Q57.9062 29 57.9062 20.125
Q57.9062 9.51562 50.7969 4.04688
Q43.7031 -1.42188 29.9844 -1.42188
Q24.8125 -1.42188 18.9688 -0.25
Q13.1406 0.921875 6.89062 3.21875
L6.89062 13.375
Q12.8906 10.0156 18.6562 8.29688
Q24.4219 6.59375 29.9844 6.59375
Q38.4219 6.59375 43.0156 9.90625
Q47.6094 13.2344 47.6094 19.3906
Q47.6094 24.75 44.3125 27.7812
Q41.0156 30.8125 33.5 32.3281
L27.4844 33.5
Q16.4531 35.6875 11.5156 40.375
Q6.59375 45.0625 6.59375 53.4219
Q6.59375 63.0938 13.4062 68.6562
Q20.2188 74.2188 32.1719 74.2188
Q37.3125 74.2188 42.625 73.2812
Q47.9531 72.3594 53.5156 70.5156" id="DejaVuSans-53"/>
      <path d="
M18.3125 70.2188
L18.3125 54.6875
L36.8125 54.6875
L36.8125 47.7031
L18.3125 47.7031
L18.3125 18.0156
Q18.3125 11.3281 20.1406 9.42188
Q21.9688 7.51562 27.5938 7.51562
L36.8125 7.51562
L36.8125 0
L27.5938 0
Q17.1875 0 13.2344 3.875
Q9.28125 7.76562 9.28125 18.0156
L9.28125 47.7031
L2.6875 47.7031
L2.6875 54.6875
L9.28125 54.6875
L9.28125 70.2188
z
" id="DejaVuSans-74"/>
      <path d="
M45.4062 46.3906
L45.4062 75.9844
L54.3906 75.9844
L54.3906 0
L45.4062 0
L45.4062 8.20312
Q42.5781 3.32812 38.25 0.953125
Q33.9375 -1.42188 27.875 -1.42188
Q17.9688 -1.42188 11.7344 6.48438
Q5.51562 14.4062 5.51562 27.2969
Q5.51562 40.1875 11.7344 48.0938
Q17.9688 56 27.875 56
Q33.9375 56 38.25 53.625
Q42.5781 51.2656 45.4062 46.3906
M14.7969 27.2969
Q14.7969 17.3906 18.875 11.75
Q22.9531 6.10938 30.0781 6.10938
Q37.2031 6.10938 41.2969 11.75
Q45.4062 17.3906 45.4062 27.2969
Q45.4062 37.2031 41.2969 42.8438
Q37.2031 48.4844 30.0781 48.4844
Q22.9531 48.4844 18.875 42.8438
Q14.7969 37.2031 14.7969 27.2969" id="DejaVuSans-64"/>
      <path d="
M34.2812 27.4844
Q23.3906 27.4844 19.1875 25
Q14.9844 22.5156 14.9844 16.5
Q14.9844 11.7188 18.1406 8.90625
Q21.2969 6.10938 26.7031 6.10938
Q34.1875 6.10938 38.7031 11.4062
Q43.2188 16.7031 43.2188 25.4844
L43.2188 27.4844
z

M52.2031 31.2031
L52.2031 0
L43.2188 0
L43.2188 8.29688
Q40.1406 3.32812 35.5469 0.953125
Q30.9531 -1.42188 24.3125 -1.42188
Q15.9219 -1.42188 10.9531 3.29688
Q6 8.01562 6 15.9219
Q6 25.1406 12.1719 29.8281
Q18.3594 34.5156 30.6094 34.5156
L43.2188 34.5156
L43.2188 35.4062
Q43.2188 41.6094 39.1406 45
Q35.0625 48.3906 27.6875 48.3906
Q23 48.3906 18.5469 47.2656
Q14.1094 46.1406 10.0156 43.8906
L10.0156 52.2031
Q14.9375 54.1094 19.5781 55.0469
Q24.2188 56 28.6094 56
Q40.4844 56 46.3438 49.8438
Q52.2031 43.7031 52.2031 31.2031" id="DejaVuSans-61"/>
      <path d="
M44.3906 34.1875
Q47.5625 33.1094 50.5625 29.5938
Q53.5625 26.0781 56.5938 19.9219
L66.6094 0
L56 0
L46.6875 18.7031
Q43.0625 26.0312 39.6719 28.4219
Q36.2812 30.8125 30.4219 30.8125
L19.6719 30.8125
L19.6719 0
L9.8125 0
L9.8125 72.9062
L32.0781 72.9062
Q44.5781 72.9062 50.7344 67.6719
Q56.8906 62.4531 56.8906 51.9062
Q56.8906 45.0156 53.6875 40.4688
Q50.4844 35.9375 44.3906 34.1875
M19.6719 64.7969
L19.6719 38.9219
L32.0781 38.9219
Q39.2031 38.9219 42.8438 42.2188
Q46.4844 45.5156 46.4844 51.9062
Q46.4844 58.2969 42.8438 61.5469
Q39.2031 64.7969 32.0781 64.7969
z
" id="DejaVuSans-52"/>
      <path d="
M44.2812 53.0781
L44.2812 44.5781
Q40.4844 46.5312 36.375 47.5
Q32.2812 48.4844 27.875 48.4844
Q21.1875 48.4844 17.8438 46.4375
Q14.5 44.3906 14.5 40.2812
Q14.5 37.1562 16.8906 35.375
Q19.2812 33.5938 26.5156 31.9844
L29.5938 31.2969
Q39.1562 29.25 43.1875 25.5156
Q47.2188 21.7812 47.2188 15.0938
Q47.2188 7.46875 41.1875 3.01562
Q35.1562 -1.42188 24.6094 -1.42188
Q20.2188 -1.42188 15.4531 -0.5625
Q10.6875 0.296875 5.42188 2
L5.42188 11.2812
Q10.4062 8.6875 15.2344 7.39062
Q20.0625 6.10938 24.8125 6.10938
Q31.1562 6.10938 34.5625 8.28125
Q37.9844 10.4531 37.9844 14.4062
Q37.9844 18.0625 35.5156 20.0156
Q33.0625 21.9688 24.7031 23.7812
L21.5781 24.5156
Q13.2344 26.2656 9.51562 29.9062
Q5.8125 33.5469 5.8125 39.8906
Q5.8125 47.6094 11.2812 51.7969
Q16.75 56 26.8125 56
Q31.7812 56 36.1719 55.2656
Q40.5781 54.5469 44.2812 53.0781" id="DejaVuSans-73"/>
      <path d="
M41.1094 46.2969
Q39.5938 47.1719 37.8125 47.5781
Q36.0312 48 33.8906 48
Q26.2656 48 22.1875 43.0469
Q18.1094 38.0938 18.1094 28.8125
L18.1094 0
L9.07812 0
L9.07812 54.6875
L18.1094 54.6875
L18.1094 46.1875
Q20.9531 51.1719 25.4844 53.5781
Q30.0312 56 36.5312 56
Q37.4531 56 38.5781 55.875
Q39.7031 55.7656 41.0625 55.5156
z
" id="DejaVuSans-72"/>
     </defs>
     <g transform="translate(205.524375 415.995)scale(0.12 -0.12)">
      <use xlink:href="#DejaVuSans-53"/>
      <use x="63.4765625" xlink:href="#DejaVuSans-74"/>
      <use x="102.685546875" xlink:href="#DejaVuSans-61"/>
      <use x="163.96484375" xlink:href="#DejaVuSans-6e"/>
      <use x="227.34375" xlink:href="#DejaVuSans-64"/>
      <use x="290.8203125" xlink:href="#DejaVuSans-61"/>
      <use x="352.099609375" xlink:href="#DejaVuSans-72"/>
      <use x="391.462890625" xlink:href="#DejaVuSans-64"/>
      <use x="454.939453125" xlink:href="#DejaVuSans-20"/>
      <use x="486.7265625" xlink:href="#DejaVuSans-44"/>
      <use x="563.728515625" xlink:href="#DejaVuSans-65"/>
      <use x="625.251953125" xlink:href="#DejaVuSans-76"/>
      <use x="684.431640625" xlink:href="#DejaVuSans-69"/>
      <use x="712.21484375" xlink:href="#DejaVuSans-61"/>
      <use x="773.494140625" xlink:href="#DejaVuSans-74"/>
      <use x="812.703125" xlink:href="#DejaVuSans-69"/>
      <use x="840.486328125" xlink:href="#DejaVuSans-6f"/>
      <use x="901.66796875" xlink:href="#DejaVuSans-6e"/>
      <use x="965.046875" xlink:href="#DejaVuSans-20"/>
      <use x="996.833984375" xlink:href="#DejaVuSans-6f"/>
      <use x="1058.015625" xlink:href="#DejaVuSans-66"/>
      <use x="1093.22070312" xlink:href="#DejaVuSans-20"/>
      <use x="1125.0078125" xlink:href="#DejaVuSans-52"/>
      <use x="1192.24023438" xlink:href="#DejaVuSans-61"/>
      <use x="1253.51953125" xlink:href="#DejaVuSans-74"/>
      <use x="1292.72851562" xlink:href="#DejaVuSans-69"/>
      <use x="1320.51171875" xlink:href="#DejaVuSans-6e"/>
      <use x="1383.890625" xlink:href="#DejaVuSans-67"/>
      <use x="1447.3671875" xlink:href="#DejaVuSans-73"/>
     </g>
    </g>
   </g>
   <g id="matplotlib.axis_2">
    <g id="ytick_1">
     <g id="line2d_24">
      <defs>
       <path d="
M0 0
L4 0" id="me8a85f7bf6" style="stroke:#000000;stroke-linecap:butt;stroke-width:0.5;"/>
      </defs>
      <g>
       <use style="stroke:#000000;stroke-linecap:butt;stroke-width:0.5;" x="72.0" xlink:href="#me8a85f7bf6" y="388.8"/>
      </g>
     </g>
     <g id="line2d_25">
      <defs>
       <path d="
M0 0
L-4 0" id="m1a32005dea" style="stroke:#000000;stroke-linecap:butt;stroke-width:0.5;"/>
      </defs>
      <g>
       <use style="stroke:#000000;stroke-linecap:butt;stroke-width:0.5;" x="518.4" xlink:href="#m1a32005dea" y="388.8"/>
      </g>
     </g>
     <g id="text_12">
      <!-- 0 -->
      <g transform="translate(61.953125 393.1678125)scale(0.12 -0.12)">
       <use xlink:href="#DejaVuSans-30"/>
      </g>
     </g>
    </g>
    <g id="ytick_2">
     <g id="line2d_26">
      <g>
       <use style="stroke:#000000;stroke-linecap:butt;stroke-width:0.5;" x="72.0" xlink:href="#me8a85f7bf6" y="331.2"/>
      </g>
     </g>
     <g id="line2d_27">
      <g>
       <use style="stroke:#000000;stroke-linecap:butt;stroke-width:0.5;" x="518.4" xlink:href="#m1a32005dea" y="331.2"/>
      </g>
     </g>
     <g id="text_13">
      <!-- 100 -->
      <g transform="translate(47.21 335.5678125)scale(0.12 -0.12)">
       <use xlink:href="#DejaVuSans-31"/>
       <use x="63.623046875" xlink:href="#DejaVuSans-30"/>
       <use x="127.24609375" xlink:href="#DejaVuSans-30"/>
      </g>
     </g>
    </g>
    <g id="ytick_3">
     <g id="line2d_28">
      <g>
       <use style="stroke:#000000;stroke-linecap:butt;stroke-width:0.5;" x="72.0" xlink:href="#me8a85f7bf6" y="273.6"/>
      </g>
     </g>
     <g id="line2d_29">
      <g>
       <use style="stroke:#000000;stroke-linecap:butt;stroke-width:0.5;" x="518.4" xlink:href="#m1a32005dea" y="273.6"/>
      </g>
     </g>
     <g id="text_14">
      <!-- 200 -->
      <g transform="translate(46.77125 277.9678125)scale(0.12 -0.12)">
       <use xlink:href="#DejaVuSans-32"/>
       <use x="63.623046875" xlink:href="#DejaVuSans-30"/>
       <use x="127.24609375" xlink:href="#DejaVuSans-30"/>
      </g>
     </g>
    </g>
    <g id="ytick_4">
     <g id="line2d_30">
      <g>
       <use style="stroke:#000000;stroke-linecap:butt;stroke-width:0.5;" x="72.0" xlink:href="#me8a85f7bf6" y="216.0"/>
      </g>
     </g>
     <g id="line2d_31">
      <g>
       <use style="stroke:#000000;stroke-linecap:butt;stroke-width:0.5;" x="518.4" xlink:href="#m1a32005dea" y="216.0"/>
      </g>
     </g>
     <g id="text_15">
      <!-- 300 -->
      <g transform="translate(46.806875 220.3678125)scale(0.12 -0.12)">
       <use xlink:href="#DejaVuSans-33"/>
       <use x="63.623046875" xlink:href="#DejaVuSans-30"/>
       <use x="127.24609375" xlink:href="#DejaVuSans-30"/>
      </g>
     </g>
    </g>
    <g id="ytick_5">
     <g id="line2d_32">
      <g>
       <use style="stroke:#000000;stroke-linecap:butt;stroke-width:0.5;" x="72.0" xlink:href="#me8a85f7bf6" y="158.4"/>
      </g>
     </g>
     <g id="line2d_33">
      <g>
       <use style="stroke:#000000;stroke-linecap:butt;stroke-width:0.5;" x="518.4" xlink:href="#m1a32005dea" y="158.4"/>
      </g>
     </g>
     <g id="text_16">
      <!-- 400 -->
      <g transform="translate(46.47875 162.7678125)scale(0.12 -0.12)">
       <use xlink:href="#DejaVuSans-34"/>
       <use x="63.623046875" xlink:href="#DejaVuSans-30"/>
       <use x="127.24609375" xlink:href="#DejaVuSans-30"/>
      </g>
     </g>
    </g>
    <g id="ytick_6">
     <g id="line2d_34">
      <g>
       <use style="stroke:#000000;stroke-linecap:butt;stroke-width:0.5;" x="72.0" xlink:href="#me8a85f7bf6" y="100.8"/>
      </g>
     </g>
     <g id="line2d_35">
      <g>
       <use style="stroke:#000000;stroke-linecap:butt;stroke-width:0.5;" x="518.4" xlink:href="#m1a32005dea" y="100.8"/>
      </g>
     </g>
     <g id="text_17">
      <!-- 500 -->
      <g transform="translate(46.818125 105.1678125)scale(0.12 -0.12)">
       <use xlink:href="#DejaVuSans-35"/>
       <use x="63.623046875" xlink:href="#DejaVuSans-30"/>
       <use x="127.24609375" xlink:href="#DejaVuSans-30"/>
      </g>
     </g>
    </g>
    <g id="ytick_7">
     <g id="line2d_36">
      <g>
       <use style="stroke:#000000;stroke-linecap:butt;stroke-width:0.5;" x="72.0" xlink:href="#me8a85f7bf6" y="43.2"/>
      </g>
     </g>
     <g id="line2d_37">
      <g>
       <use style="stroke:#000000;stroke-linecap:butt;stroke-width:0.5;" x="518.4" xlink:href="#m1a32005dea" y="43.2"/>
      </g>
     </g>
     <g id="text_18">
      <!-- 600 -->
      <defs>
       <path d="
M33.0156 40.375
Q26.375 40.375 22.4844 35.8281
Q18.6094 31.2969 18.6094 23.3906
Q18.6094 15.5312 22.4844 10.9531
Q26.375 6.39062 33.0156 6.39062
Q39.6562 6.39062 43.5312 10.9531
Q47.4062 15.5312 47.4062 23.3906
Q47.4062 31.2969 43.5312 35.8281
Q39.6562 40.375 33.0156 40.375
M52.5938 71.2969
L52.5938 62.3125
Q48.875 64.0625 45.0938 64.9844
Q41.3125 65.9219 37.5938 65.9219
Q27.8281 65.9219 22.6719 59.3281
Q17.5312 52.7344 16.7969 39.4062
Q19.6719 43.6562 24.0156 45.9219
Q28.375 48.1875 33.5938 48.1875
Q44.5781 48.1875 50.9531 41.5156
Q57.3281 34.8594 57.3281 23.3906
Q57.3281 12.1562 50.6875 5.35938
Q44.0469 -1.42188 33.0156 -1.42188
Q20.3594 -1.42188 13.6719 8.26562
Q6.98438 17.9688 6.98438 36.375
Q6.98438 53.6562 15.1875 63.9375
Q23.3906 74.2188 37.2031 74.2188
Q40.9219 74.2188 44.7031 73.4844
Q48.4844 72.75 52.5938 71.2969" id="DejaVuSans-36"/>
      </defs>
      <g transform="translate(46.73 47.5678125)scale(0.12 -0.12)">
       <use xlink:href="#DejaVuSans-36"/>
       <use x="63.623046875" xlink:href="#DejaVuSans-30"/>
       <use x="127.24609375" xlink:href="#DejaVuSans-30"/>
      </g>
     </g>
    </g>
    <g id="text_19">
     <!-- Number of clips with a lower standard deviation -->
     <defs>
      <path d="
M9.8125 72.9062
L23.0938 72.9062
L55.4219 11.9219
L55.4219 72.9062
L64.9844 72.9062
L64.9844 0
L51.7031 0
L19.3906 60.9844
L19.3906 0
L9.8125 0
z
" id="DejaVuSans-4e"/>
      <path d="
M52 44.1875
Q55.375 50.25 60.0625 53.125
Q64.75 56 71.0938 56
Q79.6406 56 84.2812 50.0156
Q88.9219 44.0469 88.9219 33.0156
L88.9219 0
L79.8906 0
L79.8906 32.7188
Q79.8906 40.5781 77.0938 44.375
Q74.3125 48.1875 68.6094 48.1875
Q61.625 48.1875 57.5625 43.5469
Q53.5156 38.9219 53.5156 30.9062
L53.5156 0
L44.4844 0
L44.4844 32.7188
Q44.4844 40.625 41.7031 44.4062
Q38.9219 48.1875 33.1094 48.1875
Q26.2188 48.1875 22.1562 43.5312
Q18.1094 38.875 18.1094 30.9062
L18.1094 0
L9.07812 0
L9.07812 54.6875
L18.1094 54.6875
L18.1094 46.1875
Q21.1875 51.2188 25.4844 53.6094
Q29.7812 56 35.6875 56
Q41.6562 56 45.8281 52.9688
Q50 49.9531 52 44.1875" id="DejaVuSans-6d"/>
      <path d="
M9.42188 75.9844
L18.4062 75.9844
L18.4062 0
L9.42188 0
z
" id="DejaVuSans-6c"/>
      <path d="
M18.1094 8.20312
L18.1094 -20.7969
L9.07812 -20.7969
L9.07812 54.6875
L18.1094 54.6875
L18.1094 46.3906
Q20.9531 51.2656 25.2656 53.625
Q29.5938 56 35.5938 56
Q45.5625 56 51.7812 48.0938
Q58.0156 40.1875 58.0156 27.2969
Q58.0156 14.4062 51.7812 6.48438
Q45.5625 -1.42188 35.5938 -1.42188
Q29.5938 -1.42188 25.2656 0.953125
Q20.9531 3.32812 18.1094 8.20312
M48.6875 27.2969
Q48.6875 37.2031 44.6094 42.8438
Q40.5312 48.4844 33.4062 48.4844
Q26.2656 48.4844 22.1875 42.8438
Q18.1094 37.2031 18.1094 27.2969
Q18.1094 17.3906 22.1875 11.75
Q26.2656 6.10938 33.4062 6.10938
Q40.5312 6.10938 44.6094 11.75
Q48.6875 17.3906 48.6875 27.2969" id="DejaVuSans-70"/>
      <path d="
M54.8906 33.0156
L54.8906 0
L45.9062 0
L45.9062 32.7188
Q45.9062 40.4844 42.875 44.3281
Q39.8438 48.1875 33.7969 48.1875
Q26.5156 48.1875 22.3125 43.5469
Q18.1094 38.9219 18.1094 30.9062
L18.1094 0
L9.07812 0
L9.07812 75.9844
L18.1094 75.9844
L18.1094 46.1875
Q21.3438 51.125 25.7031 53.5625
Q30.0781 56 35.7969 56
Q45.2188 56 50.0469 50.1719
Q54.8906 44.3438 54.8906 33.0156" id="DejaVuSans-68"/>
      <path d="
M8.5 21.5781
L8.5 54.6875
L17.4844 54.6875
L17.4844 21.9219
Q17.4844 14.1562 20.5 10.2656
Q23.5312 6.39062 29.5938 6.39062
Q36.8594 6.39062 41.0781 11.0312
Q45.3125 15.6719 45.3125 23.6875
L45.3125 54.6875
L54.2969 54.6875
L54.2969 0
L45.3125 0
L45.3125 8.40625
Q42.0469 3.42188 37.7188 1
Q33.4062 -1.42188 27.6875 -1.42188
Q18.2656 -1.42188 13.375 4.4375
Q8.5 10.2969 8.5 21.5781
M31.1094 56
z
" id="DejaVuSans-75"/>
      <path d="
M4.20312 54.6875
L13.1875 54.6875
L24.4219 12.0156
L35.5938 54.6875
L46.1875 54.6875
L57.4219 12.0156
L68.6094 54.6875
L77.5938 54.6875
L63.2812 0
L52.6875 0
L40.9219 44.8281
L29.1094 0
L18.5 0
z
" id="DejaVuSans-77"/>
      <path d="
M48.6875 27.2969
Q48.6875 37.2031 44.6094 42.8438
Q40.5312 48.4844 33.4062 48.4844
Q26.2656 48.4844 22.1875 42.8438
Q18.1094 37.2031 18.1094 27.2969
Q18.1094 17.3906 22.1875 11.75
Q26.2656 6.10938 33.4062 6.10938
Q40.5312 6.10938 44.6094 11.75
Q48.6875 17.3906 48.6875 27.2969
M18.1094 46.3906
Q20.9531 51.2656 25.2656 53.625
Q29.5938 56 35.5938 56
Q45.5625 56 51.7812 48.0938
Q58.0156 40.1875 58.0156 27.2969
Q58.0156 14.4062 51.7812 6.48438
Q45.5625 -1.42188 35.5938 -1.42188
Q29.5938 -1.42188 25.2656 0.953125
Q20.9531 3.32812 18.1094 8.20312
L18.1094 0
L9.07812 0
L9.07812 75.9844
L18.1094 75.9844
z
" id="DejaVuSans-62"/>
      <path d="
M48.7812 52.5938
L48.7812 44.1875
Q44.9688 46.2969 41.1406 47.3438
Q37.3125 48.3906 33.4062 48.3906
Q24.6562 48.3906 19.8125 42.8438
Q14.9844 37.3125 14.9844 27.2969
Q14.9844 17.2812 19.8125 11.7344
Q24.6562 6.20312 33.4062 6.20312
Q37.3125 6.20312 41.1406 7.25
Q44.9688 8.29688 48.7812 10.4062
L48.7812 2.09375
Q45.0156 0.34375 40.9844 -0.53125
Q36.9688 -1.42188 32.4219 -1.42188
Q20.0625 -1.42188 12.7812 6.34375
Q5.51562 14.1094 5.51562 27.2969
Q5.51562 40.6719 12.8594 48.3281
Q20.2188 56 33.0156 56
Q37.1562 56 41.1094 55.1406
Q45.0625 54.2969 48.7812 52.5938" id="DejaVuSans-63"/>
     </defs>
     <g transform="translate(41.47875 357.10875)rotate(-90.0)scale(0.12 -0.12)">
      <use xlink:href="#DejaVuSans-4e"/>
      <use x="74.8046875" xlink:href="#DejaVuSans-75"/>
      <use x="138.18359375" xlink:href="#DejaVuSans-6d"/>
      <use x="235.595703125" xlink:href="#DejaVuSans-62"/>
      <use x="299.072265625" xlink:href="#DejaVuSans-65"/>
      <use x="360.595703125" xlink:href="#DejaVuSans-72"/>
      <use x="401.708984375" xlink:href="#DejaVuSans-20"/>
      <use x="433.49609375" xlink:href="#DejaVuSans-6f"/>
      <use x="494.677734375" xlink:href="#DejaVuSans-66"/>
      <use x="529.8828125" xlink:href="#DejaVuSans-20"/>
      <use x="561.669921875" xlink:href="#DejaVuSans-63"/>
      <use x="616.650390625" xlink:href="#DejaVuSans-6c"/>
      <use x="644.43359375" xlink:href="#DejaVuSans-69"/>
      <use x="672.216796875" xlink:href="#DejaVuSans-70"/>
      <use x="735.693359375" xlink:href="#DejaVuSans-73"/>
      <use x="787.79296875" xlink:href="#DejaVuSans-20"/>
      <use x="819.580078125" xlink:href="#DejaVuSans-77"/>
      <use x="901.3671875" xlink:href="#DejaVuSans-69"/>
      <use x="929.150390625" xlink:href="#DejaVuSans-74"/>
      <use x="968.359375" xlink:href="#DejaVuSans-68"/>
      <use x="1031.73828125" xlink:href="#DejaVuSans-20"/>
      <use x="1063.52539062" xlink:href="#DejaVuSans-61"/>
      <use x="1124.8046875" xlink:href="#DejaVuSans-20"/>
      <use x="1156.59179688" xlink:href="#DejaVuSans-6c"/>
      <use x="1184.375" xlink:href="#DejaVuSans-6f"/>
      <use x="1245.55664062" xlink:href="#DejaVuSans-77"/>
      <use x="1327.34375" xlink:href="#DejaVuSans-65"/>
      <use x="1388.8671875" xlink:href="#DejaVuSans-72"/>
      <use x="1429.98046875" xlink:href="#DejaVuSans-20"/>
      <use x="1461.76757812" xlink:href="#DejaVuSans-73"/>
      <use x="1513.8671875" xlink:href="#DejaVuSans-74"/>
      <use x="1553.07617188" xlink:href="#DejaVuSans-61"/>
      <use x="1614.35546875" xlink:href="#DejaVuSans-6e"/>
      <use x="1677.734375" xlink:href="#DejaVuSans-64"/>
      <use x="1741.2109375" xlink:href="#DejaVuSans-61"/>
      <use x="1802.49023438" xlink:href="#DejaVuSans-72"/>
      <use x="1841.85351562" xlink:href="#DejaVuSans-64"/>
      <use x="1905.33007812" xlink:href="#DejaVuSans-20"/>
      <use x="1937.1171875" xlink:href="#DejaVuSans-64"/>
      <use x="2000.59375" xlink:href="#DejaVuSans-65"/>
      <use x="2062.1171875" xlink:href="#DejaVuSans-76"/>
      <use x="2121.296875" xlink:href="#DejaVuSans-69"/>
      <use x="2149.08007812" xlink:href="#DejaVuSans-61"/>
      <use x="2210.359375" xlink:href="#DejaVuSans-74"/>
      <use x="2249.56835938" xlink:href="#DejaVuSans-69"/>
      <use x="2277.3515625" xlink:href="#DejaVuSans-6f"/>
      <use x="2338.53320312" xlink:href="#DejaVuSans-6e"/>
     </g>
    </g>
   </g>
   <g id="patch_3">
    <path d="
M72 43.2
L518.4 43.2" style="fill:none;stroke:#000000;"/>
   </g>
   <g id="patch_4">
    <path d="
M518.4 388.8
L518.4 43.2" style="fill:none;stroke:#000000;"/>
   </g>
   <g id="patch_5">
    <path d="
M72 388.8
L518.4 388.8" style="fill:none;stroke:#000000;"/>
   </g>
   <g id="patch_6">
    <path d="
M72 388.8
L72 43.2" style="fill:none;stroke:#000000;"/>
   </g>
   <g id="text_20">
    <!-- agree -->
    <g transform="translate(275.374125 38.2)scale(0.144 -0.144)">
     <use xlink:href="#DejaVuSans-61"/>
     <use x="61.279296875" xlink:href="#DejaVuSans-67"/>
     <use x="124.755859375" xlink:href="#DejaVuSans-72"/>
     <use x="163.619140625" xlink:href="#DejaVuSans-65"/>
     <use x="225.142578125" xlink:href="#DejaVuSans-65"/>
    </g>
   </g>
   <g id="legend_1">
    <g id="patch_7">
     <path d="
M429.538 381.6
L511.2 381.6
L511.2 316.661
L429.538 316.661
L429.538 381.6
z
" style="fill:#ffffff;stroke:#000000;"/>
    </g>
    <g id="line2d_38">
     <path d="
M439.618 328.322
L459.779 328.322" style="fill:none;stroke:#0000ff;"/>
    </g>
    <g id="line2d_39"/>
    <g id="text_21">
     <!-- IND -->
     <defs>
      <path d="
M9.8125 72.9062
L19.6719 72.9062
L19.6719 0
L9.8125 0
z
" id="DejaVuSans-49"/>
     </defs>
     <g transform="translate(475.6185 333.36225)scale(0.144 -0.144)">
      <use xlink:href="#DejaVuSans-49"/>
      <use x="29.4921875" xlink:href="#DejaVuSans-4e"/>
      <use x="104.296875" xlink:href="#DejaVuSans-44"/>
     </g>
    </g>
    <g id="line2d_40">
     <path d="
M439.618 349.459
L459.779 349.459" style="fill:none;stroke:#008000;"/>
    </g>
    <g id="line2d_41"/>
    <g id="text_22">
     <!-- KEN -->
     <defs>
      <path d="
M9.8125 72.9062
L55.9062 72.9062
L55.9062 64.5938
L19.6719 64.5938
L19.6719 43.0156
L54.3906 43.0156
L54.3906 34.7188
L19.6719 34.7188
L19.6719 8.29688
L56.7812 8.29688
L56.7812 0
L9.8125 0
z
" id="DejaVuSans-45"/>
      <path d="
M9.8125 72.9062
L19.6719 72.9062
L19.6719 42.0938
L52.3906 72.9062
L65.0938 72.9062
L28.9062 38.9219
L67.6719 0
L54.6875 0
L19.6719 35.1094
L19.6719 0
L9.8125 0
z
" id="DejaVuSans-4b"/>
     </defs>
     <g transform="translate(475.6185 354.49875)scale(0.144 -0.144)">
      <use xlink:href="#DejaVuSans-4b"/>
      <use x="65.576171875" xlink:href="#DejaVuSans-45"/>
      <use x="128.759765625" xlink:href="#DejaVuSans-4e"/>
     </g>
    </g>
    <g id="line2d_42">
     <path d="
M439.618 370.595
L459.779 370.595" style="fill:none;stroke:#ff0000;"/>
    </g>
    <g id="line2d_43"/>
    <g id="text_23">
     <!-- GBR -->
     <defs>
      <path d="
M59.5156 10.4062
L59.5156 29.9844
L43.4062 29.9844
L43.4062 38.0938
L69.2812 38.0938
L69.2812 6.78125
Q63.5781 2.73438 56.6875 0.65625
Q49.8125 -1.42188 42 -1.42188
Q24.9062 -1.42188 15.25 8.5625
Q5.60938 18.5625 5.60938 36.375
Q5.60938 54.25 15.25 64.2344
Q24.9062 74.2188 42 74.2188
Q49.125 74.2188 55.5469 72.4531
Q61.9688 70.7031 67.3906 67.2812
L67.3906 56.7812
Q61.9219 61.4219 55.7656 63.7656
Q49.6094 66.1094 42.8281 66.1094
Q29.4375 66.1094 22.7188 58.6406
Q16.0156 51.1719 16.0156 36.375
Q16.0156 21.625 22.7188 14.1562
Q29.4375 6.6875 42.8281 6.6875
Q48.0469 6.6875 52.1406 7.59375
Q56.25 8.5 59.5156 10.4062" id="DejaVuSans-47"/>
      <path d="
M19.6719 34.8125
L19.6719 8.10938
L35.5 8.10938
Q43.4531 8.10938 47.2812 11.4062
Q51.125 14.7031 51.125 21.4844
Q51.125 28.3281 47.2812 31.5625
Q43.4531 34.8125 35.5 34.8125
z

M19.6719 64.7969
L19.6719 42.8281
L34.2812 42.8281
Q41.5 42.8281 45.0312 45.5312
Q48.5781 48.25 48.5781 53.8125
Q48.5781 59.3281 45.0312 62.0625
Q41.5 64.7969 34.2812 64.7969
z

M9.8125 72.9062
L35.0156 72.9062
Q46.2969 72.9062 52.3906 68.2188
Q58.5 63.5312 58.5 54.8906
Q58.5 48.1875 55.375 44.2344
Q52.25 40.2812 46.1875 39.3125
Q53.4688 37.75 57.5 32.7812
Q61.5312 27.8281 61.5312 20.4062
Q61.5312 10.6406 54.8906 5.3125
Q48.25 0 35.9844 0
L9.8125 0
z
" id="DejaVuSans-42"/>
     </defs>
     <g transform="translate(475.6185 375.63525)scale(0.144 -0.144)">
      <use xlink:href="#DejaVuSans-47"/>
      <use x="77.490234375" xlink:href="#DejaVuSans-42"/>
      <use x="146.09375" xlink:href="#DejaVuSans-52"/>
     </g>
    </g>
   </g>
  </g>
 </g>
 <defs>
  <clipPath id="p7ff5b81e1d">
   <rect height="345.6" width="446.4" x="72.0" y="43.2"/>
  </clipPath>
 </defs>
</svg>
